<?xml version="1.0" encoding="iso-8859-1"?>
<!-- Uploaded to: SVG Repo, www.svgrepo.com, Generator: SVG Repo Mixer Tools -->
<!DOCTYPE svg PUBLIC "-//W3C//DTD SVG 1.1//EN" "http://www.w3.org/Graphics/SVG/1.1/DTD/svg11.dtd">
<svg fill="#000000" height="800px" width="800px" version="1.1" id="Capa_1" xmlns="http://www.w3.org/2000/svg" xmlns:xlink="http://www.w3.org/1999/xlink" 
	 viewBox="0 0 417.008 417.008" xml:space="preserve">
<g>
	<path d="M296.728,44.112c-38.687,0-72.22,22.477-88.224,55.062C192.5,66.59,158.967,44.112,120.28,44.112
		C53.958,44.112,0,98.069,0,164.392c0,114.97,93.534,208.504,208.504,208.504s208.504-93.534,208.504-208.504
		C417.008,98.069,363.05,44.112,296.728,44.112z M208.504,352.896C104.563,352.896,20,268.333,20,164.392
		c0-55.294,44.985-100.279,100.28-100.279c43.133,0,78.224,35.091,78.224,78.224c0,33.403-27.176,60.579-60.579,60.579
		c-25.62,0-46.463-20.843-46.463-46.463c0-19.394,15.777-35.171,35.17-35.171c14.412,0,26.137,11.725,26.137,26.137
		c0,5.522,4.478,10,10,10c5.523,0,10-4.478,10-10c0-25.439-20.697-46.137-46.137-46.137c-30.421,0-55.17,24.75-55.17,55.171
		c0,36.647,29.815,66.463,66.463,66.463c30.354,0,56.842-16.87,70.579-41.727c13.737,24.857,40.225,41.727,70.579,41.727
		c36.647,0,66.463-29.815,66.463-66.463c0-30.421-24.75-55.171-55.171-55.171c-25.44,0-46.136,20.697-46.136,46.137
		c0,5.522,4.477,10,10,10c5.522,0,10-4.478,10-10c0-14.412,11.725-26.137,26.136-26.137c19.393,0,35.171,15.777,35.171,35.171
		c0,25.62-20.843,46.463-46.463,46.463c-33.403,0-60.579-27.176-60.579-60.579c0-43.133,35.091-78.224,78.224-78.224
		c55.295,0,100.28,44.985,100.28,100.279C397.008,268.333,312.445,352.896,208.504,352.896z"/>
	<path d="M304.631,260.518c-25.676,25.677-59.814,39.817-96.127,39.817s-70.451-14.141-96.127-39.817
		c-3.906-3.904-10.236-3.904-14.143,0c-3.905,3.905-3.905,10.237,0,14.143c29.454,29.454,68.615,45.675,110.27,45.675
		s80.815-16.221,110.27-45.675c3.905-3.905,3.905-10.237,0-14.143C314.867,256.614,308.537,256.614,304.631,260.518z"/>
</g>
</svg>