<?xml version="1.0" ?><!-- Uploaded to: SVG Repo, www.svgrepo.com, Generator: SVG Repo Mixer Tools -->
<svg fill="#000000" width="800px" height="800px" viewBox="0 0 512 512" id="icon" version="1.1" xml:space="preserve" xmlns="http://www.w3.org/2000/svg" xmlns:xlink="http://www.w3.org/1999/xlink"><path d="M452.1167908,251.289093c-2.4458923-14.5773926-20.1077881-34.0348969-36.3049011-44.3969879  c1.5022888-3.0998993,2.456604-7.8215027-0.134491-14.0727997c-6.3585205-15.3379059-31.7113037-32.385498-51.8110962-38.7640991  c-0.5385132-2.0274048-1.5321045-4.2307129-3.2261047-6.5540009c-9.5298157-13.0620117-36.0429993-22.9848022-56.7084045-25.0388031  c-0.4472961-15.2876053-22.5993958-21.6427994-43.5845032-22.4778061l-8.9068909,0.0051041  c-20.7751007,0.8299026-42.9248047,7.1850967-43.3721008,22.472702  c-20.6654053,2.0540009-47.1786041,11.9767914-56.7084045,25.0388031c-1.6936951,2.323288-2.6875916,4.5265961-3.2261047,6.5540009  c-20.0992889,6.3786011-45.4500885,23.4254913-51.8085861,38.7587891  c-2.5908051,6.2566071-1.637001,10.9782104-0.1347046,14.0781097  c-16.1972961,10.3647003-33.8612976,29.8235016-36.3072968,44.4020996  c-1.1795998,7.0417023,1.3064003,11.4084015,3.5984001,13.8350067c0.1889,0.1966858,0.3905983,0.377594,0.6053963,0.5484924  l134.0834961,103.7879028l-4.9877014,16.5304871c-0.0596008,0.1965027-0.1060028,0.3981934-0.1422119,0.6000977  c-0.191391,1.0710144-1.6944885,10.689209,4.4648132,18.0413208c4.0979004,4.8945007,10.3452911,7.3778992,18.5691986,7.3778992  h79.8509064c8.223877,0,14.471283-2.4833984,18.5688782-7.3778992c6.1596069-7.3521118,4.6592102-16.9703064,4.4676208-18.0413208  c-0.0362244-0.2019043-0.0826111-0.403595-0.1422119-0.6000977l-4.9902039-16.5304871l134.0834961-103.7879028  c0.2146912-0.1708984,0.4165039-0.3518066,0.6053162-0.5484924  C450.8104858,262.7026062,453.2964783,258.335907,452.1167908,251.289093z M441.0394897,257.5961914l-136.5797119,105.717804  c-1.7358704,1.3449097-2.4627686,3.6214905-1.8289795,5.7218933l5.9268799,19.6350098  c0.1342163,1.1436157,0.5067139,5.9966125-2.224884,9.2095032c-1.9945984,2.3490906-5.4971924,3.5387878-10.4072876,3.5387878  h-79.8509064c-4.9101105,0-8.4127045-1.1896973-10.4073029-3.5387878c-2.7445068-3.228302-2.3515015-8.1178894-2.2246094-9.2044067  l5.9266052-19.6401062c0.633606-2.1004028-0.0932922-4.3769836-1.8289948-5.7218933L70.9602966,257.5961914  c-0.4317932-0.5434875-1.0914993-1.7799988-0.6259003-4.5529938c1.8045044-10.7597961,17.1854019-28.415802,32.3237-37.7272949  L216.1753998,355.040802c1.0477905,1.2882996,2.5764923,1.9555054,4.1158905,1.9555054  c1.174408,0,2.3567047-0.3879089,3.337204-1.1848145c2.2713013-1.8468933,2.6179962-5.184082,0.7734985-7.4555054  L105.7003937,202.2512054c-0.3595963-0.7295074-0.845993-2.3335114,0.4140015-5.3757019  C110.6240005,186,131.0652924,171.1226044,149.3829956,164.8013l79.4400024,168.8507996  c0.9028015,1.9194031,2.8092957,3.0419922,4.7962036,3.0419922c0.7553864,0,1.5236969-0.1601868,2.2532959-0.5016785  c2.6463013-1.2468262,3.7846985-4.4031067,2.5375977-7.052002l-80.1380005-170.3342133  c-0.1707001-0.7915955-0.258606-2.4470978,1.6479034-5.0598907c6.8392944-9.3776093,30.3130951-18.9941101,49.6042023-20.7888031  l27.592392,177.2516937c0.4501953,2.8869934,3.1432037,4.8377075,6.0509949,4.4184875  c2.8921051-0.4501953,4.871109-3.1610718,4.4210052-6.0534973L218.635498,122.5994034  c0.4761963-5.3289032,12.8235931-11.2063065,33.0172882-12.0188065l8.4824982-0.005394  c20.4030151,0.817894,32.7531128,6.6952972,33.2290955,12.0242004l-28.9529724,185.9747925  c-0.4500122,2.8924255,1.5289917,5.603302,4.4210815,6.0534973c0.2767029,0.0415039,0.5512085,0.0620117,0.8226929,0.0620117  c2.5663147,0,4.819519-1.8677063,5.2282104-4.4804993l27.5924988-177.2516937  c19.2911072,1.794693,42.7648926,11.4111938,49.604187,20.7888031c1.9065247,2.612793,1.8186035,4.2682953,1.6479187,5.0598907  l-80.1380005,170.3342133c-1.2471008,2.6488953-0.1087036,5.8051758,2.5375977,7.052002  c0.7296143,0.3414917,1.4978943,0.5016785,2.2532959,0.5016785c1.986908,0,3.8934021-1.1225891,4.7962036-3.0419922  l79.4397888-168.8513031c18.318512,6.3218079,38.7617188,21.1992035,43.2713013,32.074707  c1.2600098,3.0421906,0.7736206,4.6461945,0.4140015,5.3757019L287.5980835,348.3559875  c-1.8443909,2.2714233-1.4978027,5.6086121,0.7734985,7.4555054c0.9804993,0.7969055,2.1628113,1.1848145,3.3372192,1.1848145  c1.5391846,0,3.0680847-0.6672058,4.1156921-1.9555054l113.5195923-139.7243958  c15.1371155,9.3092957,30.5172119,26.9677887,32.3215942,37.7267914  C442.1312866,255.8161926,441.4715881,257.0527039,441.0394897,257.5961914z"/></svg>