<?xml version="1.0" encoding="iso-8859-1"?>
<!-- Uploaded to: SVG Repo, www.svgrepo.com, Generator: SVG Repo Mixer Tools -->
<svg fill="#000000" height="800px" width="800px" version="1.1" id="Layer_1" xmlns="http://www.w3.org/2000/svg" xmlns:xlink="http://www.w3.org/1999/xlink" 
	 viewBox="0 0 512 512" xml:space="preserve">
<g>
	<g>
		<g>
			<path d="M359.445,433.066l3.371,19.392c18.603-5.888,36.693-13.312,54.123-22.357L307.371,199.316L359.445,433.066z"/>
			<path d="M488.64,273.313L362.667,136.374V85.43c0-24.32-18.325-42.667-42.688-42.667l-59.243,0.064L192,42.764
				c-24.32,0-42.667,18.347-42.667,42.667v50.965L24.043,272.652C8.555,286.988,0,306.145,0,326.646
				c0,20.501,8.555,39.659,24.043,53.973c8.96,8.277,18.389,15.808,28.075,22.933l117.952-232.917
				c0.213,0.021,0.384,0.128,0.597,0.128h170.368l112.555,237.077c11.904-8.32,23.509-17.195,34.368-27.221
				C503.467,366.305,512,347.148,512,326.646C512,306.444,503.723,287.542,488.64,273.313z M320,89.974v38.123h-31.68H192V89.974
				l-0.021,0.021V85.43l59.285,0.064h0.021L320,85.43V89.974z"/>
			<path d="M258.112,174.41h-1.792H256h-0.192h-1.899L194.24,442.335l-5.141,20.416c22.059,4.224,44.459,6.485,66.901,6.485
				c21.931,0,43.819-2.112,65.365-6.144l-3.776-21.739L258.112,174.41z"/>
			<path d="M88.367,426.433c19.029,10.475,38.933,19.008,59.435,25.6l4.907-19.52l52.949-237.717L88.367,426.433z"/>
		</g>
	</g>
</g>
</svg>