<?xml version="1.0" encoding="iso-8859-1"?>
<!-- Uploaded to: SVG Repo, www.svgrepo.com, Generator: SVG Repo Mixer Tools -->
<svg fill="#000000" height="800px" width="800px" version="1.1" id="Layer_1" xmlns="http://www.w3.org/2000/svg" xmlns:xlink="http://www.w3.org/1999/xlink" 
	 viewBox="0 0 512 512" xml:space="preserve">
<g>
	<g>
		<path d="M270.742,189.128l-0.268-0.001c-0.014,0-0.027,0-0.041,0c-5.751,0-10.426,4.652-10.448,10.409
			c-0.022,5.771,4.638,10.467,10.409,10.489h0.267c0.014,0,0.027,0,0.041,0c5.751,0,10.426-4.652,10.448-10.408
			C281.174,193.845,276.513,189.15,270.742,189.128z"/>
	</g>
</g>
<g>
	<g>
		<path d="M342.4,117.029c-5.771,0-10.449,4.678-10.449,10.449c0,23.215-12.837,44.237-33.499,54.863
			c-5.133,2.639-7.153,8.939-4.514,14.071c1.853,3.604,5.51,5.673,9.301,5.673c1.609,0,3.242-0.372,4.77-1.159
			c27.659-14.223,44.841-42.367,44.841-73.448C352.85,121.707,348.171,117.029,342.4,117.029z"/>
	</g>
</g>
<g>
	<g>
		<path d="M396.921,112.717C389.582,49.355,335.601,0,270.303,0c-29.114,0-57.585,10.073-80.17,28.364
			c-19.742,15.989-34.325,37.651-41.727,61.74c-2.098-0.161-4.201-0.241-6.296-0.241c-45.517,0-82.547,37.03-82.547,82.547
			c0,21.193,8.034,40.541,21.209,55.173L247.02,506.897c1.885,3.164,5.297,5.103,8.98,5.103c3.683,0,7.095-1.939,8.979-5.104
			l158.483-266.267c17.578-13.16,28.975-34.147,28.975-57.746C452.437,149.082,429.085,120.265,396.921,112.717z M80.461,172.408
			c0-33.994,27.655-61.649,61.649-61.649c4.003,0,8.039,0.396,12.001,1.177c5.553,1.097,10.972-2.434,12.215-7.958
			c10.829-48.141,54.558-83.08,103.977-83.08c58.768,0,106.58,47.811,106.58,106.58s-47.811,106.58-106.58,106.58H142.11
			C108.118,234.057,80.461,206.402,80.461,172.408z M147.507,298.841h51.135l-32.055,32.055L147.507,298.841z M177.614,349.424
			l8.487-8.487l20.196,20.196l-13.611,13.611L177.614,349.424z M256.131,340.854l20.279,20.279l-20.28,20.28l-20.279-20.28
			L256.131,340.854z M243.673,298.841h24.916l-12.457,12.457L243.673,298.841z M270.909,326.076l20.196-20.196l20.279,20.279
			l-20.196,20.196L270.909,326.076z M221.073,346.357l-20.196-20.196l20.28-20.28l20.196,20.196L221.073,346.357z M203.712,393.272
			l17.361-17.361l20.279,20.28l-22.507,22.507L203.712,393.272z M256,481.121l-26.127-43.895l26.257-26.257l26.093,26.093
			L256,481.121z M293.252,418.535l-22.343-22.343l20.28-20.28l17.197,17.197L293.252,418.535z M319.413,374.581l-13.447-13.447
			l20.196-20.196l8.323,8.323L319.413,374.581z M345.511,330.733l-31.892-31.892h50.874L345.511,330.733z M376.931,277.943H135.069
			l-15.572-26.163c7.192,2.052,14.773,3.175,22.615,3.175l238.227,0.025c3.649,0,7.234-0.278,10.738-0.804L376.931,277.943z
			 M380.339,234.082h-40.22c32.826-21.57,55.14-57.874,57.457-99.432c19.975,7.109,33.963,26.18,33.963,48.232
			C431.539,211.114,408.571,234.082,380.339,234.082z"/>
	</g>
</g>
</svg>