<?xml version="1.0" encoding="iso-8859-1"?>
<!-- Uploaded to: SVG Repo, www.svgrepo.com, Generator: SVG Repo Mixer Tools -->
<svg fill="#000000" height="800px" width="800px" version="1.1" id="Layer_1" xmlns="http://www.w3.org/2000/svg" xmlns:xlink="http://www.w3.org/1999/xlink" 
	 viewBox="0 0 512 512" xml:space="preserve">
<g>
	<g>
		<path d="M417.689,372.77L306.824,40.158C301.141,20.164,281.907,0,256,0c-22.852,0-43.264,16.119-50.756,39.97L94.31,372.77
			c-0.879,2.603-0.435,5.461,1.169,7.689c1.604,2.227,4.181,3.541,6.921,3.541h119.467v102.4c0,14.114,11.486,25.6,25.6,25.6h17.067
			c14.114,0,25.6-11.486,25.6-25.6V384H409.6c2.739,0,5.316-1.314,6.929-3.55C418.125,378.232,418.568,375.373,417.689,372.77z
			 M221.474,45.227c4.403-14.02,16.794-28.16,34.526-28.16c17.306,0,30.669,14.37,34.449,27.896
			c0.034,0.137,0.077,0.273,0.128,0.401l76.484,229.461c-2.193,1.015-3.849,2.33-5.035,3.533
			c-7.287,7.381-7.142,19.985-6.997,32.179c0.085,7.467,0.213,18.765-2.577,21.581c-0.171,0.171-0.614,0.717-3.029,0.631
			c-0.819-0.367-2.586-3.729-3.533-5.521c-3.959-7.492-10.564-20.028-30.157-20.028c-14.797,0-21.282,8.943-26.018,15.471
			c-4.582,6.315-7.347,10.129-16.649,10.129c-7.014,0-11.844-8.405-18.406-21.231c-7.194-14.046-15.352-29.969-32.794-29.969
			c-22.716,0-30.686,16.06-36.497,27.793c-5.35,10.795-8.013,14.874-14.703,14.874c-3.098,0-7.663-1.493-10.351-4.779
			c-1.954-2.381-2.551-5.333-1.818-9.02l0.333-1.553c1.638-7.552,5.504-25.242-3.337-36.207c-1.664-2.065-4.267-4.267-7.885-5.896
			L221.474,45.227z M273.066,486.4c0,4.702-3.823,8.533-8.533,8.533h-17.067c-4.71,0-8.533-3.831-8.533-8.533V384h34.133V486.4z
			 M114.244,366.933l27.87-83.618c0.026,0.026,0.077,0.077,0.094,0.102c2.466,3.055,2.44,10.419-0.051,21.871l-0.393,1.835
			c-2.219,11.068,1.681,18.722,5.35,23.185c5.581,6.801,14.601,11.025,23.552,11.025c17.911,0,24.892-14.08,29.995-24.354
			c5.794-11.699,9.643-18.313,21.205-18.313c6.519,0,11.204,8.192,17.604,20.685c6.955,13.594,15.625,30.515,33.596,30.515
			c17.997,0,25.199-9.933,30.456-17.178c4.352-5.99,6.357-8.422,12.211-8.422c9.301,0,11.469,4.113,15.061,10.923
			c3.081,5.845,7.74,14.677,19.072,14.677c7.475,0,12.134-3.123,14.729-5.743c7.799-7.885,7.646-21.052,7.501-33.775
			c-0.068-5.257-0.137-13.252,0.973-17.502l24.687,74.086H114.244z"/>
	</g>
</g>
<g>
	<g>
		<path d="M247.467,51.2c-4.719,0-8.533,3.823-8.533,8.533v25.6c0,4.71,3.814,8.533,8.533,8.533S256,90.044,256,85.333v-25.6
			C256,55.023,252.185,51.2,247.467,51.2z"/>
	</g>
</g>
<g>
	<g>
		<path d="M221.866,128c-4.719,0-8.533,3.823-8.533,8.533v25.6c0,4.71,3.814,8.533,8.533,8.533s8.533-3.823,8.533-8.533v-25.6
			C230.4,131.823,226.585,128,221.866,128z"/>
	</g>
</g>
<g>
	<g>
		<path d="M273.066,110.933c-4.719,0-8.533,3.823-8.533,8.533v25.6c0,4.71,3.814,8.533,8.533,8.533s8.533-3.823,8.533-8.533v-25.6
			C281.6,114.756,277.785,110.933,273.066,110.933z"/>
	</g>
</g>
<g>
	<g>
		<path d="M247.467,196.267c-4.719,0-8.533,3.823-8.533,8.533v25.6c0,4.71,3.814,8.533,8.533,8.533S256,235.11,256,230.4v-25.6
			C256,200.09,252.185,196.267,247.467,196.267z"/>
	</g>
</g>
<g>
	<g>
		<path d="M196.266,213.333c-4.719,0-8.533,3.823-8.533,8.533v25.6c0,4.71,3.814,8.533,8.533,8.533s8.533-3.823,8.533-8.533v-25.6
			C204.8,217.156,200.985,213.333,196.266,213.333z"/>
	</g>
</g>
<g>
	<g>
		<path d="M298.667,238.933c-4.719,0-8.533,3.823-8.533,8.533v25.6c0,4.71,3.814,8.533,8.533,8.533s8.533-3.823,8.533-8.533v-25.6
			C307.2,242.756,303.385,238.933,298.667,238.933z"/>
	</g>
</g>
<g>
	<g>
		<path d="M307.2,170.667c-4.719,0-8.533,3.823-8.533,8.533v25.6c0,4.71,3.814,8.533,8.533,8.533s8.533-3.823,8.533-8.533v-25.6
			C315.733,174.49,311.919,170.667,307.2,170.667z"/>
	</g>
</g>
</svg>