<?xml version="1.0" encoding="iso-8859-1"?>
<!-- Uploaded to: SVG Repo, www.svgrepo.com, Generator: SVG Repo Mixer Tools -->
<!DOCTYPE svg PUBLIC "-//W3C//DTD SVG 1.1//EN" "http://www.w3.org/Graphics/SVG/1.1/DTD/svg11.dtd">
<svg fill="#000000" height="800px" width="800px" version="1.1" id="Capa_1" xmlns="http://www.w3.org/2000/svg" xmlns:xlink="http://www.w3.org/1999/xlink" 
	 viewBox="0 0 57.321 57.321" xml:space="preserve">
<g>
	<path d="M38.444,55.321h-19c-0.552,0-1,0.447-1,1s0.448,1,1,1h19c0.552,0,1-0.447,1-1S38.997,55.321,38.444,55.321z"/>
	<path d="M48.54,1.995c0.549-0.061,0.945-0.555,0.885-1.104s-0.555-0.947-1.104-0.885l-8.493,0.936
		c-0.415,0.046-0.757,0.344-0.86,0.747L38.76,2.512C38.192,2.389,37.604,2.321,37,2.321c-2.855,0-5.47,1.443-6.998,3.815
		c-1.032-0.199-2.082-0.199-3.115,0c-1.528-2.372-4.143-3.815-6.998-3.815c-0.035,0-0.069,0.005-0.104,0.005
		c-0.036,0-0.07-0.005-0.106-0.005c-4.499,0-8.158,3.579-8.158,7.979c0,0.263,0.018,0.524,0.044,0.783
		c-2.283,1.541-3.676,4.129-3.676,6.904c0,4.108,2.989,7.522,6.905,8.202c0.921,1.6,2.018,2.635,2.259,2.85
		c7.451,7.944,11.463,13.393,4.492,21.919c-0.504,0.617-0.604,1.45-0.261,2.175c0.347,0.732,1.065,1.188,1.874,1.188h11.187
		c0.808,0,1.526-0.455,1.874-1.188c0.343-0.725,0.243-1.558-0.261-2.175c-6.97-8.526-2.959-13.975,4.491-21.919
		c0.251-0.223,1.412-1.318,2.35-3.005C46.362,25.089,49,21.845,49,17.987c0-1.437-0.38-2.82-1.057-4.037
		c-0.018-0.046-0.022-0.094-0.048-0.138c-0.12-0.204-0.259-0.394-0.396-0.584c-0.006-0.009-0.012-0.018-0.018-0.027
		c-0.112-0.154-0.232-0.302-0.355-0.447c-0.515-0.635-1.114-1.208-1.806-1.675c0.009-0.146,0.013-0.287,0.013-0.426
		c0-3.283-1.913-6.12-4.679-7.478l0.082-0.322L48.54,1.995z M39.102,27.56l-0.08,0.076c-6.493,6.921-13.207,14.077-4.614,24.588
		l-0.063,0.097H23.158l-0.063-0.097c8.593-10.511,1.879-17.667-4.614-24.588l-0.077-0.073c-0.008-0.007-0.553-0.483-1.172-1.302
		c0.044-0.005,0.086-0.018,0.13-0.024c0.154-0.021,0.303-0.056,0.454-0.085c0.234-0.045,0.466-0.092,0.693-0.156
		c0.156-0.044,0.306-0.098,0.458-0.15c0.213-0.073,0.422-0.151,0.627-0.241c0.15-0.066,0.295-0.137,0.441-0.212
		c0.196-0.1,0.387-0.208,0.574-0.323c0.138-0.085,0.274-0.172,0.407-0.266c0.181-0.127,0.355-0.264,0.525-0.406
		c0.122-0.101,0.244-0.201,0.36-0.309c0.168-0.157,0.324-0.325,0.479-0.496c0.101-0.111,0.206-0.218,0.301-0.335
		c0.161-0.198,0.305-0.41,0.447-0.623c0.071-0.106,0.149-0.205,0.215-0.314c0.199-0.33,0.38-0.674,0.533-1.035
		c2.698,1.78,6.441,1.78,9.139,0c0.158,0.371,0.343,0.725,0.549,1.064c0.066,0.108,0.147,0.205,0.218,0.309
		c0.15,0.222,0.298,0.446,0.468,0.651c0.096,0.116,0.206,0.218,0.307,0.328c0.163,0.177,0.323,0.357,0.501,0.519
		c0.118,0.108,0.248,0.2,0.372,0.301c0.179,0.145,0.355,0.292,0.545,0.422c0.137,0.093,0.283,0.171,0.426,0.256
		c0.193,0.115,0.384,0.231,0.587,0.331c0.154,0.075,0.315,0.135,0.474,0.201c0.205,0.085,0.408,0.17,0.62,0.239
		c0.169,0.055,0.342,0.094,0.515,0.138c0.214,0.054,0.427,0.108,0.647,0.145c0.181,0.031,0.366,0.048,0.551,0.067
		c0.148,0.015,0.292,0.046,0.443,0.054C39.633,27.098,39.109,27.554,39.102,27.56z M43.315,10.276
		C42.774,10.115,42.216,10,41.64,9.954c-2.617-0.208-5.149,0.844-6.787,2.815c-0.353,0.425-0.294,1.055,0.131,1.408
		s1.056,0.295,1.408-0.131c1.24-1.494,3.091-2.258,5.088-2.1c1.491,0.119,2.823,0.737,3.813,1.739
		c0.043,0.047,0.085,0.095,0.127,0.143c0.092,0.099,0.181,0.201,0.267,0.307C46.523,15.225,47,16.574,47,17.987
		c0,3.053-2.172,5.609-5.051,6.203l-0.015,0.003c-0.032,0.006-0.065,0.009-0.097,0.015c-0.177,0.033-0.354,0.063-0.534,0.081
		c-0.209,0.021-0.422,0.032-0.637,0.032c-2.979,0-5.517-2.029-6.172-4.935l-0.391-1.728l-1.278,1.227
		c-1.187,1.141-2.743,1.769-4.381,1.769c-1.639,0-3.195-0.628-4.382-1.769l-1.278-1.227l-0.39,1.729
		c-0.655,2.904-3.193,4.934-6.172,4.934c-0.232,0-0.461-0.015-0.687-0.039l-0.004,0c-3.168-0.345-5.643-3.036-5.643-6.294
		c0-1.852,0.828-3.586,2.203-4.776c0.501,1.25,1.314,2.375,2.406,3.254c0.185,0.148,0.406,0.221,0.626,0.221
		c0.292,0,0.582-0.128,0.779-0.373c0.347-0.431,0.278-1.06-0.152-1.406c-1.185-0.954-1.94-2.285-2.159-3.739
		c-0.016-0.17-0.038-0.339-0.038-0.513c0-3.457,2.786-6.272,6.23-6.328c3.346,0.056,6.051,2.711,6.051,5.973
		c0,1.171-0.348,2.305-1.006,3.277c-0.31,0.458-0.189,1.079,0.268,1.389c0.458,0.31,1.079,0.188,1.389-0.268
		c0.883-1.306,1.35-2.826,1.35-4.398c0-0.777-0.12-1.526-0.332-2.236c0.903-0.138,1.816-0.08,2.708,0.18
		c0.459,0.137,0.947-0.075,1.167-0.499c1.096-2.111,3.25-3.423,5.62-3.423c0.434,0,0.857,0.044,1.267,0.128L37.49,7.504
		c-0.136,0.536,0.188,1.08,0.723,1.216c0.083,0.021,0.166,0.031,0.247,0.031c0.447,0,0.854-0.301,0.969-0.753l0.72-2.831
		C41.945,6.201,43.185,8.09,43.315,10.276z"/>
</g>
</svg>