<?xml version="1.0" encoding="iso-8859-1"?>
<!-- Uploaded to: SVG Repo, www.svgrepo.com, Generator: SVG Repo Mixer Tools -->
<svg fill="#000000" height="800px" width="800px" version="1.1" id="Layer_1" xmlns="http://www.w3.org/2000/svg" xmlns:xlink="http://www.w3.org/1999/xlink" 
	 viewBox="0 0 512 512" xml:space="preserve">
<g>
	<g>
		<path d="M356.174,200.348v-33.391c18.412,0,33.391-14.979,33.391-33.391C389.565,59.917,329.648,0,256,0
			S122.435,59.917,122.435,133.565c0,18.412,14.979,33.391,33.391,33.391v33.391c-27.618,0-50.087,22.469-50.087,50.087v211.478
			c0,27.618,22.469,50.087,50.087,50.087h200.348c27.618,0,50.087-22.469,50.087-50.087V250.435
			C406.261,222.817,383.792,200.348,356.174,200.348z M256,33.391c55.236,0,100.174,44.938,100.174,100.174
			c-7.899,0-184.574,0-200.348,0C155.826,78.329,200.764,33.391,256,33.391z M322.783,166.957v33.391H189.217v-33.391H322.783z
			 M372.87,461.913c0,9.206-7.49,16.696-16.696,16.696H155.826c-9.206,0-16.696-7.49-16.696-16.696V250.435
			c0-9.206,7.49-16.696,16.696-16.696c16.136,0,192.686,0,200.348,0c9.206,0,16.696,7.49,16.696,16.696V461.913z"/>
	</g>
</g>
<g>
	<g>
		<circle cx="256" cy="66.783" r="16.696"/>
	</g>
</g>
<g>
	<g>
		<circle cx="205.913" cy="100.174" r="16.696"/>
	</g>
</g>
<g>
	<g>
		<circle cx="306.087" cy="100.174" r="16.696"/>
	</g>
</g>
<g>
	<g>
		<path d="M205.913,267.13c-9.22,0-16.696,7.475-16.696,16.696v144.696c0,9.22,7.475,16.696,16.696,16.696
			c9.22,0,16.696-7.475,16.696-16.696V283.826C222.609,274.606,215.133,267.13,205.913,267.13z"/>
	</g>
</g>
<g>
	<g>
		<path d="M306.087,267.13c-9.22,0-16.696,7.475-16.696,16.696v144.696c0,9.22,7.475,16.696,16.696,16.696
			s16.696-7.475,16.696-16.696V283.826C322.783,274.606,315.307,267.13,306.087,267.13z"/>
	</g>
</g>
</svg>