<?xml version="1.0" encoding="iso-8859-1"?>
<!-- Uploaded to: SVG Repo, www.svgrepo.com, Generator: SVG Repo Mixer Tools -->
<svg fill="#000000" height="800px" width="800px" version="1.1" id="Layer_1" xmlns="http://www.w3.org/2000/svg" xmlns:xlink="http://www.w3.org/1999/xlink" 
	 viewBox="0 0 512 512" xml:space="preserve">
<g>
	<g>
		<path d="M435.2,238.933h-91.885c10.217-31.73,15.312-64.924,20.243-97.152c7.168-46.788,13.935-90.982,35.755-119.535
			c1.98-2.586,2.313-6.076,0.853-8.994c-1.459-2.918-4.634-4.702-7.706-4.719c-27.607,0.224-65.297,33.204-94.394,80.967
			c-7.232-35.146-18.941-66.241-35.471-86.386c-1.587-1.929-3.951-3.072-6.46-3.115c-2.449,0.077-4.898,1.024-6.554,2.91
			c-16.994,19.395-28.897,50.403-36.111,85.838c-29.03-47.335-66.513-79.991-93.932-80.214c-3.226,0.085-6.255,1.801-7.706,4.719
			c-1.459,2.918-1.126,6.409,0.853,8.994c21.82,28.553,28.587,72.747,35.746,119.535c4.939,32.228,10.035,65.422,20.252,97.152H76.8
			c-4.71,0-8.533,3.814-8.533,8.533v42.667c0,4.719,3.823,8.533,8.533,8.533h26.908l5.689,34.133H179.2
			c4.71,0,8.533,3.814,8.533,8.533c0,4.719-3.823,8.533-8.533,8.533h-66.961L130.73,460.8h-19.799c-2.628,0-5.103,1.212-6.724,3.285
			c-1.613,2.065-2.193,4.762-1.553,7.313l8.533,34.133c0.947,3.797,4.361,6.468,8.277,6.468h273.067c3.917,0,7.33-2.671,8.277-6.468
			l8.533-34.133c0.64-2.551,0.068-5.248-1.553-7.313c-1.613-2.074-4.096-3.285-6.724-3.285H381.27l7.116-42.667h-89.719
			c-4.71,0-8.533-3.814-8.533-8.533s3.823-8.533,8.533-8.533h92.561l17.064-102.4H435.2c4.71,0,8.533-3.814,8.533-8.533v-42.667
			C443.733,242.748,439.91,238.933,435.2,238.933z M385.867,494.933H126.13l-4.267-17.067H140.8h230.4h18.934L385.867,494.933z
			 M273.067,409.6c0,4.719-3.823,8.533-8.533,8.533H256c-4.71,0-8.533-3.814-8.533-8.533s3.823-8.533,8.533-8.533h8.533
			C269.244,401.067,273.067,404.881,273.067,409.6z M230.4,341.333c0,4.719-3.823,8.533-8.533,8.533h-8.533
			c-4.71,0-8.533-3.814-8.533-8.533c0-4.719,3.823-8.533,8.533-8.533h8.533C226.577,332.8,230.4,336.614,230.4,341.333z
			 M373.056,32.623c-14.609,29.833-20.352,67.337-26.368,106.573c-5.103,33.357-10.368,67.772-21.342,99.738h-21.877
			c0.275-2.087,0.535-4.194,0.778-6.321c4.402-37.296,3.913-78.031-1.497-116.687C325.679,71.851,353.003,44.561,373.056,32.623z
			 M255.828,22.861c13.779,21.559,23.984,54.262,29.569,91.3c-0.016,0.505-0.001,1.012,0.073,1.517
			c5.894,40.285,6.139,84.758,0.752,123.255h-21.689V110.936c0-4.719-3.823-8.533-8.533-8.533s-8.533,3.814-8.533,8.533v127.997
			h-21.269c-4.517-30.946-5.444-65.61-2.735-98.834c0.024-0.292,0.046-0.585,0.071-0.877c0.152-1.823,0.328-3.636,0.502-5.449
			C228.49,88.232,239.691,47.262,255.828,22.861z M165.312,139.196c-6.016-39.228-11.75-76.732-26.359-106.556
			c19.968,11.887,47.138,38.997,70.008,82.739c-5.279,38.97-5.506,80.196-0.743,118.004c0.21,1.702,0.433,3.388,0.662,5.066
			c0.022,0.161,0.041,0.324,0.063,0.484h-22.289C175.68,206.967,170.415,172.553,165.312,139.196z M426.667,281.6h-25.6H110.933
			h-25.6V256h95.296h38.25h0.014h74.675h0.029h37.774h95.296V281.6z"/>
	</g>
</g>
</svg>