<?xml version="1.0" encoding="iso-8859-1"?>
<!-- Uploaded to: SVG Repo, www.svgrepo.com, Generator: SVG Repo Mixer Tools -->
<svg fill="#000000" version="1.1" id="Layer_1" xmlns="http://www.w3.org/2000/svg" xmlns:xlink="http://www.w3.org/1999/xlink" 
	 viewBox="0 0 230.052 230.052" xml:space="preserve">
<g>
	<g>
		<g>
			<path d="M61.672,57.512c2.296-1.008,4.128-2.352,5.5-4.04c1.372-1.684,2.396-3.56,3.076-5.62c0.676-2.068,0.996-4.22,0.964-6.468
				c-0.032-2.212-0.408-4.308-1.112-6.292c-0.712-1.98-1.752-3.788-3.12-5.42c-1.372-1.636-3.18-2.932-5.424-3.892
				c-2.248-0.956-4.808-1.436-7.68-1.436H40.244v34.684h13.628C56.776,59.024,59.38,58.52,61.672,57.512z M46.736,30.532h7.136
				c3.5,0,6.168,1.052,8,3.148c1.832,2.096,2.78,4.648,2.848,7.656c0.068,3.136-0.808,5.82-2.624,8.052
				c-1.816,2.232-4.56,3.344-8.224,3.344h-7.136V30.532z"/>
			<rect x="76.112" y="24.34" width="6.492" height="34.684"/>
			<polygon points="114.612,52.584 95.14,52.584 95.14,44.756 113.92,44.756 113.92,38.66 95.14,38.66 95.14,30.684 114.612,30.684 
				114.612,24.34 88.648,24.34 88.648,59.024 114.612,59.024 			"/>
			<polygon points="130.664,59.024 137.208,59.024 137.208,30.284 148.208,30.284 148.208,24.34 119.664,24.34 119.664,30.284 
				130.664,30.284 			"/>
			<path d="M228.272,174.744c-0.568-0.164-11.888-3.284-24.516-1.052c-0.028-0.016-5.568,1.248-7.84,2.1
				c-5.052,1.888-9.32,4.636-12.808,7.492c1.704-3.78,2.792-7.972,3.712-12.312c0.832-3.928-0.604-6.36-4.528-7.66
				c-4.916-1.624-9.8-3.02-14.832-3.292c-3.32-12.976-6.932-28.104-9.052-40.064c10.964-3.224,21.02-7.276,29.716-12.088l1.024-1.74
				V82.444V62.196V60.6c0,0-15.548-7.112-22.26-9.464c4.104-16.172,7.88-29.46,7.964-29.756l0.08-0.544
				c0-10.264-8.352-18.616-18.616-18.616H29.128c-10.264,0-18.616,8.352-18.616,18.616l0.084,0.568
				c0.088,0.288,4.176,14.124,8.464,30.864C13.536,54.336,0,60.6,0,60.6v1.596v17.86v26.08l1.024,1.74
				c7.692,4.252,16.444,7.912,25.944,10.936c-4.608,20.796-16.12,45.86-16.268,46.176l0.4,2.24l38.884,38.888l1.404,0.584h48.548
				c-0.424,1.664-0.752,3.412-0.94,5.304c-0.236,2.36,2.096,5.504,4.108,6.324c7.14,2.908,16.324,5.368,24.884-0.636
				c4.316,5.664,7.092,9.096,10.152,10.06c0.168,0.052,0.336,0.08,0.508,0.08s0.34-0.024,0.508-0.08
				c3.064-0.964,5.84-4.4,10.156-10.06c8.564,6.012,17.744,3.536,24.884,0.636c1.44-0.588,3.032-2.372,3.736-4.204
				c0.084,0.104,0.156,0.212,0.244,0.312c6.528,7.66,17.92,9.712,18.4,9.796l1.484,0.26l0.168-1.492
				c0.052-0.432,1.128-10.672-5.464-18.408c-1.644-1.928-3.592-3.5-5.6-4.772c1.064,0.012,2.152,0,3.28-0.048
				c4.604-0.208,9.672-0.992,14.648-2.856c15.412-5.76,23.68-19.492,24.024-20.072l0.936-1.584L228.272,174.744z M223.756,176.676
				l-13.472,5.02l2.524-5.924C217.248,175.752,221.108,176.212,223.756,176.676z M210.82,175.82l-2.876,6.752l-8.4,3.132
				l3.832-9.004C205.928,176.2,208.428,175.916,210.82,175.82z M196.908,178.444c1.432-0.536,2.88-0.972,4.324-1.328
				c0,0-3.796,9.184-3.76,9.36l-9.124,3.4l3.968-9.328C193.772,179.772,195.288,179.048,196.908,178.444z M189.7,182.064
				l-3.628,8.532c-0.016,0.04,0.008,0.084,0,0.124l-9.648,3.596C178.84,191.144,183.34,186.064,189.7,182.064z M181.232,166.52
				c2.316,0.764,2.76,1.5,2.28,3.748c-2.148,10.104-4.836,18.764-15.008,22.644c-0.02-0.004-0.036-0.016-0.056-0.02
				c-9.556-1.26-18.604-4.292-26.168-8.772c-0.308-0.18-0.824-0.488-1.012-0.748c-0.06-0.08-0.14-0.232-0.144-0.612
				c-0.028-2.02,1.904-4.028,4.056-6.076l12.52-11.928c0.008-0.008,0.004-0.02,0.012-0.028
				C165.828,161.972,173.476,163.96,181.232,166.52z M133.804,186.72c0.044-0.052,0.46-0.396,0.652-0.516
				c0.612-0.396,1.244-0.84,1.684-1.5c0.376-0.576,0.568-1.256,0.584-2.1c0.04-3.3-2.548-5.992-4.436-7.956
				c0,0-8.66-10.272-8.62-10.72c0.76-8.768,5.864-14.74,13.288-21.008c0.624-0.528,1.184-0.904,1.684-1.144
				c0.508,0.24,1.064,0.616,1.688,1.14c7.424,6.272,12.528,12.244,13.288,21.012c0.024,0.272-10.292,10.796-10.292,10.796
				c-2.088,1.988-4.94,4.704-4.896,8.068c0.008,0.864,0.224,1.572,0.652,2.164c0.42,0.584,1.624,1.64,1.728,1.764
				c5.216,6.3,6.652,13.024,4.048,18.676c-2.84-1.948-5.088-4.092-6.408-6.132c-0.056-0.088-0.476-0.564-1.136-0.532
				c-0.632,0.028-1.08,0.448-1.136,0.532c-1.32,2.036-3.568,4.184-6.408,6.132C127.156,199.736,128.588,193.016,133.804,186.72z
				 M132.988,183.928c-6.844,4.42-24.108,8.808-24.288,8.952c-10.112-3.896-12.792-12.532-14.94-22.612
				c-0.48-2.248-0.032-2.984,2.28-3.748c7.54-2.496,14.988-4.456,22.856-2.028c0.044,0.068,11.44,12.024,11.44,12.024
				c1.956,2.036,3.708,4.028,3.684,6.044c-0.008,0.308-0.056,0.524-0.14,0.656C133.724,183.456,133.276,183.74,132.988,183.928z
				 M181.312,61.412c-5.772,2.852-12.068,5.388-18.768,7.596c1.08-4.68,2.22-9.408,3.36-13.984
				C171.348,56.94,176.516,59.06,181.312,61.412z M14.484,20.56c0.148-7.948,6.66-14.372,14.644-14.372h127.18
				c7.988,0,14.504,6.424,14.644,14.38c-0.916,3.224-7.744,27.396-12.812,49.816c-19.028,5.716-40.98,8.848-63.572,8.848
				c-24.072,0-47.44-3.544-67.292-9.992C22.224,46.96,15.424,23.74,14.484,20.56z M20.052,56.2c0.948,3.78,1.892,7.652,2.792,11.524
				c-5.272-1.88-10.268-3.976-14.928-6.272C11.76,59.568,15.792,57.804,20.052,56.2z M3.964,104.956v-24.4V63.912
				c3.484,1.804,7.212,3.456,11.064,5.024v32.744c0,0.624,0.508,1.132,1.132,1.132s1.132-0.508,1.132-1.132V69.8
				c3.524,1.372,7.172,2.64,10.944,3.816v20.068c0,0.624,0.508,1.132,1.132,1.132s1.132-0.508,1.132-1.132V74.316
				c3.608,1.068,7.304,2.044,11.1,2.932c-0.048,0.128-0.156,0.228-0.156,0.372v18.276c0,0.624,0.508,1.132,1.132,1.132
				s1.132-0.508,1.132-1.132V77.76c3.636,0.808,7.348,1.516,11.116,2.148c-0.06,0.136-0.168,0.248-0.168,0.408V97.9
				c0,0.624,0.508,1.132,1.132,1.132c0.624,0,1.132-0.508,1.132-1.132V80.316c0-0.008-0.008-0.012-0.008-0.02
				c3.648,0.576,7.36,1.044,11.104,1.452c-0.048,0.124-0.152,0.22-0.152,0.364v29.876c0,0.624,0.508,1.132,1.132,1.132
				c0.624,0,1.132-0.508,1.132-1.132V82.112c0-0.052-0.048-0.084-0.056-0.132c3.4,0.34,6.764,0.576,10.14,0.776v18.408
				c0,0.624,0.508,1.132,1.132,1.132c0.624,0,1.132-0.508,1.132-1.132v-18.26c3.848,0.192,7.72,0.304,11.708,0.304
				c0.228,0,0.096,0.488,0.096,1.044v19.58c0,0.624,0.508,1.132,1.132,1.132c0.624,0,1.132-0.508,1.132-1.132V84.244
				c0-0.564,0-0.564-0.04-1.076c3.512-0.016,6.84-0.12,10.128-0.28v18.268c0,0.624,0.508,1.132,1.132,1.132
				c0.624,0,1.132-0.508,1.132-1.132V82.784c3.944-0.232,7.852-0.568,11.94-1.008c-0.04,0.116-0.136,0.2-0.136,0.328v29.876
				c0,0.624,0.508,1.132,1.132,1.132c0.624,0,1.132-0.508,1.132-1.132V82.104c0-0.224-0.124-0.4-0.24-0.576
				c3.78-0.436,7.512-0.948,11.188-1.556v22.92c0,0.624,0.508,1.132,1.132,1.132c0.624,0,1.132-0.508,1.132-1.132V79.556
				c3.716-0.656,7.368-1.392,10.944-2.216v23.552c0,0.624,0.508,1.132,1.132,1.132c0.624,0,1.132-0.508,1.132-1.132V77.308
				c0-0.184-0.116-0.32-0.196-0.476c3.812-0.924,7.524-1.94,11.144-3.052v24.896c0,0.624,0.508,1.132,1.132,1.132
				c0.624,0,1.132-0.508,1.132-1.132V73.084c3.776-1.216,7.432-2.524,10.944-3.94v37.536c0,0.624,0.508,1.132,1.132,1.132
				c0.624,0,1.132-0.508,1.132-1.132v-38.4c3.248-1.372,6.368-2.828,9.344-4.368v19.08v21.968
				c-23.304,12.572-56.24,19.764-90.604,19.764S27.272,117.528,3.964,104.956z M49.396,199.916l-17.256-17.26L17.288,167.8h17.46
				c8.08,0,14.648,6.572,14.648,14.648V199.916z M53.364,202.72v-20.268c0-10.264-8.352-18.616-18.616-18.616H15.564
				c3.176-7.176,11.404-26.64,15.248-43.852c19.184,5.632,41.176,8.712,63.756,8.712c21.12,0,41.716-2.7,59.988-7.656
				c2.104,11.8,5.564,26.368,8.792,39.012c-2.176,0.18-4.388,0.62-6.652,1.384c-1.632-9.748-8.136-15.988-14.196-21.1
				c-1.184-1.004-2.288-1.652-3.368-1.988c-0.324-0.096-0.672-0.096-0.996,0c-1.072,0.332-2.176,0.98-3.368,1.988
				c-6.06,5.112-12.564,11.352-14.196,21.1c-9.024-3.064-17.268-0.872-25.596,1.88c-3.92,1.296-5.36,3.732-4.528,7.66
				c2.172,10.208,5.028,19.744,15.48,24.484c-2.004,2.132-3.568,4.532-4.712,7.26H53.364z M172.908,215.188
				c-10.036,4.084-16.868,3.724-22.856-1.18c-0.348-0.292-0.816-0.42-1.268-0.372c-0.456,0.052-0.872,0.292-1.148,0.656
				c-3.892,5.116-6.784,8.92-9,10.016c-2.208-1.096-5.1-4.9-8.992-10.016c-0.28-0.364-0.696-0.604-1.152-0.656
				c-0.064-0.008-0.132-0.012-0.196-0.012c-0.388,0-0.768,0.136-1.072,0.384c-5.992,4.912-12.832,5.264-22.856,1.18
				c-0.924-0.376-2.076-2.256-2.02-2.856c0.704-7.068,3.172-12.216,7.764-16.2c0.312-0.268,13.056-3.96,18.616-6.696
				c-3.556,6.372-3.884,13.064-0.636,18.596c0.18,0.316,0.488,0.544,0.844,0.628c0.108,0.024,0.212,0.04,0.32,0.04
				c0.252,0,0.504-0.072,0.72-0.208c3.04-1.916,5.552-4.092,7.324-6.26c1.772,2.168,4.284,4.348,7.324,6.26
				c0.22,0.136,0.472,0.208,0.72,0.208c0.108,0,0.212-0.012,0.32-0.04c0.356-0.088,0.66-0.316,0.844-0.628
				c3.34-5.696,2.904-12.62-0.952-19.164c8.54,4.408,22.972,6.684,23.22,6.9c4.592,3.98,5.436,9.488,6.136,16.564
				C174.98,212.932,173.832,214.812,172.908,215.188z M190.588,206.42c4.352,5.104,4.884,11.676,4.876,14.656
				c-3.228-0.82-10.388-3.404-15.14-8.488c-3.444-3.688-4.836-13.012-4.86-14C177.304,198.076,187.524,202.816,190.588,206.42z
				 M204.08,194.248c-8.62,3.22-24.14,3.404-26.124,1.436l46.68-17.4C221.428,182.532,214.424,190.38,204.08,194.248z"/>
		</g>
	</g>
</g>
</svg>