<?xml version="1.0" encoding="utf-8"?>
<!-- Generator: Adobe Illustrator 25.4.1, SVG Export Plug-In . SVG Version: 6.00 Build 0)  -->
<svg version="1.1"
	 id="svg4443" inkscape:version="0.91 r13725" sodipodi:docname="nutriscore-a.svg" xmlns:cc="http://creativecommons.org/ns#" xmlns:dc="http://purl.org/dc/elements/1.1/" xmlns:inkscape="http://www.inkscape.org/namespaces/inkscape" xmlns:rdf="http://www.w3.org/1999/02/22-rdf-syntax-ns#" xmlns:sodipodi="http://sodipodi.sourceforge.net/DTD/sodipodi-0.dtd" xmlns:svg="http://www.w3.org/2000/svg"
	 xmlns="http://www.w3.org/2000/svg" xmlns:xlink="http://www.w3.org/1999/xlink" x="0px" y="0px" viewBox="0 0 240 130"
	 style="enable-background:new 0 0 240 130;" xml:space="preserve">
<style type="text/css">
	.st0{fill-rule:evenodd;clip-rule:evenodd;fill:#FFFFFF;}
	.st1{fill-rule:evenodd;clip-rule:evenodd;fill:#6B6B6B;}
	.st2{fill-rule:evenodd;clip-rule:evenodd;fill:#545454;}
	.st3{fill:#FFFFFF;fill-opacity:0.4461;}
	.st4{fill:#7D7D7D;}
	.st5{fill-rule:evenodd;clip-rule:evenodd;fill:#949494;}
	.st6{fill-rule:evenodd;clip-rule:evenodd;fill:#C4C4C4;}
	.st7{fill-rule:evenodd;clip-rule:evenodd;fill:#9B9B9B;}
	
		.st8{display:none;fill-rule:evenodd;clip-rule:evenodd;fill:#3E3E3E;fill-opacity:0.6297;stroke:#FFFFFF;stroke-width:7.5394;stroke-linecap:round;stroke-linejoin:round;stroke-miterlimit:10;}
	.st9{display:none;fill-rule:evenodd;clip-rule:evenodd;fill:#545454;}
	.st10{display:none;fill:#FFFFFF;}
</style>
<sodipodi:namedview  bordercolor="#666666" borderopacity="1.0" id="base" inkscape:current-layer="layer1" inkscape:cx="47.938645" inkscape:cy="156.34508" inkscape:document-units="px" inkscape:pageopacity="0.0" inkscape:pageshadow="2" inkscape:window-height="1018" inkscape:window-maximized="1" inkscape:window-width="1920" inkscape:window-x="-8" inkscape:window-y="-8" inkscape:zoom="1.979899" pagecolor="#ffffff" showgrid="false">
	</sodipodi:namedview>
<g id="layer1" inkscape:groupmode="layer" inkscape:label="Calque 1">
	<path id="rect5139" inkscape:connector-curvature="0" class="st0" d="M22.2,0h195.5C230.1,0,240,9.9,240,22.2v78.1
		c0,12.3-9.9,22.2-22.2,22.2H22.2C9.9,122.6,0,112.7,0,100.4V22.2C0,9.9,9.9,0,22.2,0z"/>
	<path id="rect5141" inkscape:connector-curvature="0" class="st1" d="M166.5,44.2h44.8v72.4h-44.8L166.5,44.2z"/>
	<path id="rect5143" inkscape:connector-curvature="0" class="st2" d="M35.9,44.2h44.8v72.4H35.9V44.2z"/>
	<path id="rect5145" inkscape:connector-curvature="0" class="st2" d="M26.8,44.2H38c9.3,0,16.8,7.5,16.8,16.8v38.8
		c0,9.3-7.5,16.8-16.8,16.8H26.8c-9.3,0-16.8-7.5-16.8-16.8V61C10,51.7,17.5,44.2,26.8,44.2z"/>
	<path id="path5635" inkscape:connector-curvature="0" class="st3" d="M26.5,63.5h6.8l12,32.8h-7.8L35,89H24.8l-2.5,7.4h-7.8
		C14.5,96.3,26.5,63.5,26.5,63.5z M33.8,83.8l-3.8-11.6L26,83.8H33.8z"/>
	<path id="rect5151" inkscape:connector-curvature="0" class="st1" d="M206.2,44.2h11.2c9.3,0,16.8,7.5,16.8,16.8v38.8
		c0,9.3-7.5,16.8-16.8,16.8h-11.2c-9.3,0-16.8-7.5-16.8-16.8V61C189.3,51.7,196.8,44.2,206.2,44.2z"/>
	<path id="path5631" inkscape:connector-curvature="0" class="st3" d="M220.9,89.7v6.7h-23.1V63.5h22.7v6.7h-15.1v6.4h12.9v6.2
		h-12.9v7C205.4,89.7,220.9,89.7,220.9,89.7z"/>
	<path id="path5608" inkscape:connector-curvature="0" class="st4" d="M19.3,20.2v9.5h-3.8V13h3l7.7,9.7V13H30v16.6h-3.1
		C26.9,29.6,19.3,20.2,19.3,20.2z"/>
	<path id="path5610" inkscape:connector-curvature="0" class="st4" d="M40.3,26.4c0.7,0,1.2-0.1,1.7-0.4c0.5-0.3,0.8-0.6,1.1-1.1
		c0.3-0.5,0.5-1,0.6-1.5c0.1-0.6,0.2-1.2,0.2-1.8V13h3.8v8.5c0,1.2-0.1,2.2-0.4,3.2c-0.3,1-0.7,1.9-1.3,2.6
		c-0.6,0.7-1.4,1.3-2.3,1.8c-0.9,0.4-2,0.6-3.3,0.6c-1.3,0-2.5-0.2-3.4-0.7c-0.9-0.5-1.7-1.1-2.3-1.8c-0.6-0.8-1-1.6-1.3-2.6
		c-0.3-1-0.4-2-0.4-3.1V13h3.8v8.5c0,0.6,0.1,1.2,0.2,1.8c0.1,0.6,0.3,1.1,0.6,1.5c0.3,0.5,0.6,0.8,1.1,1.1
		C39.1,26.2,39.7,26.4,40.3,26.4z"/>
	<path id="path5612" inkscape:connector-curvature="0" class="st4" d="M63.3,16.4h-5v13.2h-3.8V16.4h-5.1V13h14V16.4z"/>
	<path id="path5614" inkscape:connector-curvature="0" class="st4" d="M65.2,29.6V13h7.5c0.8,0,1.5,0.2,2.2,0.5
		c0.7,0.3,1.2,0.8,1.7,1.3s0.9,1.1,1.1,1.8c0.3,0.7,0.4,1.3,0.4,2c0,0.5-0.1,1-0.2,1.5c-0.1,0.5-0.3,0.9-0.5,1.3
		c-0.2,0.4-0.5,0.8-0.9,1.1c-0.3,0.3-0.7,0.6-1.1,0.8l3.6,6.2h-4.3l-3.2-5.4H69v5.4C69,29.6,65.2,29.6,65.2,29.6z M69,20.9h3.5
		c0.5,0,0.8-0.2,1.2-0.6c0.3-0.4,0.5-1,0.5-1.7c0-0.7-0.2-1.2-0.6-1.6c-0.4-0.4-0.8-0.6-1.2-0.6H69V20.9z"/>
	<path id="path5616" inkscape:connector-curvature="0" class="st4" d="M80.8,29.6V13h3.8v16.6H80.8z"/>
	<path id="path5618" inkscape:connector-curvature="0" class="st4" d="M87.5,24.9v-3.4h7.2v3.4H87.5z"/>
	<path id="path5620" inkscape:connector-curvature="0" class="st4" d="M107.5,17.9c0-0.1-0.2-0.2-0.5-0.4c-0.3-0.2-0.6-0.4-1.1-0.5
		c-0.4-0.2-0.9-0.4-1.4-0.5c-0.5-0.1-1-0.2-1.5-0.2c-1.4,0-2.1,0.5-2.1,1.4c0,0.3,0.1,0.5,0.2,0.7c0.2,0.2,0.4,0.4,0.7,0.5
		c0.3,0.1,0.7,0.3,1.1,0.4s0.9,0.3,1.5,0.4c0.8,0.2,1.5,0.5,2.2,0.7c0.6,0.2,1.2,0.6,1.6,1c0.5,0.4,0.8,0.8,1,1.4
		c0.2,0.5,0.4,1.2,0.4,2c0,0.9-0.2,1.7-0.5,2.4c-0.3,0.6-0.8,1.2-1.4,1.6c-0.6,0.4-1.2,0.7-2,0.9c-0.7,0.2-1.5,0.3-2.3,0.3
		c-0.6,0-1.2,0-1.9-0.1c-0.6-0.1-1.3-0.2-1.9-0.4c-0.6-0.2-1.2-0.4-1.8-0.7c-0.6-0.2-1.1-0.5-1.6-0.9l1.7-3.3
		c0.1,0.1,0.3,0.2,0.6,0.4c0.3,0.2,0.8,0.4,1.3,0.7c0.5,0.2,1.1,0.4,1.7,0.6c0.6,0.2,1.3,0.3,1.9,0.3c1.4,0,2-0.4,2-1.2
		c0-0.3-0.1-0.6-0.3-0.8c-0.2-0.2-0.5-0.4-0.8-0.5c-0.4-0.2-0.8-0.3-1.3-0.5c-0.5-0.1-1-0.3-1.6-0.5c-0.8-0.2-1.4-0.5-2-0.7
		c-0.6-0.3-1-0.6-1.4-1c-0.4-0.4-0.6-0.8-0.8-1.2c-0.2-0.5-0.3-1-0.3-1.6c0-0.9,0.2-1.6,0.5-2.3c0.3-0.7,0.8-1.2,1.3-1.7
		c0.6-0.5,1.2-0.8,1.9-1.1c0.7-0.2,1.5-0.4,2.4-0.4c0.6,0,1.1,0.1,1.7,0.2c0.6,0.1,1.1,0.2,1.6,0.4s1,0.4,1.4,0.6
		c0.5,0.2,0.9,0.4,1.2,0.7C109.2,14.7,107.5,17.9,107.5,17.9z"/>
	<path id="path5622" inkscape:connector-curvature="0" class="st4" d="M111,21.2c0-1,0.2-2,0.6-3c0.4-1,0.9-1.9,1.6-2.7
		s1.6-1.4,2.6-1.9c1-0.5,2.2-0.7,3.5-0.7c1.6,0,2.9,0.3,4,1c1.2,0.7,2,1.5,2.6,2.6l-2.9,2.1c-0.2-0.4-0.4-0.8-0.7-1.1
		c-0.3-0.3-0.6-0.5-0.9-0.7c-0.3-0.2-0.7-0.3-1.1-0.4c-0.4-0.1-0.7-0.1-1.1-0.1c-0.7,0-1.4,0.1-1.9,0.4s-1,0.7-1.4,1.1
		c-0.4,0.5-0.6,1-0.8,1.6c-0.2,0.6-0.3,1.2-0.3,1.8c0,0.7,0.1,1.3,0.3,1.9c0.2,0.6,0.5,1.1,0.9,1.6c0.4,0.5,0.8,0.8,1.4,1.1
		c0.5,0.3,1.2,0.4,1.8,0.4c0.3,0,0.7,0,1.1-0.1c0.4-0.1,0.7-0.2,1.1-0.4c0.3-0.2,0.7-0.4,0.9-0.7c0.3-0.3,0.5-0.7,0.7-1.1l3.1,1.8
		c-0.2,0.6-0.6,1.2-1.1,1.6c-0.5,0.5-1,0.9-1.7,1.2s-1.3,0.6-2,0.7s-1.4,0.3-2.1,0.3c-1.2,0-2.3-0.2-3.3-0.7c-1-0.5-1.9-1.2-2.6-2
		c-0.7-0.8-1.3-1.7-1.7-2.8C111.2,23.3,111,22.3,111,21.2z"/>
	<path id="path5624" inkscape:connector-curvature="0" class="st4" d="M135.1,29.8c-1.2,0-2.4-0.2-3.4-0.7c-1-0.5-1.9-1.1-2.6-1.9
		c-0.7-0.8-1.3-1.7-1.7-2.7c-0.4-1-0.6-2.1-0.6-3.1c0-1.1,0.2-2.1,0.6-3.2c0.4-1,1-1.9,1.7-2.7c0.7-0.8,1.6-1.4,2.6-1.8
		c1-0.5,2.1-0.7,3.3-0.7c1.2,0,2.4,0.2,3.4,0.7c1,0.5,1.9,1.1,2.6,1.9c0.7,0.8,1.3,1.7,1.7,2.7c0.4,1,0.6,2,0.6,3.1
		c0,1.1-0.2,2.1-0.6,3.2c-0.4,1-1,1.9-1.7,2.7c-0.7,0.8-1.6,1.4-2.6,1.8C137.4,29.6,136.3,29.8,135.1,29.8z M130.8,21.4
		c0,0.6,0.1,1.3,0.3,1.9c0.2,0.6,0.5,1.1,0.8,1.6c0.4,0.5,0.8,0.8,1.4,1.1s1.2,0.4,1.9,0.4c0.7,0,1.4-0.1,1.9-0.4s1-0.7,1.4-1.1
		c0.4-0.5,0.6-1,0.8-1.6c0.2-0.6,0.3-1.2,0.3-1.8c0-0.6-0.1-1.3-0.3-1.8c-0.2-0.6-0.5-1.1-0.8-1.6c-0.4-0.5-0.8-0.8-1.4-1.1
		c-0.5-0.3-1.1-0.4-1.8-0.4c-0.7,0-1.4,0.1-1.9,0.4c-0.5,0.3-1,0.7-1.4,1.1c-0.4,0.5-0.6,1-0.8,1.6
		C130.9,20.1,130.8,20.7,130.8,21.4z"/>
	<path id="path5626" inkscape:connector-curvature="0" class="st4" d="M145.6,29.6V13h7.5c0.8,0,1.5,0.2,2.2,0.5
		c0.7,0.3,1.2,0.8,1.7,1.3s0.9,1.1,1.1,1.8c0.3,0.7,0.4,1.3,0.4,2c0,0.5-0.1,1-0.2,1.5c-0.1,0.5-0.3,0.9-0.5,1.3s-0.5,0.8-0.9,1.1
		c-0.3,0.3-0.7,0.6-1.1,0.8l3.6,6.2h-4.3l-3.2-5.4h-2.5v5.4C149.4,29.6,145.6,29.6,145.6,29.6z M149.4,20.9h3.5
		c0.5,0,0.8-0.2,1.2-0.6c0.3-0.4,0.5-1,0.5-1.7c0-0.7-0.2-1.2-0.6-1.6c-0.4-0.4-0.8-0.6-1.2-0.6h-3.4V20.9z"/>
	<path id="path5628" inkscape:connector-curvature="0" class="st4" d="M172.9,26.3v3.4h-11.7V13h11.5v3.4h-7.6v3.2h6.5v3.1h-6.5v3.5
		H172.9z"/>
	<path id="rect5209" inkscape:connector-curvature="0" class="st5" d="M56.3,44.2h44.8v72.4H56.3V44.2z"/>
	<path id="rect5211" inkscape:connector-curvature="0" class="st5" d="M144.6,44.2h44.8v72.4h-44.8V44.2z"/>
	<path id="path5552" inkscape:connector-curvature="0" class="st3" d="M152.7,96.3V63.5h12.3c2.7,0,5.1,0.4,7.1,1.3
		c2,0.9,3.7,2,5.1,3.5c1.4,1.5,2.4,3.2,3.1,5.2c0.7,2,1.1,4.1,1.1,6.3c0,2.5-0.4,4.8-1.2,6.8c-0.8,2-1.9,3.7-3.3,5.2
		c-1.4,1.4-3.1,2.5-5.2,3.3c-2,0.8-4.2,1.2-6.7,1.2H152.7z M173.6,79.9c0-1.4-0.2-2.8-0.6-3.9c-0.4-1.2-0.9-2.2-1.7-3.1
		c-0.7-0.9-1.6-1.5-2.7-2s-2.3-0.7-3.7-0.7h-4.7v19.5h4.7c1.4,0,2.6-0.2,3.7-0.7c1.1-0.5,2-1.2,2.7-2c0.7-0.9,1.3-1.9,1.7-3.1
		C173.4,82.6,173.6,81.3,173.6,79.9z"/>
	<path id="rect5217" inkscape:connector-curvature="0" class="st6" d="M97.3,44.2h47.4v72.4H97.3V44.2z"/>
	<path id="rect5219" inkscape:connector-curvature="0" class="st7" d="M99.6,44.2H54.7v72.4h44.8V44.2z"/>
	<path id="path5547" inkscape:connector-curvature="0" class="st3" d="M106,79.4c0-2,0.4-3.9,1.1-5.9c0.7-2,1.8-3.7,3.2-5.3
		c1.4-1.5,3.1-2.8,5.2-3.7s4.3-1.4,6.9-1.4c3.1,0,5.7,0.7,8,2c2.3,1.3,4,3.1,5.1,5.2l-5.8,4.1c-0.4-0.9-0.8-1.6-1.4-2.1
		c-0.6-0.6-1.2-1-1.8-1.4c-0.7-0.4-1.4-0.6-2.1-0.7c-0.7-0.2-1.4-0.2-2.1-0.2c-1.4,0-2.7,0.3-3.8,0.9c-1.1,0.6-2,1.3-2.7,2.3
		c-0.7,0.9-1.2,2-1.6,3.1c-0.3,1.2-0.5,2.4-0.5,3.6c0,1.3,0.2,2.5,0.6,3.7c0.4,1.2,1,2.3,1.7,3.2c0.8,0.9,1.7,1.7,2.7,2.2
		c1.1,0.5,2.3,0.8,3.6,0.8c0.7,0,1.4-0.1,2.1-0.2c0.7-0.2,1.4-0.4,2.1-0.8c0.7-0.4,1.3-0.8,1.8-1.4c0.6-0.6,1-1.3,1.3-2.1l6.2,3.7
		c-0.5,1.2-1.2,2.3-2.2,3.2c-1,1-2.1,1.8-3.3,2.4c-1.3,0.6-2.6,1.1-4,1.5c-1.4,0.3-2.8,0.5-4.2,0.5c-2.4,0-4.6-0.5-6.6-1.4
		c-2-1-3.7-2.3-5.1-3.9c-1.4-1.6-2.5-3.4-3.3-5.5C106.4,83.5,106,81.5,106,79.4z"/>
	<path id="path5544" inkscape:connector-curvature="0" class="st3" d="M93.1,87.9c0,1.4-0.3,2.7-0.9,3.7c-0.6,1-1.4,1.9-2.4,2.6
		c-1,0.7-2.2,1.2-3.6,1.6c-1.4,0.3-2.8,0.5-4.3,0.5H66V63.5h18.3c1.1,0,2.2,0.2,3.1,0.7c0.9,0.5,1.7,1.1,2.4,1.9
		c0.6,0.8,1.1,1.7,1.5,2.7c0.4,1,0.6,2,0.6,3.1c0,1.6-0.4,3.1-1.2,4.4c-0.8,1.4-1.9,2.4-3.5,3.1c1.9,0.6,3.4,1.5,4.4,3
		C92.6,83.9,93.1,85.7,93.1,87.9z M85.4,86.4c0-1-0.3-1.9-0.9-2.6c-0.6-0.7-1.3-1.1-2.2-1.1h-8.7v7.2H82c1,0,1.8-0.3,2.5-1
		C85.1,88.3,85.4,87.4,85.4,86.4z M73.6,70v6.8H81c0.8,0,1.6-0.3,2.2-0.8c0.6-0.6,1-1.4,1-2.6c0-1.1-0.3-1.9-0.9-2.5
		c-0.6-0.6-1.2-0.9-2-0.9C81.3,70,73.6,70,73.6,70z"/>
	<path id="rect5229" inkscape:connector-curvature="0" class="st8" d="M28,34.8h4.9c13.4,0,24.2,10.8,24.2,24.2v42.5
		c0,13.4-10.8,24.2-24.2,24.2H28c-13.4,0-24.2-10.8-24.2-24.2V59C3.8,45.6,14.6,34.8,28,34.8z"/>
	<path id="rect5231" inkscape:connector-curvature="0" class="st9" d="M28,34.8h4.9c13.4,0,24.2,10.8,24.2,24.2v42.5
		c0,13.4-10.8,24.2-24.2,24.2H28c-13.4,0-24.2-10.8-24.2-24.2V59C3.8,45.6,14.6,34.8,28,34.8z"/>
	<path id="path5539" inkscape:connector-curvature="0" class="st10" d="M26.3,59.5h8.3l14.5,43.3h-9.4l-3.1-9.7H24.2l-3,9.7h-9.4
		C11.8,102.8,26.3,59.5,26.3,59.5z M35.1,86.2l-4.6-15.3l-4.8,15.3C25.7,86.2,35.1,86.2,35.1,86.2z"/>
</g>
</svg>
