<?xml version="1.0" encoding="UTF-8" standalone="no"?>
<!-- Created with Inkscape (http://www.inkscape.org/) -->

<svg
   version="1.1"
   id="svg2"
   xml:space="preserve"
   width="1587.4"
   height="1122.52"
   viewBox="0 0 1587.4 1122.52"
   sodipodi:docname="VectSigaIndicesQuadri 7.svg"
   inkscape:export-filename="C:\Users\yasmi\Downloads\g14.png"
   inkscape:export-xdpi="245.12"
   inkscape:export-ydpi="245.12"
   inkscape:version="1.1 (c68e22c387, 2021-05-23)"
   xmlns:inkscape="http://www.inkscape.org/namespaces/inkscape"
   xmlns:sodipodi="http://sodipodi.sourceforge.net/DTD/sodipodi-0.dtd"
   xmlns="http://www.w3.org/2000/svg"
   xmlns:svg="http://www.w3.org/2000/svg"><defs
     id="defs6"><clipPath
       clipPathUnits="userSpaceOnUse"
       id="clipPath18"><path
         d="M 0,841.89 H 1190.551 V 0 H 0 Z"
         id="path16" /></clipPath><clipPath
       clipPathUnits="userSpaceOnUse"
       id="clipPath54"><path
         d="m 103.968,676.394 h 13.898 v -17.06 h -13.898 z"
         id="path52" /></clipPath><clipPath
       clipPathUnits="userSpaceOnUse"
       id="clipPath70"><path
         d="m 134.663,699.78 h 13.149 v -17.476 h -13.149 z"
         id="path68" /></clipPath><clipPath
       clipPathUnits="userSpaceOnUse"
       id="clipPath86"><path
         d="m 169.667,708.055 h 14.225 v -16.612 h -14.225 z"
         id="path84" /></clipPath><clipPath
       clipPathUnits="userSpaceOnUse"
       id="clipPath102"><path
         d="m 206.546,699.378 h 12.656 v -17.045 h -12.656 z"
         id="path100" /></clipPath><clipPath
       clipPathUnits="userSpaceOnUse"
       id="clipPath118"><path
         d="m 234.244,675.393 h 14.094 v -17.022 h -14.094 z"
         id="path116" /></clipPath><clipPath
       clipPathUnits="userSpaceOnUse"
       id="clipPath134"><path
         d="m 252.412,640.031 h 15.31 v -16.595 h -15.31 z"
         id="path132" /></clipPath><clipPath
       clipPathUnits="userSpaceOnUse"
       id="clipPath262"><path
         d="m 415.176,699.78 h 13.149 v -17.476 h -13.149 z"
         id="path260" /></clipPath><clipPath
       clipPathUnits="userSpaceOnUse"
       id="clipPath278"><path
         d="m 450.18,708.055 h 14.224 V 691.443 H 450.18 Z"
         id="path276" /></clipPath><clipPath
       clipPathUnits="userSpaceOnUse"
       id="clipPath294"><path
         d="m 487.059,699.378 h 12.655 v -17.045 h -12.655 z"
         id="path292" /></clipPath><clipPath
       clipPathUnits="userSpaceOnUse"
       id="clipPath310"><path
         d="M 514.757,675.393 H 528.85 V 658.371 H 514.757 Z"
         id="path308" /></clipPath><clipPath
       clipPathUnits="userSpaceOnUse"
       id="clipPath326"><path
         d="m 532.924,640.031 h 15.311 v -16.595 h -15.311 z"
         id="path324" /></clipPath><clipPath
       clipPathUnits="userSpaceOnUse"
       id="clipPath394"><path
         d="m 369.609,640.585 h 6.964 v -16.688 h -6.964 z"
         id="path392" /></clipPath><clipPath
       clipPathUnits="userSpaceOnUse"
       id="clipPath450"><path
         d="m 944.993,697.579 h 13.897 v -17.06 h -13.897 z"
         id="path448" /></clipPath><clipPath
       clipPathUnits="userSpaceOnUse"
       id="clipPath466"><path
         d="m 1047.57,720.563 h 12.66 v -17.045 h -12.66 z"
         id="path464" /></clipPath><clipPath
       clipPathUnits="userSpaceOnUse"
       id="clipPath482"><path
         d="m 1093.44,661.216 h 15.31 v -16.595 h -15.31 z"
         id="path480" /></clipPath><clipPath
       clipPathUnits="userSpaceOnUse"
       id="clipPath518"><path
         d="m 1010.69,729.239 h 14.23 v -16.611 h -14.23 z"
         id="path516" /></clipPath><clipPath
       clipPathUnits="userSpaceOnUse"
       id="clipPath534"><path
         d="m 1047.57,720.563 h 12.66 v -17.045 h -12.66 z"
         id="path532" /></clipPath><clipPath
       clipPathUnits="userSpaceOnUse"
       id="clipPath550"><path
         d="m 1075.27,696.577 h 14.09 v -17.022 h -14.09 z"
         id="path548" /></clipPath><clipPath
       clipPathUnits="userSpaceOnUse"
       id="clipPath566"><path
         d="m 930.123,661.769 h 6.964 v -16.688 h -6.964 z"
         id="path564" /></clipPath><clipPath
       clipPathUnits="userSpaceOnUse"
       id="clipPath686"><path
         d="m 134.943,455.219 h 13.15 v -17.476 h -13.15 z"
         id="path684" /></clipPath><clipPath
       clipPathUnits="userSpaceOnUse"
       id="clipPath718"><path
         d="m 104.245,431.833 h 13.898 v -17.06 h -13.898 z"
         id="path716" /></clipPath><clipPath
       clipPathUnits="userSpaceOnUse"
       id="clipPath734"><path
         d="M 252.69,395.47 H 268 v -16.595 h -15.31 z"
         id="path732" /></clipPath><clipPath
       clipPathUnits="userSpaceOnUse"
       id="clipPath762"><path
         d="m 206.825,454.817 h 12.656 v -17.045 h -12.656 z"
         id="path760" /></clipPath><clipPath
       clipPathUnits="userSpaceOnUse"
       id="clipPath778"><path
         d="m 234.524,430.832 h 14.093 V 413.81 h -14.093 z"
         id="path776" /></clipPath><clipPath
       clipPathUnits="userSpaceOnUse"
       id="clipPath794"><path
         d="m 89.3759,396.024 h 6.9638 v -16.688 h -6.9638 z"
         id="path792" /></clipPath><clipPath
       clipPathUnits="userSpaceOnUse"
       id="clipPath922"><path
         d="m 384.775,431.909 h 13.897 v -17.06 h -13.897 z"
         id="path920" /></clipPath><clipPath
       clipPathUnits="userSpaceOnUse"
       id="clipPath938"><path
         d="M 533.219,395.546 H 548.53 V 378.951 H 533.219 Z"
         id="path936" /></clipPath><clipPath
       clipPathUnits="userSpaceOnUse"
       id="clipPath966"><path
         d="m 450.476,463.57 h 14.225 v -16.612 h -14.225 z"
         id="path964" /></clipPath><clipPath
       clipPathUnits="userSpaceOnUse"
       id="clipPath982"><path
         d="m 515.054,430.908 h 14.093 v -17.022 h -14.093 z"
         id="path980" /></clipPath><clipPath
       clipPathUnits="userSpaceOnUse"
       id="clipPath998"><path
         d="m 369.906,396.1 h 6.963 v -16.688 h -6.963 z"
         id="path996" /></clipPath><clipPath
       clipPathUnits="userSpaceOnUse"
       id="clipPath1018"><path
         d="M 415.471,455.295 H 428.62 V 437.819 H 415.471 Z"
         id="path1016" /></clipPath><clipPath
       clipPathUnits="userSpaceOnUse"
       id="clipPath1178"><path
         d="m 665.041,431.774 h 13.897 v -17.06 h -13.897 z"
         id="path1176" /></clipPath><clipPath
       clipPathUnits="userSpaceOnUse"
       id="clipPath1194"><path
         d="m 813.485,395.411 h 15.31 v -16.594 h -15.31 z"
         id="path1192" /></clipPath><clipPath
       clipPathUnits="userSpaceOnUse"
       id="clipPath1214"><path
         d="m 730.742,463.435 h 14.224 v -16.611 h -14.224 z"
         id="path1212" /></clipPath><clipPath
       clipPathUnits="userSpaceOnUse"
       id="clipPath1230"><path
         d="m 650.171,395.965 h 6.964 v -16.688 h -6.964 z"
         id="path1228" /></clipPath><clipPath
       clipPathUnits="userSpaceOnUse"
       id="clipPath1250"><path
         d="m 695.736,455.16 h 13.15 v -17.476 h -13.15 z"
         id="path1248" /></clipPath><clipPath
       clipPathUnits="userSpaceOnUse"
       id="clipPath1270"><path
         d="m 767.619,454.758 h 12.655 v -17.044 h -12.655 z"
         id="path1268" /></clipPath><clipPath
       clipPathUnits="userSpaceOnUse"
       id="clipPath1418"><path
         d="m 1075.29,430.773 h 14.09 v -17.022 h -14.09 z"
         id="path1416" /></clipPath><clipPath
       clipPathUnits="userSpaceOnUse"
       id="clipPath1438"><path
         d="m 945.007,431.774 h 13.897 v -17.06 h -13.897 z"
         id="path1436" /></clipPath><clipPath
       clipPathUnits="userSpaceOnUse"
       id="clipPath1462"><path
         d="m 1010.71,463.435 h 14.22 v -16.611 h -14.22 z"
         id="path1460" /></clipPath><clipPath
       clipPathUnits="userSpaceOnUse"
       id="clipPath1478"><path
         d="m 930.137,395.965 h 6.964 v -16.688 h -6.964 z"
         id="path1476" /></clipPath><clipPath
       clipPathUnits="userSpaceOnUse"
       id="clipPath1498"><path
         d="m 975.702,455.16 h 13.149 v -17.476 h -13.149 z"
         id="path1496" /></clipPath><clipPath
       clipPathUnits="userSpaceOnUse"
       id="clipPath1518"><path
         d="m 1047.58,454.758 h 12.66 v -17.044 h -12.66 z"
         id="path1516" /></clipPath><clipPath
       clipPathUnits="userSpaceOnUse"
       id="clipPath1658"><path
         d="M 767.704,720.563 H 780.36 V 703.518 H 767.704 Z"
         id="path1656" /></clipPath><clipPath
       clipPathUnits="userSpaceOnUse"
       id="clipPath1674"><path
         d="M 813.569,661.216 H 828.88 V 644.621 H 813.569 Z"
         id="path1672" /></clipPath><clipPath
       clipPathUnits="userSpaceOnUse"
       id="clipPath1706"><path
         d="m 730.826,729.239 h 14.225 v -16.611 h -14.225 z"
         id="path1704" /></clipPath><clipPath
       clipPathUnits="userSpaceOnUse"
       id="clipPath1722"><path
         d="m 767.705,720.563 h 12.656 v -17.045 h -12.656 z"
         id="path1720" /></clipPath><clipPath
       clipPathUnits="userSpaceOnUse"
       id="clipPath1738"><path
         d="m 795.404,696.577 h 14.093 v -17.022 h -14.093 z"
         id="path1736" /></clipPath><clipPath
       clipPathUnits="userSpaceOnUse"
       id="clipPath1754"><path
         d="m 650.256,661.769 h 6.964 v -16.688 h -6.964 z"
         id="path1752" /></clipPath><clipPath
       clipPathUnits="userSpaceOnUse"
       id="clipPath1926"><path
         d="m 695.765,721.006 h 13.149 V 703.53 h -13.149 z"
         id="path1924" /></clipPath><clipPath
       clipPathUnits="userSpaceOnUse"
       id="clipPath1952"><path
         d="M 0,841.89 H 1190.551 V 0 H 0 Z"
         id="path1950" /></clipPath></defs><sodipodi:namedview
     id="namedview4"
     pagecolor="#ffffff"
     bordercolor="#111111"
     borderopacity="1"
     inkscape:pageshadow="0"
     inkscape:pageopacity="0"
     inkscape:pagecheckerboard="1"
     showgrid="false"
     inkscape:zoom="0.51780081"
     inkscape:cx="143.87772"
     inkscape:cy="206.64317"
     inkscape:window-width="2400"
     inkscape:window-height="1284"
     inkscape:window-x="-9"
     inkscape:window-y="-9"
     inkscape:window-maximized="1"
     inkscape:current-layer="g14"
     showguides="true"
     inkscape:guide-bbox="true"><sodipodi:guide
       position="802.97051,1031.0251"
       orientation="1,0"
       id="guide7237" /><sodipodi:guide
       position="-252.63528,573.55036"
       orientation="0,-1"
       id="guide7239" /></sodipodi:namedview><g
     id="g8"
     inkscape:groupmode="layer"
     inkscape:label="VectSigaIndicesQuadri 1"
     transform="matrix(1.3333333,0,0,-1.3333333,0,1122.52)"><g
       id="g12"><g
         id="g14"
         clip-path="url(#clipPath18)"><g
           id="g6901"
           transform="matrix(3.502346,0,0,3.502346,-2945.25,-1019.7883)"><g
             id="g1396"
             transform="translate(1171.3386,383.3272)"><path
               d="m 0,0 -6.353,40.358 -0.09,0.394 c -2.01,8.686 -9.625,14.751 -18.521,14.751 -2.821,0 -5.548,-0.616 -8.106,-1.832 l -21.395,-9.849 c -19.46,34.873 -56.495,58.598 -99.868,58.598 -61.777,0 -115.143,-53.282 -115.143,-115.115 v -9.086 l -0.033,-37.191 c 0,-10.067 8.162,-18.229 18.231,-18.229 h 194.096 c 10.069,0 18.231,8.162 18.231,18.229 v 36.051 l 21.51,0.149 c 5.196,0 10.152,2.485 13.598,6.818 C -0.233,-11.415 1.154,-5.626 0,0"
               style="fill:#ffffff;fill-opacity:1;fill-rule:nonzero;stroke:none"
               id="path1398" /></g><g
             id="g1400"
             transform="translate(1160.1873,381.251)"><path
               d="m 0,0 -6.339,40.272 c -1.109,4.795 -6.36,7.337 -10.763,5.21 L -98.36,8.074 c 2.297,-5.558 3.565,-11.514 3.61,-17.892 H -6.296 C -2.504,-9.824 1.109,-4.798 0,0"
               style="fill:#1a69aa;fill-opacity:1;fill-rule:nonzero;stroke:none"
               id="path1402" /></g><g
             id="g1404"
             transform="translate(1138.5925,402.4082)"><path
               d="m 0,0 -11.287,0.113 0.391,6.129 22.181,-0.221 -17.254,-27.687 -7.74,0.077 z"
               style="fill:#ffffff;fill-opacity:1;fill-rule:nonzero;stroke:none"
               id="path1406" /></g><g
             id="g1408"
             transform="translate(1104.1179,424.2383)"><path
               d="m 0,0 -14.418,17.812 c -3.078,3.802 -8.89,3.759 -11.91,-0.088 L -54.65,-17.463 c 4.648,-4.169 8.483,-9.225 11.229,-14.908 l 40.855,20.514 C 1.825,-9.704 3.078,-3.802 0,0"
               style="fill:#1e93da;fill-opacity:1;fill-rule:nonzero;stroke:none"
               id="path1410" /></g><g
             id="g1412"><g
               id="g1414" /><g
               id="g1426"><g
                 clip-path="url(#clipPath1418)"
                 opacity="0.600006"
                 id="g1424"><g
                   transform="translate(1079.5701,419.9268)"
                   id="g1422"><path
                     d="m 0,0 c -0.024,-0.381 0.025,-0.736 0.152,-1.067 0.125,-0.33 0.305,-0.621 0.538,-0.872 0.234,-0.253 0.511,-0.453 0.831,-0.602 0.322,-0.15 0.672,-0.227 1.054,-0.23 0.381,-0.004 0.741,0.065 1.08,0.208 0.34,0.143 0.642,0.337 0.907,0.584 0.265,0.247 0.482,0.534 0.65,0.861 C 5.379,-0.79 5.476,-0.436 5.5,-0.055 5.524,0.325 5.473,0.682 5.347,1.013 5.222,1.343 5.042,1.634 4.809,1.885 4.574,2.137 4.298,2.337 3.978,2.486 3.656,2.637 3.306,2.714 2.925,2.718 2.543,2.722 2.183,2.651 1.844,2.508 1.504,2.365 1.201,2.17 0.937,1.924 0.672,1.678 0.455,1.391 0.287,1.063 0.119,0.735 0.024,0.38 0,0 M 7.82,10.797 2.768,5.442 2.855,5.441 C 3.282,5.687 3.629,5.833 3.896,5.882 4.163,5.931 4.399,5.954 4.605,5.952 5.412,5.943 6.143,5.782 6.798,5.469 7.453,5.154 8.013,4.728 8.477,4.188 8.942,3.648 9.291,3.02 9.523,2.3 9.757,1.58 9.847,0.81 9.795,-0.01 9.738,-0.889 9.525,-1.702 9.155,-2.453 8.784,-3.204 8.276,-3.857 7.632,-4.415 6.987,-4.973 6.223,-5.408 5.337,-5.721 4.451,-6.034 3.465,-6.186 2.38,-6.175 c -1.1,0.011 -2.072,0.182 -2.917,0.513 -0.845,0.33 -1.555,0.776 -2.127,1.339 -0.573,0.562 -0.998,1.215 -1.274,1.957 -0.276,0.742 -0.386,1.531 -0.333,2.365 0.059,0.937 0.333,1.948 0.82,3.035 0.488,1.085 1.197,2.152 2.13,3.196 l 4.147,4.617 z"
                     style="fill:#ffffff;fill-opacity:1;fill-rule:nonzero;stroke:none"
                     id="path1420" /></g></g></g></g><g
             id="g1428"
             transform="translate(985.986,407.3946)"><path
               d="m 0,0 -28.068,34.563 c -3.037,3.834 -8.85,3.852 -11.911,0.037 L -54.32,16.725 C -57.381,12.91 -56.104,7.24 -51.702,5.106 l 40.067,-20.029 C -8.77,-9.203 -4.799,-4.138 0,0"
               style="fill:#17ad49;fill-opacity:1;fill-rule:nonzero;stroke:none"
               id="path1430" /></g><g
             id="g1432"><g
               id="g1434" /><g
               id="g1446"><g
                 clip-path="url(#clipPath1438)"
                 opacity="0.600006"
                 id="g1444"><g
                   transform="translate(958.36,414.7149)"
                   id="g1442"><path
                     d="m 0,0 -13.354,0.134 4.386,4.218 c 1.156,1.116 2.069,2.062 2.735,2.839 0.666,0.777 1.166,1.435 1.501,1.974 0.335,0.537 0.549,0.975 0.644,1.311 0.095,0.336 0.15,0.621 0.165,0.855 0.016,0.249 -0.01,0.491 -0.075,0.727 -0.065,0.234 -0.174,0.444 -0.323,0.629 -0.15,0.183 -0.334,0.333 -0.555,0.445 -0.221,0.111 -0.484,0.17 -0.793,0.172 -0.586,0.006 -1.057,-0.18 -1.411,-0.557 -0.355,-0.377 -0.55,-0.851 -0.586,-1.422 -0.01,-0.161 -0.003,-0.395 0.021,-0.703 l -4.708,0.047 c 0.062,0.966 0.276,1.842 0.641,2.63 0.366,0.787 0.853,1.463 1.461,2.028 0.609,0.565 1.314,0.997 2.119,1.297 0.804,0.3 1.676,0.444 2.614,0.436 0.924,-0.01 1.77,-0.164 2.536,-0.465 0.766,-0.301 1.419,-0.717 1.956,-1.25 0.539,-0.533 0.946,-1.162 1.222,-1.891 C 0.474,12.727 0.585,11.938 0.53,11.089 0.473,10.181 0.225,9.346 -0.213,8.581 -0.65,7.816 -1.32,7.035 -2.223,6.239 L -5.136,3.698 0.232,3.645 Z"
                     style="fill:#ffffff;fill-opacity:1;fill-rule:nonzero;stroke:none"
                     id="path1440" /></g></g></g></g><g
             id="g1448"
             transform="translate(973.0964,389.8291)"><path
               d="m 0,0 -41.096,18.959 c -4.422,2.106 -9.639,-0.473 -10.692,-5.283 l -4.933,-22.541 c -1.052,-4.811 2.606,-9.531 7.496,-9.492 l 45.393,-0.029 C -3.769,-11.865 -2.414,-5.653 0,0"
               style="fill:#17ad49;fill-opacity:1;fill-rule:nonzero;stroke:none"
               id="path1450" /></g><g
             id="g1452"
             transform="translate(1008.5798,418.2451)"><path
               d="m 0,0 c 2.852,0.526 5.786,0.815 8.791,0.815 3.473,0 6.857,-0.377 10.121,-1.076 l 9.455,43.804 c 1.09,4.769 -2.533,9.312 -7.424,9.312 H -1.975 c -4.89,0 -8.513,-4.543 -7.423,-9.312 z"
               style="fill:#85ce37;fill-opacity:1;fill-rule:nonzero;stroke:none"
               id="path1454" /></g><g
             id="g1456"><g
               id="g1458" /><g
               id="g1470"><g
                 clip-path="url(#clipPath1462)"
                 opacity="0.600006"
                 id="g1468"><g
                   transform="translate(1018.9265,453.5596)"
                   id="g1466"><path
                     d="M 0,0 0.415,6.521 -3.807,0.038 Z m 4.004,-0.04 2.002,-0.02 -0.21,-3.293 -2.002,0.02 -0.217,-3.403 -4.004,0.04 0.217,3.403 -8.009,0.08 0.177,2.767 6.997,10.321 5.677,-0.057 z"
                     style="fill:#ffffff;fill-opacity:1;fill-rule:nonzero;stroke:none"
                     id="path1464" /></g></g></g></g><g
             id="g1472"><g
               id="g1474" /><g
               id="g1486"><g
                 clip-path="url(#clipPath1478)"
                 opacity="0.600006"
                 id="g1484"><g
                   transform="translate(932.5573,392.2813)"
                   id="g1482"><path
                     d="m 0,0 -2.42,0.024 0.232,3.66 6.732,-0.068 -1.055,-16.62 -4.311,0.044 z"
                     style="fill:#ffffff;fill-opacity:1;fill-rule:nonzero;stroke:none"
                     id="path1480" /></g></g></g></g><g
             id="g1488"
             transform="translate(1005.5407,417.5909)"><path
               d="m 0,0 -10.387,43.294 c -1.084,4.769 -6.318,7.296 -10.726,5.177 l -20.655,-9.928 c -4.408,-2.119 -5.705,-7.784 -2.657,-11.61 L -17.111,-8.213 C -12.084,-4.42 -6.289,-1.591 0,0"
               style="fill:#85ce37;fill-opacity:1;fill-rule:nonzero;stroke:none"
               id="path1490" /></g><g
             id="g1492"><g
               id="g1494" /><g
               id="g1506"><g
                 clip-path="url(#clipPath1498)"
                 opacity="0.600006"
                 id="g1504"><g
                   transform="translate(981.8591,448.253)"
                   id="g1502"><path
                     d="m 0,0 c 0.116,-0.016 0.214,-0.023 0.295,-0.025 0.08,0 0.15,-10e-4 0.209,-0.002 0.542,-0.005 0.993,0.151 1.351,0.47 C 2.213,0.761 2.408,1.177 2.44,1.689 2.473,2.187 2.34,2.591 2.044,2.9 1.748,3.212 1.352,3.369 0.853,3.375 0.325,3.38 -0.111,3.209 -0.456,2.86 -0.802,2.512 -0.992,2.061 -1.027,1.504 l -3.983,0.04 c 0.157,0.862 0.424,1.628 0.796,2.299 0.373,0.67 0.83,1.233 1.373,1.688 0.543,0.456 1.166,0.801 1.872,1.036 0.704,0.236 1.475,0.348 2.312,0.339 C 2.163,6.898 2.9,6.777 3.554,6.544 4.206,6.311 4.758,5.983 5.208,5.561 5.657,5.139 5.992,4.631 6.212,4.035 6.43,3.439 6.517,2.776 6.47,2.045 6.42,1.254 6.228,0.607 5.896,0.105 5.562,-0.396 5.105,-0.828 4.524,-1.187 5.358,-1.46 5.992,-1.939 6.426,-2.623 6.859,-3.309 7.044,-4.149 6.98,-5.145 6.929,-5.965 6.72,-6.71 6.354,-7.379 5.988,-8.05 5.5,-8.623 4.891,-9.1 4.28,-9.578 3.567,-9.943 2.751,-10.199 1.936,-10.455 1.05,-10.578 0.097,-10.568 c -1.276,0.013 -2.411,0.273 -3.407,0.781 -0.995,0.508 -1.765,1.307 -2.313,2.396 -0.247,0.485 -0.404,0.97 -0.468,1.454 -0.065,0.484 -0.082,0.975 -0.05,1.472 l 4.269,-0.043 c -0.021,-0.775 0.169,-1.367 0.569,-1.773 0.4,-0.407 0.958,-0.615 1.677,-0.621 0.763,-0.008 1.334,0.191 1.712,0.598 0.378,0.406 0.586,0.909 0.624,1.509 0.046,0.717 -0.133,1.262 -0.534,1.632 C 1.773,-2.794 1.279,-2.605 0.692,-2.6 0.546,-2.598 0.406,-2.607 0.272,-2.628 0.139,-2.648 -0.009,-2.673 -0.172,-2.701 Z"
                     style="fill:#ffffff;fill-opacity:1;fill-rule:nonzero;stroke:none"
                     id="path1500" /></g></g></g></g><g
             id="g1508"
             transform="translate(1072.1775,456.2237)"><path
               d="m 0,0 -20.682,9.874 c -4.414,2.107 -9.641,-0.434 -10.712,-5.206 l -10.348,-43.643 c 6.153,-1.734 11.805,-4.659 16.691,-8.515 L 2.688,-11.603 C 5.726,-7.77 4.413,-2.106 0,0"
               style="fill:#1e93da;fill-opacity:1;fill-rule:nonzero;stroke:none"
               id="path1510" /></g><g
             id="g1512"><g
               id="g1514" /><g
               id="g1526"><g
                 clip-path="url(#clipPath1518)"
                 opacity="0.600006"
                 id="g1524"><g
                   transform="translate(1059.4968,451.0264)"
                   id="g1522"><path
                     d="m 0,0 -5.742,0.058 -0.403,-1.82 c 0.266,0.027 0.51,0.05 0.731,0.07 0.223,0.019 0.449,0.028 0.685,0.026 0.835,-0.009 1.604,-0.163 2.304,-0.463 0.699,-0.3 1.289,-0.709 1.771,-1.225 0.481,-0.518 0.844,-1.137 1.092,-1.857 0.248,-0.72 0.345,-1.505 0.291,-2.353 -0.057,-0.894 -0.273,-1.697 -0.649,-2.411 -0.376,-0.714 -0.881,-1.32 -1.514,-1.819 -0.633,-0.499 -1.392,-0.88 -2.273,-1.142 -0.884,-0.261 -1.853,-0.387 -2.909,-0.377 -0.997,0.01 -1.939,0.14 -2.825,0.39 -0.887,0.251 -1.71,0.629 -2.471,1.135 l 0.894,4.033 c 0.694,-0.637 1.412,-1.123 2.154,-1.46 0.741,-0.337 1.456,-0.509 2.145,-0.515 0.881,-0.009 1.593,0.221 2.137,0.692 0.543,0.47 0.837,1.057 0.882,1.759 0.053,0.82 -0.25,1.486 -0.907,1.998 -0.658,0.511 -1.544,0.773 -2.659,0.784 -0.498,0.005 -1.014,-0.045 -1.55,-0.149 -0.535,-0.105 -1.067,-0.271 -1.594,-0.5 l 1.952,8.877 8.69,-0.086 z"
                     style="fill:#ffffff;fill-opacity:1;fill-rule:nonzero;stroke:none"
                     id="path1520" /></g></g></g></g><g
             id="g1528"
             transform="translate(1021.3337,381.0049)"><path
               d="m 0,0 c -2.798,-0.277 -5.13,2.055 -4.853,4.852 0.206,2.07 1.879,3.744 3.95,3.949 C 1.894,9.078 4.226,6.747 3.948,3.949 3.744,1.879 2.069,0.205 0,0 m 10.373,4.333 h -0.028 c 0,0.022 0.002,0.045 0.002,0.067 0,5.847 -4.835,10.587 -10.799,10.587 -6.193,0 -10.799,-4.74 -10.799,-10.587 0,-5.846 4.835,-10.586 10.799,-10.586 1.372,0 2.683,0.253 3.891,0.711 0.254,0.097 0.527,-0.09 0.526,-0.363 0.026,-3.836 -1.596,-5.556 -4.516,-5.49 -1.809,0.04 -3.587,1.544 -4.195,2.874 -0.189,0.411 -0.609,0.666 -1.062,0.666 h -4.406 c -0.648,0 -1.119,-0.601 -0.984,-1.235 1.022,-4.798 5.406,-8.349 11.296,-8.275 5.641,0.071 10.032,4.012 10.32,9.504 0.001,0.004 0.001,0.008 0.001,0.012 z"
               style="fill:#918f90;fill-opacity:1;fill-rule:nonzero;stroke:none"
               id="path1530" /></g><g
             id="g1532"
             transform="translate(1006.2761,374.5557)"><path
               d="m 0,0 h -5.792 c -0.35,0 -0.633,0.274 -0.633,0.612 v 16.886 c 0,0.338 0.283,0.612 0.633,0.612 H 0 c 0.35,0 0.634,-0.274 0.634,-0.612 V 0.612 C 0.634,0.274 0.35,0 0,0"
               style="fill:#918f90;fill-opacity:1;fill-rule:nonzero;stroke:none"
               id="path1534" /></g><g
             id="g1536"
             transform="translate(1000.1657,393.8985)"><path
               d="M 0,0 C 0,0 -1.954,8.644 7.838,9.369 8.077,2.02 4.228,0.495 0,0"
               style="fill:#918f90;fill-opacity:1;fill-rule:nonzero;stroke:none"
               id="path1538" /></g><g
             id="g1540"
             transform="translate(989.2536,396.0137)"><path
               d="M 0,0 C 2.195,0 4.176,-0.488 6.032,-1.489 6.303,-1.635 6.419,-1.96 6.315,-2.246 L 5.039,-5.771 C 4.895,-6.171 4.425,-6.34 4.045,-6.14 c -1.341,0.707 -2.729,1.011 -3.941,1.011 -1.032,0 -2.001,-0.623 -2.001,-1.687 0.012,-1.142 0.928,-1.233 3.673,-1.857 3.636,-0.827 5.548,-3.406 5.525,-6.055 -0.035,-5.307 -4.733,-7.616 -9.129,-7.616 -2.423,0 -5.223,0.621 -7.503,1.646 -0.263,0.118 -0.383,0.421 -0.282,0.687 l 1.57,4.172 c 0.081,0.216 0.35,0.304 0.541,0.17 1.681,-1.167 3.517,-1.399 5.064,-1.399 0.249,0 2.354,0.089 2.392,1.688 0.01,2.252 -2.571,2.187 -3.866,2.428 -3.796,0.709 -4.778,3.64 -4.865,5.534 0,2.987 1.184,4.333 2.473,5.351 C -4.641,-0.754 -2.343,0 0,0"
               style="fill:#918f90;fill-opacity:1;fill-rule:nonzero;stroke:none"
               id="path1542" /></g><g
             id="g1544"
             transform="translate(1048.6111,384.7998)"><path
               d="m 0,0 c -0.204,-2.07 -1.879,-3.744 -3.948,-3.949 -2.798,-0.278 -5.13,2.054 -4.853,4.851 0.205,2.071 1.879,3.744 3.949,3.95 C -2.055,5.129 0.277,2.798 0,0 m 6.555,2.085 c -0.805,5.049 -5.177,8.907 -10.452,8.907 -5.847,0 -10.463,-4.741 -10.586,-10.587 -0.113,-5.332 3.604,-10.327 8.598,-10.557 4.189,-0.193 5.856,1.749 6.549,2.315 v -2.247 c 0,-0.302 0.245,-0.547 0.547,-0.547 h 4.306 c 0.641,0 1.161,0.519 1.162,1.16 0.003,2.81 0.01,9.757 0.01,9.876 0,0.151 -0.07,1.277 -0.134,1.68"
               style="fill:#918f90;fill-opacity:1;fill-rule:nonzero;stroke:none"
               id="path1546" /></g><g
             id="g1548"
             transform="translate(915.1784,347.7969)"><path
               d="M 0,0 0.004,7.783 3.533,7.781 3.529,0.077 c -10e-4,-2.001 0.917,-2.951 2.322,-2.952 1.422,-10e-4 2.34,0.91 2.341,2.851 L 8.196,7.779 11.726,7.778 11.722,0.094 C 11.72,-4.363 9.396,-6.343 5.812,-6.341 2.248,-6.339 -0.002,-4.338 0,0"
               style="fill:#231f20;fill-opacity:1;fill-rule:nonzero;stroke:none"
               id="path1550" /></g><g
             id="g1552"
             transform="translate(929.4206,355.5733)"><path
               d="m 0,0 3.493,-0.001 -0.005,-10.497 6.104,-0.003 -0.001,-3.367 -9.598,0.004 z"
               style="fill:#231f20;fill-opacity:1;fill-rule:nonzero;stroke:none"
               id="path1554" /></g><g
             id="g1556"
             transform="translate(942.2536,352.2002)"><path
               d="M 0,0 -3.763,0.002 -3.762,3.369 7.275,3.364 7.274,-0.003 3.493,-0.002 3.488,-10.499 l -3.493,0.002 z"
               style="fill:#231f20;fill-opacity:1;fill-rule:nonzero;stroke:none"
               id="path1558" /></g><g
             id="g1560"
             transform="translate(957.319,348.9053)"><path
               d="m 0,0 c 1.17,0 1.873,0.634 1.873,1.644 v 0.04 C 1.874,2.792 1.136,3.347 -0.017,3.348 L -2.321,3.349 -2.323,0.002 Z M -5.812,6.658 0.147,6.655 C 2.074,6.654 3.405,6.099 4.251,5.168 4.989,4.355 5.367,3.306 5.366,1.938 V 1.899 C 5.365,-0.24 4.339,-1.646 2.771,-2.378 l 3.005,-4.834 -4.014,0.002 -2.537,4.2 -1.549,10e-4 -0.002,-4.199 -3.493,0.002 z"
               style="fill:#231f20;fill-opacity:1;fill-rule:nonzero;stroke:none"
               id="path1562" /></g><g
             id="g1564"
             transform="translate(972.0788,347.1758)"><path
               d="M 0,0 -1.402,3.922 -2.827,0.001 Z M -3.058,8.479 0.31,8.477 5.669,-5.489 l -3.745,0.002 -0.9,2.496 -4.879,0.002 -0.901,-2.495 -3.655,0.002 z"
               style="fill:#231f20;fill-opacity:1;fill-rule:nonzero;stroke:none"
               id="path1566" /></g><g
             id="g1568"
             transform="translate(978.3054,349.5293)"><path
               d="M 0,0 5.906,-0.003 5.904,-3.291 -0.001,-3.288 Z"
               style="fill:#231f20;fill-opacity:1;fill-rule:nonzero;stroke:none"
               id="path1570" /></g><g
             id="g1572"
             transform="translate(988.0817,352.1787)"><path
               d="M 0,0 -3.763,0.002 -3.762,3.369 7.275,3.364 7.274,-0.003 3.493,-0.002 3.488,-10.499 l -3.493,0.002 z"
               style="fill:#231f20;fill-opacity:1;fill-rule:nonzero;stroke:none"
               id="path1574" /></g><g
             id="g1576"
             transform="translate(1003.1462,348.8838)"><path
               d="m 0,0 c 1.171,0 1.873,0.633 1.874,1.643 v 0.04 c 0,1.109 -0.737,1.664 -1.89,1.665 L -2.32,3.349 -2.322,0.001 Z M -5.812,6.658 0.147,6.655 C 2.074,6.654 3.406,6.099 4.252,5.168 4.99,4.354 5.368,3.306 5.367,1.938 V 1.899 C 5.366,-0.24 4.339,-1.646 2.772,-2.378 l 3.005,-4.834 -4.015,0.002 -2.537,4.2 h -1.548 l -0.002,-4.198 -3.493,0.002 z"
               style="fill:#231f20;fill-opacity:1;fill-rule:nonzero;stroke:none"
               id="path1578" /></g><g
             id="g1580"
             transform="translate(1017.9069,347.1543)"><path
               d="M 0,0 -1.402,3.922 -2.827,0.001 Z m -3.057,8.479 3.368,-0.002 5.358,-13.966 -3.745,0.002 -0.899,2.496 -4.879,0.002 -0.902,-2.495 -3.655,0.002 z"
               style="fill:#231f20;fill-opacity:1;fill-rule:nonzero;stroke:none"
               id="path1582" /></g><g
             id="g1584"
             transform="translate(1025.2527,355.5284)"><path
               d="m 0,0 3.259,-0.001 5.182,-7.331 0.003,7.328 3.457,-0.002 -0.005,-13.864 -3.043,0.002 -5.399,7.608 -0.004,-7.605 -3.457,10e-4 z"
               style="fill:#231f20;fill-opacity:1;fill-rule:nonzero;stroke:none"
               id="path1586" /></g><g
             id="g1588"
             transform="translate(1038.8728,343.7178)"><path
               d="M 0,0 1.945,2.554 C 3.206,1.464 4.573,0.889 6.032,0.889 6.986,0.888 7.491,1.244 7.491,1.839 V 1.878 C 7.491,2.473 7.077,2.77 5.35,3.226 2.666,3.9 0.597,4.733 0.598,7.565 v 0.039 c 0.001,2.576 1.856,4.436 4.881,4.435 2.143,-10e-4 3.817,-0.636 5.185,-1.844 L 8.916,7.482 C 7.765,8.394 6.504,8.851 5.388,8.851 4.541,8.851 4.127,8.475 4.127,7.96 V 7.921 c 0,-0.634 0.432,-0.912 2.196,-1.349 2.88,-0.694 4.68,-1.725 4.679,-4.319 V 2.213 C 11.001,-0.619 8.966,-2.302 5.904,-2.301 3.672,-2.3 1.565,-1.526 0,0"
               style="fill:#231f20;fill-opacity:1;fill-rule:nonzero;stroke:none"
               id="path1590" /></g><g
             id="g1592"
             transform="translate(1052.0183,355.5157)"><path
               d="m 0,0 10.083,-0.005 -10e-4,-3.367 -6.59,0.004 -0.002,-2.358 5.96,-0.003 -10e-4,-3.188 -5.96,0.003 -0.002,-4.951 -3.493,10e-4 z"
               style="fill:#231f20;fill-opacity:1;fill-rule:nonzero;stroke:none"
               id="path1594" /></g><g
             id="g1596"
             transform="translate(1073.7253,348.5342)"><path
               d="M 0,0 V 0.039 C 0.001,2.06 -1.294,3.783 -3.221,3.784 -5.147,3.785 -6.427,2.082 -6.428,0.082 v -0.04 c -0.001,-2 1.313,-3.743 3.24,-3.744 C -1.279,-3.703 -0.001,-2.001 0,0 M -9.993,0.005 V 0.044 C -9.991,4.025 -7.072,7.252 -3.184,7.25 0.706,7.249 3.585,4.059 3.583,0.077 V 0.038 c -0.002,-3.981 -2.92,-7.208 -6.81,-7.207 -3.888,0.002 -6.768,3.192 -6.766,7.174"
               style="fill:#231f20;fill-opacity:1;fill-rule:nonzero;stroke:none"
               id="path1598" /></g><g
             id="g1600"
             transform="translate(1085.3708,348.8457)"><path
               d="m 0,0 c 1.17,-0.001 1.873,0.633 1.873,1.643 v 0.04 C 1.874,2.791 1.136,3.347 -0.017,3.347 L -2.321,3.348 -2.323,0.001 Z M -5.812,6.657 0.147,6.654 C 2.074,6.653 3.405,6.099 4.251,5.167 4.989,4.354 5.367,3.305 5.366,1.938 V 1.898 C 5.365,-0.24 4.339,-1.646 2.771,-2.379 l 3.005,-4.833 -4.014,10e-4 -2.537,4.2 -1.549,0.001 -0.002,-4.199 -3.493,0.002 z"
               style="fill:#231f20;fill-opacity:1;fill-rule:nonzero;stroke:none"
               id="path1602" /></g><g
             id="g1604"
             transform="translate(1092.95,355.4971)"><path
               d="m 0,0 3.691,-0.002 3.004,-5.369 3.01,5.366 3.691,-0.002 -0.006,-13.864 -3.476,0.002 0.004,7.962 -3.226,-5.426 H 6.62 l -3.202,5.409 -0.004,-7.942 -3.421,0.002 z"
               style="fill:#231f20;fill-opacity:1;fill-rule:nonzero;stroke:none"
               id="path1606" /></g><g
             id="g1608"
             transform="translate(1114.7341,359.6455)"><path
               d="m 0,0 3.258,-1.091 -2.666,-2.118 -2.538,0.002 z m -5.71,-4.156 10.137,-0.005 -10e-4,-3.248 -6.681,0.003 -10e-4,-2.119 6.05,-0.003 -10e-4,-3.031 -6.05,0.003 -10e-4,-2.198 6.77,-0.004 -10e-4,-3.267 -10.228,0.004 z"
               style="fill:#231f20;fill-opacity:1;fill-rule:nonzero;stroke:none"
               id="path1610" /></g><g
             id="g1612"
             transform="translate(976.4684,324.1739)"><path
               d="M 0,0 -1.403,3.922 -2.827,0.001 Z m -2.57,9.527 -2.664,2.121 3.259,1.088 1.961,-3.21 z M -3.057,8.479 0.311,8.477 5.669,-5.489 l -3.745,0.002 -0.899,2.495 -4.879,0.003 -0.902,-2.495 -3.655,0.002 z"
               style="fill:#231f20;fill-opacity:1;fill-rule:nonzero;stroke:none"
               id="path1614" /></g><g
             id="g1616"
             transform="translate(989.2497,332.5459)"><path
               d="m 0,0 3.493,-0.002 -0.005,-10.497 6.105,-0.003 -0.002,-3.367 -9.598,0.005 z"
               style="fill:#231f20;fill-opacity:1;fill-rule:nonzero;stroke:none"
               id="path1618" /></g><g
             id="g1620"
             transform="translate(1000.8962,332.5401)"><path
               d="m 0,0 3.493,-0.002 -0.007,-13.863 -3.493,10e-4 z"
               style="fill:#231f20;fill-opacity:1;fill-rule:nonzero;stroke:none"
               id="path1622" /></g><g
             id="g1624"
             transform="translate(1007.1413,332.5371)"><path
               d="m 0,0 3.691,-0.002 3.005,-5.369 3.009,5.366 3.691,-0.002 -0.006,-13.863 -3.476,10e-4 0.004,7.962 -3.225,-5.425 H 6.621 l -3.202,5.409 -0.004,-7.942 -3.422,10e-4 z"
               style="fill:#231f20;fill-opacity:1;fill-rule:nonzero;stroke:none"
               id="path1626" /></g><g
             id="g1628"
             transform="translate(1023.3063,332.5293)"><path
               d="m 0,0 3.492,-0.002 -0.007,-13.863 -3.492,10e-4 z"
               style="fill:#231f20;fill-opacity:1;fill-rule:nonzero;stroke:none"
               id="path1630" /></g><g
             id="g1632"
             transform="translate(1032.6287,329.1582)"><path
               d="M 0,0 -3.763,0.001 -3.761,3.368 7.276,3.363 7.274,-0.004 3.493,-0.002 3.488,-10.499 l -3.493,0.002 z"
               style="fill:#231f20;fill-opacity:1;fill-rule:nonzero;stroke:none"
               id="path1634" /></g><g
             id="g1636"
             transform="translate(1041.8816,332.5205)"><path
               d="m 0,0 10.137,-0.005 -0.001,-3.248 -6.681,0.004 -10e-4,-2.12 6.05,-0.003 -10e-4,-3.029 -6.05,0.003 -10e-4,-2.2 6.77,-0.003 -0.002,-3.267 -10.227,0.004 z"
               style="fill:#231f20;fill-opacity:1;fill-rule:nonzero;stroke:none"
               id="path1638" /></g><g
             id="g1640"
             transform="translate(1060.1677,325.8575)"><path
               d="m 0,0 c 1.171,0 1.873,0.633 1.874,1.643 v 0.04 c 0,1.109 -0.737,1.664 -1.89,1.664 L -2.32,3.349 -2.322,0.001 Z M -5.812,6.657 0.147,6.654 C 2.074,6.653 3.406,6.099 4.252,5.167 4.989,4.354 5.367,3.305 5.367,1.938 V 1.899 C 5.366,-0.24 4.339,-1.646 2.772,-2.378 l 3.004,-4.834 -4.014,0.002 -2.537,4.2 -1.549,10e-4 -0.002,-4.199 -3.493,0.001 z"
               style="fill:#231f20;fill-opacity:1;fill-rule:nonzero;stroke:none"
               id="path1642" /></g></g></g></g></g></svg>
