<?xml version="1.0" encoding="UTF-8" standalone="no"?>
<!-- Created with Inkscape (http://www.inkscape.org/) -->

<svg
   version="1.1"
   id="svg2"
   xml:space="preserve"
   width="1587.4"
   height="1122.52"
   viewBox="0 0 1587.4 1122.52"
   sodipodi:docname="VectSigaIndicesQuadri 1.svg"
   inkscape:export-filename="C:\Users\yasmi\Downloads\g14.png"
   inkscape:export-xdpi="245.12"
   inkscape:export-ydpi="245.12"
   inkscape:version="1.1 (c68e22c387, 2021-05-23)"
   xmlns:inkscape="http://www.inkscape.org/namespaces/inkscape"
   xmlns:sodipodi="http://sodipodi.sourceforge.net/DTD/sodipodi-0.dtd"
   xmlns="http://www.w3.org/2000/svg"
   xmlns:svg="http://www.w3.org/2000/svg"><defs
     id="defs6"><clipPath
       clipPathUnits="userSpaceOnUse"
       id="clipPath18"><path
         d="M 0,841.89 H 1190.551 V 0 H 0 Z"
         id="path16" /></clipPath><clipPath
       clipPathUnits="userSpaceOnUse"
       id="clipPath54"><path
         d="m 103.968,676.394 h 13.898 v -17.06 h -13.898 z"
         id="path52" /></clipPath><clipPath
       clipPathUnits="userSpaceOnUse"
       id="clipPath70"><path
         d="m 134.663,699.78 h 13.149 v -17.476 h -13.149 z"
         id="path68" /></clipPath><clipPath
       clipPathUnits="userSpaceOnUse"
       id="clipPath86"><path
         d="m 169.667,708.055 h 14.225 v -16.612 h -14.225 z"
         id="path84" /></clipPath><clipPath
       clipPathUnits="userSpaceOnUse"
       id="clipPath102"><path
         d="m 206.546,699.378 h 12.656 v -17.045 h -12.656 z"
         id="path100" /></clipPath><clipPath
       clipPathUnits="userSpaceOnUse"
       id="clipPath118"><path
         d="m 234.244,675.393 h 14.094 v -17.022 h -14.094 z"
         id="path116" /></clipPath><clipPath
       clipPathUnits="userSpaceOnUse"
       id="clipPath134"><path
         d="m 252.412,640.031 h 15.31 v -16.595 h -15.31 z"
         id="path132" /></clipPath><clipPath
       clipPathUnits="userSpaceOnUse"
       id="clipPath262"><path
         d="m 415.176,699.78 h 13.149 v -17.476 h -13.149 z"
         id="path260" /></clipPath><clipPath
       clipPathUnits="userSpaceOnUse"
       id="clipPath278"><path
         d="m 450.18,708.055 h 14.224 V 691.443 H 450.18 Z"
         id="path276" /></clipPath><clipPath
       clipPathUnits="userSpaceOnUse"
       id="clipPath294"><path
         d="m 487.059,699.378 h 12.655 v -17.045 h -12.655 z"
         id="path292" /></clipPath><clipPath
       clipPathUnits="userSpaceOnUse"
       id="clipPath310"><path
         d="M 514.757,675.393 H 528.85 V 658.371 H 514.757 Z"
         id="path308" /></clipPath><clipPath
       clipPathUnits="userSpaceOnUse"
       id="clipPath326"><path
         d="m 532.924,640.031 h 15.311 v -16.595 h -15.311 z"
         id="path324" /></clipPath><clipPath
       clipPathUnits="userSpaceOnUse"
       id="clipPath394"><path
         d="m 369.609,640.585 h 6.964 v -16.688 h -6.964 z"
         id="path392" /></clipPath><clipPath
       clipPathUnits="userSpaceOnUse"
       id="clipPath450"><path
         d="m 944.993,697.579 h 13.897 v -17.06 h -13.897 z"
         id="path448" /></clipPath><clipPath
       clipPathUnits="userSpaceOnUse"
       id="clipPath466"><path
         d="m 1047.57,720.563 h 12.66 v -17.045 h -12.66 z"
         id="path464" /></clipPath><clipPath
       clipPathUnits="userSpaceOnUse"
       id="clipPath482"><path
         d="m 1093.44,661.216 h 15.31 v -16.595 h -15.31 z"
         id="path480" /></clipPath><clipPath
       clipPathUnits="userSpaceOnUse"
       id="clipPath518"><path
         d="m 1010.69,729.239 h 14.23 v -16.611 h -14.23 z"
         id="path516" /></clipPath><clipPath
       clipPathUnits="userSpaceOnUse"
       id="clipPath534"><path
         d="m 1047.57,720.563 h 12.66 v -17.045 h -12.66 z"
         id="path532" /></clipPath><clipPath
       clipPathUnits="userSpaceOnUse"
       id="clipPath550"><path
         d="m 1075.27,696.577 h 14.09 v -17.022 h -14.09 z"
         id="path548" /></clipPath><clipPath
       clipPathUnits="userSpaceOnUse"
       id="clipPath566"><path
         d="m 930.123,661.769 h 6.964 v -16.688 h -6.964 z"
         id="path564" /></clipPath><clipPath
       clipPathUnits="userSpaceOnUse"
       id="clipPath686"><path
         d="m 134.943,455.219 h 13.15 v -17.476 h -13.15 z"
         id="path684" /></clipPath><clipPath
       clipPathUnits="userSpaceOnUse"
       id="clipPath718"><path
         d="m 104.245,431.833 h 13.898 v -17.06 h -13.898 z"
         id="path716" /></clipPath><clipPath
       clipPathUnits="userSpaceOnUse"
       id="clipPath734"><path
         d="M 252.69,395.47 H 268 v -16.595 h -15.31 z"
         id="path732" /></clipPath><clipPath
       clipPathUnits="userSpaceOnUse"
       id="clipPath762"><path
         d="m 206.825,454.817 h 12.656 v -17.045 h -12.656 z"
         id="path760" /></clipPath><clipPath
       clipPathUnits="userSpaceOnUse"
       id="clipPath778"><path
         d="m 234.524,430.832 h 14.093 V 413.81 h -14.093 z"
         id="path776" /></clipPath><clipPath
       clipPathUnits="userSpaceOnUse"
       id="clipPath794"><path
         d="m 89.3759,396.024 h 6.9638 v -16.688 h -6.9638 z"
         id="path792" /></clipPath><clipPath
       clipPathUnits="userSpaceOnUse"
       id="clipPath922"><path
         d="m 384.775,431.909 h 13.897 v -17.06 h -13.897 z"
         id="path920" /></clipPath><clipPath
       clipPathUnits="userSpaceOnUse"
       id="clipPath938"><path
         d="M 533.219,395.546 H 548.53 V 378.951 H 533.219 Z"
         id="path936" /></clipPath><clipPath
       clipPathUnits="userSpaceOnUse"
       id="clipPath966"><path
         d="m 450.476,463.57 h 14.225 v -16.612 h -14.225 z"
         id="path964" /></clipPath><clipPath
       clipPathUnits="userSpaceOnUse"
       id="clipPath982"><path
         d="m 515.054,430.908 h 14.093 v -17.022 h -14.093 z"
         id="path980" /></clipPath><clipPath
       clipPathUnits="userSpaceOnUse"
       id="clipPath998"><path
         d="m 369.906,396.1 h 6.963 v -16.688 h -6.963 z"
         id="path996" /></clipPath><clipPath
       clipPathUnits="userSpaceOnUse"
       id="clipPath1018"><path
         d="M 415.471,455.295 H 428.62 V 437.819 H 415.471 Z"
         id="path1016" /></clipPath><clipPath
       clipPathUnits="userSpaceOnUse"
       id="clipPath1178"><path
         d="m 665.041,431.774 h 13.897 v -17.06 h -13.897 z"
         id="path1176" /></clipPath><clipPath
       clipPathUnits="userSpaceOnUse"
       id="clipPath1194"><path
         d="m 813.485,395.411 h 15.31 v -16.594 h -15.31 z"
         id="path1192" /></clipPath><clipPath
       clipPathUnits="userSpaceOnUse"
       id="clipPath1214"><path
         d="m 730.742,463.435 h 14.224 v -16.611 h -14.224 z"
         id="path1212" /></clipPath><clipPath
       clipPathUnits="userSpaceOnUse"
       id="clipPath1230"><path
         d="m 650.171,395.965 h 6.964 v -16.688 h -6.964 z"
         id="path1228" /></clipPath><clipPath
       clipPathUnits="userSpaceOnUse"
       id="clipPath1250"><path
         d="m 695.736,455.16 h 13.15 v -17.476 h -13.15 z"
         id="path1248" /></clipPath><clipPath
       clipPathUnits="userSpaceOnUse"
       id="clipPath1270"><path
         d="m 767.619,454.758 h 12.655 v -17.044 h -12.655 z"
         id="path1268" /></clipPath><clipPath
       clipPathUnits="userSpaceOnUse"
       id="clipPath1418"><path
         d="m 1075.29,430.773 h 14.09 v -17.022 h -14.09 z"
         id="path1416" /></clipPath><clipPath
       clipPathUnits="userSpaceOnUse"
       id="clipPath1438"><path
         d="m 945.007,431.774 h 13.897 v -17.06 h -13.897 z"
         id="path1436" /></clipPath><clipPath
       clipPathUnits="userSpaceOnUse"
       id="clipPath1462"><path
         d="m 1010.71,463.435 h 14.22 v -16.611 h -14.22 z"
         id="path1460" /></clipPath><clipPath
       clipPathUnits="userSpaceOnUse"
       id="clipPath1478"><path
         d="m 930.137,395.965 h 6.964 v -16.688 h -6.964 z"
         id="path1476" /></clipPath><clipPath
       clipPathUnits="userSpaceOnUse"
       id="clipPath1498"><path
         d="m 975.702,455.16 h 13.149 v -17.476 h -13.149 z"
         id="path1496" /></clipPath><clipPath
       clipPathUnits="userSpaceOnUse"
       id="clipPath1518"><path
         d="m 1047.58,454.758 h 12.66 v -17.044 h -12.66 z"
         id="path1516" /></clipPath><clipPath
       clipPathUnits="userSpaceOnUse"
       id="clipPath1658"><path
         d="M 767.704,720.563 H 780.36 V 703.518 H 767.704 Z"
         id="path1656" /></clipPath><clipPath
       clipPathUnits="userSpaceOnUse"
       id="clipPath1674"><path
         d="M 813.569,661.216 H 828.88 V 644.621 H 813.569 Z"
         id="path1672" /></clipPath><clipPath
       clipPathUnits="userSpaceOnUse"
       id="clipPath1706"><path
         d="m 730.826,729.239 h 14.225 v -16.611 h -14.225 z"
         id="path1704" /></clipPath><clipPath
       clipPathUnits="userSpaceOnUse"
       id="clipPath1722"><path
         d="m 767.705,720.563 h 12.656 v -17.045 h -12.656 z"
         id="path1720" /></clipPath><clipPath
       clipPathUnits="userSpaceOnUse"
       id="clipPath1738"><path
         d="m 795.404,696.577 h 14.093 v -17.022 h -14.093 z"
         id="path1736" /></clipPath><clipPath
       clipPathUnits="userSpaceOnUse"
       id="clipPath1754"><path
         d="m 650.256,661.769 h 6.964 v -16.688 h -6.964 z"
         id="path1752" /></clipPath><clipPath
       clipPathUnits="userSpaceOnUse"
       id="clipPath1926"><path
         d="m 695.765,721.006 h 13.149 V 703.53 h -13.149 z"
         id="path1924" /></clipPath><clipPath
       clipPathUnits="userSpaceOnUse"
       id="clipPath1952"><path
         d="M 0,841.89 H 1190.551 V 0 H 0 Z"
         id="path1950" /></clipPath></defs><sodipodi:namedview
     id="namedview4"
     pagecolor="#ffffff"
     bordercolor="#111111"
     borderopacity="1"
     inkscape:pageshadow="0"
     inkscape:pageopacity="0"
     inkscape:pagecheckerboard="1"
     showgrid="false"
     inkscape:zoom="0.51780081"
     inkscape:cx="377.55831"
     inkscape:cy="515.6423"
     inkscape:window-width="2400"
     inkscape:window-height="1284"
     inkscape:window-x="-9"
     inkscape:window-y="-9"
     inkscape:window-maximized="1"
     inkscape:current-layer="g14"
     showguides="true"
     inkscape:guide-bbox="true"><sodipodi:guide
       position="802.97051,1031.0251"
       orientation="1,0"
       id="guide7237" /><sodipodi:guide
       position="-252.63528,573.55036"
       orientation="0,-1"
       id="guide7239" /></sodipodi:namedview><g
     id="g8"
     inkscape:groupmode="layer"
     inkscape:label="VectSigaIndicesQuadri 1"
     transform="matrix(1.3333333,0,0,-1.3333333,0,1122.52)"><g
       id="g12"><g
         id="g14"
         clip-path="url(#clipPath18)"><g
           id="g6449"
           transform="matrix(3.502346,0,0,3.502346,0.05473196,-1877.6826)"><g
             id="g20"
             transform="translate(194.3366,728.9395)"><path
               d="m 0,0 -0.12,0.14 c -5.75,0.88 -11.65,1.339 -17.68,1.339 -40.804,0 -77.928,-23.244 -98.439,-56.842 l -21.554,10.554 c -2.243,1.08 -4.677,1.626 -7.235,1.626 -8.628,0 -16.321,-6.121 -18.449,-14.613 l -12.522,-42.88 -0.076,-0.333 c -1.291,-5.671 0.049,-11.53 3.676,-16.076 3.628,-4.546 9.043,-7.153 14.858,-7.154 l 24.597,0.003 -0.036,-14.724 c 0,-10.07 8.16,-18.23 18.23,-18.23 H 79.037 c 10.07,0 18.23,8.16 18.23,18.23 v 25.319 C 97.207,-56.49 55.4,-8.551 0,0"
               style="fill:#ffffff;fill-opacity:1;fill-rule:nonzero;stroke:none"
               id="path22" /></g><g
             id="g24"
             transform="translate(278.0109,625.8262)"><path
               d="m 0,0 -5.132,22.335 c -1.095,4.767 -6.335,7.28 -10.739,5.15 L -57.216,8.101 c 2.279,-5.522 3.559,-11.558 3.618,-17.888 H -7.414 C -2.523,-9.782 1.095,-4.767 0,0"
               style="fill:#1a69aa;fill-opacity:1;fill-rule:nonzero;stroke:none"
               id="path26" /></g><g
             id="g28"
             transform="translate(263.0773,668.8574)"><path
               d="m 0,0 -14.419,17.813 c -3.077,3.801 -8.889,3.758 -11.91,-0.088 l -28.322,-35.188 c 4.648,-4.169 8.484,-9.224 11.23,-14.908 l 40.854,20.515 C 1.824,-9.703 3.077,-3.802 0,0"
               style="fill:#1e93da;fill-opacity:1;fill-rule:nonzero;stroke:none"
               id="path30" /></g><g
             id="g32"
             transform="translate(231.1389,700.8437)"><path
               d="M 0,0 -20.681,9.873 C -25.095,11.98 -30.323,9.44 -31.394,4.668 l -10.349,-43.643 c 6.155,-1.734 11.806,-4.66 16.693,-8.516 L 2.688,-11.603 C 5.725,-7.77 4.414,-2.107 0,0"
               style="fill:#1e93da;fill-opacity:1;fill-rule:nonzero;stroke:none"
               id="path34" /></g><g
             id="g36"
             transform="translate(167.5393,662.8643)"><path
               d="m 0,0 c 2.852,0.527 5.787,0.816 8.791,0.816 3.473,0 6.857,-0.377 10.121,-1.076 l 9.455,43.804 c 1.09,4.768 -2.533,9.312 -7.424,9.312 H -1.975 c -4.89,0 -8.514,-4.544 -7.424,-9.312 z"
               style="fill:#85ce37;fill-opacity:1;fill-rule:nonzero;stroke:none"
               id="path38" /></g><g
             id="g40"
             transform="translate(164.5017,662.21)"><path
               d="m 0,0 -10.387,43.294 c -1.084,4.769 -6.318,7.296 -10.726,5.178 l -20.655,-9.929 c -4.408,-2.118 -5.705,-7.784 -2.657,-11.609 L -17.111,-8.213 C -12.084,-4.419 -6.289,-1.59 0,0"
               style="fill:#85ce37;fill-opacity:1;fill-rule:nonzero;stroke:none"
               id="path42" /></g><g
             id="g44"
             transform="translate(144.9475,652.0146)"><path
               d="m 0,0 -28.068,34.563 c -3.037,3.833 -8.849,3.851 -11.911,0.037 L -54.32,16.725 c -3.06,-3.816 -1.783,-9.486 2.618,-11.62 l 40.067,-20.028 C -8.77,-9.203 -4.798,-4.138 0,0"
               style="fill:#17ad49;fill-opacity:1;fill-rule:nonzero;stroke:none"
               id="path46" /></g><g
             id="g48"><g
               id="g50" /><g
               id="g62"><g
                 clip-path="url(#clipPath54)"
                 opacity="0.600006"
                 id="g60"><g
                   transform="translate(117.322,659.334)"
                   id="g58"><path
                     d="m 0,0 -13.354,0.134 4.386,4.218 c 1.156,1.116 2.069,2.062 2.735,2.839 0.666,0.777 1.166,1.435 1.501,1.974 0.335,0.537 0.549,0.975 0.644,1.311 0.095,0.336 0.15,0.621 0.165,0.855 0.016,0.249 -0.01,0.491 -0.075,0.727 -0.065,0.234 -0.174,0.444 -0.323,0.629 -0.15,0.183 -0.334,0.333 -0.555,0.445 -0.221,0.111 -0.484,0.17 -0.793,0.172 -0.586,0.006 -1.057,-0.18 -1.411,-0.557 -0.355,-0.377 -0.55,-0.851 -0.586,-1.422 -0.01,-0.161 -0.003,-0.395 0.021,-0.703 l -4.708,0.047 c 0.062,0.966 0.276,1.842 0.641,2.63 0.366,0.787 0.853,1.463 1.461,2.028 0.609,0.565 1.314,0.997 2.119,1.297 0.804,0.3 1.676,0.444 2.614,0.436 0.924,-0.01 1.77,-0.164 2.536,-0.465 0.766,-0.301 1.419,-0.717 1.956,-1.25 0.539,-0.533 0.946,-1.162 1.222,-1.891 C 0.474,12.727 0.585,11.938 0.53,11.089 0.473,10.181 0.225,9.346 -0.213,8.581 -0.65,7.816 -1.32,7.035 -2.223,6.239 L -5.136,3.698 0.232,3.645 Z"
                     style="fill:#ffffff;fill-opacity:1;fill-rule:nonzero;stroke:none"
                     id="path56" /></g></g></g></g><g
             id="g64"><g
               id="g66" /><g
               id="g78"><g
                 clip-path="url(#clipPath70)"
                 opacity="0.600006"
                 id="g76"><g
                   transform="translate(140.8195,692.873)"
                   id="g74"><path
                     d="m 0,0 c 0.116,-0.016 0.214,-0.023 0.295,-0.025 0.08,0 0.15,-10e-4 0.209,-0.002 0.542,-0.005 0.993,0.151 1.351,0.47 C 2.213,0.761 2.408,1.177 2.44,1.689 2.473,2.187 2.34,2.591 2.044,2.9 1.748,3.212 1.352,3.369 0.853,3.375 0.325,3.38 -0.111,3.209 -0.456,2.86 -0.802,2.512 -0.992,2.061 -1.027,1.504 l -3.983,0.04 c 0.157,0.862 0.424,1.628 0.796,2.299 0.373,0.67 0.83,1.233 1.373,1.688 0.543,0.456 1.166,0.801 1.872,1.036 0.704,0.236 1.475,0.348 2.312,0.339 C 2.163,6.898 2.9,6.777 3.554,6.544 4.206,6.311 4.758,5.983 5.208,5.561 5.657,5.139 5.992,4.631 6.212,4.035 6.43,3.439 6.517,2.776 6.47,2.045 6.42,1.254 6.228,0.607 5.896,0.105 5.562,-0.396 5.105,-0.828 4.524,-1.187 5.358,-1.46 5.992,-1.939 6.426,-2.623 6.859,-3.309 7.044,-4.149 6.98,-5.145 6.929,-5.965 6.72,-6.71 6.354,-7.379 5.988,-8.05 5.5,-8.623 4.891,-9.1 4.28,-9.578 3.567,-9.943 2.751,-10.199 1.936,-10.455 1.05,-10.578 0.097,-10.568 c -1.276,0.013 -2.411,0.273 -3.407,0.781 -0.995,0.508 -1.765,1.307 -2.313,2.396 -0.247,0.485 -0.404,0.97 -0.468,1.454 -0.065,0.484 -0.082,0.975 -0.05,1.472 l 4.269,-0.043 c -0.021,-0.775 0.169,-1.367 0.569,-1.773 0.4,-0.407 0.958,-0.615 1.677,-0.621 0.763,-0.008 1.334,0.191 1.712,0.598 0.378,0.406 0.586,0.909 0.624,1.509 0.046,0.717 -0.133,1.262 -0.534,1.632 C 1.773,-2.794 1.279,-2.605 0.692,-2.6 0.546,-2.598 0.406,-2.607 0.272,-2.628 0.139,-2.648 -0.009,-2.673 -0.172,-2.701 Z"
                     style="fill:#ffffff;fill-opacity:1;fill-rule:nonzero;stroke:none"
                     id="path72" /></g></g></g></g><g
             id="g80"><g
               id="g82" /><g
               id="g94"><g
                 clip-path="url(#clipPath86)"
                 opacity="0.600006"
                 id="g92"><g
                   transform="translate(177.8859,698.1797)"
                   id="g90"><path
                     d="M 0,0 0.415,6.521 -3.807,0.038 Z m 4.004,-0.04 2.002,-0.02 -0.21,-3.293 -2.002,0.02 -0.217,-3.403 -4.004,0.04 0.217,3.403 -8.009,0.08 0.177,2.767 6.997,10.321 5.677,-0.057 z"
                     style="fill:#ffffff;fill-opacity:1;fill-rule:nonzero;stroke:none"
                     id="path88" /></g></g></g></g><g
             id="g96"><g
               id="g98" /><g
               id="g110"><g
                 clip-path="url(#clipPath102)"
                 opacity="0.600006"
                 id="g108"><g
                   transform="translate(218.4582,695.6465)"
                   id="g106"><path
                     d="m 0,0 -5.742,0.058 -0.403,-1.82 c 0.266,0.027 0.51,0.05 0.731,0.07 0.223,0.019 0.449,0.028 0.685,0.026 0.835,-0.009 1.604,-0.163 2.304,-0.463 0.699,-0.3 1.289,-0.709 1.771,-1.225 0.481,-0.518 0.844,-1.137 1.092,-1.857 0.248,-0.72 0.345,-1.505 0.291,-2.353 -0.057,-0.894 -0.273,-1.697 -0.649,-2.411 -0.376,-0.714 -0.881,-1.32 -1.514,-1.819 -0.633,-0.499 -1.392,-0.88 -2.273,-1.142 -0.884,-0.261 -1.853,-0.387 -2.909,-0.377 -0.997,0.01 -1.939,0.14 -2.825,0.39 -0.887,0.251 -1.71,0.629 -2.471,1.135 l 0.894,4.033 c 0.694,-0.637 1.412,-1.123 2.154,-1.46 0.741,-0.337 1.456,-0.509 2.145,-0.515 0.881,-0.009 1.593,0.221 2.137,0.692 0.543,0.47 0.837,1.057 0.882,1.759 0.053,0.82 -0.25,1.486 -0.907,1.998 -0.658,0.511 -1.544,0.773 -2.659,0.784 -0.498,0.005 -1.014,-0.045 -1.55,-0.149 -0.535,-0.105 -1.067,-0.271 -1.594,-0.5 l 1.952,8.877 8.69,-0.086 z"
                     style="fill:#ffffff;fill-opacity:1;fill-rule:nonzero;stroke:none"
                     id="path104" /></g></g></g></g><g
             id="g112"><g
               id="g114" /><g
               id="g126"><g
                 clip-path="url(#clipPath118)"
                 opacity="0.600006"
                 id="g124"><g
                   transform="translate(238.5285,664.5459)"
                   id="g122"><path
                     d="m 0,0 c -0.024,-0.381 0.025,-0.736 0.152,-1.067 0.125,-0.33 0.305,-0.621 0.538,-0.872 0.234,-0.253 0.511,-0.453 0.831,-0.602 0.322,-0.15 0.672,-0.227 1.054,-0.23 0.381,-0.004 0.741,0.065 1.08,0.208 0.34,0.143 0.642,0.337 0.907,0.584 0.265,0.247 0.482,0.534 0.65,0.861 C 5.379,-0.79 5.476,-0.436 5.5,-0.055 5.524,0.325 5.473,0.682 5.347,1.013 5.222,1.343 5.042,1.634 4.809,1.885 4.574,2.137 4.298,2.337 3.978,2.486 3.656,2.637 3.306,2.714 2.925,2.718 2.543,2.722 2.183,2.651 1.844,2.508 1.504,2.365 1.201,2.17 0.937,1.924 0.672,1.678 0.455,1.391 0.287,1.063 0.119,0.735 0.024,0.38 0,0 M 7.82,10.797 2.768,5.442 2.855,5.441 C 3.282,5.687 3.629,5.833 3.896,5.882 4.163,5.931 4.399,5.954 4.605,5.952 5.412,5.943 6.143,5.782 6.798,5.469 7.453,5.154 8.013,4.728 8.477,4.188 8.942,3.648 9.291,3.02 9.523,2.3 9.757,1.58 9.847,0.81 9.795,-0.01 9.738,-0.889 9.525,-1.702 9.155,-2.453 8.784,-3.204 8.276,-3.857 7.632,-4.415 6.987,-4.973 6.223,-5.408 5.337,-5.721 4.451,-6.034 3.465,-6.186 2.38,-6.175 c -1.1,0.011 -2.072,0.182 -2.917,0.513 -0.845,0.33 -1.555,0.776 -2.127,1.339 -0.573,0.562 -0.998,1.215 -1.274,1.957 -0.276,0.742 -0.386,1.531 -0.333,2.365 0.059,0.937 0.333,1.948 0.82,3.035 0.488,1.085 1.197,2.152 2.13,3.196 l 4.147,4.617 z"
                     style="fill:#ffffff;fill-opacity:1;fill-rule:nonzero;stroke:none"
                     id="path120" /></g></g></g></g><g
             id="g128"><g
               id="g130" /><g
               id="g142"><g
                 clip-path="url(#clipPath134)"
                 opacity="0.600006"
                 id="g140"><g
                   transform="translate(260.8024,636.3174)"
                   id="g138"><path
                     d="M 0,0 -6.931,0.069 -6.698,3.714 6.92,3.578 -3.639,-12.881 l -4.752,0.047 z"
                     style="fill:#ffffff;fill-opacity:1;fill-rule:nonzero;stroke:none"
                     id="path136" /></g></g></g></g><g
             id="g144"
             transform="translate(132.0529,634.3916)"><path
               d="m 0,0 -80.71,39.521 c -3.438,1.655 -8.714,-0.887 -9.809,-5.692 l -12.5,-42.808 c -1.093,-4.801 2.557,-9.375 7.482,-9.374 l 91.73,0.01 C -3.745,-11.839 -2.4,-5.643 0,0"
               style="fill:#17ad49;fill-opacity:1;fill-rule:nonzero;stroke:none"
               id="path146" /></g><g
             id="g148"
             transform="translate(79.3088,600.5176)"><path
               d="m 0,0 3.438,-0.001 5.469,-7.031 0.003,7.028 3.647,-0.002 -0.006,-13.298 -3.21,0.002 -5.696,7.298 -0.003,-7.295 -3.648,10e-4 z"
               style="fill:#231f20;fill-opacity:1;fill-rule:nonzero;stroke:none"
               id="path150" /></g><g
             id="g152"
             transform="translate(104.802,593.8193)"><path
               d="M 0,0 V 0.038 C 0.001,1.976 -1.366,3.629 -3.399,3.63 -5.432,3.631 -6.781,1.998 -6.782,0.079 V 0.041 C -6.783,-1.878 -5.397,-3.55 -3.364,-3.551 -1.351,-3.552 -0.001,-1.919 0,0 m -10.543,0.005 v 0.038 c 10e-4,3.818 3.081,6.913 7.184,6.911 4.104,-0.002 7.142,-3.061 7.14,-6.88 V 0.036 C 3.779,-3.782 0.7,-6.878 -3.404,-6.876 c -4.103,0.002 -7.141,3.063 -7.139,6.881"
               style="fill:#231f20;fill-opacity:1;fill-rule:nonzero;stroke:none"
               id="path154" /></g><g
             id="g156"
             transform="translate(110.9626,600.5029)"><path
               d="m 0,0 3.438,-0.002 5.469,-7.031 0.003,7.029 3.647,-0.002 -0.006,-13.298 -3.21,0.002 -5.696,7.297 -0.003,-7.295 -3.648,0.002 z"
               style="fill:#231f20;fill-opacity:1;fill-rule:nonzero;stroke:none"
               id="path158" /></g><g
             id="g160"
             transform="translate(135.3366,597.2617)"><path
               d="M 0,0 -3.97,0.002 -3.969,3.231 7.676,3.227 7.675,-0.003 3.686,-0.001 3.681,-10.069 -0.004,-10.068 Z"
               style="fill:#231f20;fill-opacity:1;fill-rule:nonzero;stroke:none"
               id="path162" /></g><g
             id="g164"
             transform="translate(151.2375,594.1016)"><path
               d="m 0,0 c 1.235,-0.001 1.976,0.606 1.977,1.575 v 0.038 c 0,1.065 -0.779,1.597 -1.995,1.597 L -2.449,3.211 -2.451,0.001 Z M -6.133,6.386 0.155,6.383 C 2.188,6.382 3.593,5.85 4.486,4.956 5.264,4.177 5.663,3.17 5.662,1.859 V 1.821 C 5.661,-0.23 4.578,-1.579 2.924,-2.281 l 3.171,-4.637 -4.236,0.002 -2.677,4.028 -1.634,10e-4 -0.002,-4.027 -3.685,0.002 z"
               style="fill:#231f20;fill-opacity:1;fill-rule:nonzero;stroke:none"
               id="path166" /></g><g
             id="g168"
             transform="translate(166.8171,592.4414)"><path
               d="M 0,0 -1.48,3.762 -2.983,0.001 Z M -3.226,8.132 0.326,8.131 5.981,-5.266 2.03,-5.264 1.081,-2.869 -4.067,-2.867 -5.018,-5.26 -8.875,-5.258 Z"
               style="fill:#231f20;fill-opacity:1;fill-rule:nonzero;stroke:none"
               id="path170" /></g><g
             id="g172"
             transform="translate(174.5734,600.4736)"><path
               d="m 0,0 3.438,-0.002 5.469,-7.031 0.003,7.028 3.647,-0.002 -0.006,-13.298 -3.21,0.002 -5.696,7.298 -0.003,-7.295 -3.648,0.002 z"
               style="fill:#231f20;fill-opacity:1;fill-rule:nonzero;stroke:none"
               id="path174" /></g><g
             id="g176"
             transform="translate(188.9504,589.1445)"><path
               d="M 0,0 2.053,2.449 C 3.382,1.403 4.826,0.853 6.365,0.852 c 1.007,0 1.539,0.34 1.539,0.911 v 0.038 c 0,0.57 -0.437,0.854 -2.26,1.293 C 2.813,3.741 0.629,4.54 0.63,7.256 v 0.038 c 0.002,2.47 1.959,4.255 5.151,4.253 2.261,-0.001 4.027,-0.609 5.47,-1.769 L 9.407,7.177 C 8.192,8.051 6.862,8.488 5.685,8.488 4.792,8.489 4.354,8.128 4.354,7.635 V 7.597 C 4.354,6.988 4.81,6.723 6.671,6.304 9.71,5.637 11.61,4.648 11.608,2.16 V 2.122 C 11.607,-0.595 9.459,-2.208 6.23,-2.207 3.875,-2.206 1.652,-1.464 0,0"
               style="fill:#231f20;fill-opacity:1;fill-rule:nonzero;stroke:none"
               id="path178" /></g><g
             id="g180"
             transform="translate(202.8254,600.46)"><path
               d="M 0,0 10.639,-0.005 10.637,-3.234 3.684,-3.231 3.683,-5.492 9.971,-5.495 9.97,-8.553 3.682,-8.55 3.68,-13.3 l -3.686,0.002 z"
               style="fill:#231f20;fill-opacity:1;fill-rule:nonzero;stroke:none"
               id="path182" /></g><g
             id="g184"
             transform="translate(225.7346,593.7617)"><path
               d="M 0,0 V 0.038 C 0.001,1.977 -1.366,3.63 -3.399,3.631 -5.432,3.631 -6.781,1.999 -6.782,0.08 V 0.042 C -6.783,-1.877 -5.397,-3.55 -3.364,-3.55 -1.351,-3.551 -0.001,-1.918 0,0 m -10.543,0.005 v 0.038 c 10e-4,3.818 3.081,6.914 7.184,6.912 4.104,-0.002 7.142,-3.061 7.14,-6.88 V 0.037 C 3.779,-3.781 0.7,-6.877 -3.404,-6.875 c -4.103,0.002 -7.141,3.062 -7.139,6.88"
               style="fill:#231f20;fill-opacity:1;fill-rule:nonzero;stroke:none"
               id="path186" /></g><g
             id="g188"
             transform="translate(238.0285,594.0605)"><path
               d="m 0,0 c 1.235,-0.001 1.976,0.607 1.977,1.576 v 0.038 c 0,1.064 -0.779,1.596 -1.995,1.596 L -2.449,3.212 -2.451,0.001 Z M -6.133,6.386 0.155,6.383 C 2.188,6.382 3.593,5.85 4.486,4.956 5.264,4.177 5.663,3.17 5.662,1.859 V 1.821 C 5.661,-0.23 4.578,-1.579 2.924,-2.281 l 3.171,-4.637 -4.236,0.002 -2.677,4.028 -1.634,10e-4 -0.002,-4.027 -3.685,0.002 z"
               style="fill:#231f20;fill-opacity:1;fill-rule:nonzero;stroke:none"
               id="path190" /></g><g
             id="g192"
             transform="translate(246.031,600.4395)"><path
               d="m 0,0 3.895,-0.002 3.169,-5.149 3.176,5.146 3.894,-0.002 -0.006,-13.298 -3.666,0.002 0.003,7.637 -3.403,-5.203 H 6.986 l -3.379,5.187 -0.003,-7.618 -3.61,0.002 z"
               style="fill:#231f20;fill-opacity:1;fill-rule:nonzero;stroke:none"
               id="path194" /></g><g
             id="g196"
             transform="translate(269.0212,604.4189)"><path
               d="M 0,0 3.438,-1.047 0.625,-3.078 -2.053,-3.077 Z M -6.024,-3.987 4.671,-3.992 4.67,-7.107 l -7.048,0.003 -10e-4,-2.033 6.383,-0.003 -10e-4,-2.907 -6.383,0.003 -10e-4,-2.108 7.143,-0.003 -10e-4,-3.135 -10.791,0.005 z"
               style="fill:#231f20;fill-opacity:1;fill-rule:nonzero;stroke:none"
               id="path198" /></g><g
             id="g200"
             transform="translate(53.2829,648.4961)"><path
               d="m 0,0 -3.907,0.038 0.39,6.13 10.869,-0.108 -1.774,-27.842 -6.961,0.07 z"
               style="fill:#ffffff;fill-opacity:1;fill-rule:nonzero;stroke:none"
               id="path202" /></g><g
             id="g204"
             transform="translate(180.2834,625.624)"><path
               d="m 0,0 c -2.797,-0.277 -5.129,2.055 -4.852,4.853 0.205,2.069 1.879,3.744 3.949,3.949 C 1.895,9.079 4.226,6.747 3.949,3.95 3.744,1.88 2.07,0.205 0,0 m 10.374,4.334 h -0.029 c 10e-4,0.022 0.002,0.045 0.002,0.067 0,5.847 -4.835,10.586 -10.799,10.586 -6.192,0 -10.798,-4.739 -10.798,-10.586 0,-5.846 4.834,-10.587 10.798,-10.587 1.373,0 2.684,0.253 3.891,0.711 0.255,0.097 0.527,-0.089 0.526,-0.362 0.027,-3.836 -1.595,-5.556 -4.515,-5.491 -1.81,0.041 -3.587,1.545 -4.196,2.874 -0.189,0.411 -0.609,0.667 -1.061,0.667 h -4.406 c -0.648,0 -1.12,-0.602 -0.984,-1.235 1.022,-4.799 5.405,-8.349 11.296,-8.276 5.641,0.071 10.031,4.012 10.32,9.504 v 0.013 z"
               style="fill:#918f90;fill-opacity:1;fill-rule:nonzero;stroke:none"
               id="path206" /></g><g
             id="g208"
             transform="translate(165.2263,619.1748)"><path
               d="m 0,0 h -5.792 c -0.349,0 -0.633,0.274 -0.633,0.613 v 16.886 c 0,0.338 0.284,0.612 0.633,0.612 H 0 c 0.35,0 0.634,-0.274 0.634,-0.612 V 0.613 C 0.634,0.274 0.35,0 0,0"
               style="fill:#918f90;fill-opacity:1;fill-rule:nonzero;stroke:none"
               id="path210" /></g><g
             id="g212"
             transform="translate(159.1159,638.5186)"><path
               d="M 0,0 C 0,0 -1.954,8.643 7.838,9.369 8.077,2.019 4.228,0.494 0,0"
               style="fill:#918f90;fill-opacity:1;fill-rule:nonzero;stroke:none"
               id="path214" /></g><g
             id="g216"
             transform="translate(148.2038,640.6328)"><path
               d="M 0,0 C 2.195,0 4.176,-0.487 6.032,-1.488 6.303,-1.635 6.419,-1.959 6.315,-2.246 L 5.039,-5.771 c -0.145,-0.4 -0.615,-0.568 -0.994,-0.368 -1.341,0.707 -2.728,1.01 -3.942,1.01 -1.031,0 -2,-0.623 -2,-1.686 0.012,-1.143 0.928,-1.234 3.673,-1.858 3.637,-0.826 5.548,-3.405 5.525,-6.055 -0.035,-5.307 -4.732,-7.615 -9.129,-7.615 -2.423,0 -5.223,0.621 -7.503,1.645 -0.263,0.118 -0.383,0.421 -0.283,0.688 l 1.571,4.171 c 0.082,0.217 0.35,0.304 0.541,0.171 1.681,-1.168 3.517,-1.399 5.065,-1.399 0.248,0 2.354,0.088 2.391,1.688 0.009,2.251 -2.571,2.186 -3.866,2.428 -3.796,0.708 -4.778,3.64 -4.865,5.534 0,2.987 1.185,4.333 2.473,5.351 C -4.641,-0.753 -2.343,0 0,0"
               style="fill:#918f90;fill-opacity:1;fill-rule:nonzero;stroke:none"
               id="path218" /></g><g
             id="g220"
             transform="translate(207.5617,629.4199)"><path
               d="m 0,0 c -0.205,-2.07 -1.879,-3.745 -3.949,-3.95 -2.798,-0.278 -5.13,2.054 -4.852,4.852 0.205,2.07 1.879,3.744 3.949,3.95 C -2.055,5.129 0.277,2.797 0,0 m 6.555,2.085 c -0.805,5.048 -5.178,8.906 -10.453,8.906 -5.847,0 -10.463,-4.741 -10.586,-10.586 -0.113,-5.333 3.605,-10.328 8.599,-10.557 4.188,-0.193 5.855,1.748 6.549,2.314 v -2.246 c 0,-0.303 0.245,-0.547 0.546,-0.547 h 4.306 c 0.642,0 1.162,0.519 1.162,1.16 0.003,2.809 0.01,9.756 0.01,9.876 0,0.151 -0.069,1.277 -0.133,1.68"
               style="fill:#918f90;fill-opacity:1;fill-rule:nonzero;stroke:none"
               id="path222" /></g></g></g></g></g></svg>
