<?xml version="1.0" encoding="UTF-8" standalone="no"?>
<!-- Created with Inkscape (http://www.inkscape.org/) -->

<svg
   version="1.1"
   id="svg2"
   xml:space="preserve"
   width="1587.4"
   height="1122.52"
   viewBox="0 0 1587.4 1122.52"
   sodipodi:docname="VectSigaIndicesQuadri 3.svg"
   inkscape:export-filename="C:\Users\yasmi\Downloads\g14.png"
   inkscape:export-xdpi="245.12"
   inkscape:export-ydpi="245.12"
   inkscape:version="1.1 (c68e22c387, 2021-05-23)"
   xmlns:inkscape="http://www.inkscape.org/namespaces/inkscape"
   xmlns:sodipodi="http://sodipodi.sourceforge.net/DTD/sodipodi-0.dtd"
   xmlns="http://www.w3.org/2000/svg"
   xmlns:svg="http://www.w3.org/2000/svg"><defs
     id="defs6"><clipPath
       clipPathUnits="userSpaceOnUse"
       id="clipPath18"><path
         d="M 0,841.89 H 1190.551 V 0 H 0 Z"
         id="path16" /></clipPath><clipPath
       clipPathUnits="userSpaceOnUse"
       id="clipPath54"><path
         d="m 103.968,676.394 h 13.898 v -17.06 h -13.898 z"
         id="path52" /></clipPath><clipPath
       clipPathUnits="userSpaceOnUse"
       id="clipPath70"><path
         d="m 134.663,699.78 h 13.149 v -17.476 h -13.149 z"
         id="path68" /></clipPath><clipPath
       clipPathUnits="userSpaceOnUse"
       id="clipPath86"><path
         d="m 169.667,708.055 h 14.225 v -16.612 h -14.225 z"
         id="path84" /></clipPath><clipPath
       clipPathUnits="userSpaceOnUse"
       id="clipPath102"><path
         d="m 206.546,699.378 h 12.656 v -17.045 h -12.656 z"
         id="path100" /></clipPath><clipPath
       clipPathUnits="userSpaceOnUse"
       id="clipPath118"><path
         d="m 234.244,675.393 h 14.094 v -17.022 h -14.094 z"
         id="path116" /></clipPath><clipPath
       clipPathUnits="userSpaceOnUse"
       id="clipPath134"><path
         d="m 252.412,640.031 h 15.31 v -16.595 h -15.31 z"
         id="path132" /></clipPath><clipPath
       clipPathUnits="userSpaceOnUse"
       id="clipPath262"><path
         d="m 415.176,699.78 h 13.149 v -17.476 h -13.149 z"
         id="path260" /></clipPath><clipPath
       clipPathUnits="userSpaceOnUse"
       id="clipPath278"><path
         d="m 450.18,708.055 h 14.224 V 691.443 H 450.18 Z"
         id="path276" /></clipPath><clipPath
       clipPathUnits="userSpaceOnUse"
       id="clipPath294"><path
         d="m 487.059,699.378 h 12.655 v -17.045 h -12.655 z"
         id="path292" /></clipPath><clipPath
       clipPathUnits="userSpaceOnUse"
       id="clipPath310"><path
         d="M 514.757,675.393 H 528.85 V 658.371 H 514.757 Z"
         id="path308" /></clipPath><clipPath
       clipPathUnits="userSpaceOnUse"
       id="clipPath326"><path
         d="m 532.924,640.031 h 15.311 v -16.595 h -15.311 z"
         id="path324" /></clipPath><clipPath
       clipPathUnits="userSpaceOnUse"
       id="clipPath394"><path
         d="m 369.609,640.585 h 6.964 v -16.688 h -6.964 z"
         id="path392" /></clipPath><clipPath
       clipPathUnits="userSpaceOnUse"
       id="clipPath450"><path
         d="m 944.993,697.579 h 13.897 v -17.06 h -13.897 z"
         id="path448" /></clipPath><clipPath
       clipPathUnits="userSpaceOnUse"
       id="clipPath466"><path
         d="m 1047.57,720.563 h 12.66 v -17.045 h -12.66 z"
         id="path464" /></clipPath><clipPath
       clipPathUnits="userSpaceOnUse"
       id="clipPath482"><path
         d="m 1093.44,661.216 h 15.31 v -16.595 h -15.31 z"
         id="path480" /></clipPath><clipPath
       clipPathUnits="userSpaceOnUse"
       id="clipPath518"><path
         d="m 1010.69,729.239 h 14.23 v -16.611 h -14.23 z"
         id="path516" /></clipPath><clipPath
       clipPathUnits="userSpaceOnUse"
       id="clipPath534"><path
         d="m 1047.57,720.563 h 12.66 v -17.045 h -12.66 z"
         id="path532" /></clipPath><clipPath
       clipPathUnits="userSpaceOnUse"
       id="clipPath550"><path
         d="m 1075.27,696.577 h 14.09 v -17.022 h -14.09 z"
         id="path548" /></clipPath><clipPath
       clipPathUnits="userSpaceOnUse"
       id="clipPath566"><path
         d="m 930.123,661.769 h 6.964 v -16.688 h -6.964 z"
         id="path564" /></clipPath><clipPath
       clipPathUnits="userSpaceOnUse"
       id="clipPath686"><path
         d="m 134.943,455.219 h 13.15 v -17.476 h -13.15 z"
         id="path684" /></clipPath><clipPath
       clipPathUnits="userSpaceOnUse"
       id="clipPath718"><path
         d="m 104.245,431.833 h 13.898 v -17.06 h -13.898 z"
         id="path716" /></clipPath><clipPath
       clipPathUnits="userSpaceOnUse"
       id="clipPath734"><path
         d="M 252.69,395.47 H 268 v -16.595 h -15.31 z"
         id="path732" /></clipPath><clipPath
       clipPathUnits="userSpaceOnUse"
       id="clipPath762"><path
         d="m 206.825,454.817 h 12.656 v -17.045 h -12.656 z"
         id="path760" /></clipPath><clipPath
       clipPathUnits="userSpaceOnUse"
       id="clipPath778"><path
         d="m 234.524,430.832 h 14.093 V 413.81 h -14.093 z"
         id="path776" /></clipPath><clipPath
       clipPathUnits="userSpaceOnUse"
       id="clipPath794"><path
         d="m 89.3759,396.024 h 6.9638 v -16.688 h -6.9638 z"
         id="path792" /></clipPath><clipPath
       clipPathUnits="userSpaceOnUse"
       id="clipPath922"><path
         d="m 384.775,431.909 h 13.897 v -17.06 h -13.897 z"
         id="path920" /></clipPath><clipPath
       clipPathUnits="userSpaceOnUse"
       id="clipPath938"><path
         d="M 533.219,395.546 H 548.53 V 378.951 H 533.219 Z"
         id="path936" /></clipPath><clipPath
       clipPathUnits="userSpaceOnUse"
       id="clipPath966"><path
         d="m 450.476,463.57 h 14.225 v -16.612 h -14.225 z"
         id="path964" /></clipPath><clipPath
       clipPathUnits="userSpaceOnUse"
       id="clipPath982"><path
         d="m 515.054,430.908 h 14.093 v -17.022 h -14.093 z"
         id="path980" /></clipPath><clipPath
       clipPathUnits="userSpaceOnUse"
       id="clipPath998"><path
         d="m 369.906,396.1 h 6.963 v -16.688 h -6.963 z"
         id="path996" /></clipPath><clipPath
       clipPathUnits="userSpaceOnUse"
       id="clipPath1018"><path
         d="M 415.471,455.295 H 428.62 V 437.819 H 415.471 Z"
         id="path1016" /></clipPath><clipPath
       clipPathUnits="userSpaceOnUse"
       id="clipPath1178"><path
         d="m 665.041,431.774 h 13.897 v -17.06 h -13.897 z"
         id="path1176" /></clipPath><clipPath
       clipPathUnits="userSpaceOnUse"
       id="clipPath1194"><path
         d="m 813.485,395.411 h 15.31 v -16.594 h -15.31 z"
         id="path1192" /></clipPath><clipPath
       clipPathUnits="userSpaceOnUse"
       id="clipPath1214"><path
         d="m 730.742,463.435 h 14.224 v -16.611 h -14.224 z"
         id="path1212" /></clipPath><clipPath
       clipPathUnits="userSpaceOnUse"
       id="clipPath1230"><path
         d="m 650.171,395.965 h 6.964 v -16.688 h -6.964 z"
         id="path1228" /></clipPath><clipPath
       clipPathUnits="userSpaceOnUse"
       id="clipPath1250"><path
         d="m 695.736,455.16 h 13.15 v -17.476 h -13.15 z"
         id="path1248" /></clipPath><clipPath
       clipPathUnits="userSpaceOnUse"
       id="clipPath1270"><path
         d="m 767.619,454.758 h 12.655 v -17.044 h -12.655 z"
         id="path1268" /></clipPath><clipPath
       clipPathUnits="userSpaceOnUse"
       id="clipPath1418"><path
         d="m 1075.29,430.773 h 14.09 v -17.022 h -14.09 z"
         id="path1416" /></clipPath><clipPath
       clipPathUnits="userSpaceOnUse"
       id="clipPath1438"><path
         d="m 945.007,431.774 h 13.897 v -17.06 h -13.897 z"
         id="path1436" /></clipPath><clipPath
       clipPathUnits="userSpaceOnUse"
       id="clipPath1462"><path
         d="m 1010.71,463.435 h 14.22 v -16.611 h -14.22 z"
         id="path1460" /></clipPath><clipPath
       clipPathUnits="userSpaceOnUse"
       id="clipPath1478"><path
         d="m 930.137,395.965 h 6.964 v -16.688 h -6.964 z"
         id="path1476" /></clipPath><clipPath
       clipPathUnits="userSpaceOnUse"
       id="clipPath1498"><path
         d="m 975.702,455.16 h 13.149 v -17.476 h -13.149 z"
         id="path1496" /></clipPath><clipPath
       clipPathUnits="userSpaceOnUse"
       id="clipPath1518"><path
         d="m 1047.58,454.758 h 12.66 v -17.044 h -12.66 z"
         id="path1516" /></clipPath><clipPath
       clipPathUnits="userSpaceOnUse"
       id="clipPath1658"><path
         d="M 767.704,720.563 H 780.36 V 703.518 H 767.704 Z"
         id="path1656" /></clipPath><clipPath
       clipPathUnits="userSpaceOnUse"
       id="clipPath1674"><path
         d="M 813.569,661.216 H 828.88 V 644.621 H 813.569 Z"
         id="path1672" /></clipPath><clipPath
       clipPathUnits="userSpaceOnUse"
       id="clipPath1706"><path
         d="m 730.826,729.239 h 14.225 v -16.611 h -14.225 z"
         id="path1704" /></clipPath><clipPath
       clipPathUnits="userSpaceOnUse"
       id="clipPath1722"><path
         d="m 767.705,720.563 h 12.656 v -17.045 h -12.656 z"
         id="path1720" /></clipPath><clipPath
       clipPathUnits="userSpaceOnUse"
       id="clipPath1738"><path
         d="m 795.404,696.577 h 14.093 v -17.022 h -14.093 z"
         id="path1736" /></clipPath><clipPath
       clipPathUnits="userSpaceOnUse"
       id="clipPath1754"><path
         d="m 650.256,661.769 h 6.964 v -16.688 h -6.964 z"
         id="path1752" /></clipPath><clipPath
       clipPathUnits="userSpaceOnUse"
       id="clipPath1926"><path
         d="m 695.765,721.006 h 13.149 V 703.53 h -13.149 z"
         id="path1924" /></clipPath><clipPath
       clipPathUnits="userSpaceOnUse"
       id="clipPath1952"><path
         d="M 0,841.89 H 1190.551 V 0 H 0 Z"
         id="path1950" /></clipPath></defs><sodipodi:namedview
     id="namedview4"
     pagecolor="#ffffff"
     bordercolor="#111111"
     borderopacity="1"
     inkscape:pageshadow="0"
     inkscape:pageopacity="0"
     inkscape:pagecheckerboard="1"
     showgrid="false"
     inkscape:zoom="0.51780081"
     inkscape:cx="143.87772"
     inkscape:cy="206.64317"
     inkscape:window-width="2400"
     inkscape:window-height="1284"
     inkscape:window-x="-9"
     inkscape:window-y="-9"
     inkscape:window-maximized="1"
     inkscape:current-layer="g14"
     showguides="true"
     inkscape:guide-bbox="true"><sodipodi:guide
       position="802.97051,1031.0251"
       orientation="1,0"
       id="guide7237" /><sodipodi:guide
       position="-252.63528,573.55036"
       orientation="0,-1"
       id="guide7239" /></sodipodi:namedview><g
     id="g8"
     inkscape:groupmode="layer"
     inkscape:label="VectSigaIndicesQuadri 1"
     transform="matrix(1.3333333,0,0,-1.3333333,0,1122.52)"><g
       id="g12"><g
         id="g14"
         clip-path="url(#clipPath18)"><g
           id="g6787"
           transform="matrix(3.502346,0,0,3.502346,-2943.4097,-1950.7819)"><g
             id="g428"
             transform="translate(1016.9919,751.5508)"><path
               d="m 0,0 c -5.134,0 -10.207,-0.376 -15.198,-1.086 l -4.365,18.97 c -1.784,7.993 -9.41,13.786 -18.171,13.786 -2.677,0 -5.266,-0.541 -7.703,-1.61 l -37.895,-14.566 -0.367,-0.173 c -5.251,-2.463 -9.036,-7.11 -10.386,-12.75 -1.342,-5.61 -0.091,-11.434 3.433,-15.996 l 13.367,-17.637 c -23.045,-21.288 -37.858,-51.482 -37.858,-84.053 v -9.086 l -0.033,-37.19 c 0,-10.068 8.162,-18.23 18.231,-18.23 H 97.123 c 10.068,0 18.231,8.162 18.231,18.23 v 46.276 C 115.354,-51.948 64.187,0 0,0"
               style="fill:#ffffff;fill-opacity:1;fill-rule:nonzero;stroke:none"
               id="path430" /></g><g
             id="g432"
             transform="translate(1005.5241,683.3965)"><path
               d="m 0,0 -19.213,83.486 c -0.805,3.702 -6.016,6.28 -10.445,4.202 L -67.474,73.153 c -4.426,-2.076 -5.777,-7.726 -2.769,-11.581 l 52.979,-69.9 C -12.2,-4.477 -6.354,-1.605 0,0"
               style="fill:#85ce37;fill-opacity:1;fill-rule:nonzero;stroke:none"
               id="path434" /></g><g
             id="g436"
             transform="translate(1119.0378,647.0107)"><path
               d="m 0,0 -5.132,22.335 c -1.095,4.768 -6.336,7.28 -10.738,5.15 L -57.216,8.101 c 2.279,-5.522 3.56,-11.558 3.618,-17.888 H -7.414 C -2.522,-9.782 1.095,-4.767 0,0"
               style="fill:#1a69aa;fill-opacity:1;fill-rule:nonzero;stroke:none"
               id="path438" /></g><g
             id="g440"
             transform="translate(985.9724,673.1992)"><path
               d="m 0,0 -28.069,34.563 c -3.037,3.833 -8.849,3.851 -11.91,0.037 L -54.32,16.725 c -3.061,-3.816 -1.784,-9.486 2.618,-11.62 l 40.066,-20.028 C -8.77,-9.203 -4.799,-4.138 0,0"
               style="fill:#17ad49;fill-opacity:1;fill-rule:nonzero;stroke:none"
               id="path442" /></g><g
             id="g444"><g
               id="g446" /><g
               id="g458"><g
                 clip-path="url(#clipPath450)"
                 opacity="0.600006"
                 id="g456"><g
                   transform="translate(958.3464,680.5186)"
                   id="g454"><path
                     d="m 0,0 -13.354,0.134 4.386,4.218 c 1.156,1.116 2.069,2.062 2.735,2.839 0.666,0.777 1.166,1.435 1.501,1.974 0.335,0.537 0.549,0.975 0.644,1.311 0.095,0.336 0.15,0.621 0.165,0.855 0.016,0.249 -0.01,0.491 -0.075,0.727 -0.065,0.234 -0.174,0.444 -0.323,0.629 -0.15,0.183 -0.334,0.333 -0.555,0.445 -0.221,0.111 -0.484,0.17 -0.793,0.172 -0.586,0.006 -1.057,-0.18 -1.411,-0.557 -0.355,-0.377 -0.55,-0.851 -0.586,-1.422 -0.01,-0.161 -0.003,-0.395 0.021,-0.703 l -4.708,0.047 c 0.062,0.966 0.276,1.842 0.641,2.63 0.366,0.787 0.853,1.463 1.461,2.028 0.609,0.565 1.314,0.997 2.119,1.297 0.804,0.3 1.676,0.444 2.614,0.436 0.924,-0.01 1.77,-0.164 2.536,-0.465 0.766,-0.301 1.419,-0.717 1.956,-1.25 0.539,-0.533 0.946,-1.162 1.222,-1.891 C 0.474,12.727 0.585,11.938 0.53,11.089 0.473,10.181 0.225,9.346 -0.213,8.581 -0.65,7.816 -1.32,7.035 -2.223,6.239 L -5.136,3.698 0.232,3.645 Z"
                     style="fill:#ffffff;fill-opacity:1;fill-rule:nonzero;stroke:none"
                     id="path452" /></g></g></g></g><g
             id="g460"><g
               id="g462" /><g
               id="g474"><g
                 clip-path="url(#clipPath466)"
                 opacity="0.600006"
                 id="g472"><g
                   transform="translate(1059.4832,716.8311)"
                   id="g470"><path
                     d="m 0,0 -5.742,0.058 -0.403,-1.82 c 0.266,0.027 0.51,0.05 0.731,0.07 0.223,0.019 0.449,0.028 0.685,0.026 0.835,-0.009 1.604,-0.163 2.304,-0.463 0.699,-0.3 1.289,-0.709 1.771,-1.225 0.481,-0.518 0.844,-1.137 1.092,-1.857 0.248,-0.72 0.345,-1.505 0.291,-2.353 -0.057,-0.894 -0.273,-1.697 -0.649,-2.411 -0.376,-0.714 -0.881,-1.32 -1.514,-1.819 -0.633,-0.499 -1.392,-0.88 -2.273,-1.142 -0.884,-0.261 -1.853,-0.387 -2.909,-0.377 -0.997,0.01 -1.939,0.14 -2.825,0.39 -0.887,0.251 -1.71,0.629 -2.471,1.135 l 0.894,4.033 c 0.694,-0.637 1.412,-1.123 2.154,-1.46 0.741,-0.337 1.456,-0.509 2.145,-0.515 0.881,-0.009 1.593,0.221 2.137,0.692 0.543,0.47 0.837,1.057 0.882,1.759 0.053,0.82 -0.25,1.486 -0.907,1.998 -0.658,0.511 -1.544,0.773 -2.659,0.784 -0.498,0.005 -1.014,-0.045 -1.55,-0.149 -0.535,-0.105 -1.067,-0.271 -1.594,-0.5 l 1.952,8.877 8.69,-0.086 z"
                     style="fill:#ffffff;fill-opacity:1;fill-rule:nonzero;stroke:none"
                     id="path468" /></g></g></g></g><g
             id="g476"><g
               id="g478" /><g
               id="g490"><g
                 clip-path="url(#clipPath482)"
                 opacity="0.600006"
                 id="g488"><g
                   transform="translate(1101.8279,657.502)"
                   id="g486"><path
                     d="M 0,0 -6.931,0.069 -6.698,3.714 6.92,3.578 -3.639,-12.881 l -4.752,0.047 z"
                     style="fill:#ffffff;fill-opacity:1;fill-rule:nonzero;stroke:none"
                     id="path484" /></g></g></g></g><g
             id="g492"
             transform="translate(965.5593,747.1836)"><path
               d="m 0,0 c 0.189,-0.026 0.351,-0.04 0.482,-0.039 0.131,-0.002 0.245,-0.002 0.34,-0.003 0.883,-0.005 1.616,0.26 2.199,0.8 0.582,0.537 0.898,1.237 0.95,2.099 C 4.02,3.694 3.805,4.373 3.32,4.894 2.838,5.413 2.19,5.677 1.379,5.681 0.52,5.687 -0.191,5.396 -0.752,4.808 -1.312,4.219 -1.621,3.458 -1.677,2.522 l -6.486,0.04 c 0.253,1.452 0.684,2.743 1.288,3.872 0.605,1.128 1.35,2.079 2.231,2.849 0.883,0.771 1.897,1.357 3.045,1.755 1.147,0.4 2.401,0.595 3.764,0.586 C 3.501,11.617 4.702,11.419 5.767,11.03 6.83,10.642 7.731,10.095 8.465,9.389 9.198,8.683 9.746,7.829 10.105,6.828 10.463,5.83 10.605,4.713 10.532,3.482 10.454,2.153 10.143,1.065 9.603,0.218 9.063,-0.629 8.319,-1.356 7.375,-1.966 c 1.358,-0.452 2.393,-1.252 3.102,-2.402 0.707,-1.15 1.01,-2.562 0.911,-4.236 -0.083,-1.379 -0.42,-2.633 -1.014,-3.762 -0.593,-1.131 -1.387,-2.099 -2.378,-2.905 -0.992,-0.807 -2.153,-1.427 -3.481,-1.864 -1.329,-0.435 -2.769,-0.647 -4.321,-0.638 -2.079,0.012 -3.93,0.442 -5.551,1.29 -1.623,0.846 -2.881,2.184 -3.777,4.013 -0.405,0.815 -0.661,1.63 -0.767,2.443 -0.108,0.813 -0.136,1.639 -0.086,2.475 l 6.953,-0.042 c -0.03,-1.305 0.28,-2.298 0.933,-2.979 0.652,-0.682 1.564,-1.026 2.735,-1.032 1.241,-0.008 2.17,0.331 2.784,1.016 0.614,0.687 0.953,1.534 1.014,2.544 0.071,1.207 -0.221,2.12 -0.877,2.739 C 2.898,-4.687 2.093,-4.373 1.138,-4.367 0.899,-4.366 0.671,-4.383 0.453,-4.419 0.236,-4.454 -0.006,-4.496 -0.271,-4.543 Z"
               style="fill:#ffffff;fill-opacity:1;fill-rule:nonzero;stroke:none"
               id="path494" /></g><g
             id="g496"
             transform="translate(973.0817,655.6338)"><path
               d="m 0,0 -41.095,18.959 c -4.422,2.105 -9.639,-0.473 -10.692,-5.283 L -56.72,-8.866 c -1.052,-4.811 2.606,-9.53 7.496,-9.491 l 45.392,-0.03 C -3.768,-11.865 -2.413,-5.654 0,0"
               style="fill:#17ad49;fill-opacity:1;fill-rule:nonzero;stroke:none"
               id="path498" /></g><g
             id="g500"
             transform="translate(1104.1042,690.042)"><path
               d="m 0,0 -14.419,17.813 c -3.077,3.802 -8.89,3.758 -11.91,-0.088 L -54.65,-17.463 c 4.647,-4.169 8.482,-9.224 11.229,-14.908 l 40.854,20.515 C 1.824,-9.703 3.077,-3.802 0,0"
               style="fill:#1e93da;fill-opacity:1;fill-rule:nonzero;stroke:none"
               id="path502" /></g><g
             id="g504"
             transform="translate(1072.1658,722.0283)"><path
               d="M 0,0 -20.682,9.873 C -25.096,11.98 -30.323,9.44 -31.394,4.668 l -10.348,-43.643 c 6.154,-1.734 11.805,-4.66 16.691,-8.515 L 2.688,-11.603 C 5.726,-7.77 4.414,-2.107 0,0"
               style="fill:#1e93da;fill-opacity:1;fill-rule:nonzero;stroke:none"
               id="path506" /></g><g
             id="g508"
             transform="translate(1008.5661,684.0488)"><path
               d="m 0,0 c 2.852,0.527 5.786,0.816 8.79,0.816 3.474,0 6.858,-0.377 10.122,-1.076 l 9.455,43.804 c 1.09,4.768 -2.533,9.312 -7.425,9.312 H -1.975 c -4.89,0 -8.513,-4.544 -7.423,-9.312 z"
               style="fill:#85ce37;fill-opacity:1;fill-rule:nonzero;stroke:none"
               id="path510" /></g><g
             id="g512"><g
               id="g514" /><g
               id="g526"><g
                 clip-path="url(#clipPath518)"
                 opacity="0.600006"
                 id="g524"><g
                   transform="translate(1018.9128,719.3643)"
                   id="g522"><path
                     d="M 0,0 0.415,6.521 -3.807,0.038 Z m 4.004,-0.04 2.002,-0.02 -0.21,-3.293 -2.002,0.02 -0.217,-3.403 -4.004,0.04 0.217,3.403 -8.009,0.08 0.177,2.767 6.997,10.321 5.677,-0.057 z"
                     style="fill:#ffffff;fill-opacity:1;fill-rule:nonzero;stroke:none"
                     id="path520" /></g></g></g></g><g
             id="g528"><g
               id="g530" /><g
               id="g542"><g
                 clip-path="url(#clipPath534)"
                 opacity="0.600006"
                 id="g540"><g
                   transform="translate(1059.4851,716.8311)"
                   id="g538"><path
                     d="m 0,0 -5.742,0.058 -0.403,-1.82 c 0.266,0.027 0.51,0.05 0.731,0.07 0.223,0.019 0.449,0.028 0.685,0.026 0.835,-0.009 1.604,-0.163 2.304,-0.463 0.699,-0.3 1.289,-0.709 1.771,-1.225 0.481,-0.518 0.844,-1.137 1.092,-1.857 0.248,-0.72 0.345,-1.505 0.291,-2.353 -0.057,-0.894 -0.273,-1.697 -0.649,-2.411 -0.376,-0.714 -0.881,-1.32 -1.514,-1.819 -0.633,-0.499 -1.392,-0.88 -2.273,-1.142 -0.884,-0.261 -1.853,-0.387 -2.909,-0.377 -0.997,0.01 -1.939,0.14 -2.825,0.39 -0.887,0.251 -1.71,0.629 -2.471,1.135 l 0.894,4.033 c 0.694,-0.637 1.412,-1.123 2.154,-1.46 0.741,-0.337 1.456,-0.509 2.145,-0.515 0.881,-0.009 1.593,0.221 2.137,0.692 0.543,0.47 0.837,1.057 0.882,1.759 0.053,0.82 -0.25,1.486 -0.907,1.998 -0.658,0.511 -1.544,0.773 -2.659,0.784 -0.498,0.005 -1.014,-0.045 -1.55,-0.149 -0.535,-0.105 -1.067,-0.271 -1.594,-0.5 l 1.952,8.877 8.69,-0.086 z"
                     style="fill:#ffffff;fill-opacity:1;fill-rule:nonzero;stroke:none"
                     id="path536" /></g></g></g></g><g
             id="g544"><g
               id="g546" /><g
               id="g558"><g
                 clip-path="url(#clipPath550)"
                 opacity="0.600006"
                 id="g556"><g
                   transform="translate(1079.5554,685.7305)"
                   id="g554"><path
                     d="m 0,0 c -0.024,-0.381 0.025,-0.736 0.152,-1.067 0.125,-0.33 0.305,-0.621 0.538,-0.872 0.234,-0.253 0.511,-0.453 0.831,-0.602 0.322,-0.15 0.672,-0.227 1.054,-0.23 0.381,-0.004 0.741,0.065 1.08,0.208 0.34,0.143 0.642,0.337 0.907,0.584 0.265,0.247 0.482,0.534 0.65,0.861 C 5.379,-0.79 5.476,-0.436 5.5,-0.055 5.524,0.325 5.473,0.682 5.347,1.013 5.222,1.343 5.042,1.634 4.809,1.885 4.574,2.137 4.298,2.337 3.978,2.486 3.656,2.637 3.306,2.714 2.925,2.718 2.543,2.722 2.183,2.651 1.844,2.508 1.504,2.365 1.201,2.17 0.937,1.924 0.672,1.678 0.455,1.391 0.287,1.063 0.119,0.735 0.024,0.38 0,0 M 7.82,10.797 2.768,5.442 2.855,5.441 C 3.282,5.687 3.629,5.833 3.896,5.882 4.163,5.931 4.399,5.954 4.605,5.952 5.412,5.943 6.143,5.782 6.798,5.469 7.453,5.154 8.013,4.728 8.477,4.188 8.942,3.648 9.291,3.02 9.523,2.3 9.757,1.58 9.847,0.81 9.795,-0.01 9.738,-0.889 9.525,-1.702 9.155,-2.453 8.784,-3.204 8.276,-3.857 7.632,-4.415 6.987,-4.973 6.223,-5.408 5.337,-5.721 4.451,-6.034 3.465,-6.186 2.38,-6.175 c -1.1,0.011 -2.072,0.182 -2.917,0.513 -0.845,0.33 -1.555,0.776 -2.127,1.339 -0.573,0.562 -0.998,1.215 -1.274,1.957 -0.276,0.742 -0.386,1.531 -0.333,2.365 0.059,0.937 0.333,1.948 0.82,3.035 0.488,1.085 1.197,2.152 2.13,3.196 l 4.147,4.617 z"
                     style="fill:#ffffff;fill-opacity:1;fill-rule:nonzero;stroke:none"
                     id="path552" /></g></g></g></g><g
             id="g560"><g
               id="g562" /><g
               id="g574"><g
                 clip-path="url(#clipPath566)"
                 opacity="0.600006"
                 id="g572"><g
                   transform="translate(932.5427,658.0859)"
                   id="g570"><path
                     d="m 0,0 -2.42,0.024 0.232,3.66 6.732,-0.069 -1.055,-16.62 -4.311,0.045 z"
                     style="fill:#ffffff;fill-opacity:1;fill-rule:nonzero;stroke:none"
                     id="path568" /></g></g></g></g><g
             id="g576"
             transform="translate(946.3083,617.6982)"><path
               d="m 0,0 -4.182,0.002 0.002,3.4 12.263,-0.006 -0.002,-3.4 -4.2,0.002 -0.005,-10.602 -3.881,10e-4 z"
               style="fill:#231f20;fill-opacity:1;fill-rule:nonzero;stroke:none"
               id="path578" /></g><g
             id="g580"
             transform="translate(963.0466,614.3701)"><path
               d="m 0,0 c 1.301,-0.001 2.081,0.639 2.081,1.659 v 0.04 C 2.082,2.819 1.262,3.38 -0.019,3.38 L -2.579,3.381 -2.58,0.001 Z M -6.458,6.724 0.163,6.721 C 2.304,6.72 3.783,6.159 4.724,5.218 5.543,4.398 5.963,3.337 5.962,1.957 V 1.917 C 5.961,-0.243 4.82,-1.663 3.079,-2.402 l 3.339,-4.883 -4.461,0.002 -2.818,4.242 -1.721,10e-4 -0.002,-4.241 -3.881,0.002 z"
               style="fill:#231f20;fill-opacity:1;fill-rule:nonzero;stroke:none"
               id="path582" /></g><g
             id="g584"
             transform="translate(979.446,612.6211)"><path
               d="m 0,0 -1.558,3.962 -1.583,-3.96 z m -3.396,8.563 h 3.741 l 5.954,-14.107 -4.16,0.002 -1,2.521 -5.421,0.002 -1.001,-2.519 -4.061,0.002 z"
               style="fill:#231f20;fill-opacity:1;fill-rule:nonzero;stroke:none"
               id="path586" /></g><g
             id="g588"
             transform="translate(987.6081,621.0791)"><path
               d="m 0,0 3.621,-0.001 5.758,-7.404 0.003,7.401 3.841,-0.002 -0.006,-14.003 -3.381,0.002 -5.998,7.685 -0.003,-7.682 -3.841,10e-4 z"
               style="fill:#231f20;fill-opacity:1;fill-rule:nonzero;stroke:none"
               id="path590" /></g><g
             id="g592"
             transform="translate(1002.7429,609.1504)"><path
               d="m 0,0 2.161,2.579 c 1.4,-1.101 2.92,-1.682 4.54,-1.683 1.061,0 1.621,0.36 1.621,0.96 v 0.04 c 0,0.6 -0.46,0.9 -2.38,1.362 -2.98,0.681 -5.28,1.522 -5.279,4.383 v 0.04 c 0.001,2.6 2.063,4.48 5.423,4.478 2.381,-0.001 4.241,-0.641 5.761,-1.863 L 9.905,7.557 C 8.625,8.478 7.225,8.938 5.984,8.938 5.045,8.939 4.585,8.559 4.584,8.039 v -0.04 c 0,-0.641 0.479,-0.92 2.44,-1.361 3.201,-0.702 5.201,-1.743 5.2,-4.364 V 2.234 C 12.222,-0.626 9.96,-2.326 6.56,-2.324 4.079,-2.323 1.739,-1.542 0,0"
               style="fill:#231f20;fill-opacity:1;fill-rule:nonzero;stroke:none"
               id="path594" /></g><g
             id="g596"
             transform="translate(1017.3483,621.0654)"><path
               d="m 0,0 11.202,-0.005 -10e-4,-3.401 -7.322,0.004 -10e-4,-2.381 6.621,-0.003 -0.001,-3.221 -6.622,0.003 -0.002,-5.001 -3.881,0.002 z"
               style="fill:#231f20;fill-opacity:1;fill-rule:nonzero;stroke:none"
               id="path598" /></g><g
             id="g600"
             transform="translate(1041.4666,614.0127)"><path
               d="M 0,0 V 0.04 C 0.001,2.08 -1.437,3.821 -3.578,3.822 -5.719,3.823 -7.14,2.104 -7.141,0.083 V 0.043 C -7.142,-1.978 -5.683,-3.738 -3.542,-3.739 -1.421,-3.74 -0.001,-2.021 0,0 m -11.102,0.005 v 0.04 c 0.002,4.021 3.245,7.28 7.565,7.278 C 0.784,7.321 3.983,4.1 3.981,0.078 v -0.04 c -0.002,-4.02 -3.244,-7.28 -7.565,-7.278 -4.32,0.002 -7.52,3.224 -7.518,7.245"
               style="fill:#231f20;fill-opacity:1;fill-rule:nonzero;stroke:none"
               id="path602" /></g><g
             id="g604"
             transform="translate(1054.407,614.3271)"><path
               d="m 0,0 c 1.3,-0.001 2.08,0.639 2.081,1.659 v 0.04 c 0,1.12 -0.819,1.681 -2.1,1.681 l -2.56,10e-4 -0.002,-3.38 z M -6.459,6.724 0.163,6.721 C 2.303,6.72 3.783,6.159 4.724,5.218 5.543,4.398 5.963,3.337 5.962,1.957 V 1.917 C 5.961,-0.243 4.819,-1.663 3.079,-2.402 l 3.339,-4.883 -4.461,0.002 -2.819,4.242 -1.72,10e-4 -0.002,-4.241 -3.881,0.002 z"
               style="fill:#231f20;fill-opacity:1;fill-rule:nonzero;stroke:none"
               id="path606" /></g><g
             id="g608"
             transform="translate(1062.8279,621.0439)"><path
               d="m 0,0 4.102,-0.002 3.337,-5.422 3.343,5.419 4.102,-0.002 -0.007,-14.003 -3.86,0.002 0.003,8.041 -3.583,-5.478 H 7.356 l -3.558,5.462 -0.003,-8.022 -3.801,0.002 z"
               style="fill:#231f20;fill-opacity:1;fill-rule:nonzero;stroke:none"
               id="path610" /></g><g
             id="g612"
             transform="translate(1087.031,625.2344)"><path
               d="m 0,0 3.621,-1.103 -2.962,-2.138 -2.82,10e-4 z m -6.343,-4.198 11.262,-0.006 -10e-4,-3.28 -7.422,0.003 -10e-4,-2.14 6.722,-0.003 -10e-4,-3.062 -6.722,0.003 -0.001,-2.219 7.522,-0.004 -0.002,-3.301 -11.363,0.006 z"
               style="fill:#231f20;fill-opacity:1;fill-rule:nonzero;stroke:none"
               id="path614" /></g><g
             id="g616"
             transform="translate(966.5524,604.2529)"><path
               d="m 0,0 3.62,-1.103 -2.962,-2.138 -2.82,10e-4 z m -6.344,-4.198 11.263,-0.006 -0.002,-3.28 -7.421,0.003 -10e-4,-2.14 6.722,-0.004 -0.002,-3.061 -6.722,0.003 -10e-4,-2.22 7.522,-0.003 -0.002,-3.301 -11.363,0.005 z"
               style="fill:#231f20;fill-opacity:1;fill-rule:nonzero;stroke:none"
               id="path618" /></g><g
             id="g620"
             transform="translate(982.4665,589.4619)"><path
               d="M 0,0 -1.94,1.661 0.021,3.86 1.921,2.119 C 2.081,2.56 2.161,3.02 2.161,3.52 V 3.56 C 2.162,5.58 0.703,7.361 -1.437,7.362 -3.578,7.363 -4.999,5.604 -5,3.583 v -0.04 c -0.001,-2.021 1.438,-3.802 3.599,-3.803 0.5,0 0.98,0.1 1.401,0.26 m 4.358,-3.843 -1.54,1.38 c -1.2,-0.799 -2.66,-1.238 -4.26,-1.238 -4.322,0.002 -7.521,3.224 -7.519,7.245 v 0.04 c 0.002,4.021 3.244,7.281 7.565,7.279 4.321,-0.003 7.52,-3.224 7.518,-7.246 v -0.04 c 0,-1.48 -0.461,-2.86 -1.242,-4.02 l 1.44,-1.22 z"
               style="fill:#231f20;fill-opacity:1;fill-rule:nonzero;stroke:none"
               id="path622" /></g><g
             id="g624"
             transform="translate(990.9245,592.1777)"><path
               d="M 0,0 0.004,7.862 3.925,7.86 3.921,0.078 C 3.92,-1.941 4.94,-2.903 6.5,-2.904 c 1.581,0 2.602,0.92 2.603,2.88 L 9.106,7.857 13.027,7.856 13.023,0.094 C 13.021,-4.407 10.439,-6.405 6.459,-6.404 2.498,-6.402 -0.002,-4.38 0,0"
               style="fill:#231f20;fill-opacity:1;fill-rule:nonzero;stroke:none"
               id="path626" /></g><g
             id="g628"
             transform="translate(1006.8493,600.0322)"><path
               d="m 0,0 3.881,-0.002 -0.007,-14.003 -3.881,0.002 z"
               style="fill:#231f20;fill-opacity:1;fill-rule:nonzero;stroke:none"
               id="path630" /></g><g
             id="g632"
             transform="translate(1013.7888,600.0293)"><path
               d="m 0,0 3.881,-0.002 -0.005,-10.602 6.781,-0.004 -0.002,-3.401 -10.662,0.006 z"
               style="fill:#231f20;fill-opacity:1;fill-rule:nonzero;stroke:none"
               id="path634" /></g><g
             id="g636"
             transform="translate(1026.7292,600.0234)"><path
               d="m 0,0 3.881,-0.002 -0.007,-14.004 -3.881,0.002 z"
               style="fill:#231f20;fill-opacity:1;fill-rule:nonzero;stroke:none"
               id="path638" /></g><g
             id="g640"
             transform="translate(1041.7488,595.6953)"><path
               d="m 0,0 c 0,0.78 -0.62,1.2 -1.76,1.201 l -2.541,10e-4 -10e-4,-2.461 2.441,-0.001 c 1.179,0 1.86,0.4 1.861,1.22 z m -1.342,-3.98 -2.961,10e-4 -0.002,-2.581 3.001,-0.001 c 1.2,-0.001 1.862,0.459 1.862,1.28 v 0.04 c 0,0.76 -0.6,1.26 -1.9,1.261 M -8.08,4.324 -0.898,4.321 C 0.862,4.32 2.102,3.88 2.922,3.079 3.481,2.499 3.821,1.758 3.82,0.798 v -0.04 c 0,-1.62 -0.921,-2.58 -2.161,-3.119 1.7,-0.562 2.779,-1.523 2.778,-3.423 v -0.04 c 0,-2.401 -1.961,-3.86 -5.302,-3.859 l -7.222,0.004 z"
               style="fill:#231f20;fill-opacity:1;fill-rule:nonzero;stroke:none"
               id="path642" /></g><g
             id="g644"
             transform="translate(1054.9265,593.2881)"><path
               d="m 0,0 c 1.301,0 2.081,0.64 2.082,1.659 v 0.04 c 0,1.12 -0.819,1.681 -2.1,1.682 L -2.578,3.382 -2.58,0.001 Z M -6.458,6.725 0.164,6.722 C 2.304,6.721 3.784,6.16 4.724,5.219 5.543,4.398 5.963,3.338 5.963,1.958 V 1.918 C 5.962,-0.243 4.82,-1.663 3.08,-2.402 l 3.338,-4.882 -4.461,0.002 -2.818,4.242 -1.721,10e-4 -0.002,-4.241 -3.881,0.002 z"
               style="fill:#231f20;fill-opacity:1;fill-rule:nonzero;stroke:none"
               id="path646" /></g><g
             id="g648"
             transform="translate(1069.6921,604.2041)"><path
               d="m 0,0 3.62,-1.103 -2.962,-2.138 -2.82,10e-4 z m -6.344,-4.198 11.263,-0.005 -0.002,-3.281 -7.421,0.004 -10e-4,-2.141 6.722,-0.003 -0.002,-3.062 -6.722,0.003 -10e-4,-2.219 7.522,-0.004 -0.002,-3.301 -11.363,0.006 z"
               style="fill:#231f20;fill-opacity:1;fill-rule:nonzero;stroke:none"
               id="path650" /></g><g
             id="g652"
             transform="translate(1021.2829,646.8086)"><path
               d="m 0,0 c -2.798,-0.276 -5.13,2.055 -4.853,4.853 0.206,2.069 1.879,3.744 3.95,3.949 C 1.895,9.079 4.226,6.747 3.949,3.95 3.744,1.88 2.069,0.205 0,0 m 10.373,4.334 h -0.028 c 0,0.022 0.002,0.045 0.002,0.067 0,5.847 -4.835,10.586 -10.799,10.586 -6.192,0 -10.798,-4.739 -10.798,-10.586 0,-5.846 4.834,-10.587 10.798,-10.587 1.372,0 2.683,0.253 3.891,0.711 0.254,0.097 0.527,-0.089 0.526,-0.362 0.026,-3.836 -1.596,-5.556 -4.516,-5.491 -1.809,0.041 -3.587,1.545 -4.195,2.874 -0.189,0.411 -0.609,0.667 -1.062,0.667 h -4.405 c -0.648,0 -1.12,-0.602 -0.984,-1.235 1.021,-4.799 5.405,-8.349 11.296,-8.276 5.641,0.071 10.031,4.012 10.319,9.504 0.001,0.005 0.001,0.009 0.001,0.013 z"
               style="fill:#918f90;fill-opacity:1;fill-rule:nonzero;stroke:none"
               id="path654" /></g><g
             id="g656"
             transform="translate(1006.2253,640.3604)"><path
               d="m 0,0 h -5.791 c -0.351,0 -0.634,0.273 -0.634,0.612 v 16.886 c 0,0.338 0.283,0.612 0.634,0.612 H 0 c 0.35,0 0.634,-0.274 0.634,-0.612 V 0.612 C 0.634,0.273 0.35,0 0,0"
               style="fill:#918f90;fill-opacity:1;fill-rule:nonzero;stroke:none"
               id="path658" /></g><g
             id="g660"
             transform="translate(1000.1149,659.7031)"><path
               d="M 0,0 C 0,0 -1.954,8.643 7.838,9.369 8.077,2.019 4.228,0.494 0,0"
               style="fill:#918f90;fill-opacity:1;fill-rule:nonzero;stroke:none"
               id="path662" /></g><g
             id="g664"
             transform="translate(989.2028,661.8174)"><path
               d="M 0,0 C 2.195,0 4.177,-0.487 6.032,-1.488 6.303,-1.635 6.42,-1.959 6.315,-2.246 L 5.039,-5.771 c -0.144,-0.4 -0.614,-0.568 -0.993,-0.368 -1.342,0.707 -2.73,1.01 -3.942,1.01 -1.032,0 -2.001,-0.623 -2.001,-1.686 0.012,-1.142 0.928,-1.234 3.673,-1.858 3.637,-0.826 5.548,-3.405 5.525,-6.055 -0.035,-5.307 -4.733,-7.615 -9.129,-7.615 -2.423,0 -5.223,0.621 -7.503,1.645 -0.263,0.118 -0.383,0.422 -0.282,0.688 l 1.57,4.171 c 0.081,0.217 0.35,0.304 0.541,0.171 1.681,-1.168 3.517,-1.399 5.064,-1.399 0.25,0 2.354,0.088 2.392,1.688 0.01,2.251 -2.57,2.186 -3.866,2.428 -3.796,0.708 -4.778,3.64 -4.865,5.534 0,2.987 1.185,4.333 2.473,5.351 C -4.641,-0.753 -2.343,0 0,0"
               style="fill:#918f90;fill-opacity:1;fill-rule:nonzero;stroke:none"
               id="path666" /></g><g
             id="g668"
             transform="translate(1048.5613,650.6045)"><path
               d="m 0,0 c -0.205,-2.07 -1.88,-3.745 -3.949,-3.95 -2.798,-0.278 -5.13,2.054 -4.853,4.852 0.205,2.07 1.879,3.744 3.949,3.95 C -2.055,5.129 0.276,2.797 0,0 m 6.554,2.085 c -0.805,5.048 -5.177,8.906 -10.452,8.906 -5.847,0 -10.463,-4.741 -10.586,-10.586 -0.113,-5.333 3.604,-10.328 8.598,-10.557 4.189,-0.193 5.856,1.748 6.549,2.314 v -2.246 c 0,-0.303 0.245,-0.547 0.547,-0.547 h 4.306 c 0.641,0 1.162,0.519 1.162,1.16 0.003,2.809 0.01,9.756 0.01,9.876 0,0.151 -0.07,1.277 -0.134,1.68"
               style="fill:#918f90;fill-opacity:1;fill-rule:nonzero;stroke:none"
               id="path670" /></g></g></g></g></g></svg>
