<?xml version="1.0" encoding="UTF-8" standalone="no"?>
<!-- Created with Inkscape (http://www.inkscape.org/) -->

<svg
   version="1.1"
   id="svg2"
   xml:space="preserve"
   width="1587.4"
   height="1122.52"
   viewBox="0 0 1587.4 1122.52"
   sodipodi:docname="VectSigaIndicesQuadri 5.svg"
   inkscape:export-filename="C:\Users\yasmi\Downloads\g14.png"
   inkscape:export-xdpi="245.12"
   inkscape:export-ydpi="245.12"
   inkscape:version="1.1 (c68e22c387, 2021-05-23)"
   xmlns:inkscape="http://www.inkscape.org/namespaces/inkscape"
   xmlns:sodipodi="http://sodipodi.sourceforge.net/DTD/sodipodi-0.dtd"
   xmlns="http://www.w3.org/2000/svg"
   xmlns:svg="http://www.w3.org/2000/svg"><defs
     id="defs6"><clipPath
       clipPathUnits="userSpaceOnUse"
       id="clipPath18"><path
         d="M 0,841.89 H 1190.551 V 0 H 0 Z"
         id="path16" /></clipPath><clipPath
       clipPathUnits="userSpaceOnUse"
       id="clipPath54"><path
         d="m 103.968,676.394 h 13.898 v -17.06 h -13.898 z"
         id="path52" /></clipPath><clipPath
       clipPathUnits="userSpaceOnUse"
       id="clipPath70"><path
         d="m 134.663,699.78 h 13.149 v -17.476 h -13.149 z"
         id="path68" /></clipPath><clipPath
       clipPathUnits="userSpaceOnUse"
       id="clipPath86"><path
         d="m 169.667,708.055 h 14.225 v -16.612 h -14.225 z"
         id="path84" /></clipPath><clipPath
       clipPathUnits="userSpaceOnUse"
       id="clipPath102"><path
         d="m 206.546,699.378 h 12.656 v -17.045 h -12.656 z"
         id="path100" /></clipPath><clipPath
       clipPathUnits="userSpaceOnUse"
       id="clipPath118"><path
         d="m 234.244,675.393 h 14.094 v -17.022 h -14.094 z"
         id="path116" /></clipPath><clipPath
       clipPathUnits="userSpaceOnUse"
       id="clipPath134"><path
         d="m 252.412,640.031 h 15.31 v -16.595 h -15.31 z"
         id="path132" /></clipPath><clipPath
       clipPathUnits="userSpaceOnUse"
       id="clipPath262"><path
         d="m 415.176,699.78 h 13.149 v -17.476 h -13.149 z"
         id="path260" /></clipPath><clipPath
       clipPathUnits="userSpaceOnUse"
       id="clipPath278"><path
         d="m 450.18,708.055 h 14.224 V 691.443 H 450.18 Z"
         id="path276" /></clipPath><clipPath
       clipPathUnits="userSpaceOnUse"
       id="clipPath294"><path
         d="m 487.059,699.378 h 12.655 v -17.045 h -12.655 z"
         id="path292" /></clipPath><clipPath
       clipPathUnits="userSpaceOnUse"
       id="clipPath310"><path
         d="M 514.757,675.393 H 528.85 V 658.371 H 514.757 Z"
         id="path308" /></clipPath><clipPath
       clipPathUnits="userSpaceOnUse"
       id="clipPath326"><path
         d="m 532.924,640.031 h 15.311 v -16.595 h -15.311 z"
         id="path324" /></clipPath><clipPath
       clipPathUnits="userSpaceOnUse"
       id="clipPath394"><path
         d="m 369.609,640.585 h 6.964 v -16.688 h -6.964 z"
         id="path392" /></clipPath><clipPath
       clipPathUnits="userSpaceOnUse"
       id="clipPath450"><path
         d="m 944.993,697.579 h 13.897 v -17.06 h -13.897 z"
         id="path448" /></clipPath><clipPath
       clipPathUnits="userSpaceOnUse"
       id="clipPath466"><path
         d="m 1047.57,720.563 h 12.66 v -17.045 h -12.66 z"
         id="path464" /></clipPath><clipPath
       clipPathUnits="userSpaceOnUse"
       id="clipPath482"><path
         d="m 1093.44,661.216 h 15.31 v -16.595 h -15.31 z"
         id="path480" /></clipPath><clipPath
       clipPathUnits="userSpaceOnUse"
       id="clipPath518"><path
         d="m 1010.69,729.239 h 14.23 v -16.611 h -14.23 z"
         id="path516" /></clipPath><clipPath
       clipPathUnits="userSpaceOnUse"
       id="clipPath534"><path
         d="m 1047.57,720.563 h 12.66 v -17.045 h -12.66 z"
         id="path532" /></clipPath><clipPath
       clipPathUnits="userSpaceOnUse"
       id="clipPath550"><path
         d="m 1075.27,696.577 h 14.09 v -17.022 h -14.09 z"
         id="path548" /></clipPath><clipPath
       clipPathUnits="userSpaceOnUse"
       id="clipPath566"><path
         d="m 930.123,661.769 h 6.964 v -16.688 h -6.964 z"
         id="path564" /></clipPath><clipPath
       clipPathUnits="userSpaceOnUse"
       id="clipPath686"><path
         d="m 134.943,455.219 h 13.15 v -17.476 h -13.15 z"
         id="path684" /></clipPath><clipPath
       clipPathUnits="userSpaceOnUse"
       id="clipPath718"><path
         d="m 104.245,431.833 h 13.898 v -17.06 h -13.898 z"
         id="path716" /></clipPath><clipPath
       clipPathUnits="userSpaceOnUse"
       id="clipPath734"><path
         d="M 252.69,395.47 H 268 v -16.595 h -15.31 z"
         id="path732" /></clipPath><clipPath
       clipPathUnits="userSpaceOnUse"
       id="clipPath762"><path
         d="m 206.825,454.817 h 12.656 v -17.045 h -12.656 z"
         id="path760" /></clipPath><clipPath
       clipPathUnits="userSpaceOnUse"
       id="clipPath778"><path
         d="m 234.524,430.832 h 14.093 V 413.81 h -14.093 z"
         id="path776" /></clipPath><clipPath
       clipPathUnits="userSpaceOnUse"
       id="clipPath794"><path
         d="m 89.3759,396.024 h 6.9638 v -16.688 h -6.9638 z"
         id="path792" /></clipPath><clipPath
       clipPathUnits="userSpaceOnUse"
       id="clipPath922"><path
         d="m 384.775,431.909 h 13.897 v -17.06 h -13.897 z"
         id="path920" /></clipPath><clipPath
       clipPathUnits="userSpaceOnUse"
       id="clipPath938"><path
         d="M 533.219,395.546 H 548.53 V 378.951 H 533.219 Z"
         id="path936" /></clipPath><clipPath
       clipPathUnits="userSpaceOnUse"
       id="clipPath966"><path
         d="m 450.476,463.57 h 14.225 v -16.612 h -14.225 z"
         id="path964" /></clipPath><clipPath
       clipPathUnits="userSpaceOnUse"
       id="clipPath982"><path
         d="m 515.054,430.908 h 14.093 v -17.022 h -14.093 z"
         id="path980" /></clipPath><clipPath
       clipPathUnits="userSpaceOnUse"
       id="clipPath998"><path
         d="m 369.906,396.1 h 6.963 v -16.688 h -6.963 z"
         id="path996" /></clipPath><clipPath
       clipPathUnits="userSpaceOnUse"
       id="clipPath1018"><path
         d="M 415.471,455.295 H 428.62 V 437.819 H 415.471 Z"
         id="path1016" /></clipPath><clipPath
       clipPathUnits="userSpaceOnUse"
       id="clipPath1178"><path
         d="m 665.041,431.774 h 13.897 v -17.06 h -13.897 z"
         id="path1176" /></clipPath><clipPath
       clipPathUnits="userSpaceOnUse"
       id="clipPath1194"><path
         d="m 813.485,395.411 h 15.31 v -16.594 h -15.31 z"
         id="path1192" /></clipPath><clipPath
       clipPathUnits="userSpaceOnUse"
       id="clipPath1214"><path
         d="m 730.742,463.435 h 14.224 v -16.611 h -14.224 z"
         id="path1212" /></clipPath><clipPath
       clipPathUnits="userSpaceOnUse"
       id="clipPath1230"><path
         d="m 650.171,395.965 h 6.964 v -16.688 h -6.964 z"
         id="path1228" /></clipPath><clipPath
       clipPathUnits="userSpaceOnUse"
       id="clipPath1250"><path
         d="m 695.736,455.16 h 13.15 v -17.476 h -13.15 z"
         id="path1248" /></clipPath><clipPath
       clipPathUnits="userSpaceOnUse"
       id="clipPath1270"><path
         d="m 767.619,454.758 h 12.655 v -17.044 h -12.655 z"
         id="path1268" /></clipPath><clipPath
       clipPathUnits="userSpaceOnUse"
       id="clipPath1418"><path
         d="m 1075.29,430.773 h 14.09 v -17.022 h -14.09 z"
         id="path1416" /></clipPath><clipPath
       clipPathUnits="userSpaceOnUse"
       id="clipPath1438"><path
         d="m 945.007,431.774 h 13.897 v -17.06 h -13.897 z"
         id="path1436" /></clipPath><clipPath
       clipPathUnits="userSpaceOnUse"
       id="clipPath1462"><path
         d="m 1010.71,463.435 h 14.22 v -16.611 h -14.22 z"
         id="path1460" /></clipPath><clipPath
       clipPathUnits="userSpaceOnUse"
       id="clipPath1478"><path
         d="m 930.137,395.965 h 6.964 v -16.688 h -6.964 z"
         id="path1476" /></clipPath><clipPath
       clipPathUnits="userSpaceOnUse"
       id="clipPath1498"><path
         d="m 975.702,455.16 h 13.149 v -17.476 h -13.149 z"
         id="path1496" /></clipPath><clipPath
       clipPathUnits="userSpaceOnUse"
       id="clipPath1518"><path
         d="m 1047.58,454.758 h 12.66 v -17.044 h -12.66 z"
         id="path1516" /></clipPath><clipPath
       clipPathUnits="userSpaceOnUse"
       id="clipPath1658"><path
         d="M 767.704,720.563 H 780.36 V 703.518 H 767.704 Z"
         id="path1656" /></clipPath><clipPath
       clipPathUnits="userSpaceOnUse"
       id="clipPath1674"><path
         d="M 813.569,661.216 H 828.88 V 644.621 H 813.569 Z"
         id="path1672" /></clipPath><clipPath
       clipPathUnits="userSpaceOnUse"
       id="clipPath1706"><path
         d="m 730.826,729.239 h 14.225 v -16.611 h -14.225 z"
         id="path1704" /></clipPath><clipPath
       clipPathUnits="userSpaceOnUse"
       id="clipPath1722"><path
         d="m 767.705,720.563 h 12.656 v -17.045 h -12.656 z"
         id="path1720" /></clipPath><clipPath
       clipPathUnits="userSpaceOnUse"
       id="clipPath1738"><path
         d="m 795.404,696.577 h 14.093 v -17.022 h -14.093 z"
         id="path1736" /></clipPath><clipPath
       clipPathUnits="userSpaceOnUse"
       id="clipPath1754"><path
         d="m 650.256,661.769 h 6.964 v -16.688 h -6.964 z"
         id="path1752" /></clipPath><clipPath
       clipPathUnits="userSpaceOnUse"
       id="clipPath1926"><path
         d="m 695.765,721.006 h 13.149 V 703.53 h -13.149 z"
         id="path1924" /></clipPath><clipPath
       clipPathUnits="userSpaceOnUse"
       id="clipPath1952"><path
         d="M 0,841.89 H 1190.551 V 0 H 0 Z"
         id="path1950" /></clipPath></defs><sodipodi:namedview
     id="namedview4"
     pagecolor="#ffffff"
     bordercolor="#111111"
     borderopacity="1"
     inkscape:pageshadow="0"
     inkscape:pageopacity="0"
     inkscape:pagecheckerboard="1"
     showgrid="false"
     inkscape:zoom="0.51780081"
     inkscape:cx="143.87772"
     inkscape:cy="206.64317"
     inkscape:window-width="2400"
     inkscape:window-height="1284"
     inkscape:window-x="-9"
     inkscape:window-y="-9"
     inkscape:window-maximized="1"
     inkscape:current-layer="g14"
     showguides="true"
     inkscape:guide-bbox="true"><sodipodi:guide
       position="802.97051,1031.0251"
       orientation="1,0"
       id="guide7237" /><sodipodi:guide
       position="-252.63528,573.55036"
       orientation="0,-1"
       id="guide7239" /></sodipodi:namedview><g
     id="g8"
     inkscape:groupmode="layer"
     inkscape:label="VectSigaIndicesQuadri 1"
     transform="matrix(1.3333333,0,0,-1.3333333,0,1122.52)"><g
       id="g12"><g
         id="g14"
         clip-path="url(#clipPath18)"><g
           id="g7131"
           transform="matrix(3.502346,0,0,3.502346,-983.06416,-1020.2605)"><g
             id="g896"
             transform="translate(536.3644,454.1162)"><path
               d="m 0,0 12.209,15.617 c 3.222,4.077 4.349,9.51 3.092,14.904 C 13.99,36.15 10.335,40.82 5.241,43.404 l -35.318,20.024 -0.366,0.175 c -2.571,1.223 -5.31,1.843 -8.141,1.843 -8.91,0 -16.496,-6.05 -18.481,-14.726 l -4.842,-20.296 c -5.753,0.883 -11.658,1.341 -17.686,1.341 -61.777,0 -115.142,-53.282 -115.142,-115.115 v -9.086 l -0.034,-37.19 c 0,-10.068 8.162,-18.229 18.23,-18.229 H 17.533 c 10.068,0 18.23,8.161 18.23,18.229 V -83.35 C 35.763,-50.806 22.072,-20.866 0,0"
               style="fill:#ffffff;fill-opacity:1;fill-rule:nonzero;stroke:none"
               id="path898" /></g><g
             id="g900"
             transform="translate(536.2902,487.5)"><path
               d="m 0,0 -35.242,19.98 c -4.415,2.102 -9.638,-0.443 -10.705,-5.214 L -66.19,-70.087 c 6.117,-1.709 11.739,-4.595 16.611,-8.401 L 3.387,-10.737 C 5.735,-7.766 4.417,-2.103 0,0"
               style="fill:#1e93da;fill-opacity:1;fill-rule:nonzero;stroke:none"
               id="path902" /></g><g
             id="g904"
             transform="translate(516.4909,484.9639)"><path
               d="m 0,0 -9.353,0.094 -0.661,-3.06 c 0.435,0.044 0.83,0.083 1.192,0.117 0.36,0.034 0.731,0.048 1.113,0.044 1.361,-0.013 2.612,-0.272 3.752,-0.776 1.139,-0.505 2.099,-1.191 2.881,-2.061 0.781,-0.87 1.372,-1.911 1.773,-3.122 0.401,-1.211 0.556,-2.53 0.465,-3.958 -0.096,-1.502 -0.45,-2.853 -1.064,-4.053 -0.616,-1.202 -1.44,-2.221 -2.473,-3.061 -1.033,-0.839 -2.27,-1.48 -3.708,-1.921 -1.438,-0.441 -3.018,-0.653 -4.736,-0.637 -1.625,0.017 -3.16,0.235 -4.603,0.657 -1.443,0.421 -2.783,1.055 -4.02,1.906 l 1.471,6.783 c 1.127,-1.07 2.295,-1.889 3.502,-2.455 1.206,-0.566 2.371,-0.855 3.494,-0.866 1.434,-0.015 2.593,0.375 3.481,1.166 0.887,0.791 1.368,1.778 1.443,2.96 0.088,1.378 -0.402,2.498 -1.471,3.358 -1.068,0.861 -2.511,1.3 -4.327,1.319 -0.812,0.007 -1.654,-0.077 -2.526,-0.252 -0.871,-0.176 -1.738,-0.457 -2.599,-0.842 L -13.764,6.271 0.391,6.13 Z"
               style="fill:#ffffff;fill-opacity:1;fill-rule:nonzero;stroke:none"
               id="path906" /></g><g
             id="g908"
             transform="translate(558.82,381.3409)"><path
               d="m 0,0 -5.132,22.336 c -1.095,4.767 -6.335,7.28 -10.739,5.15 L -57.216,8.101 c 2.279,-5.521 3.56,-11.558 3.618,-17.888 H -7.414 C -2.523,-9.781 1.095,-4.767 0,0"
               style="fill:#1a69aa;fill-opacity:1;fill-rule:nonzero;stroke:none"
               id="path910" /></g><g
             id="g912"
             transform="translate(425.7541,407.5293)"><path
               d="m 0,0 -28.068,34.563 c -3.037,3.833 -8.849,3.852 -11.911,0.037 L -54.32,16.725 c -3.06,-3.816 -1.783,-9.486 2.618,-11.62 l 40.067,-20.028 C -8.77,-9.203 -4.798,-4.138 0,0"
               style="fill:#17ad49;fill-opacity:1;fill-rule:nonzero;stroke:none"
               id="path914" /></g><g
             id="g916"><g
               id="g918" /><g
               id="g930"><g
                 clip-path="url(#clipPath922)"
                 opacity="0.600006"
                 id="g928"><g
                   transform="translate(398.1286,414.8487)"
                   id="g926"><path
                     d="m 0,0 -13.354,0.134 4.386,4.218 c 1.156,1.116 2.069,2.062 2.735,2.839 0.666,0.777 1.166,1.435 1.501,1.974 0.335,0.537 0.549,0.975 0.644,1.311 0.095,0.336 0.15,0.621 0.165,0.855 0.016,0.249 -0.01,0.491 -0.075,0.727 -0.065,0.234 -0.174,0.444 -0.323,0.629 -0.15,0.183 -0.334,0.333 -0.555,0.445 -0.221,0.111 -0.484,0.17 -0.793,0.172 -0.586,0.006 -1.057,-0.18 -1.411,-0.557 -0.355,-0.377 -0.55,-0.851 -0.586,-1.422 -0.01,-0.161 -0.003,-0.395 0.021,-0.703 l -4.708,0.047 c 0.062,0.966 0.276,1.842 0.641,2.63 0.366,0.787 0.853,1.463 1.461,2.028 0.609,0.565 1.314,0.997 2.119,1.297 0.804,0.3 1.676,0.444 2.614,0.436 0.924,-0.01 1.77,-0.164 2.536,-0.465 0.766,-0.301 1.419,-0.717 1.956,-1.25 0.539,-0.533 0.946,-1.162 1.222,-1.891 C 0.474,12.727 0.585,11.938 0.53,11.089 0.473,10.181 0.225,9.346 -0.213,8.581 -0.65,7.816 -1.32,7.035 -2.223,6.239 L -5.136,3.698 0.232,3.645 Z"
                     style="fill:#ffffff;fill-opacity:1;fill-rule:nonzero;stroke:none"
                     id="path924" /></g></g></g></g><g
             id="g932"><g
               id="g934" /><g
               id="g946"><g
                 clip-path="url(#clipPath938)"
                 opacity="0.600006"
                 id="g944"><g
                   transform="translate(541.61,391.8321)"
                   id="g942"><path
                     d="M 0,0 -6.931,0.069 -6.698,3.714 6.92,3.578 -3.639,-12.881 l -4.752,0.047 z"
                     style="fill:#ffffff;fill-opacity:1;fill-rule:nonzero;stroke:none"
                     id="path940" /></g></g></g></g><g
             id="g948"
             transform="translate(412.8644,389.9639)"><path
               d="m 0,0 -41.095,18.959 c -4.422,2.105 -9.64,-0.473 -10.693,-5.283 L -56.72,-8.865 c -1.053,-4.812 2.605,-9.531 7.496,-9.492 l 45.392,-0.029 C -3.769,-11.865 -2.414,-5.653 0,0"
               style="fill:#17ad49;fill-opacity:1;fill-rule:nonzero;stroke:none"
               id="path950" /></g><g
             id="g952"
             transform="translate(543.8864,424.3731)"><path
               d="m 0,0 -14.419,17.812 c -3.077,3.802 -8.889,3.759 -11.91,-0.088 L -54.65,-17.463 c 4.648,-4.169 8.483,-9.225 11.229,-14.909 l 40.854,20.515 C 1.824,-9.704 3.077,-3.802 0,0"
               style="fill:#1e93da;fill-opacity:1;fill-rule:nonzero;stroke:none"
               id="path954" /></g><g
             id="g956"
             transform="translate(448.3483,418.3789)"><path
               d="m 0,0 c 2.852,0.527 5.787,0.816 8.791,0.816 3.473,0 6.857,-0.377 10.122,-1.076 l 9.454,43.804 c 1.09,4.769 -2.533,9.312 -7.424,9.312 H -1.974 c -4.891,0 -8.514,-4.543 -7.425,-9.312 z"
               style="fill:#85ce37;fill-opacity:1;fill-rule:nonzero;stroke:none"
               id="path958" /></g><g
             id="g960"><g
               id="g962" /><g
               id="g974"><g
                 clip-path="url(#clipPath966)"
                 opacity="0.600006"
                 id="g972"><g
                   transform="translate(458.695,453.6944)"
                   id="g970"><path
                     d="M 0,0 0.415,6.521 -3.807,0.038 Z m 4.004,-0.04 2.002,-0.02 -0.21,-3.293 -2.002,0.02 -0.217,-3.403 -4.004,0.04 0.217,3.403 -8.009,0.08 0.177,2.767 6.997,10.321 5.677,-0.057 z"
                     style="fill:#ffffff;fill-opacity:1;fill-rule:nonzero;stroke:none"
                     id="path968" /></g></g></g></g><g
             id="g976"><g
               id="g978" /><g
               id="g990"><g
                 clip-path="url(#clipPath982)"
                 opacity="0.600006"
                 id="g988"><g
                   transform="translate(519.3376,420.0616)"
                   id="g986"><path
                     d="m 0,0 c -0.024,-0.381 0.025,-0.736 0.152,-1.067 0.125,-0.33 0.305,-0.621 0.538,-0.872 0.234,-0.253 0.511,-0.453 0.831,-0.602 0.322,-0.15 0.672,-0.227 1.054,-0.23 0.381,-0.004 0.741,0.065 1.08,0.208 0.34,0.143 0.642,0.337 0.907,0.584 0.265,0.247 0.482,0.534 0.65,0.861 C 5.379,-0.79 5.476,-0.436 5.5,-0.055 5.524,0.325 5.473,0.682 5.347,1.013 5.222,1.343 5.042,1.634 4.809,1.885 4.574,2.137 4.298,2.337 3.978,2.486 3.656,2.637 3.306,2.714 2.925,2.718 2.543,2.722 2.183,2.651 1.844,2.508 1.504,2.365 1.201,2.17 0.937,1.924 0.672,1.678 0.455,1.391 0.287,1.063 0.119,0.735 0.024,0.38 0,0 M 7.82,10.797 2.768,5.442 2.855,5.441 C 3.282,5.687 3.629,5.833 3.896,5.882 4.163,5.931 4.399,5.954 4.605,5.952 5.412,5.943 6.143,5.782 6.798,5.469 7.453,5.154 8.013,4.728 8.477,4.188 8.942,3.648 9.291,3.02 9.523,2.3 9.757,1.58 9.847,0.81 9.795,-0.01 9.738,-0.889 9.525,-1.702 9.155,-2.453 8.784,-3.204 8.276,-3.857 7.632,-4.415 6.987,-4.973 6.223,-5.408 5.337,-5.721 4.451,-6.034 3.465,-6.186 2.38,-6.175 c -1.1,0.011 -2.072,0.182 -2.917,0.513 -0.845,0.33 -1.555,0.776 -2.127,1.339 -0.573,0.562 -0.998,1.215 -1.274,1.957 -0.276,0.742 -0.386,1.531 -0.333,2.365 0.059,0.937 0.333,1.948 0.82,3.035 0.488,1.085 1.197,2.152 2.13,3.196 l 4.147,4.617 z"
                     style="fill:#ffffff;fill-opacity:1;fill-rule:nonzero;stroke:none"
                     id="path984" /></g></g></g></g><g
             id="g992"><g
               id="g994" /><g
               id="g1006"><g
                 clip-path="url(#clipPath998)"
                 opacity="0.600006"
                 id="g1004"><g
                   transform="translate(372.3254,392.416)"
                   id="g1002"><path
                     d="m 0,0 -2.42,0.024 0.232,3.66 6.732,-0.068 -1.055,-16.62 -4.311,0.044 z"
                     style="fill:#ffffff;fill-opacity:1;fill-rule:nonzero;stroke:none"
                     id="path1000" /></g></g></g></g><g
             id="g1008"
             transform="translate(445.3093,417.7256)"><path
               d="m 0,0 -10.387,43.294 c -1.084,4.769 -6.318,7.296 -10.726,5.177 l -20.655,-9.928 c -4.408,-2.119 -5.705,-7.785 -2.657,-11.61 L -17.111,-8.214 C -12.084,-4.42 -6.29,-1.591 0,0"
               style="fill:#85ce37;fill-opacity:1;fill-rule:nonzero;stroke:none"
               id="path1010" /></g><g
             id="g1012"><g
               id="g1014" /><g
               id="g1026"><g
                 clip-path="url(#clipPath1018)"
                 opacity="0.600006"
                 id="g1024"><g
                   transform="translate(421.6271,448.3877)"
                   id="g1022"><path
                     d="m 0,0 c 0.116,-0.016 0.214,-0.023 0.295,-0.025 0.08,0 0.15,-10e-4 0.209,-0.002 0.542,-0.005 0.993,0.151 1.351,0.47 C 2.213,0.761 2.408,1.177 2.44,1.689 2.473,2.187 2.34,2.591 2.044,2.9 1.748,3.212 1.352,3.369 0.853,3.375 0.325,3.38 -0.111,3.209 -0.456,2.86 -0.802,2.512 -0.992,2.061 -1.027,1.504 l -3.983,0.04 c 0.157,0.862 0.424,1.628 0.796,2.299 0.373,0.67 0.83,1.233 1.373,1.688 0.543,0.456 1.166,0.801 1.872,1.036 0.704,0.236 1.475,0.348 2.312,0.339 C 2.163,6.898 2.9,6.777 3.554,6.544 4.206,6.311 4.758,5.983 5.208,5.561 5.657,5.139 5.992,4.631 6.212,4.035 6.43,3.439 6.517,2.776 6.47,2.045 6.42,1.254 6.228,0.607 5.896,0.105 5.562,-0.396 5.105,-0.828 4.524,-1.187 5.358,-1.46 5.992,-1.939 6.426,-2.623 6.859,-3.309 7.044,-4.149 6.98,-5.145 6.929,-5.965 6.72,-6.71 6.354,-7.379 5.988,-8.05 5.5,-8.623 4.891,-9.1 4.28,-9.578 3.567,-9.943 2.751,-10.199 1.936,-10.455 1.05,-10.578 0.097,-10.568 c -1.276,0.013 -2.411,0.273 -3.407,0.781 -0.995,0.508 -1.765,1.307 -2.313,2.396 -0.247,0.485 -0.404,0.97 -0.468,1.454 -0.065,0.484 -0.082,0.975 -0.05,1.472 l 4.269,-0.043 c -0.021,-0.775 0.169,-1.367 0.569,-1.773 0.4,-0.407 0.958,-0.615 1.677,-0.621 0.763,-0.008 1.334,0.191 1.712,0.598 0.378,0.406 0.586,0.909 0.624,1.509 0.046,0.717 -0.133,1.262 -0.534,1.632 C 1.773,-2.794 1.279,-2.605 0.692,-2.6 0.546,-2.598 0.406,-2.607 0.272,-2.628 0.139,-2.648 -0.009,-2.673 -0.172,-2.701 Z"
                     style="fill:#ffffff;fill-opacity:1;fill-rule:nonzero;stroke:none"
                     id="path1020" /></g></g></g></g><g
             id="g1028"
             transform="translate(461.0847,381.1397)"><path
               d="m 0,0 c -2.797,-0.277 -5.129,2.054 -4.853,4.852 0.206,2.07 1.88,3.744 3.95,3.949 C 1.894,9.078 4.226,6.746 3.949,3.949 3.744,1.879 2.07,0.205 0,0 m 10.374,4.333 h -0.029 c 0,0.022 0.002,0.045 0.002,0.067 0,5.847 -4.835,10.586 -10.799,10.586 -6.192,0 -10.798,-4.739 -10.798,-10.586 0,-5.846 4.834,-10.586 10.798,-10.586 1.372,0 2.683,0.253 3.891,0.711 0.255,0.097 0.527,-0.09 0.526,-0.363 0.027,-3.836 -1.595,-5.556 -4.515,-5.49 -1.81,0.04 -3.588,1.544 -4.196,2.873 -0.189,0.412 -0.609,0.667 -1.062,0.667 h -4.405 c -0.649,0 -1.12,-0.601 -0.985,-1.235 1.022,-4.798 5.406,-8.349 11.297,-8.275 5.641,0.07 10.031,4.011 10.319,9.504 0.001,0.004 0.001,0.008 0.001,0.012 z"
               style="fill:#918f90;fill-opacity:1;fill-rule:nonzero;stroke:none"
               id="path1030" /></g><g
             id="g1032"
             transform="translate(446.0275,374.6905)"><path
               d="m 0,0 h -5.792 c -0.35,0 -0.633,0.274 -0.633,0.612 v 16.886 c 0,0.338 0.283,0.612 0.633,0.612 H 0 c 0.35,0 0.633,-0.274 0.633,-0.612 V 0.612 C 0.633,0.274 0.35,0 0,0"
               style="fill:#918f90;fill-opacity:1;fill-rule:nonzero;stroke:none"
               id="path1034" /></g><g
             id="g1036"
             transform="translate(439.9172,394.0332)"><path
               d="M 0,0 C 0,0 -1.955,8.644 7.838,9.369 8.077,2.02 4.228,0.495 0,0"
               style="fill:#918f90;fill-opacity:1;fill-rule:nonzero;stroke:none"
               id="path1038" /></g><g
             id="g1040"
             transform="translate(429.0051,396.1485)"><path
               d="M 0,0 C 2.195,0 4.176,-0.488 6.032,-1.489 6.303,-1.635 6.419,-1.96 6.315,-2.246 L 5.039,-5.771 C 4.894,-6.171 4.424,-6.34 4.045,-6.14 c -1.341,0.707 -2.729,1.011 -3.942,1.011 -1.031,0 -2.001,-0.623 -2.001,-1.687 0.013,-1.142 0.929,-1.233 3.674,-1.857 3.636,-0.827 5.548,-3.406 5.524,-6.055 -0.035,-5.307 -4.732,-7.616 -9.128,-7.616 -2.423,0 -5.223,0.621 -7.503,1.646 -0.263,0.118 -0.383,0.421 -0.283,0.687 l 1.571,4.171 c 0.081,0.217 0.349,0.305 0.541,0.171 1.681,-1.167 3.517,-1.399 5.064,-1.399 0.249,0 2.354,0.089 2.392,1.688 0.009,2.252 -2.571,2.187 -3.867,2.428 -3.795,0.708 -4.777,3.64 -4.864,5.534 0,2.987 1.184,4.333 2.473,5.351 C -4.641,-0.754 -2.343,0 0,0"
               style="fill:#918f90;fill-opacity:1;fill-rule:nonzero;stroke:none"
               id="path1042" /></g><g
             id="g1044"
             transform="translate(488.3625,384.9346)"><path
               d="m 0,0 c -0.205,-2.07 -1.879,-3.744 -3.949,-3.949 -2.798,-0.278 -5.129,2.053 -4.852,4.851 0.205,2.071 1.879,3.744 3.949,3.95 C -2.055,5.129 0.277,2.797 0,0 m 6.555,2.085 c -0.805,5.049 -5.178,8.907 -10.452,8.907 -5.847,0 -10.464,-4.741 -10.587,-10.587 -0.112,-5.332 3.605,-10.327 8.599,-10.557 4.188,-0.193 5.856,1.748 6.549,2.315 v -2.247 c 0,-0.302 0.245,-0.547 0.547,-0.547 h 4.305 c 0.642,0 1.162,0.519 1.163,1.16 0.003,2.809 0.01,9.756 0.01,9.876 0,0.151 -0.07,1.277 -0.134,1.68"
               style="fill:#918f90;fill-opacity:1;fill-rule:nonzero;stroke:none"
               id="path1046" /></g><g
             id="g1048"
             transform="translate(354.8962,348.0733)"><path
               d="M 0,0 0.004,7.783 3.533,7.781 3.529,0.077 c 0,-2.001 0.917,-2.951 2.322,-2.952 1.422,-10e-4 2.34,0.91 2.341,2.851 L 8.196,7.779 11.726,7.778 11.722,0.094 C 11.72,-4.363 9.396,-6.343 5.813,-6.341 2.248,-6.339 -0.002,-4.338 0,0"
               style="fill:#231f20;fill-opacity:1;fill-rule:nonzero;stroke:none"
               id="path1050" /></g><g
             id="g1052"
             transform="translate(369.1384,355.8496)"><path
               d="m 0,0 3.493,-0.001 -0.005,-10.497 6.104,-0.003 -0.001,-3.367 -9.597,0.004 z"
               style="fill:#231f20;fill-opacity:1;fill-rule:nonzero;stroke:none"
               id="path1054" /></g><g
             id="g1056"
             transform="translate(381.9719,352.4766)"><path
               d="M 0,0 -3.763,0.002 -3.762,3.369 7.275,3.364 7.274,-0.003 3.493,-0.002 3.488,-10.499 l -3.493,0.002 z"
               style="fill:#231f20;fill-opacity:1;fill-rule:nonzero;stroke:none"
               id="path1058" /></g><g
             id="g1060"
             transform="translate(397.0368,349.1817)"><path
               d="m 0,0 c 1.17,0 1.873,0.634 1.874,1.644 v 0.04 c 0,1.108 -0.738,1.663 -1.89,1.664 L -2.321,3.349 -2.323,0.002 Z M -5.812,6.658 0.147,6.655 C 2.074,6.654 3.406,6.099 4.251,5.168 4.99,4.355 5.368,3.306 5.367,1.938 V 1.899 C 5.366,-0.24 4.339,-1.646 2.772,-2.378 l 3.005,-4.834 -4.015,0.002 -2.537,4.2 -1.549,10e-4 -0.002,-4.199 -3.493,0.002 z"
               style="fill:#231f20;fill-opacity:1;fill-rule:nonzero;stroke:none"
               id="path1062" /></g><g
             id="g1064"
             transform="translate(411.7966,347.4522)"><path
               d="M 0,0 -1.402,3.922 -2.827,0.001 Z M -3.057,8.479 0.31,8.477 5.669,-5.489 l -3.745,0.002 -0.899,2.496 -4.88,0.002 -0.901,-2.495 -3.655,0.002 z"
               style="fill:#231f20;fill-opacity:1;fill-rule:nonzero;stroke:none"
               id="path1066" /></g><g
             id="g1068"
             transform="translate(418.0236,349.8057)"><path
               d="M 0,0 5.906,-0.003 5.904,-3.291 -0.001,-3.288 Z"
               style="fill:#231f20;fill-opacity:1;fill-rule:nonzero;stroke:none"
               id="path1070" /></g><g
             id="g1072"
             transform="translate(427.8,352.4551)"><path
               d="M 0,0 -3.763,0.002 -3.762,3.369 7.275,3.364 7.274,-0.003 3.493,-0.002 3.488,-10.499 l -3.493,0.002 z"
               style="fill:#231f20;fill-opacity:1;fill-rule:nonzero;stroke:none"
               id="path1074" /></g><g
             id="g1076"
             transform="translate(442.8644,349.1602)"><path
               d="m 0,0 c 1.17,0 1.873,0.633 1.874,1.643 v 0.04 c 0,1.109 -0.738,1.664 -1.89,1.665 L -2.321,3.349 -2.323,0.001 Z M -5.812,6.658 0.147,6.655 C 2.074,6.654 3.406,6.099 4.251,5.168 4.99,4.354 5.368,3.306 5.367,1.938 V 1.899 C 5.366,-0.24 4.339,-1.646 2.772,-2.378 l 3.005,-4.834 -4.015,0.002 -2.537,4.2 h -1.549 l -0.002,-4.198 -3.493,0.002 z"
               style="fill:#231f20;fill-opacity:1;fill-rule:nonzero;stroke:none"
               id="path1078" /></g><g
             id="g1080"
             transform="translate(457.6252,347.4307)"><path
               d="M 0,0 -1.403,3.922 -2.827,0.001 Z M -3.057,8.479 0.31,8.477 5.669,-5.489 l -3.745,0.002 -0.899,2.496 -4.879,0.002 -0.902,-2.495 -3.655,0.002 z"
               style="fill:#231f20;fill-opacity:1;fill-rule:nonzero;stroke:none"
               id="path1082" /></g><g
             id="g1084"
             transform="translate(464.9704,355.8047)"><path
               d="m 0,0 3.259,-0.001 5.182,-7.331 0.004,7.328 3.457,-0.002 -0.006,-13.864 -3.043,0.002 -5.399,7.608 -0.003,-7.605 -3.457,10e-4 z"
               style="fill:#231f20;fill-opacity:1;fill-rule:nonzero;stroke:none"
               id="path1086" /></g><g
             id="g1088"
             transform="translate(478.5905,343.9942)"><path
               d="M 0,0 1.946,2.554 C 3.206,1.464 4.574,0.889 6.032,0.889 6.986,0.888 7.491,1.244 7.491,1.839 V 1.878 C 7.492,2.473 7.078,2.77 5.35,3.226 2.667,3.9 0.597,4.733 0.598,7.565 v 0.039 c 0.001,2.576 1.857,4.436 4.881,4.435 2.143,-10e-4 3.817,-0.636 5.185,-1.844 L 8.917,7.482 C 7.765,8.394 6.504,8.851 5.388,8.851 4.542,8.851 4.127,8.475 4.127,7.96 V 7.921 c 0,-0.634 0.432,-0.912 2.196,-1.349 2.881,-0.694 4.68,-1.725 4.679,-4.319 V 2.213 C 11.001,-0.619 8.966,-2.302 5.905,-2.301 3.672,-2.3 1.566,-1.526 0,0"
               style="fill:#231f20;fill-opacity:1;fill-rule:nonzero;stroke:none"
               id="path1090" /></g><g
             id="g1092"
             transform="translate(491.7365,355.792)"><path
               d="m 0,0 10.083,-0.005 -10e-4,-3.367 -6.59,0.004 -0.002,-2.358 5.96,-0.003 -10e-4,-3.188 -5.96,0.003 -0.002,-4.951 -3.493,10e-4 z"
               style="fill:#231f20;fill-opacity:1;fill-rule:nonzero;stroke:none"
               id="path1094" /></g><g
             id="g1096"
             transform="translate(513.4435,348.8106)"><path
               d="M 0,0 V 0.039 C 0.001,2.06 -1.294,3.783 -3.221,3.784 -5.147,3.785 -6.427,2.082 -6.428,0.082 v -0.04 c -0.001,-2 1.313,-3.743 3.24,-3.744 C -1.28,-3.703 -0.001,-2.001 0,0 m -9.993,0.005 v 0.039 c 0.002,3.981 2.92,7.208 6.809,7.206 C 0.706,7.249 3.585,4.059 3.583,0.077 V 0.038 c -0.002,-3.981 -2.92,-7.208 -6.81,-7.207 -3.889,0.002 -6.768,3.192 -6.766,7.174"
               style="fill:#231f20;fill-opacity:1;fill-rule:nonzero;stroke:none"
               id="path1098" /></g><g
             id="g1100"
             transform="translate(525.0886,349.1221)"><path
               d="m 0,0 c 1.17,-0.001 1.873,0.633 1.874,1.643 v 0.04 c 0,1.108 -0.738,1.664 -1.89,1.664 L -2.321,3.348 -2.323,0.001 Z M -5.812,6.657 0.147,6.654 C 2.074,6.653 3.406,6.099 4.251,5.167 4.99,4.354 5.368,3.305 5.367,1.938 V 1.898 C 5.366,-0.24 4.339,-1.646 2.772,-2.379 l 3.005,-4.833 -4.015,10e-4 -2.537,4.2 -1.549,0.001 -0.002,-4.199 -3.493,0.002 z"
               style="fill:#231f20;fill-opacity:1;fill-rule:nonzero;stroke:none"
               id="path1102" /></g><g
             id="g1104"
             transform="translate(532.6677,355.7735)"><path
               d="m 0,0 3.691,-0.002 3.005,-5.369 3.009,5.366 3.691,-0.002 -0.006,-13.864 -3.475,0.002 0.003,7.962 -3.225,-5.426 H 6.621 l -3.203,5.409 -0.003,-7.942 -3.421,0.002 z"
               style="fill:#231f20;fill-opacity:1;fill-rule:nonzero;stroke:none"
               id="path1106" /></g><g
             id="g1108"
             transform="translate(554.4518,359.9219)"><path
               d="m 0,0 3.258,-1.091 -2.666,-2.118 -2.538,0.002 z m -5.71,-4.156 10.137,-0.005 -10e-4,-3.248 -6.68,0.003 -10e-4,-2.119 6.049,-0.003 -10e-4,-3.031 -6.05,0.003 -10e-4,-2.198 6.77,-0.004 -10e-4,-3.267 -10.227,0.004 z"
               style="fill:#231f20;fill-opacity:1;fill-rule:nonzero;stroke:none"
               id="path1110" /></g><g
             id="g1112"
             transform="translate(411.1789,336.9893)"><path
               d="m 0,0 3.258,-1.091 -2.665,-2.118 -2.539,0.002 z m -5.71,-4.156 10.137,-0.005 -10e-4,-3.248 -6.68,0.003 -10e-4,-2.119 6.049,-0.003 -10e-4,-3.03 -6.05,0.002 -10e-4,-2.199 6.77,-0.003 -0.002,-3.267 -10.227,0.004 z"
               style="fill:#231f20;fill-opacity:1;fill-rule:nonzero;stroke:none"
               id="path1114" /></g><g
             id="g1116"
             transform="translate(425.5007,322.3457)"><path
               d="M 0,0 -1.746,1.645 0.02,3.823 1.729,2.1 c 0.145,0.435 0.217,0.891 0.217,1.385 v 0.04 c 0.001,2 -1.312,3.763 -3.239,3.764 C -3.219,7.29 -4.499,5.549 -4.5,3.548 V 3.509 c -0.001,-2.001 1.294,-3.765 3.239,-3.766 0.45,0 0.883,0.1 1.261,0.257 M 3.923,-3.804 2.538,-2.438 C 1.457,-3.229 0.142,-3.664 -1.298,-3.663 -5.187,-3.661 -8.067,-0.472 -8.065,3.51 v 0.04 c 0.002,3.98 2.92,7.208 6.81,7.206 3.889,-0.002 6.768,-3.193 6.766,-7.173 v -0.04 c 0,-1.465 -0.415,-2.832 -1.118,-3.98 l 1.296,-1.209 z"
               style="fill:#231f20;fill-opacity:1;fill-rule:nonzero;stroke:none"
               id="path1118" /></g><g
             id="g1120"
             transform="translate(433.113,325.0362)"><path
               d="M 0,0 0.004,7.784 3.533,7.782 3.529,0.077 c -10e-4,-2 0.917,-2.95 2.322,-2.951 1.422,-10e-4 2.34,0.91 2.341,2.851 L 8.196,7.78 11.726,7.778 11.722,0.094 C 11.72,-4.363 9.396,-6.343 5.813,-6.341 2.248,-6.339 -0.002,-4.337 0,0"
               style="fill:#231f20;fill-opacity:1;fill-rule:nonzero;stroke:none"
               id="path1122" /></g><g
             id="g1124"
             transform="translate(447.4455,332.8135)"><path
               d="m 0,0 3.493,-0.002 -0.007,-13.864 -3.493,0.002 z"
               style="fill:#231f20;fill-opacity:1;fill-rule:nonzero;stroke:none"
               id="path1126" /></g><g
             id="g1128"
             transform="translate(453.6906,332.8106)"><path
               d="m 0,0 3.493,-0.002 -0.005,-10.497 6.104,-0.003 -0.002,-3.367 -9.597,0.005 z"
               style="fill:#231f20;fill-opacity:1;fill-rule:nonzero;stroke:none"
               id="path1130" /></g><g
             id="g1132"
             transform="translate(465.3371,332.8047)"><path
               d="m 0,0 3.493,-0.002 -0.007,-13.863 -3.493,10e-4 z"
               style="fill:#231f20;fill-opacity:1;fill-rule:nonzero;stroke:none"
               id="path1134" /></g><g
             id="g1136"
             transform="translate(478.8552,328.5205)"><path
               d="m 0,0 c 0,0.772 -0.558,1.188 -1.584,1.188 l -2.287,0.001 -10e-4,-2.435 2.196,-0.001 C -0.613,-1.247 0,-0.852 0,-0.04 Z m -1.208,-3.941 -2.665,0.002 -0.002,-2.555 2.701,-0.002 c 1.08,0 1.675,0.455 1.675,1.267 v 0.04 c 0,0.752 -0.539,1.248 -1.709,1.248 M -7.272,4.281 -0.809,4.278 C 0.776,4.277 1.892,3.841 2.63,3.049 3.134,2.475 3.439,1.741 3.439,0.79 V 0.751 C 3.438,-0.854 2.61,-1.804 1.493,-2.338 3.023,-2.894 3.995,-3.844 3.994,-5.726 v -0.04 C 3.993,-8.142 2.228,-9.587 -0.779,-9.586 l -6.5,0.003 z"
               style="fill:#231f20;fill-opacity:1;fill-rule:nonzero;stroke:none"
               id="path1138" /></g><g
             id="g1140"
             transform="translate(490.715,326.1387)"><path
               d="m 0,0 c 1.17,-0.001 1.873,0.633 1.874,1.643 v 0.04 c 0,1.108 -0.738,1.663 -1.89,1.664 L -2.321,3.348 -2.323,0.001 Z M -5.812,6.657 0.147,6.654 C 2.074,6.653 3.406,6.098 4.251,5.167 4.989,4.354 5.367,3.305 5.367,1.937 V 1.898 C 5.366,-0.241 4.339,-1.646 2.772,-2.378 l 3.004,-4.835 -4.015,0.002 -2.537,4.2 -1.548,0.001 -0.002,-4.199 -3.493,0.002 z"
               style="fill:#231f20;fill-opacity:1;fill-rule:nonzero;stroke:none"
               id="path1142" /></g><g
             id="g1144"
             transform="translate(504.0046,336.9453)"><path
               d="m 0,0 3.258,-1.091 -2.666,-2.117 -2.538,0.001 z m -5.71,-4.156 10.137,-0.005 -10e-4,-3.248 -6.68,0.004 -10e-4,-2.12 6.049,-0.003 -10e-4,-3.03 -6.05,0.003 -10e-4,-2.199 6.77,-0.003 -0.002,-3.267 -10.227,0.003 z"
               style="fill:#231f20;fill-opacity:1;fill-rule:nonzero;stroke:none"
               id="path1146" /></g></g></g></g></g></svg>
