<?xml version="1.0" encoding="UTF-8" standalone="no"?>
<!-- Created with Inkscape (http://www.inkscape.org/) -->

<svg
   version="1.1"
   id="svg2"
   xml:space="preserve"
   width="1587.4"
   height="1122.52"
   viewBox="0 0 1587.4 1122.52"
   sodipodi:docname="VectSigaIndicesQuadri 4.svg"
   inkscape:export-filename="C:\Users\yasmi\Downloads\g14.png"
   inkscape:export-xdpi="245.12"
   inkscape:export-ydpi="245.12"
   inkscape:version="1.1 (c68e22c387, 2021-05-23)"
   xmlns:inkscape="http://www.inkscape.org/namespaces/inkscape"
   xmlns:sodipodi="http://sodipodi.sourceforge.net/DTD/sodipodi-0.dtd"
   xmlns="http://www.w3.org/2000/svg"
   xmlns:svg="http://www.w3.org/2000/svg"><defs
     id="defs6"><clipPath
       clipPathUnits="userSpaceOnUse"
       id="clipPath18"><path
         d="M 0,841.89 H 1190.551 V 0 H 0 Z"
         id="path16" /></clipPath><clipPath
       clipPathUnits="userSpaceOnUse"
       id="clipPath54"><path
         d="m 103.968,676.394 h 13.898 v -17.06 h -13.898 z"
         id="path52" /></clipPath><clipPath
       clipPathUnits="userSpaceOnUse"
       id="clipPath70"><path
         d="m 134.663,699.78 h 13.149 v -17.476 h -13.149 z"
         id="path68" /></clipPath><clipPath
       clipPathUnits="userSpaceOnUse"
       id="clipPath86"><path
         d="m 169.667,708.055 h 14.225 v -16.612 h -14.225 z"
         id="path84" /></clipPath><clipPath
       clipPathUnits="userSpaceOnUse"
       id="clipPath102"><path
         d="m 206.546,699.378 h 12.656 v -17.045 h -12.656 z"
         id="path100" /></clipPath><clipPath
       clipPathUnits="userSpaceOnUse"
       id="clipPath118"><path
         d="m 234.244,675.393 h 14.094 v -17.022 h -14.094 z"
         id="path116" /></clipPath><clipPath
       clipPathUnits="userSpaceOnUse"
       id="clipPath134"><path
         d="m 252.412,640.031 h 15.31 v -16.595 h -15.31 z"
         id="path132" /></clipPath><clipPath
       clipPathUnits="userSpaceOnUse"
       id="clipPath262"><path
         d="m 415.176,699.78 h 13.149 v -17.476 h -13.149 z"
         id="path260" /></clipPath><clipPath
       clipPathUnits="userSpaceOnUse"
       id="clipPath278"><path
         d="m 450.18,708.055 h 14.224 V 691.443 H 450.18 Z"
         id="path276" /></clipPath><clipPath
       clipPathUnits="userSpaceOnUse"
       id="clipPath294"><path
         d="m 487.059,699.378 h 12.655 v -17.045 h -12.655 z"
         id="path292" /></clipPath><clipPath
       clipPathUnits="userSpaceOnUse"
       id="clipPath310"><path
         d="M 514.757,675.393 H 528.85 V 658.371 H 514.757 Z"
         id="path308" /></clipPath><clipPath
       clipPathUnits="userSpaceOnUse"
       id="clipPath326"><path
         d="m 532.924,640.031 h 15.311 v -16.595 h -15.311 z"
         id="path324" /></clipPath><clipPath
       clipPathUnits="userSpaceOnUse"
       id="clipPath394"><path
         d="m 369.609,640.585 h 6.964 v -16.688 h -6.964 z"
         id="path392" /></clipPath><clipPath
       clipPathUnits="userSpaceOnUse"
       id="clipPath450"><path
         d="m 944.993,697.579 h 13.897 v -17.06 h -13.897 z"
         id="path448" /></clipPath><clipPath
       clipPathUnits="userSpaceOnUse"
       id="clipPath466"><path
         d="m 1047.57,720.563 h 12.66 v -17.045 h -12.66 z"
         id="path464" /></clipPath><clipPath
       clipPathUnits="userSpaceOnUse"
       id="clipPath482"><path
         d="m 1093.44,661.216 h 15.31 v -16.595 h -15.31 z"
         id="path480" /></clipPath><clipPath
       clipPathUnits="userSpaceOnUse"
       id="clipPath518"><path
         d="m 1010.69,729.239 h 14.23 v -16.611 h -14.23 z"
         id="path516" /></clipPath><clipPath
       clipPathUnits="userSpaceOnUse"
       id="clipPath534"><path
         d="m 1047.57,720.563 h 12.66 v -17.045 h -12.66 z"
         id="path532" /></clipPath><clipPath
       clipPathUnits="userSpaceOnUse"
       id="clipPath550"><path
         d="m 1075.27,696.577 h 14.09 v -17.022 h -14.09 z"
         id="path548" /></clipPath><clipPath
       clipPathUnits="userSpaceOnUse"
       id="clipPath566"><path
         d="m 930.123,661.769 h 6.964 v -16.688 h -6.964 z"
         id="path564" /></clipPath><clipPath
       clipPathUnits="userSpaceOnUse"
       id="clipPath686"><path
         d="m 134.943,455.219 h 13.15 v -17.476 h -13.15 z"
         id="path684" /></clipPath><clipPath
       clipPathUnits="userSpaceOnUse"
       id="clipPath718"><path
         d="m 104.245,431.833 h 13.898 v -17.06 h -13.898 z"
         id="path716" /></clipPath><clipPath
       clipPathUnits="userSpaceOnUse"
       id="clipPath734"><path
         d="M 252.69,395.47 H 268 v -16.595 h -15.31 z"
         id="path732" /></clipPath><clipPath
       clipPathUnits="userSpaceOnUse"
       id="clipPath762"><path
         d="m 206.825,454.817 h 12.656 v -17.045 h -12.656 z"
         id="path760" /></clipPath><clipPath
       clipPathUnits="userSpaceOnUse"
       id="clipPath778"><path
         d="m 234.524,430.832 h 14.093 V 413.81 h -14.093 z"
         id="path776" /></clipPath><clipPath
       clipPathUnits="userSpaceOnUse"
       id="clipPath794"><path
         d="m 89.3759,396.024 h 6.9638 v -16.688 h -6.9638 z"
         id="path792" /></clipPath><clipPath
       clipPathUnits="userSpaceOnUse"
       id="clipPath922"><path
         d="m 384.775,431.909 h 13.897 v -17.06 h -13.897 z"
         id="path920" /></clipPath><clipPath
       clipPathUnits="userSpaceOnUse"
       id="clipPath938"><path
         d="M 533.219,395.546 H 548.53 V 378.951 H 533.219 Z"
         id="path936" /></clipPath><clipPath
       clipPathUnits="userSpaceOnUse"
       id="clipPath966"><path
         d="m 450.476,463.57 h 14.225 v -16.612 h -14.225 z"
         id="path964" /></clipPath><clipPath
       clipPathUnits="userSpaceOnUse"
       id="clipPath982"><path
         d="m 515.054,430.908 h 14.093 v -17.022 h -14.093 z"
         id="path980" /></clipPath><clipPath
       clipPathUnits="userSpaceOnUse"
       id="clipPath998"><path
         d="m 369.906,396.1 h 6.963 v -16.688 h -6.963 z"
         id="path996" /></clipPath><clipPath
       clipPathUnits="userSpaceOnUse"
       id="clipPath1018"><path
         d="M 415.471,455.295 H 428.62 V 437.819 H 415.471 Z"
         id="path1016" /></clipPath><clipPath
       clipPathUnits="userSpaceOnUse"
       id="clipPath1178"><path
         d="m 665.041,431.774 h 13.897 v -17.06 h -13.897 z"
         id="path1176" /></clipPath><clipPath
       clipPathUnits="userSpaceOnUse"
       id="clipPath1194"><path
         d="m 813.485,395.411 h 15.31 v -16.594 h -15.31 z"
         id="path1192" /></clipPath><clipPath
       clipPathUnits="userSpaceOnUse"
       id="clipPath1214"><path
         d="m 730.742,463.435 h 14.224 v -16.611 h -14.224 z"
         id="path1212" /></clipPath><clipPath
       clipPathUnits="userSpaceOnUse"
       id="clipPath1230"><path
         d="m 650.171,395.965 h 6.964 v -16.688 h -6.964 z"
         id="path1228" /></clipPath><clipPath
       clipPathUnits="userSpaceOnUse"
       id="clipPath1250"><path
         d="m 695.736,455.16 h 13.15 v -17.476 h -13.15 z"
         id="path1248" /></clipPath><clipPath
       clipPathUnits="userSpaceOnUse"
       id="clipPath1270"><path
         d="m 767.619,454.758 h 12.655 v -17.044 h -12.655 z"
         id="path1268" /></clipPath><clipPath
       clipPathUnits="userSpaceOnUse"
       id="clipPath1418"><path
         d="m 1075.29,430.773 h 14.09 v -17.022 h -14.09 z"
         id="path1416" /></clipPath><clipPath
       clipPathUnits="userSpaceOnUse"
       id="clipPath1438"><path
         d="m 945.007,431.774 h 13.897 v -17.06 h -13.897 z"
         id="path1436" /></clipPath><clipPath
       clipPathUnits="userSpaceOnUse"
       id="clipPath1462"><path
         d="m 1010.71,463.435 h 14.22 v -16.611 h -14.22 z"
         id="path1460" /></clipPath><clipPath
       clipPathUnits="userSpaceOnUse"
       id="clipPath1478"><path
         d="m 930.137,395.965 h 6.964 v -16.688 h -6.964 z"
         id="path1476" /></clipPath><clipPath
       clipPathUnits="userSpaceOnUse"
       id="clipPath1498"><path
         d="m 975.702,455.16 h 13.149 v -17.476 h -13.149 z"
         id="path1496" /></clipPath><clipPath
       clipPathUnits="userSpaceOnUse"
       id="clipPath1518"><path
         d="m 1047.58,454.758 h 12.66 v -17.044 h -12.66 z"
         id="path1516" /></clipPath><clipPath
       clipPathUnits="userSpaceOnUse"
       id="clipPath1658"><path
         d="M 767.704,720.563 H 780.36 V 703.518 H 767.704 Z"
         id="path1656" /></clipPath><clipPath
       clipPathUnits="userSpaceOnUse"
       id="clipPath1674"><path
         d="M 813.569,661.216 H 828.88 V 644.621 H 813.569 Z"
         id="path1672" /></clipPath><clipPath
       clipPathUnits="userSpaceOnUse"
       id="clipPath1706"><path
         d="m 730.826,729.239 h 14.225 v -16.611 h -14.225 z"
         id="path1704" /></clipPath><clipPath
       clipPathUnits="userSpaceOnUse"
       id="clipPath1722"><path
         d="m 767.705,720.563 h 12.656 v -17.045 h -12.656 z"
         id="path1720" /></clipPath><clipPath
       clipPathUnits="userSpaceOnUse"
       id="clipPath1738"><path
         d="m 795.404,696.577 h 14.093 v -17.022 h -14.093 z"
         id="path1736" /></clipPath><clipPath
       clipPathUnits="userSpaceOnUse"
       id="clipPath1754"><path
         d="m 650.256,661.769 h 6.964 v -16.688 h -6.964 z"
         id="path1752" /></clipPath><clipPath
       clipPathUnits="userSpaceOnUse"
       id="clipPath1926"><path
         d="m 695.765,721.006 h 13.149 V 703.53 h -13.149 z"
         id="path1924" /></clipPath><clipPath
       clipPathUnits="userSpaceOnUse"
       id="clipPath1952"><path
         d="M 0,841.89 H 1190.551 V 0 H 0 Z"
         id="path1950" /></clipPath></defs><sodipodi:namedview
     id="namedview4"
     pagecolor="#ffffff"
     bordercolor="#111111"
     borderopacity="1"
     inkscape:pageshadow="0"
     inkscape:pageopacity="0"
     inkscape:pagecheckerboard="1"
     showgrid="false"
     inkscape:zoom="0.51780081"
     inkscape:cx="143.87772"
     inkscape:cy="206.64317"
     inkscape:window-width="2400"
     inkscape:window-height="1284"
     inkscape:window-x="-9"
     inkscape:window-y="-9"
     inkscape:window-maximized="1"
     inkscape:current-layer="g12"
     showguides="true"
     inkscape:guide-bbox="true"><sodipodi:guide
       position="802.97051,1031.0251"
       orientation="1,0"
       id="guide7237" /><sodipodi:guide
       position="-252.63528,573.55036"
       orientation="0,-1"
       id="guide7239" /></sodipodi:namedview><g
     id="g8"
     inkscape:groupmode="layer"
     inkscape:label="VectSigaIndicesQuadri 1"
     transform="matrix(1.3333333,0,0,-1.3333333,0,1122.52)"><g
       id="g12"><g
         id="g7233"
         transform="matrix(3.502346,0,0,3.502346,-0.39717404,-1021.7472)"><g
           id="g672"
           transform="translate(211.5837,480.2891)"><path
             d="m 0,0 4.377,20.478 c 1.112,5.038 -0.215,10.384 -3.648,14.682 -3.6,4.505 -8.895,7.144 -14.627,7.293 l -40.522,2.825 -0.406,-10e-4 c -5.8,-0.01 -11.195,-2.622 -14.804,-7.164 -3.582,-4.51 -4.912,-10.304 -3.657,-15.919 l 4.632,-21.926 c -46.469,-14.878 -81.824,-59.539 -81.824,-109.867 v -9.087 l -0.034,-37.189 c 0,-10.067 8.162,-18.229 18.231,-18.229 H 60.936 c 10.068,0 19.08,8.162 19.08,18.229 v 46.276 C 80.016,-58.619 46.389,-14.954 0,0"
             style="fill:#ffffff;fill-opacity:1;fill-rule:nonzero;stroke:none"
             id="path674" /></g><g
           id="g676"
           transform="translate(164.7819,417.6494)"><path
             d="m 0,0 -10.387,43.294 c -1.084,4.769 -6.318,7.296 -10.726,5.177 l -20.655,-9.928 c -4.408,-2.119 -5.705,-7.784 -2.657,-11.609 L -17.111,-8.213 C -12.084,-4.42 -6.29,-1.591 0,0"
             style="fill:#85ce37;fill-opacity:1;fill-rule:nonzero;stroke:none"
             id="path678" /></g><g
           id="g680"><g
             id="g682" /><g
             id="g694"><g
               clip-path="url(#clipPath686)"
               opacity="0.600006"
               id="g692"><g
                 transform="translate(141.0998,448.3116)"
                 id="g690"><path
                   d="m 0,0 c 0.116,-0.016 0.214,-0.023 0.295,-0.025 0.08,0 0.15,-10e-4 0.209,-0.002 0.542,-0.005 0.993,0.151 1.351,0.47 C 2.213,0.761 2.408,1.177 2.44,1.689 2.473,2.187 2.34,2.591 2.044,2.9 1.748,3.212 1.352,3.369 0.853,3.375 0.325,3.38 -0.111,3.209 -0.456,2.86 -0.802,2.512 -0.992,2.061 -1.027,1.504 l -3.983,0.04 c 0.157,0.862 0.424,1.628 0.796,2.299 0.373,0.67 0.83,1.233 1.373,1.688 0.543,0.456 1.166,0.801 1.872,1.036 0.704,0.236 1.475,0.348 2.312,0.339 C 2.163,6.898 2.9,6.777 3.554,6.544 4.206,6.311 4.758,5.983 5.208,5.561 5.657,5.139 5.992,4.631 6.212,4.035 6.43,3.439 6.517,2.776 6.47,2.045 6.42,1.254 6.228,0.607 5.896,0.105 5.562,-0.396 5.105,-0.828 4.524,-1.187 5.358,-1.46 5.992,-1.939 6.426,-2.623 6.859,-3.309 7.044,-4.149 6.98,-5.145 6.929,-5.965 6.72,-6.71 6.354,-7.379 5.988,-8.05 5.5,-8.623 4.891,-9.1 4.28,-9.578 3.567,-9.943 2.751,-10.199 1.936,-10.455 1.05,-10.578 0.097,-10.568 c -1.276,0.013 -2.411,0.273 -3.407,0.781 -0.995,0.508 -1.765,1.307 -2.313,2.396 -0.247,0.485 -0.404,0.97 -0.468,1.454 -0.065,0.484 -0.082,0.975 -0.05,1.472 l 4.269,-0.043 c -0.021,-0.775 0.169,-1.367 0.569,-1.773 0.4,-0.407 0.958,-0.615 1.677,-0.621 0.763,-0.008 1.334,0.191 1.712,0.598 0.378,0.406 0.586,0.909 0.624,1.509 0.046,0.717 -0.133,1.262 -0.534,1.632 C 1.773,-2.794 1.279,-2.605 0.692,-2.6 0.546,-2.598 0.406,-2.607 0.272,-2.628 0.139,-2.648 -0.009,-2.673 -0.172,-2.701 Z"
                   style="fill:#ffffff;fill-opacity:1;fill-rule:nonzero;stroke:none"
                   id="path688" /></g></g></g></g><g
           id="g696"
           transform="translate(167.6735,418.2774)"><path
             d="m 0,0 c 2.897,0.545 5.881,0.842 8.936,0.842 3.457,0 6.826,-0.372 10.076,-1.066 L 37.21,84.908 c 0.836,3.695 -2.796,8.235 -7.689,8.225 l -40.414,2.817 c -4.89,-0.01 -8.503,-4.558 -7.407,-9.323 z"
             style="fill:#85ce37;fill-opacity:1;fill-rule:nonzero;stroke:none"
             id="path698" /></g><g
           id="g700"
           transform="translate(178.4274,488.6846)"><path
             d="M 0,0 0.698,10.967 -6.198,0.062 Z m 6.522,-0.065 3.261,-0.034 -0.352,-5.539 -3.261,0.034 -0.365,-5.724 -6.523,0.065 0.365,5.724 -13.043,0.13 0.296,4.652 11.433,17.363 9.245,-0.092 z"
             style="fill:#ffffff;fill-opacity:1;fill-rule:nonzero;stroke:none"
             id="path702" /></g><g
           id="g704"
           transform="translate(278.2902,381.2647)"><path
             d="m 0,0 -5.132,22.336 c -1.095,4.767 -6.335,7.28 -10.738,5.15 L -57.216,8.101 c 2.28,-5.521 3.56,-11.557 3.618,-17.888 H -7.414 C -2.522,-9.781 1.095,-4.767 0,0"
             style="fill:#1a69aa;fill-opacity:1;fill-rule:nonzero;stroke:none"
             id="path706" /></g><g
           id="g708"
           transform="translate(145.2248,407.4532)"><path
             d="m 0,0 -28.069,34.563 c -3.037,3.834 -8.849,3.852 -11.91,0.037 L -54.32,16.725 C -57.381,12.91 -56.103,7.24 -51.702,5.106 l 40.067,-20.029 C -8.77,-9.203 -4.799,-4.138 0,0"
             style="fill:#17ad49;fill-opacity:1;fill-rule:nonzero;stroke:none"
             id="path710" /></g><g
           id="g712"><g
             id="g714" /><g
             id="g726"><g
               clip-path="url(#clipPath718)"
               opacity="0.600006"
               id="g724"><g
                 transform="translate(117.5988,414.7735)"
                 id="g722"><path
                   d="m 0,0 -13.354,0.134 4.386,4.218 c 1.156,1.116 2.069,2.062 2.735,2.839 0.666,0.777 1.166,1.435 1.501,1.974 0.335,0.537 0.549,0.975 0.644,1.311 0.095,0.336 0.15,0.621 0.165,0.855 0.016,0.249 -0.01,0.491 -0.075,0.727 -0.065,0.234 -0.174,0.444 -0.323,0.629 -0.15,0.183 -0.334,0.333 -0.555,0.445 -0.221,0.111 -0.484,0.17 -0.793,0.172 -0.586,0.006 -1.057,-0.18 -1.411,-0.557 -0.355,-0.377 -0.55,-0.851 -0.586,-1.422 -0.01,-0.161 -0.003,-0.395 0.021,-0.703 l -4.708,0.047 c 0.062,0.966 0.276,1.842 0.641,2.63 0.366,0.787 0.853,1.463 1.461,2.028 0.609,0.565 1.314,0.997 2.119,1.297 0.804,0.3 1.676,0.444 2.614,0.436 0.924,-0.01 1.77,-0.164 2.536,-0.465 0.766,-0.301 1.419,-0.717 1.956,-1.25 0.539,-0.533 0.946,-1.162 1.222,-1.891 C 0.474,12.727 0.585,11.938 0.53,11.089 0.473,10.181 0.225,9.346 -0.213,8.581 -0.65,7.816 -1.32,7.035 -2.223,6.239 L -5.136,3.698 0.232,3.645 Z"
                   style="fill:#ffffff;fill-opacity:1;fill-rule:nonzero;stroke:none"
                   id="path720" /></g></g></g></g><g
           id="g728"><g
             id="g730" /><g
             id="g742"><g
               clip-path="url(#clipPath734)"
               opacity="0.600006"
               id="g740"><g
                 transform="translate(261.0803,391.7559)"
                 id="g738"><path
                   d="M 0,0 -6.931,0.069 -6.698,3.714 6.92,3.578 -3.639,-12.881 l -4.752,0.047 z"
                   style="fill:#ffffff;fill-opacity:1;fill-rule:nonzero;stroke:none"
                   id="path736" /></g></g></g></g><g
           id="g744"
           transform="translate(132.3347,389.8877)"><path
             d="m 0,0 -41.095,18.959 c -4.422,2.106 -9.64,-0.473 -10.693,-5.283 L -56.72,-8.865 c -1.053,-4.811 2.605,-9.531 7.496,-9.491 l 45.392,-0.03 C -3.768,-11.865 -2.413,-5.653 0,0"
             style="fill:#17ad49;fill-opacity:1;fill-rule:nonzero;stroke:none"
             id="path746" /></g><g
           id="g748"
           transform="translate(263.3566,424.2969)"><path
             d="m 0,0 -14.419,17.812 c -3.077,3.802 -8.889,3.759 -11.91,-0.088 L -54.65,-17.463 c 4.648,-4.169 8.483,-9.225 11.229,-14.908 l 40.854,20.515 C 1.825,-9.704 3.077,-3.802 0,0"
             style="fill:#1e93da;fill-opacity:1;fill-rule:nonzero;stroke:none"
             id="path750" /></g><g
           id="g752"
           transform="translate(231.4182,456.2823)"><path
             d="m 0,0 -20.681,9.874 c -4.414,2.107 -9.642,-0.434 -10.713,-5.206 l -10.348,-43.643 c 6.154,-1.734 11.805,-4.659 16.692,-8.515 L 2.688,-11.603 C 5.726,-7.769 4.414,-2.106 0,0"
             style="fill:#1e93da;fill-opacity:1;fill-rule:nonzero;stroke:none"
             id="path754" /></g><g
           id="g756"><g
             id="g758" /><g
             id="g770"><g
               clip-path="url(#clipPath762)"
               opacity="0.600006"
               id="g768"><g
                 transform="translate(218.7375,451.086)"
                 id="g766"><path
                   d="m 0,0 -5.742,0.058 -0.403,-1.82 c 0.266,0.027 0.51,0.05 0.731,0.07 0.223,0.019 0.449,0.028 0.685,0.026 0.835,-0.009 1.604,-0.163 2.304,-0.463 0.699,-0.3 1.289,-0.709 1.771,-1.225 0.481,-0.518 0.844,-1.137 1.092,-1.857 0.248,-0.72 0.345,-1.505 0.291,-2.353 -0.057,-0.894 -0.273,-1.697 -0.649,-2.411 -0.376,-0.714 -0.881,-1.32 -1.514,-1.819 -0.633,-0.499 -1.392,-0.88 -2.273,-1.142 -0.884,-0.261 -1.853,-0.387 -2.909,-0.377 -0.997,0.01 -1.939,0.14 -2.825,0.39 -0.887,0.251 -1.71,0.629 -2.471,1.135 l 0.894,4.033 c 0.694,-0.637 1.412,-1.123 2.154,-1.46 0.741,-0.337 1.456,-0.509 2.145,-0.515 0.881,-0.009 1.593,0.221 2.137,0.692 0.543,0.47 0.837,1.057 0.882,1.759 0.053,0.82 -0.25,1.486 -0.907,1.998 -0.658,0.511 -1.544,0.773 -2.659,0.784 -0.498,0.005 -1.014,-0.045 -1.55,-0.149 -0.535,-0.105 -1.067,-0.271 -1.594,-0.5 l 1.952,8.877 8.69,-0.086 z"
                   style="fill:#ffffff;fill-opacity:1;fill-rule:nonzero;stroke:none"
                   id="path764" /></g></g></g></g><g
           id="g772"><g
             id="g774" /><g
             id="g786"><g
               clip-path="url(#clipPath778)"
               opacity="0.600006"
               id="g784"><g
                 transform="translate(238.8083,419.9854)"
                 id="g782"><path
                   d="m 0,0 c -0.024,-0.381 0.025,-0.736 0.152,-1.067 0.125,-0.33 0.305,-0.621 0.538,-0.872 0.234,-0.253 0.511,-0.453 0.831,-0.602 0.322,-0.15 0.672,-0.227 1.054,-0.23 0.381,-0.004 0.741,0.065 1.08,0.208 0.34,0.143 0.642,0.337 0.907,0.584 0.265,0.247 0.482,0.534 0.65,0.861 C 5.379,-0.79 5.476,-0.436 5.5,-0.055 5.524,0.325 5.473,0.682 5.347,1.013 5.222,1.343 5.042,1.634 4.809,1.885 4.574,2.137 4.298,2.337 3.978,2.486 3.656,2.637 3.306,2.714 2.925,2.718 2.543,2.722 2.183,2.651 1.844,2.508 1.504,2.365 1.201,2.17 0.937,1.924 0.672,1.678 0.455,1.391 0.287,1.063 0.119,0.735 0.024,0.38 0,0 M 7.82,10.797 2.768,5.442 2.855,5.441 C 3.282,5.687 3.629,5.833 3.896,5.882 4.163,5.931 4.399,5.954 4.605,5.952 5.412,5.943 6.143,5.782 6.798,5.469 7.453,5.154 8.013,4.728 8.477,4.188 8.942,3.648 9.291,3.02 9.523,2.3 9.757,1.58 9.847,0.81 9.795,-0.01 9.738,-0.889 9.525,-1.702 9.155,-2.453 8.784,-3.204 8.276,-3.857 7.632,-4.415 6.987,-4.973 6.223,-5.408 5.337,-5.721 4.451,-6.034 3.465,-6.186 2.38,-6.175 c -1.1,0.011 -2.072,0.182 -2.917,0.513 -0.845,0.33 -1.555,0.776 -2.127,1.339 -0.573,0.562 -0.998,1.215 -1.274,1.957 -0.276,0.742 -0.386,1.531 -0.333,2.365 0.059,0.937 0.333,1.948 0.82,3.035 0.488,1.085 1.197,2.152 2.13,3.196 l 4.147,4.617 z"
                   style="fill:#ffffff;fill-opacity:1;fill-rule:nonzero;stroke:none"
                   id="path780" /></g></g></g></g><g
           id="g788"><g
             id="g790" /><g
             id="g802"><g
               clip-path="url(#clipPath794)"
               opacity="0.600006"
               id="g800"><g
                 transform="translate(91.7956,392.3399)"
                 id="g798"><path
                   d="m 0,0 -2.42,0.024 0.232,3.66 6.732,-0.068 -1.055,-16.62 -4.311,0.044 z"
                   style="fill:#ffffff;fill-opacity:1;fill-rule:nonzero;stroke:none"
                   id="path796" /></g></g></g></g><g
           id="g804"
           transform="translate(105.5612,351.9522)"><path
             d="M 0,0 -4.181,0.002 -4.18,3.403 8.083,3.397 8.082,-0.004 3.881,-0.002 3.876,-10.604 l -3.881,0.002 z"
             style="fill:#231f20;fill-opacity:1;fill-rule:nonzero;stroke:none"
             id="path806" /></g><g
           id="g808"
           transform="translate(122.3005,348.6241)"><path
             d="m 0,0 c 1.3,0 2.08,0.64 2.081,1.659 v 0.04 c 0,1.12 -0.819,1.681 -2.1,1.682 L -2.579,3.382 -2.581,0.001 Z M -6.459,6.725 0.163,6.722 C 2.303,6.721 3.783,6.159 4.724,5.219 5.543,4.398 5.963,3.338 5.962,1.958 V 1.918 C 5.961,-0.243 4.819,-1.663 3.079,-2.402 l 3.339,-4.882 -4.461,0.002 -2.819,4.242 h -1.72 l -0.002,-4.24 -3.881,0.002 z"
             style="fill:#231f20;fill-opacity:1;fill-rule:nonzero;stroke:none"
             id="path810" /></g><g
           id="g812"
           transform="translate(138.6999,346.876)"><path
             d="M 0,0 -1.559,3.962 -3.141,0.001 Z m -3.396,8.563 3.74,-0.001 5.955,-14.106 -4.161,0.002 -0.999,2.521 -5.421,0.002 -1.002,-2.52 -4.061,0.002 z"
             style="fill:#231f20;fill-opacity:1;fill-rule:nonzero;stroke:none"
             id="path814" /></g><g
           id="g816"
           transform="translate(146.862,355.334)"><path
             d="m 0,0 3.62,-0.002 5.758,-7.404 0.004,7.401 3.841,-0.001 -0.007,-14.003 -3.38,0.001 -5.998,7.685 -0.004,-7.682 -3.841,0.002 z"
             style="fill:#231f20;fill-opacity:1;fill-rule:nonzero;stroke:none"
             id="path818" /></g><g
           id="g820"
           transform="translate(161.9958,343.4043)"><path
             d="m 0,0 2.161,2.58 c 1.401,-1.101 2.92,-1.683 4.54,-1.684 1.061,0 1.621,0.361 1.621,0.96 v 0.04 C 8.323,2.497 7.862,2.797 5.942,3.258 2.962,3.939 0.662,4.78 0.664,7.642 v 0.04 c 0.001,2.6 2.062,4.479 5.423,4.478 2.381,-10e-4 4.241,-0.642 5.76,-1.863 L 9.905,7.557 c -1.279,0.921 -2.679,1.381 -3.92,1.382 -0.94,0 -1.4,-0.379 -1.4,-0.9 v -0.04 c 0,-0.64 0.479,-0.92 2.439,-1.361 3.201,-0.701 5.201,-1.742 5.2,-4.364 V 2.234 C 12.223,-0.626 9.961,-2.325 6.56,-2.324 4.079,-2.322 1.739,-1.541 0,0"
             style="fill:#231f20;fill-opacity:1;fill-rule:nonzero;stroke:none"
             id="path822" /></g><g
           id="g824"
           transform="translate(176.6013,355.3203)"><path
             d="m 0,0 11.203,-0.006 -0.002,-3.4 -7.321,0.003 -0.002,-2.38 6.622,-0.003 -0.002,-3.221 -6.621,0.003 -0.002,-5.001 -3.881,0.002 z"
             style="fill:#231f20;fill-opacity:1;fill-rule:nonzero;stroke:none"
             id="path826" /></g><g
           id="g828"
           transform="translate(200.7204,348.2666)"><path
             d="M 0,0 V 0.04 C 0.001,2.081 -1.438,3.822 -3.579,3.823 -5.72,3.824 -7.141,2.104 -7.142,0.084 v -0.04 c -10e-4,-2.021 1.459,-3.781 3.6,-3.782 C -1.422,-3.739 -0.001,-2.021 0,0 m -11.103,0.006 v 0.04 c 0.002,4.02 3.245,7.28 7.566,7.278 C 0.783,7.322 3.982,4.1 3.98,0.079 v -0.04 c -10e-4,-4.021 -3.244,-7.28 -7.564,-7.278 -4.321,0.002 -7.52,3.223 -7.519,7.245"
             style="fill:#231f20;fill-opacity:1;fill-rule:nonzero;stroke:none"
             id="path830" /></g><g
           id="g832"
           transform="translate(213.6599,348.5811)"><path
             d="m 0,0 c 1.301,0 2.081,0.64 2.081,1.659 v 0.04 c 10e-4,1.12 -0.819,1.681 -2.1,1.682 L -2.579,3.382 -2.58,0.001 Z M -6.458,6.725 0.163,6.722 C 2.304,6.721 3.783,6.159 4.724,5.219 5.543,4.398 5.963,3.338 5.962,1.958 V 1.918 C 5.961,-0.243 4.82,-1.663 3.079,-2.402 l 3.339,-4.882 -4.461,0.002 -2.818,4.242 h -1.721 l -0.002,-4.24 -3.881,0.002 z"
             style="fill:#231f20;fill-opacity:1;fill-rule:nonzero;stroke:none"
             id="path834" /></g><g
           id="g836"
           transform="translate(222.0817,355.2989)"><path
             d="m 0,0 4.101,-0.002 3.337,-5.423 3.344,5.419 4.101,-0.001 -0.006,-14.003 -3.861,10e-4 0.004,8.042 -3.584,-5.479 h -0.08 l -3.558,5.463 -0.004,-8.022 -3.801,0.002 z"
             style="fill:#231f20;fill-opacity:1;fill-rule:nonzero;stroke:none"
             id="path838" /></g><g
           id="g840"
           transform="translate(246.2849,359.4883)"><path
             d="m 0,0 3.62,-1.103 -2.962,-2.138 -2.82,0.002 z m -6.344,-4.198 11.263,-0.005 -0.002,-3.281 -7.421,0.004 -10e-4,-2.141 6.722,-0.003 -0.002,-3.061 -6.722,0.003 -10e-4,-2.22 7.522,-0.003 -0.001,-3.301 -11.363,0.005 z"
             style="fill:#231f20;fill-opacity:1;fill-rule:nonzero;stroke:none"
             id="path842" /></g><g
           id="g844"
           transform="translate(112.5886,327.2705)"><path
             d="m 0,0 v 0.04 c 0.002,4.081 3.204,7.28 7.525,7.278 2.46,-10e-4 4.201,-0.742 5.68,-2.023 l -2.281,-2.76 c -1,0.841 -1.98,1.321 -3.38,1.322 C 5.523,3.858 3.962,2.179 3.961,0.038 v -0.04 c -10e-4,-2.28 1.578,-3.901 3.799,-3.902 0.96,-10e-4 1.68,0.199 2.241,0.579 v 1.7 l -2.74,0.002 10e-4,2.84 6.422,-0.003 -0.003,-6.281 C 12.2,-6.307 10.159,-7.246 7.599,-7.245 3.237,-7.243 -0.002,-4.24 0,0"
             style="fill:#231f20;fill-opacity:1;fill-rule:nonzero;stroke:none"
             id="path846" /></g><g
           id="g848"
           transform="translate(139.571,327.2578)"><path
             d="M 0,0 V 0.04 C 0.001,2.08 -1.438,3.821 -3.579,3.822 -5.72,3.823 -7.141,2.104 -7.142,0.084 V 0.044 C -7.143,-1.977 -5.684,-3.738 -3.543,-3.739 -1.422,-3.74 -0.001,-2.021 0,0 m -11.103,0.005 v 0.04 c 0.002,4.021 3.245,7.28 7.566,7.278 C 0.783,7.321 3.982,4.099 3.98,0.078 v -0.04 c -10e-4,-4.02 -3.244,-7.28 -7.564,-7.278 -4.321,0.002 -7.52,3.224 -7.519,7.245"
             style="fill:#231f20;fill-opacity:1;fill-rule:nonzero;stroke:none"
             id="path850" /></g><g
           id="g852"
           transform="translate(145.8884,326.4346)"><path
             d="M 0,0 0.004,7.861 3.925,7.859 3.921,0.078 C 3.92,-1.941 4.939,-2.903 6.5,-2.904 c 1.58,0 2.601,0.92 2.602,2.88 L 9.105,7.857 13.026,7.855 13.022,0.094 C 13.021,-4.407 10.439,-6.405 6.458,-6.404 2.497,-6.402 -0.002,-4.38 0,0"
             style="fill:#231f20;fill-opacity:1;fill-rule:nonzero;stroke:none"
             id="path854" /></g><g
           id="g856"
           transform="translate(168.1706,327.5645)"><path
             d="m 0,0 c 1.3,0 2.081,0.64 2.081,1.659 v 0.04 c 10e-4,1.12 -0.819,1.681 -2.1,1.682 l -2.56,0.001 -0.002,-3.38 z M -6.458,6.725 0.163,6.722 C 2.304,6.721 3.783,6.159 4.724,5.219 5.543,4.398 5.963,3.338 5.962,1.958 V 1.918 C 5.961,-0.242 4.82,-1.662 3.079,-2.402 l 3.339,-4.882 -4.461,0.002 -2.819,4.242 -1.72,10e-4 -0.002,-4.241 -3.881,0.002 z"
             style="fill:#231f20;fill-opacity:1;fill-rule:nonzero;stroke:none"
             id="path858" /></g><g
           id="g860"
           transform="translate(176.5925,334.2823)"><path
             d="m 0,0 4.101,-0.002 3.337,-5.423 3.344,5.419 4.101,-0.002 -0.007,-14.002 -3.86,0.002 0.004,8.041 -3.584,-5.479 h -0.08 l -3.558,5.463 -0.004,-8.022 -3.801,0.002 z"
             style="fill:#231f20;fill-opacity:1;fill-rule:nonzero;stroke:none"
             id="path862" /></g><g
           id="g864"
           transform="translate(202.6901,325.8076)"><path
             d="m 0,0 -1.559,3.962 -1.582,-3.96 z m -3.396,8.563 3.74,-0.001 5.954,-14.106 -4.16,0.002 -0.999,2.521 -5.421,0.002 -1.002,-2.519 -4.061,0.002 z"
             style="fill:#231f20;fill-opacity:1;fill-rule:nonzero;stroke:none"
             id="path866" /></g><g
           id="g868"
           transform="translate(210.8522,334.2657)"><path
             d="m 0,0 3.62,-0.002 5.758,-7.403 0.004,7.401 3.841,-0.002 -0.007,-14.003 -3.381,0.002 -5.997,7.684 -0.004,-7.682 -3.841,0.002 z"
             style="fill:#231f20;fill-opacity:1;fill-rule:nonzero;stroke:none"
             id="path870" /></g><g
           id="g872"
           transform="translate(230.9304,330.835)"><path
             d="m 0,0 -0.003,-7.141 1.581,-0.001 c 2.34,-10e-4 3.881,1.28 3.882,3.539 v 0.04 C 5.461,-1.322 3.921,-0.001 1.581,0 Z M -3.879,3.423 1.543,3.421 c 4.98,-0.003 7.88,-2.885 7.878,-6.925 v -0.04 c -0.002,-4.041 -2.944,-7.04 -7.965,-7.038 l -5.342,0.003 z"
             style="fill:#231f20;fill-opacity:1;fill-rule:nonzero;stroke:none"
             id="path874" /></g><g
           id="g876"
           transform="translate(180.5212,381.0635)"><path
             d="m 0,0 c -2.797,-0.277 -5.129,2.055 -4.852,4.852 0.205,2.07 1.879,3.745 3.949,3.95 C 1.895,9.078 4.226,6.747 3.949,3.949 3.744,1.88 2.07,0.205 0,0 m 10.374,4.333 h -0.029 c 0,0.022 0.002,0.045 0.002,0.067 0,5.847 -4.835,10.587 -10.799,10.587 -6.192,0 -10.798,-4.74 -10.798,-10.587 0,-5.846 4.834,-10.586 10.798,-10.586 1.372,0 2.684,0.253 3.891,0.711 0.255,0.097 0.527,-0.09 0.526,-0.363 0.027,-3.836 -1.595,-5.555 -4.515,-5.49 -1.81,0.04 -3.587,1.544 -4.196,2.874 -0.189,0.411 -0.609,0.666 -1.062,0.666 h -4.405 c -0.648,0 -1.12,-0.601 -0.984,-1.235 1.021,-4.798 5.405,-8.349 11.296,-8.275 5.641,0.071 10.031,4.012 10.32,9.504 v 0.012 z"
             style="fill:#918f90;fill-opacity:1;fill-rule:nonzero;stroke:none"
             id="path878" /></g><g
           id="g880"
           transform="translate(165.4641,374.6143)"><path
             d="m 0,0 h -5.792 c -0.35,0 -0.633,0.274 -0.633,0.612 v 16.886 c 0,0.339 0.283,0.612 0.633,0.612 H 0 c 0.35,0 0.633,-0.273 0.633,-0.612 V 0.612 C 0.633,0.274 0.35,0 0,0"
             style="fill:#918f90;fill-opacity:1;fill-rule:nonzero;stroke:none"
             id="path882" /></g><g
           id="g884"
           transform="translate(159.3537,393.9571)"><path
             d="M 0,0 C 0,0 -1.955,8.644 7.838,9.369 8.077,2.02 4.228,0.495 0,0"
             style="fill:#918f90;fill-opacity:1;fill-rule:nonzero;stroke:none"
             id="path886" /></g><g
           id="g888"
           transform="translate(148.4416,396.0723)"><path
             d="M 0,0 C 2.195,0 4.176,-0.488 6.032,-1.489 6.303,-1.635 6.419,-1.96 6.315,-2.246 L 5.039,-5.771 c -0.145,-0.4 -0.615,-0.568 -0.994,-0.369 -1.341,0.707 -2.729,1.011 -3.942,1.011 -1.031,0 -2.001,-0.623 -2.001,-1.687 0.013,-1.142 0.929,-1.233 3.674,-1.857 3.637,-0.827 5.548,-3.406 5.525,-6.055 -0.035,-5.307 -4.733,-7.616 -9.129,-7.616 -2.423,0 -5.223,0.621 -7.503,1.646 -0.263,0.118 -0.383,0.421 -0.283,0.687 l 1.571,4.172 c 0.081,0.216 0.349,0.304 0.541,0.171 1.681,-1.168 3.517,-1.399 5.064,-1.399 0.249,0 2.354,0.088 2.392,1.687 0.009,2.252 -2.571,2.187 -3.866,2.428 -3.796,0.709 -4.778,3.64 -4.865,5.535 0,2.986 1.185,4.332 2.473,5.35 C -4.641,-0.754 -2.343,0 0,0"
             style="fill:#918f90;fill-opacity:1;fill-rule:nonzero;stroke:none"
             id="path890" /></g><g
           id="g892"
           transform="translate(207.7995,384.8584)"><path
             d="m 0,0 c -0.205,-2.069 -1.879,-3.744 -3.949,-3.949 -2.798,-0.278 -5.13,2.054 -4.852,4.851 0.204,2.071 1.879,3.745 3.949,3.95 C -2.055,5.129 0.277,2.798 0,0 m 6.554,2.085 c -0.804,5.049 -5.177,8.907 -10.452,8.907 -5.847,0 -10.463,-4.741 -10.586,-10.587 -0.113,-5.332 3.605,-10.327 8.599,-10.556 4.188,-0.194 5.855,1.748 6.549,2.314 v -2.247 c 0,-0.302 0.245,-0.547 0.546,-0.547 h 4.306 c 0.641,0 1.162,0.519 1.162,1.16 0.003,2.81 0.01,9.757 0.01,9.876 0,0.151 -0.069,1.277 -0.134,1.68"
             style="fill:#918f90;fill-opacity:1;fill-rule:nonzero;stroke:none"
             id="path894" /></g></g></g></g></svg>
