<svg id="Calque_1" data-name="Calque 1" xmlns="http://www.w3.org/2000/svg" viewBox="0 0 149.81 208.89"><defs><style>.cls-1,.cls-3{fill:#74ad38;}.cls-2{fill:#fff;}.cls-3{font-size:19.91px;font-family:IBMPlexMono-Medium, IBM Plex Mono;font-weight:500;}</style></defs><rect class="cls-1" width="149.81" height="149.81" rx="13.62"/><rect class="cls-2" y="160.31" width="149.81" height="48.59" rx="7.76"/><path class="cls-2" d="M358.1,227.16V214.33a9.09,9.09,0,0,1,9.08-9.08h12.68v-3.43H366.78a12.11,12.11,0,0,0-12.11,12.11v13.23Z" transform="translate(-346.04 -193.23)"/><path class="cls-2" d="M380,331H367.18a9.09,9.09,0,0,1-9.08-9.09V309.26h-3.43v13.07a12.11,12.11,0,0,0,12.11,12.11H380Z" transform="translate(-346.04 -193.23)"/><path class="cls-2" d="M461.89,205.25h12.82a9.09,9.09,0,0,1,9.08,9.08V227h3.43V213.93a12.11,12.11,0,0,0-12.11-12.11H461.89Z" transform="translate(-346.04 -193.23)"/><path class="cls-2" d="M483.79,309.11v12.82a9.09,9.09,0,0,1-9.08,9.09H462v3.42h13.08a12.11,12.11,0,0,0,12.11-12.11V309.11Z" transform="translate(-346.04 -193.23)"/><text class="cls-3" transform="translate(39.06 179.91)">truite<tspan x="-23.9" y="18.69">et dérivés</tspan></text><path class="cls-2" d="M406.62,308.44l-1.45,0s-2,.06-2.18-.29,1.1-2.06,1.1-2.06a33.72,33.72,0,0,0,6.4-11.2l.45-1.29,1.31.37a19.54,19.54,0,0,0,4.94.75c-8-2.1-15.6-7.27-24-13l-.63-.43c-5.34-3.87-7.65-1.46-11.84,2.91-4,4.12-9.39,9.78-19.53,10.42l-3.2.2,2-2.54c1.88-2.42,2-4.95,2.07-7.87.16-4.65.34-9.88,8.41-14.55-7.82-4.56-8.72-11.12-9.51-17-.48-3.46-.92-6.72-2.81-9.15l-2.05-2.64,3.33.3c9.39.87,14.77,6.74,19.1,11.45,5.19,5.66,8.17,8.45,14.15,5,1.53-.88,3-1.78,4.55-2.67a126.23,126.23,0,0,1,16.1-8.52,54.49,54.49,0,0,0-8.41-18.57s-1-1.4-.7-1.93,1.93-.36,1.93-.36a49.27,49.27,0,0,1,37.41,18.69,72,72,0,0,1,41.29,24.4l.76.91-.74.93c-8.79,11-20.61,22.87-49.82,25.54A39.23,39.23,0,0,1,406.62,308.44Zm6.16-11.38a33.9,33.9,0,0,1-4.61,8.45,36.33,36.33,0,0,0,25.08-11.63l.38-.41.56-.05c27.65-2.4,39.22-13.29,47.62-23.59a69.11,69.11,0,0,0-39.37-22.6l-.54-.1-.34-.44a46.41,46.41,0,0,0-32.69-17.84,57.65,57.65,0,0,1,7.52,18.38l.27,1.21-1.16.45c-5.74,2.21-11.13,5.4-16.85,8.78-1.51.89-3,1.79-4.57,2.68-8.27,4.75-12.87-.26-17.74-5.57-3.68-4-7.78-8.48-14.32-10a29.84,29.84,0,0,1,1.76,7.73c.85,6.23,1.65,12.12,10.4,16l2.89,1.29-2.86,1.35c-9,4.23-9.14,8.46-9.31,13.36a18.87,18.87,0,0,1-1.11,6.87c7.2-1.27,11.22-5.46,14.81-9.2,4.25-4.43,8.26-8.61,15.61-3.27l.59.4c11.17,7.61,20.81,14.17,31.52,13.44,0,0,2-.05,2.13,1s-1.47,1.83-1.47,1.83A22.6,22.6,0,0,1,412.78,297.06Zm50.56-27.52a4.93,4.93,0,1,1,4.92-4.93A4.93,4.93,0,0,1,463.34,269.54Zm0-7a2,2,0,1,0,2,2A2,2,0,0,0,463.34,262.58Z" transform="translate(-346.04 -193.23)"/></svg>