<svg id="Calque_1" data-name="Calque 1" xmlns="http://www.w3.org/2000/svg" viewBox="0 0 149.81 208.89"><defs><style>.cls-1,.cls-3{fill:#74ad38;}.cls-2{fill:#fff;}.cls-3{font-size:19.91px;font-family:IBMPlexMono-Medium, IBM Plex Mono;font-weight:500;}.cls-4,.cls-5,.cls-6{fill:none;stroke:#fff;stroke-miterlimit:10;}.cls-4{stroke-width:3px;}.cls-5{stroke-width:2.97px;}.cls-6{stroke-width:2.74px;}</style></defs><rect class="cls-1" width="149.81" height="149.81" rx="13.62"/><rect class="cls-2" y="160.31" width="149.81" height="48.59" rx="7.76"/><path class="cls-2" d="M358.1,227V214.17a9.08,9.08,0,0,1,9.08-9.08h12.68v-3.43H366.78a12.11,12.11,0,0,0-12.11,12.11V227Z" transform="translate(-346.04 -193.06)"/><path class="cls-2" d="M380,330.85H367.18a9.08,9.08,0,0,1-9.08-9.08V309.1h-3.43v13.07a12.11,12.11,0,0,0,12.11,12.11H380Z" transform="translate(-346.04 -193.06)"/><path class="cls-2" d="M461.89,205.09h12.82a9.08,9.08,0,0,1,9.08,9.08v12.67h3.43V213.77a12.11,12.11,0,0,0-12.11-12.11H461.89Z" transform="translate(-346.04 -193.06)"/><path class="cls-2" d="M483.79,309v12.82a9.08,9.08,0,0,1-9.08,9.08H462v3.43h13.08a12.11,12.11,0,0,0,12.11-12.11V309Z" transform="translate(-346.04 -193.06)"/><text class="cls-3" transform="translate(56.98 179.91)">œuf<tspan x="-41.82" y="18.69">et dérivés</tspan></text><path class="cls-4" d="M414.72,236.42c-4.14-13.72-13.72-26.53-22.52-26.53s-18.38,12.81-22.52,26.53.13,36.33,22.52,36.33S418.86,250.14,414.72,236.42Z" transform="translate(-346.04 -193.06)"/><polyline class="cls-5" points="69.47 47.61 74.9 50.87 77.88 49.41 81.43 47.31 85.69 49.68 89.59 47.48 89.59 44.27 93.13 42.85 94.75 47.03 99.48 45.85 100.54 43.26 103.69 44.94 104.31 44.12 104.39 44.19 103.72 45.07 100.59 43.41 99.56 45.94 99.53 45.94 94.69 47.16 93.07 42.98 89.69 44.34 89.69 47.54 85.69 49.8 81.43 47.43 77.92 49.51 74.89 50.99 69.39 47.68"/><path class="cls-6" d="M446.71,327.79a55.63,55.63,0,0,1-8.85-1,53.37,53.37,0,0,0-8.45-1h-.13c-2.4,0-4.9.09-7.33.17-2.74.09-5.58.18-8.4.18-7.11,0-15.39-.5-22.93-4.17l-1.16-.55h0c-2.07-.95-4.21-1.94-5.51-3.85a7.8,7.8,0,0,1-.67-1.36,4.77,4.77,0,0,0-.78-1.42,12.08,12.08,0,0,0-3.12-2.06,10.57,10.57,0,0,1-4.24-3.27,6.13,6.13,0,0,1-.47-4.89,10,10,0,0,1,4.31-5.89c.55-.3,1.09-.57,1.62-.83a12.72,12.72,0,0,0,3.55-2.23c.36-.35.71-.72,1.07-1.1a16.11,16.11,0,0,1,4-3.4c2.6-1.37,5.66-1.8,8.62-2.21a45.44,45.44,0,0,0,4.56-.79,21.9,21.9,0,0,0,5.41-1.84,13,13,0,0,0,2.13-1.71,9,9,0,0,1,4-2.47,26.74,26.74,0,0,1,8.09-1.48,25.62,25.62,0,0,1,3.71.29c.43.09,1,.23,1.53.39a21.12,21.12,0,0,0,2.58.59,26.08,26.08,0,0,1,9,2.17c.68.33,1.33.68,2,1a15.87,15.87,0,0,0,5.34,2.13c3.05.47,6.2.64,9.24.81,6.29.35,12.79.71,18.74,3.68,3.9,1.95,5.5,3.28,4.41,7.85-.12.51-.28,1-.43,1.45a7.36,7.36,0,0,0-.53,3,8.32,8.32,0,0,0,.39,1.5,6.85,6.85,0,0,1,.48,2.45c-.31,7.11-7,9.15-13.38,11.12a33.92,33.92,0,0,0-7.5,2.92,12.82,12.82,0,0,0-2.49,2.24c-1.26,1.36-2.57,2.76-4.63,3.14a19.65,19.65,0,0,1-3.72.33Z" transform="translate(-346.04 -193.06)"/><path class="cls-6" d="M437.2,299c.12-1.63-2.5-9.65-19.45-7.37S404.19,302.9,412,305.4,436.54,307.67,437.2,299Z" transform="translate(-346.04 -193.06)"/><path class="cls-4" d="M451.44,238.47c-4.14-13.72-13.72-26.53-22.52-26.53-6.3,0-13,6.57-17.82,15.35a59.21,59.21,0,0,1,3.62,9.13c2.66,8.79,1.86,21.23-5,29,3.75,5.49,9.9,9.35,19.15,9.35C451.31,274.81,455.58,252.19,451.44,238.47Z" transform="translate(-346.04 -193.06)"/></svg>