<svg id="Calque_1" data-name="Calque 1" xmlns="http://www.w3.org/2000/svg" viewBox="0 0 150.05 209.14"><defs><style>.cls-1,.cls-3{fill:#74ad38;}.cls-2{fill:#fff;}.cls-3{font-size:19.95px;font-family:IBMPlexMono-Medium, IBM Plex Mono;font-weight:500;}</style></defs><rect class="cls-1" width="150.05" height="150.05" rx="13.64"/><rect class="cls-2" y="160.56" width="150.05" height="48.59" rx="7.76"/><path class="cls-2" d="M358,227.05V214.2a9.09,9.09,0,0,1,9.1-9.09h12.69v-3.44H366.7a12.13,12.13,0,0,0-12.13,12.13v13.25Z" transform="translate(-345.92 -193.06)"/><path class="cls-2" d="M379.94,331.07H367.1A9.09,9.09,0,0,1,358,322V309.28h-3.43v13.09A12.13,12.13,0,0,0,366.7,334.5h13.24Z" transform="translate(-345.92 -193.06)"/><path class="cls-2" d="M462,205.11h12.84a9.09,9.09,0,0,1,9.1,9.09v12.7h3.43V213.8a12.13,12.13,0,0,0-12.13-12.13H462Z" transform="translate(-345.92 -193.06)"/><path class="cls-2" d="M483.89,309.13V322a9.09,9.09,0,0,1-9.1,9.1H462.1v3.43h13.09a12.13,12.13,0,0,0,12.13-12.13V309.13Z" transform="translate(-345.92 -193.06)"/><text class="cls-3" transform="translate(21.17 180.19)">arachides<tspan x="-5.98" y="18.72">et dérivés</tspan></text><path class="cls-2" d="M414.91,253.21A35,35,0,0,0,427.24,255a12.23,12.23,0,0,1,8.18,2.64,34.71,34.71,0,0,0,11,5.81c12.91,4.18,25.57.75,28.28-7.64s-5.54-18.59-18.44-22.76a35,35,0,0,0-12.33-1.75,12.23,12.23,0,0,1-8.18-2.64,34.71,34.71,0,0,0-11-5.81c-12.91-4.18-25.57-.75-28.28,7.64S402,249,414.91,253.21Zm9.74-26.72a38.71,38.71,0,0,1,10.43,5.12,13.65,13.65,0,0,0,7.66,2.48,38.67,38.67,0,0,1,11.45,2c12.09,3.91,20.18,12.38,18.06,18.92s-13.63,8.67-25.72,4.76a38.71,38.71,0,0,1-10.43-5.12,13.65,13.65,0,0,0-7.66-2.48,38.67,38.67,0,0,1-11.45-2c-12.09-3.91-20.18-12.38-18.06-18.92S412.56,222.58,424.65,226.49Z" transform="translate(-345.92 -193.06)"/><path class="cls-2" d="M431.26,244.1c3.34-3.54,3.24-4.45,5.77-5.78,0,0-1.93-1.22-6-5.64-6.51-7.11-26.45-9-28.13,3.25C401.44,246.77,425,250.71,431.26,244.1Z" transform="translate(-345.92 -193.06)"/><path class="cls-2" d="M463.42,255.9c3.58-3.28,3.56-4.2,6.18-5.34,0,0-1.83-1.35-5.54-6.06-6-7.58-25.72-11-28.3,1.15C433.48,256.35,456.71,262,463.42,255.9Z" transform="translate(-345.92 -193.06)"/><path class="cls-2" d="M433.05,281.34c2.71-8.39-5.55-18.59-18.45-22.76a35.18,35.18,0,0,0-12.33-1.74,12.14,12.14,0,0,1-8.17-2.65,35.28,35.28,0,0,0-11-5.81c-12.9-4.17-25.57-.75-28.28,7.65s5.54,18.58,18.44,22.76a35.21,35.21,0,0,0,12.33,1.74,12.18,12.18,0,0,1,8.18,2.65,35.17,35.17,0,0,0,11,5.81C417.67,293.16,430.33,289.74,433.05,281.34Zm-4.13-6.84.43.35a1.47,1.47,0,0,1,.54.94l.23,1.79a1.42,1.42,0,0,1-1.91,1.48l-1.86-.6a1.43,1.43,0,0,1-.75-2.23l1.2-1.53A1.52,1.52,0,0,1,428.92,274.5Zm-3.9-6,1.52-.29a1.5,1.5,0,0,1,1.79,1.69l-.21,1.07a1.42,1.42,0,0,1-1.59,1.11l-.69-.08a1.53,1.53,0,0,1-1-.5l-.63-.69A1.38,1.38,0,0,1,425,268.5Zm-2.38,4.13a1.44,1.44,0,0,1,.68,1.67l-.49,1.52a1.46,1.46,0,0,1-1.85.89l-2.63-.85a1.43,1.43,0,0,1-.75-2.23l1.34-1.7a1.49,1.49,0,0,1,1.93-.33Zm-6.53-5.77,1.35-1.7a1.5,1.5,0,0,1,1.92-.34l1.78,1a1.43,1.43,0,0,1,.68,1.66l-.49,1.52a1.44,1.44,0,0,1-1.85.89l-2.63-.85A1.42,1.42,0,0,1,416.11,266.86Zm-1.84,2.9.42.35a1.47,1.47,0,0,1,.54.94l.23,1.79a1.43,1.43,0,0,1-1.91,1.48l-1.86-.61a1.42,1.42,0,0,1-.75-2.22l1.21-1.53A1.5,1.5,0,0,1,414.27,269.76Zm-.6-4.6-.21,1.07a1.41,1.41,0,0,1-1.59,1.11l-.69-.08a1.58,1.58,0,0,1-1-.5l-.63-.7a1.38,1.38,0,0,1,.78-2.3l1.52-.3A1.5,1.5,0,0,1,413.67,265.16ZM411.22,260l1-.19a1,1,0,0,1,1.19,1.12l-.14.71a.94.94,0,0,1-1,.73l-.46-.05a1,1,0,0,1-.64-.33l-.42-.46A.92.92,0,0,1,411.22,260Zm-3.24,7.9a1.43,1.43,0,0,1,.68,1.66l-.49,1.53a1.44,1.44,0,0,1-1.85.88l-2.63-.85a1.42,1.42,0,0,1-.75-2.22l1.34-1.7a1.5,1.5,0,0,1,1.93-.33Zm-5.89-6.69,1.34-1.71a1.51,1.51,0,0,1,1.93-.33l1.77,1a1.44,1.44,0,0,1,.68,1.67l-.49,1.52a1.46,1.46,0,0,1-1.85.89l-2.63-.85A1.42,1.42,0,0,1,402.09,261.2ZM399.61,265l.43.35a1.43,1.43,0,0,1,.53.94l.23,1.79a1.42,1.42,0,0,1-1.91,1.47L397,269a1.42,1.42,0,0,1-.76-2.22l1.21-1.53A1.5,1.5,0,0,1,399.61,265Zm-3.91-6,1.53-.3a1.49,1.49,0,0,1,1.78,1.69l-.2,1.07a1.43,1.43,0,0,1-1.59,1.12l-.7-.08a1.58,1.58,0,0,1-1-.5l-.63-.7A1.37,1.37,0,0,1,395.7,259Zm-4.15,3.09,1.78,1a1.42,1.42,0,0,1,.67,1.67l-.49,1.52a1.45,1.45,0,0,1-1.85.89l-2.63-.85a1.42,1.42,0,0,1-.75-2.22l1.34-1.71A1.52,1.52,0,0,1,391.55,262.11Zm-5.44-5,1.34-1.7a1.5,1.5,0,0,1,1.93-.33l1.78,1a1.42,1.42,0,0,1,.67,1.67l-.49,1.52a1.46,1.46,0,0,1-1.85.89l-2.63-.85A1.43,1.43,0,0,1,386.11,257.15ZM385,260.28l.43.34a1.41,1.41,0,0,1,.53.95l.23,1.78a1.42,1.42,0,0,1-1.9,1.48l-1.86-.6a1.43,1.43,0,0,1-.76-2.22l1.21-1.53A1.5,1.5,0,0,1,385,260.28Zm-.59-4.61-.21,1.07a1.42,1.42,0,0,1-1.59,1.11l-.69-.08a1.54,1.54,0,0,1-1-.49l-.63-.7a1.38,1.38,0,0,1,.77-2.31l1.53-.29A1.5,1.5,0,0,1,384.36,255.67Zm-3.86-5.25,1-.19a1,1,0,0,1,1.18,1.11l-.14.71a.94.94,0,0,1-1.05.74l-.46-.06a1,1,0,0,1-.64-.32L380,252A.91.91,0,0,1,380.5,250.42Zm-1.83,8a1.42,1.42,0,0,1,.67,1.67l-.49,1.52a1.46,1.46,0,0,1-1.85.89l-2.62-.85a1.42,1.42,0,0,1-.76-2.22L375,257.7a1.5,1.5,0,0,1,1.93-.33Zm-6.49-6.54,1.34-1.7a1.51,1.51,0,0,1,1.93-.33l1.78,1a1.43,1.43,0,0,1,.67,1.67l-.49,1.52a1.46,1.46,0,0,1-1.85.89l-2.63-.85A1.43,1.43,0,0,1,372.18,251.86Zm-1.89,3.68.43.34a1.47,1.47,0,0,1,.54.95l.22,1.78a1.42,1.42,0,0,1-1.9,1.48l-1.86-.6a1.43,1.43,0,0,1-.75-2.23l1.2-1.53A1.51,1.51,0,0,1,370.29,255.54Zm-3.91-6,1.53-.29a1.5,1.5,0,0,1,1.79,1.69l-.21,1.07a1.42,1.42,0,0,1-1.59,1.11l-.69-.08a1.53,1.53,0,0,1-1-.5l-.63-.69A1.38,1.38,0,0,1,366.38,249.53ZM359,254.66l1.35-1.7a1.48,1.48,0,0,1,1.92-.33l1.78,1a1.44,1.44,0,0,1,.68,1.67l-.5,1.52a1.45,1.45,0,0,1-1.84.89l-2.63-.85A1.43,1.43,0,0,1,359,254.66Zm-.23,8.81a1.51,1.51,0,0,1-1.37-1.4l-.09-2.17a1.43,1.43,0,0,1,1.91-1.36l2.63.85a1.46,1.46,0,0,1,1,1.81l-.49,1.52a1.43,1.43,0,0,1-1.53.95Zm5,5.75a1.5,1.5,0,0,1-2.44.32l-1.06-1.13a1.37,1.37,0,0,1,.72-2.32l.92-.2a1.48,1.48,0,0,1,1.07.17l.61.33a1.43,1.43,0,0,1,.64,1.84Zm3.18-3.39a1.5,1.5,0,0,1-1.6-1.4l-.08-1.95a1.43,1.43,0,0,1,1.91-1.36l1.86.6a1.43,1.43,0,0,1,.68,2.32l-1.23,1.31a1.45,1.45,0,0,1-1,.45Zm4.41,6.9a1.44,1.44,0,0,1-1.53.95l-2-.2a1.51,1.51,0,0,1-1.37-1.4l-.09-2.17a1.43,1.43,0,0,1,1.91-1.36l2.63.85a1.45,1.45,0,0,1,1,1.8Zm.65-5.92-.09-2.16a1.42,1.42,0,0,1,1.91-1.36l2.63.85a1.45,1.45,0,0,1,1,1.8l-.5,1.52a1.43,1.43,0,0,1-1.52,1l-2.05-.21A1.51,1.51,0,0,1,372,266.81Zm2.53,9.68a1,1,0,0,1-1.61.21l-.7-.75a.9.9,0,0,1,.47-1.53l.61-.13a1,1,0,0,1,.71.11l.4.22a1,1,0,0,1,.43,1.22Zm3.89-2.53a1.5,1.5,0,0,1-2.44.32l-1.07-1.13a1.38,1.38,0,0,1,.73-2.32l.92-.2a1.49,1.49,0,0,1,1.07.17l.61.34a1.42,1.42,0,0,1,.64,1.83Zm1.58-4.79-.09-1.95a1.43,1.43,0,0,1,1.92-1.36l1.86.61a1.42,1.42,0,0,1,.68,2.31l-1.23,1.31a1.53,1.53,0,0,1-1,.46l-.55,0A1.5,1.5,0,0,1,380,269.17Zm5.74,7.43a1.45,1.45,0,0,1-1.53,1l-2-.21a1.5,1.5,0,0,1-1.37-1.4l-.09-2.16a1.42,1.42,0,0,1,1.91-1.36l2.63.85a1.45,1.45,0,0,1,1,1.8ZM388,273a1.49,1.49,0,0,1-1.37-1.4l-.09-2.16A1.43,1.43,0,0,1,388.5,268l2.63.85a1.44,1.44,0,0,1,1,1.8l-.49,1.52a1.42,1.42,0,0,1-1.52,1Zm5.06,5.75a1.5,1.5,0,0,1-2.44.33l-1.07-1.14a1.38,1.38,0,0,1,.73-2.32l.91-.19a1.56,1.56,0,0,1,1.08.16l.61.34a1.42,1.42,0,0,1,.64,1.83Zm3.73-3.41-.55,0a1.53,1.53,0,0,1-1.61-1.41l-.08-1.94a1.43,1.43,0,0,1,1.92-1.36l1.86.6a1.42,1.42,0,0,1,.67,2.31l-1.23,1.32A1.47,1.47,0,0,1,396.83,275.29Zm4.24,7.39a1.42,1.42,0,0,1-1.52,1l-2.05-.21a1.49,1.49,0,0,1-1.36-1.4l-.09-2.16a1.42,1.42,0,0,1,1.91-1.36l2.63.85a1.45,1.45,0,0,1,1,1.8Zm1.63-5a1.49,1.49,0,0,1-1.37-1.39l-.09-2.17a1.43,1.43,0,0,1,1.92-1.36l2.62.85a1.45,1.45,0,0,1,1,1.8l-.49,1.52a1.43,1.43,0,0,1-1.53,1Zm2.37,9a1,1,0,0,1-1.62.21l-.7-.75a.91.91,0,0,1,.48-1.53l.6-.13a1.07,1.07,0,0,1,.72.11l.4.22a1,1,0,0,1,.42,1.22Zm2.69-3.29a1.5,1.5,0,0,1-2.44.33l-1.07-1.14a1.37,1.37,0,0,1,.72-2.32l.92-.19a1.56,1.56,0,0,1,1.08.16l.61.34a1.42,1.42,0,0,1,.63,1.83Zm3.18-3.38a1.53,1.53,0,0,1-1.61-1.4l-.08-2a1.42,1.42,0,0,1,1.91-1.36l1.86.6a1.42,1.42,0,0,1,.68,2.31l-1.23,1.32a1.43,1.43,0,0,1-1,.45Zm4.82,6.25a1.42,1.42,0,0,1-1.52.95l-2.05-.2a1.51,1.51,0,0,1-1.37-1.4l-.09-2.17a1.43,1.43,0,0,1,1.92-1.36l2.62.85a1.46,1.46,0,0,1,1,1.81Zm1.6-3.87A1.51,1.51,0,0,1,416,281l-.09-2.17a1.43,1.43,0,0,1,1.91-1.36l2.63.85a1.45,1.45,0,0,1,1,1.8l-.49,1.53a1.45,1.45,0,0,1-1.53.95Zm5.05,5.75a1.5,1.5,0,0,1-2.44.32l-1.06-1.13a1.38,1.38,0,0,1,.72-2.33l.92-.19a1.57,1.57,0,0,1,1.08.16l.6.34a1.43,1.43,0,0,1,.64,1.84Zm3.73-3.42-.55,0a1.5,1.5,0,0,1-1.6-1.4l-.08-1.95a1.43,1.43,0,0,1,1.91-1.36l1.86.6a1.42,1.42,0,0,1,.68,2.31l-1.23,1.32A1.45,1.45,0,0,1,426.14,284.77Z" transform="translate(-345.92 -193.06)"/><path class="cls-2" d="M485.79,282.26c-3.69-8-16.67-9.92-29-4.26a34.88,34.88,0,0,0-10.25,7.06,12.2,12.2,0,0,1-7.81,3.59,35.07,35.07,0,0,0-12,3.18c-12.33,5.67-19.33,16.76-15.64,24.78s16.66,9.92,29,4.26a35.25,35.25,0,0,0,10.26-7.06,12.15,12.15,0,0,1,7.81-3.59,35.13,35.13,0,0,0,12-3.18C482.47,301.37,489.47,290.28,485.79,282.26Zm-2.33,4.4v1.8a1.51,1.51,0,0,1-.42,1l-.39.39a1.5,1.5,0,0,1-2.13.06l-1.38-1.38a1.43,1.43,0,0,1,.49-2.3l1.78-.81A1.42,1.42,0,0,1,483.46,286.66ZM478.12,280l.55,0a1.45,1.45,0,0,1,1,.33l1.37,1.16a1.41,1.41,0,0,1-.4,2.37l-1.78.82a1.43,1.43,0,0,1-2.06-1.12l-.14-1.95A1.5,1.5,0,0,1,478.12,280Zm-3.63,8.58a1.45,1.45,0,0,1,1.94.67l.67,1.45a1.43,1.43,0,0,1-.48,1.74L475,293.69a1.5,1.5,0,0,1-2-.1l-1.54-1.54a1.42,1.42,0,0,1,.49-2.29Zm-3.31-10.35.93-1.25a1.5,1.5,0,0,1,2.46,0l.57.93a1.44,1.44,0,0,1-.42,1.9l-.56.41a1.59,1.59,0,0,1-1.05.29l-.94-.09A1.38,1.38,0,0,1,471.18,278.25Zm-1,5.09,2-.45a1.44,1.44,0,0,1,1.63.77l.66,1.46a1.44,1.44,0,0,1-.76,1.9l-2.51,1.15a1.42,1.42,0,0,1-2.06-1.12l-.16-2.16A1.5,1.5,0,0,1,470.22,283.34ZM469,295.89l-.39.4a1.51,1.51,0,0,1-2.13,0L465.14,295a1.41,1.41,0,0,1,.48-2.29l1.78-.82a1.42,1.42,0,0,1,2.06,1.24v1.8A1.51,1.51,0,0,1,469,295.89Zm-2.35-5.6-1.77.81a1.42,1.42,0,0,1-2.06-1.12L462.7,288a1.52,1.52,0,0,1,1.42-1.59l.55,0a1.45,1.45,0,0,1,1,.33l1.37,1.16A1.42,1.42,0,0,1,466.68,290.29Zm-2.13-10.93,2-.45a1.43,1.43,0,0,1,1.63.77l.67,1.45a1.46,1.46,0,0,1-.76,1.91l-2.51,1.15a1.42,1.42,0,0,1-2.06-1.12l-.17-2.16A1.51,1.51,0,0,1,464.55,279.36Zm-4,12.19a1.45,1.45,0,0,1-.77,1.9l-2.5,1.16a1.42,1.42,0,0,1-2.06-1.13l-.17-2.16a1.51,1.51,0,0,1,1.19-1.55l2-.44a1.43,1.43,0,0,1,1.63.77Zm-9.62,6a1.42,1.42,0,0,1-2.06-1.13l-.15-1.94a1.51,1.51,0,0,1,1.43-1.58l.54,0a1.51,1.51,0,0,1,1,.33l1.37,1.17a1.41,1.41,0,0,1-.4,2.37Zm-2.28,7.78L447,306.56a1.5,1.5,0,0,1-2-.11l-1.53-1.53a1.42,1.42,0,0,1,.48-2.3l2.51-1.15a1.45,1.45,0,0,1,1.94.66l.67,1.46A1.42,1.42,0,0,1,448.63,305.32Zm3-6.22,1.77-.82a1.43,1.43,0,0,1,2.07,1.25l0,1.8a1.43,1.43,0,0,1-.42,1l-.38.39a1.5,1.5,0,0,1-2.13,0l-1.38-1.37A1.42,1.42,0,0,1,451.63,299.1Zm5.55-14.42.93-1.25a1.49,1.49,0,0,1,2.46,0l.57.92a1.43,1.43,0,0,1-.42,1.9l-.56.41a1.59,1.59,0,0,1-1.05.29l-.93-.09A1.38,1.38,0,0,1,457.18,284.68Zm-1.91-3.36.61-.82a1,1,0,0,1,1.63,0l.38.61a1,1,0,0,1-.28,1.26l-.37.27a1.07,1.07,0,0,1-.69.19l-.62-.06A.91.91,0,0,1,455.27,281.32Zm-4.88,3.36,2-.44A1.42,1.42,0,0,1,454,285l.67,1.45a1.45,1.45,0,0,1-.76,1.91l-2.51,1.15a1.43,1.43,0,0,1-2.06-1.13l-.16-2.16A1.49,1.49,0,0,1,450.39,284.68Zm-7.21,6.44.93-1.26a1.5,1.5,0,0,1,2.46,0l.57.93a1.4,1.4,0,0,1-.42,1.89l-.56.41a1.52,1.52,0,0,1-1.05.29l-.93-.08A1.38,1.38,0,0,1,443.18,291.12Zm-.95,5.08,2-.44a1.43,1.43,0,0,1,1.63.77l.67,1.45a1.47,1.47,0,0,1-.76,1.91L443.26,301a1.42,1.42,0,0,1-2.06-1.12l-.17-2.17A1.51,1.51,0,0,1,442.23,296.2ZM441,308.76l-.38.39a1.5,1.5,0,0,1-2.13.06l-1.38-1.38a1.43,1.43,0,0,1,.49-2.3l1.77-.81a1.42,1.42,0,0,1,2.07,1.24l0,1.8A1.42,1.42,0,0,1,441,308.76Zm-1.94-8a1.42,1.42,0,0,1-.4,2.37l-1.78.82a1.42,1.42,0,0,1-2.06-1.12l-.15-2a1.51,1.51,0,0,1,1.43-1.58l.55,0a1.41,1.41,0,0,1,1,.33Zm-4.46,11L433,313a1.5,1.5,0,0,1-2-.1l-1.53-1.54a1.42,1.42,0,0,1,.49-2.29l2.51-1.16a1.46,1.46,0,0,1,1.94.67l.66,1.45A1.44,1.44,0,0,1,434.63,311.76Zm1.26-19.24,2-.44a1.43,1.43,0,0,1,1.63.77l.66,1.45a1.45,1.45,0,0,1-.76,1.91l-2.5,1.15a1.42,1.42,0,0,1-2.06-1.12l-.17-2.17A1.51,1.51,0,0,1,435.89,292.52Zm-6.7,5,.92-1.25a1.5,1.5,0,0,1,2.46,0l.57.93a1.42,1.42,0,0,1-.41,1.9l-.57.41a1.57,1.57,0,0,1-1.05.29l-.93-.09A1.38,1.38,0,0,1,429.19,297.55Zm-1,5.09,2-.45a1.43,1.43,0,0,1,1.63.77l.67,1.46a1.45,1.45,0,0,1-.76,1.9l-2.51,1.15a1.42,1.42,0,0,1-2.06-1.12l-.17-2.16A1.51,1.51,0,0,1,428.23,302.64Zm-3.54,6.95-1.78.81a1.42,1.42,0,0,1-2.06-1.12l-.15-1.94a1.52,1.52,0,0,1,1.43-1.59l.55,0a1.41,1.41,0,0,1,1,.33l1.38,1.16A1.42,1.42,0,0,1,424.69,309.59Zm1.49-14.51.61-.82a1,1,0,0,1,1.62,0l.38.61a.94.94,0,0,1-.27,1.26l-.38.27a1.07,1.07,0,0,1-.69.19l-.62-.06A.91.91,0,0,1,426.18,295.08Zm-4.12,3,2-.44a1.42,1.42,0,0,1,1.62.77l.67,1.45a1.45,1.45,0,0,1-.76,1.91l-2.51,1.15a1.43,1.43,0,0,1-2.06-1.12l-.16-2.17A1.5,1.5,0,0,1,422.06,298.06ZM415.19,304l.92-1.25a1.49,1.49,0,0,1,2.46,0l.58.93a1.42,1.42,0,0,1-.42,1.89l-.57.41a1.57,1.57,0,0,1-1.05.29l-.93-.09A1.38,1.38,0,0,1,415.19,304Zm-2,8.8-.16-2.16a1.49,1.49,0,0,1,1.19-1.55l2-.44a1.42,1.42,0,0,1,1.62.77l.67,1.45a1.44,1.44,0,0,1-.76,1.9l-2.51,1.16A1.43,1.43,0,0,1,413.2,312.78Zm7.43,5.41L419,319.42a1.51,1.51,0,0,1-2-.1l-1.53-1.53a1.43,1.43,0,0,1,.49-2.3l2.51-1.15a1.45,1.45,0,0,1,1.94.66l.67,1.45A1.45,1.45,0,0,1,420.63,318.19Zm3-6.22,1.77-.82a1.42,1.42,0,0,1,2.07,1.24l0,1.8a1.42,1.42,0,0,1-.42,1l-.38.4a1.51,1.51,0,0,1-2.13.05l-1.38-1.38A1.42,1.42,0,0,1,423.63,312ZM425,322.12l-1.55-.11a1.38,1.38,0,0,1-1-2.2L423,319a1.49,1.49,0,0,1,.9-.6l.68-.16a1.42,1.42,0,0,1,1.71.91l.33,1A1.5,1.5,0,0,1,425,322.12Zm9.06-2.71-1.64,1.24a1.5,1.5,0,0,1-1.95-.11L429,319a1.43,1.43,0,0,1,.49-2.3l2.51-1.15a1.46,1.46,0,0,1,1.94.66l.67,1.46A1.42,1.42,0,0,1,434.08,319.41Zm2.35-6,.54-.77a1.6,1.6,0,0,1,.91-.61l.68-.16a1.43,1.43,0,0,1,1.71.92l.33,1a1.5,1.5,0,0,1-1.58,1.89l-1.55-.11A1.38,1.38,0,0,1,436.43,313.38Zm2,6.16-1-.07a.92.92,0,0,1-.68-1.46l.35-.5a1.09,1.09,0,0,1,.6-.41l.45-.1a.94.94,0,0,1,1.13.6l.22.69A1,1,0,0,1,438.41,319.54Zm8.89-7-1.65,1.24a1.49,1.49,0,0,1-1.95-.11l-1.53-1.53a1.42,1.42,0,0,1,.48-2.3l2.51-1.15a1.45,1.45,0,0,1,1.94.67l.67,1.45A1.42,1.42,0,0,1,447.3,312.52Zm5.72-3.26-1.55-.12a1.38,1.38,0,0,1-1-2.2l.54-.76a1.55,1.55,0,0,1,.91-.61l.67-.16a1.43,1.43,0,0,1,1.72.92l.33,1A1.51,1.51,0,0,1,453,309.26Zm4.48-10.77a1.42,1.42,0,0,1,.48-2.3l2.51-1.15a1.44,1.44,0,0,1,1.94.66l.67,1.45a1.44,1.44,0,0,1-.47,1.74L461,300.12a1.5,1.5,0,0,1-2-.1Zm5.19,8.14L461,307.86a1.5,1.5,0,0,1-2-.1l-1.53-1.53a1.42,1.42,0,0,1,.48-2.3l2.51-1.15a1.44,1.44,0,0,1,1.94.66l.67,1.45A1.44,1.44,0,0,1,462.69,306.63Zm1.74-6.12.54-.77a1.54,1.54,0,0,1,.91-.6l.67-.16a1.42,1.42,0,0,1,1.71.91l.33,1a1.49,1.49,0,0,1-1.57,1.89l-1.55-.11A1.38,1.38,0,0,1,464.43,300.51Zm3.37,5.91-1-.07a.92.92,0,0,1-.69-1.46l.36-.5a1,1,0,0,1,.6-.41l.45-.1a.94.94,0,0,1,1.13.6l.22.69A1,1,0,0,1,467.8,306.42Zm8.15-7.06-1.64,1.23a1.51,1.51,0,0,1-2-.1L470.82,299a1.42,1.42,0,0,1,.49-2.29l2.51-1.16a1.46,1.46,0,0,1,1.94.67l.67,1.45A1.45,1.45,0,0,1,476,299.36Zm5.07-3-1.55-.11a1.38,1.38,0,0,1-1-2.2l.54-.77a1.58,1.58,0,0,1,.9-.61l.68-.16a1.42,1.42,0,0,1,1.71.92l.33,1A1.49,1.49,0,0,1,481,296.39Z" transform="translate(-345.92 -193.06)"/></svg>