<svg id="Calque_1" data-name="Calque 1" xmlns="http://www.w3.org/2000/svg" viewBox="0 0 153.05 210.64"><defs><style>.cls-1,.cls-4{fill:#74ad38;}.cls-2{fill:none;stroke:#fff;stroke-miterlimit:10;stroke-width:3px;}.cls-3{fill:#fff;}.cls-4{font-size:19.95px;font-family:IBMPlexMono-Medium, IBM Plex Mono;font-weight:500;}</style></defs><rect class="cls-1" x="1.5" width="150.05" height="150.05" rx="13.64"/><rect class="cls-2" x="1.5" y="160.56" width="150.05" height="48.59" rx="7.76"/><path class="cls-3" d="M358,227.05V214.2a9.09,9.09,0,0,1,9.1-9.09h12.69v-3.44H366.7a12.13,12.13,0,0,0-12.13,12.13v13.25Z" transform="translate(-344.42 -193.06)"/><path class="cls-3" d="M379.94,331.07H367.1A9.09,9.09,0,0,1,358,322V309.28h-3.43v13.09A12.13,12.13,0,0,0,366.7,334.5h13.24Z" transform="translate(-344.42 -193.06)"/><path class="cls-3" d="M462,205.11h12.84a9.09,9.09,0,0,1,9.1,9.09v12.7h3.43V213.8a12.13,12.13,0,0,0-12.13-12.13H462Z" transform="translate(-344.42 -193.06)"/><path class="cls-3" d="M483.89,309.13V322a9.09,9.09,0,0,1-9.1,9.1H462.1v3.43h13.09a12.13,12.13,0,0,0,12.13-12.13V309.13Z" transform="translate(-344.42 -193.06)"/><text class="cls-4" transform="translate(22.67 180.19)">aspartame<tspan x="-5.98" y="18.72">et dérivés</tspan></text><circle class="cls-2" cx="98.4" cy="131.02" r="7.68"/><path class="cls-2" d="M422.86,280.61h0a13.38,13.38,0,0,1-14.52-12.15L407,252.93a13.39,13.39,0,0,1,12.15-14.52h0a13.38,13.38,0,0,1,14.51,12.14L435,266.09A13.39,13.39,0,0,1,422.86,280.61Z" transform="translate(-344.42 -193.06)"/><path class="cls-2" d="M453.21,293.41l.83,9.38c.14,1.48-12.73,3.85-28.74,5.27s-29.09,1.38-29.22-.1l-.83-9.38c.13,1.48,13.21,1.53,29.21.1S453.34,294.9,453.21,293.41Z" transform="translate(-344.42 -193.06)"/><path class="cls-2" d="M442.36,204.17c-.12-1.34-11.9-1.38-26.33-.1s-26,3.42-25.89,4.75l-.37,7.24c.12,1.39,12.37,1.44,27.34.1s27-3.54,26.89-4.93Z" transform="translate(-344.42 -193.06)"/><path class="cls-2" d="M442.36,204.17c.12,1.34-11.47,3.46-25.89,4.75s-26.21,1.24-26.33-.1,11.47-3.46,25.9-4.75S442.24,202.83,442.36,204.17Z" transform="translate(-344.42 -193.06)"/><path class="cls-2" d="M425.3,308.06c-1.73.16-3.43.29-5.09.41a7.89,7.89,0,0,0-.24,1.89,7.68,7.68,0,1,0,14.61-3.27C431.67,307.44,428.55,307.77,425.3,308.06Z" transform="translate(-344.42 -193.06)"/><path class="cls-2" d="M443.78,210.26l.22,1c.13,1.39-11.91,3.6-26.89,4.93s-27.22,1.29-27.34-.1l.05-1c-1.26.42-1.94.81-1.91,1.16.13,1.48,13.21,1.53,29.22.1s28.87-3.78,28.74-5.27C445.84,210.72,445.09,210.45,443.78,210.26Z" transform="translate(-344.42 -193.06)"/><path class="cls-2" d="M445.87,211.06c0-.34-.78-.61-2.09-.8l.22,1c.13,1.39-11.91,3.6-26.89,4.93s-27.22,1.29-27.34-.1l.05-1c-1.26.42-1.94.81-1.91,1.16L396.08,308c.13,1.48,13.22,1.53,29.22.1s28.88-3.78,28.74-5.27Z" transform="translate(-344.42 -193.06)"/></svg>