<svg id="Calque_1" data-name="Calque 1" xmlns="http://www.w3.org/2000/svg" viewBox="0 0 149.81 208.89"><defs><style>.cls-1,.cls-3{fill:#74ad38;}.cls-2{fill:#fff;}.cls-3{font-size:19.91px;font-family:IBMPlexMono-Medium, IBM Plex Mono;font-weight:500;}</style></defs><rect class="cls-1" width="149.81" height="149.81" rx="13.62"/><rect class="cls-2" y="160.31" width="149.81" height="48.59" rx="7.76"/><path class="cls-2" d="M358.1,227V214.17a9.08,9.08,0,0,1,9.08-9.08h12.68v-3.43H366.78a12.11,12.11,0,0,0-12.11,12.11V227Z" transform="translate(-346.04 -193.06)"/><path class="cls-2" d="M380,330.85H367.18a9.08,9.08,0,0,1-9.08-9.08V309.1h-3.43v13.07a12.11,12.11,0,0,0,12.11,12.11H380Z" transform="translate(-346.04 -193.06)"/><path class="cls-2" d="M461.89,205.09h12.82a9.08,9.08,0,0,1,9.08,9.08v12.67h3.43V213.77a12.11,12.11,0,0,0-12.11-12.11H461.89Z" transform="translate(-346.04 -193.06)"/><path class="cls-2" d="M483.79,309v12.82a9.08,9.08,0,0,1-9.08,9.08H462v3.43h13.08a12.11,12.11,0,0,0,12.11-12.11V309Z" transform="translate(-346.04 -193.06)"/><text class="cls-3" transform="translate(51.01 179.91)">soja<tspan x="-35.85" y="18.69">et dérivés</tspan></text><path class="cls-2" d="M393.66,328.33a20.36,20.36,0,0,1-3.92-.39,23.36,23.36,0,0,1-9.16-4.49c-4.22-3.11-10.48-10-13.95-15.39a4.44,4.44,0,0,1-.17-4.57,4.5,4.5,0,0,1,5-2.21c.57.15,1.14.27,1.69.38a4.94,4.94,0,0,0,4.32-1.42,17,17,0,0,1,4.23-3.05,25.65,25.65,0,0,1,19.78-.95,5.13,5.13,0,0,0,5.37-1.17,21.55,21.55,0,0,1,8.8-5.06c4.93-1.46,9.45-1.39,13,.22a9,9,0,0,0,3.71.75,12.11,12.11,0,0,0,6.55-2,18.67,18.67,0,0,1,7.87-2.63,18.3,18.3,0,0,1,11.76,2c3,1.5,8.67,4.28,13.13,4.28h.79a4.2,4.2,0,0,1,3.57,2,4.25,4.25,0,0,1,.28,4.09c-2.29,4.95-5.39,11.17-9,15.45-3.32,3.9-7.21,7.66-13.2,8.82a22,22,0,0,1-11.82-.61,14.3,14.3,0,0,0-4.85-1.13,7.13,7.13,0,0,0-3.69,1.14,24.85,24.85,0,0,1-6.66,2.71,28,28,0,0,1-6.43.87,14.2,14.2,0,0,1-4.74-.75c-4.64-1.61-8.45-1.4-12.48.76A20.93,20.93,0,0,1,393.66,328.33Zm-23.29-23.75a1,1,0,0,0-.89.55,1,1,0,0,0,0,1.06c3.56,5.52,9.65,11.95,13.1,14.49a20.07,20.07,0,0,0,7.8,3.89,17.44,17.44,0,0,0,11.46-1.74c4.88-2.62,9.66-2.91,15.23-1a10.83,10.83,0,0,0,3.61.55,24.65,24.65,0,0,0,5.64-.78,20.91,20.91,0,0,0,5.74-2.35,10.58,10.58,0,0,1,5.4-1.58,17.4,17.4,0,0,1,6.06,1.34,18.61,18.61,0,0,0,10,.45c5.19-1,8.52-4.48,11.23-7.67,3.37-4,6.32-9.92,8.52-14.67a.83.83,0,0,0,0-.79.8.8,0,0,0-.68-.37l-.79,0c-5.27,0-11.37-3-14.65-4.64-.83-.41-1.54-.76-1.85-.87a18.09,18.09,0,0,0-8-.77,15.38,15.38,0,0,0-6.44,2.11,15.58,15.58,0,0,1-8.41,2.57,12.63,12.63,0,0,1-5.12-1c-2.83-1.27-6.54-1.29-10.65-.07a18.2,18.2,0,0,0-7.4,4.25,8.62,8.62,0,0,1-6,2.45,8.24,8.24,0,0,1-2.95-.54,21.41,21.41,0,0,0-7.56-1.32,21.13,21.13,0,0,0-9.45,2.11,13.62,13.62,0,0,0-3.37,2.42,8.37,8.37,0,0,1-7.37,2.37c-.62-.12-1.27-.26-1.92-.43Z" transform="translate(-346.04 -193.06)"/><path class="cls-2" d="M448.74,316.54a1.83,1.83,0,0,1-.4-.05c-8.87-2.07-11.31-8.38-12-11.95a1.72,1.72,0,0,1,2.66-1.73,1.73,1.73,0,0,1,.72,1.1c.63,3.36,2.77,7.69,9.39,9.24a1.67,1.67,0,0,1,1.07.76,1.72,1.72,0,0,1-1.46,2.63Z" transform="translate(-346.04 -193.06)"/><path class="cls-2" d="M418.24,320.48a1.69,1.69,0,0,1-1-.32,14.78,14.78,0,0,1-5.79-7,1.73,1.73,0,0,1,1.06-2.19,1.73,1.73,0,0,1,2.19,1.07,11.7,11.7,0,0,0,4.53,5.29,1.72,1.72,0,0,1-1,3.12Zm.17-2Z" transform="translate(-346.04 -193.06)"/><path class="cls-2" d="M383.45,293.93c-5.64,0-15.36-1.9-21.67-4.23a4.64,4.64,0,0,1-.18-8.63c.58-.24,1.15-.5,1.7-.77a5.46,5.46,0,0,0,2.91-4.15,17.69,17.69,0,0,1,1.66-5.3,27.56,27.56,0,0,1,16.27-13.49,5.67,5.67,0,0,0,4-4.62,23.06,23.06,0,0,1,4.27-10c3.28-4.41,7.17-7.23,11.25-8.14,2.76-.62,6.35-3,8.13-7.85a20,20,0,0,1,5-7.27,22.82,22.82,0,0,1,8.69-5.29,26.17,26.17,0,0,1,2.6-.57c3.8-.7,10.85-2,14.61-5.19a4.39,4.39,0,0,1,7.12,2.45c1.22,5.73,2.58,13.07,2.21,19.07-.34,5.46-1.25,11.18-5.61,16A23.57,23.57,0,0,1,436,253c-4.93,1.44-6.29,2.9-7.47,5.62a26.12,26.12,0,0,1-3.95,6.59c-2.25,2.7-5.36,6-9.44,7.26-5,1.6-8.32,4.4-10.36,8.8a22.28,22.28,0,0,1-10.41,10.58,25,25,0,0,1-10.7,2Zm62.1-83.05a.85.85,0,0,0-.59.22c-4.46,3.75-12.09,5.18-16.19,5.94-1,.19-1.83.34-2.17.45a19.6,19.6,0,0,0-7.37,4.5,16.57,16.57,0,0,0-4.2,6c-2.27,6.13-7,9.19-10.6,10-4.13.93-7.31,4.23-9.25,6.84a19.49,19.49,0,0,0-3.64,8.47,9.07,9.07,0,0,1-6.42,7.36A23.84,23.84,0,0,0,371,272.36a14.27,14.27,0,0,0-1.35,4.28,8.88,8.88,0,0,1-4.77,6.73c-.62.31-1.27.6-1.93.88a1.14,1.14,0,0,0-.72,1.11,1.17,1.17,0,0,0,.78,1.11,72.25,72.25,0,0,0,20.48,4h.17a21.6,21.6,0,0,0,9.25-1.7,18.73,18.73,0,0,0,8.77-8.93c2.48-5.34,6.43-8.71,12.43-10.62,3.24-1,5.9-3.85,7.86-6.19a23.28,23.28,0,0,0,3.43-5.75c1.75-4.05,4.19-6,9.65-7.56a20.21,20.21,0,0,0,8.9-6.06c3.83-4.23,4.45-9.39,4.73-13.9.34-5.59-1-12.63-2.14-18.14A1,1,0,0,0,445.55,210.88Z" transform="translate(-346.04 -193.06)"/><path class="cls-2" d="M384.87,286.92a16.46,16.46,0,0,1-3.78-.45.47.47,0,0,1-.15,0,15.25,15.25,0,0,1-1.85-.57,9.3,9.3,0,0,1-5.51-4.87,8.6,8.6,0,0,1,.62-7.05,20.41,20.41,0,0,1,11.9-9.81c1.43-.41,8.77-2.26,12.26,1.95,1.62,2,2.12,5,1.38,8.38a16.4,16.4,0,0,1-8.42,11.07A15.14,15.14,0,0,1,384.87,286.92Zm-2.54-3.7a12.45,12.45,0,0,0,7.51-.79,12.82,12.82,0,0,0,6.54-8.71h0c.51-2.29.26-4.33-.67-5.45-2.21-2.66-8.6-.85-8.66-.84a16.71,16.71,0,0,0-9.76,8,5.48,5.48,0,0,0-.52,4.26,4.25,4.25,0,0,0,1.14,1.54,8.25,8.25,0,0,1,0-1.49c.34-3.39,2.72-6.64,6.53-8.91a1.72,1.72,0,0,1,1.77,3c-2.83,1.69-4.65,4-4.88,6.31A3.9,3.9,0,0,0,382.33,283.22Z" transform="translate(-346.04 -193.06)"/><path class="cls-2" d="M404.14,267.77l-.4-.37c-.22,0-.43-.1-.65-.16l-.12,0a11.85,11.85,0,0,1-7.68-8.2,14.38,14.38,0,0,1,2.79-12,14.55,14.55,0,0,1,11.08-6.21c6-.21,12.15,3.92,13.38,9,1,4-.88,8.71-4.94,12.6-3.48,3.32-7.71,5.23-11.62,5.23a11,11,0,0,1-2-.18Zm.24-3.75c3.21.74,7.44-.85,10.84-4.11,3.12-3,4.64-6.55,4-9.3-.86-3.56-5.5-6.54-9.92-6.4a11.2,11.2,0,0,0-8.44,4.82,11.33,11.33,0,0,0-2.38,8.39,11.07,11.07,0,0,1,6.62-8.22,1.72,1.72,0,0,1,1.47,3.1c-2.72,1.29-4.44,3.42-4.72,5.86A6.74,6.74,0,0,0,404.38,264Z" transform="translate(-346.04 -193.06)"/><path class="cls-2" d="M428.89,247.27a10.88,10.88,0,0,1-3.72-.63c-.22-.08-.45-.18-.67-.28a13.17,13.17,0,0,1-7.28-11.46,14.12,14.12,0,0,1,5.09-10.84,14.45,14.45,0,0,1,11.7-3.69c5.53.86,10.29,5.24,11.07,10.19.67,4.25-1.59,9.1-5.9,12.65A16.52,16.52,0,0,1,428.89,247.27Zm-2.42-3.82c3.13,1,7.11-.08,10.52-2.89s5.18-6.41,4.7-9.46c-.55-3.49-4.16-6.71-8.21-7.34a11.23,11.23,0,0,0-8.91,2.88,10.7,10.7,0,0,0-3.91,8.18,10,10,0,0,0,1.25,4.5,10.86,10.86,0,0,1,7-10.64,1.68,1.68,0,0,1,1.32,0,1.71,1.71,0,0,1,0,3.17,7.76,7.76,0,0,0-4.53,4.63A9.19,9.19,0,0,0,426.47,243.45Z" transform="translate(-346.04 -193.06)"/></svg>