<svg id="Calque_1" data-name="Calque 1" xmlns="http://www.w3.org/2000/svg" viewBox="0 0 149.81 208.89"><defs><style>.cls-1,.cls-3{fill:#74ad38;}.cls-2{fill:#fff;}.cls-3{font-size:19.91px;font-family:IBMPlexMono-Medium, IBM Plex Mono;font-weight:500;}.cls-4,.cls-5{fill:none;stroke:#fff;stroke-miterlimit:10;stroke-width:3px;}.cls-4{fill-rule:evenodd;}</style></defs><rect class="cls-1" width="149.81" height="149.81" rx="13.62"/><rect class="cls-2" y="160.31" width="149.81" height="48.59" rx="7.76"/><path class="cls-2" d="M358.1,227V214.17a9.08,9.08,0,0,1,9.08-9.08h12.68v-3.43H366.78a12.11,12.11,0,0,0-12.11,12.11V227Z" transform="translate(-346.04 -193.06)"/><path class="cls-2" d="M380,330.85H367.18a9.08,9.08,0,0,1-9.08-9.08V309.1h-3.43v13.07a12.11,12.11,0,0,0,12.11,12.11H380Z" transform="translate(-346.04 -193.06)"/><path class="cls-2" d="M461.89,205.09h12.82a9.08,9.08,0,0,1,9.08,9.08v12.67h3.43V213.77a12.11,12.11,0,0,0-12.11-12.11H461.89Z" transform="translate(-346.04 -193.06)"/><path class="cls-2" d="M483.79,309v12.82a9.08,9.08,0,0,1-9.08,9.08H462v3.43h13.08a12.11,12.11,0,0,0,12.11-12.11V309Z" transform="translate(-346.04 -193.06)"/><text class="cls-3" transform="translate(27.11 179.91)">moutarde<tspan x="-11.95" y="18.69">et dérivés</tspan></text><path class="cls-4" d="M381,305c-2.83-4.07-.86-3.65-7.1-6.29s-13.49,3.32-10.84,9.07a11.78,11.78,0,0,0,9.32,6.87C379.89,315.86,383.86,309.09,381,305Z" transform="translate(-346.04 -193.06)"/><path class="cls-4" d="M421.58,310.75c-3-.42-8.34-.14-10.85,3.58-3.79,5.62-4.73,10.21,1.37,11.9,3.62,1,7,.66,11.27-2.67C429.35,318.91,426.5,311.42,421.58,310.75Z" transform="translate(-346.04 -193.06)"/><path class="cls-4" d="M397.41,308.65c-4.93.51-3.78-.79-9.1,3.4s-3.42,9.85,2.89,10.3c3.75.27,7.91,1,10.14-3.34C403.38,315,402.35,308.14,397.41,308.65Z" transform="translate(-346.04 -193.06)"/><path class="cls-5" d="M466.42,216.7c0-1.15-11.87-2.08-26.51-2.08s-26.51.93-26.51,2.08c0,.06.12,17.76.12,17.76,1.28,1,12.6,1.72,26.39,1.72s25.12-.75,26.39-1.72C466.3,234.46,466.42,216.76,466.42,216.7Z" transform="translate(-346.04 -193.06)"/><path class="cls-5" d="M476.06,245.77c-1.51-5.74-8.7-5.14-10.18-7.2a7.14,7.14,0,0,1-.81-3.69c-3.5.76-13.44,1.3-25.16,1.3-12,0-22.11-.57-25.39-1.35a7.33,7.33,0,0,1-.8,3.74c-1.48,2.06-8.68,1.46-10.18,7.2-1.15,4.37-3.22,47.83-.47,51.77,6.73,9.63,69,9.48,73.45,0C478.65,293,477.21,250.14,476.06,245.77Z" transform="translate(-346.04 -193.06)"/></svg>