<svg id="Calque_1" data-name="Calque 1" xmlns="http://www.w3.org/2000/svg" viewBox="0 0 150.05 209.14"><defs><style>.cls-1,.cls-3{fill:#74ad38;}.cls-2{fill:#fff;}.cls-3{font-size:19.95px;font-family:IBMPlexMono-Medium, IBM Plex Mono;font-weight:500;}.cls-4{fill:none;stroke:#fff;stroke-miterlimit:10;stroke-width:3px;}</style></defs><rect class="cls-1" width="150.05" height="150.05" rx="13.64"/><rect class="cls-2" y="160.56" width="150.05" height="48.59" rx="7.76"/><path class="cls-2" d="M358,227.05V214.2a9.09,9.09,0,0,1,9.1-9.09h12.69v-3.44H366.7a12.13,12.13,0,0,0-12.13,12.13v13.25Z" transform="translate(-345.92 -193.06)"/><path class="cls-2" d="M379.94,331.07H367.1A9.09,9.09,0,0,1,358,322V309.28h-3.43v13.09A12.13,12.13,0,0,0,366.7,334.5h13.24Z" transform="translate(-345.92 -193.06)"/><path class="cls-2" d="M462,205.11h12.84a9.09,9.09,0,0,1,9.1,9.09v12.7h3.43V213.8a12.13,12.13,0,0,0-12.13-12.13H462Z" transform="translate(-345.92 -193.06)"/><path class="cls-2" d="M483.89,309.13V322a9.09,9.09,0,0,1-9.1,9.1H462.1v3.43h13.09a12.13,12.13,0,0,0,12.13-12.13V309.13Z" transform="translate(-345.92 -193.06)"/><text class="cls-3" transform="translate(39.12 180.19)">poulet<tspan x="-23.93" y="18.72">et dérivés</tspan></text><path class="cls-4" d="M460.61,233.75a5.82,5.82,0,0,0-4-3.45s1.67-1.76-1.28-3.62a3.19,3.19,0,0,0-2.89-2.74,3.66,3.66,0,0,0-2.5-.42,2.38,2.38,0,0,1-1.8-.32c-.76-.47-1.78-.81-2.33.23a2.44,2.44,0,0,0-.37,1.34h0a5.06,5.06,0,0,0,.25,3.59,22.44,22.44,0,0,0-3.38,1.39A17.86,17.86,0,0,0,433.61,240c-1.32,3.93-4.8,11.15-12.8,12.74a.76.76,0,0,0-.16,0h0c-.66.12-1.29.21-1.9.27l-.22,0c-.6.06-1.18.1-1.74.1h0c-.62,0-1.22,0-1.79,0A11.88,11.88,0,0,1,404,243a18.48,18.48,0,0,0-1.18-4.61c-.51-1.2-1-2.21-1.44-3.07,0-1.06-.41-2.47-.67-2.12a9,9,0,0,0-1-3.5c-.19.48-1.92-.52-2-.16a.63.63,0,0,1-1.06.16l-.3-.34a.63.63,0,0,0-1.06.25c-.07.29-.14.58-.22.87a.64.64,0,0,1-1,.3l-.34-.23a.63.63,0,0,0-1,.37l-.21,1.21a.62.62,0,0,1-.91.4l-.41-.21a.61.61,0,0,0-.9.5c0,.36,0,.71,0,1.07a.61.61,0,0,1-.78.55c-.49-.13-.94-.2-1.42-.34a.6.6,0,0,0-.78.6l.07.75a.6.6,0,0,1-.79.59h0a.6.6,0,0,0-.79.59l.06.62a.6.6,0,0,1-.82.59l-.06,0a.6.6,0,0,0-.82.58,4,4,0,0,1-.14,1.72h0a.67.67,0,0,0-.52,0,.55.55,0,0,0-.29.41,1.19,1.19,0,0,1-.37.73.56.56,0,0,0-.21.52,1.12,1.12,0,0,1-.2.77c-.24.36-.62.63-.86,1a2.74,2.74,0,0,0-.39,1.69.6.6,0,0,1-.49.62,1.19,1.19,0,0,0-.94.91,2.78,2.78,0,0,0,.59,1.82c.13.21-.18.51-.56.55a5.14,5.14,0,0,1,.64,2.21,1,1,0,0,0,0,.75l.87,2.93a.56.56,0,0,1,0,.38,3.47,3.47,0,0,0,.47,3.6.57.57,0,0,1,0,.74.59.59,0,0,0-.13.49,1.44,1.44,0,0,0,.77.84c.18.11.37.22.54.34l.15.47-.6.2c.18.77,1.45,3.62,1.13,3.66a.57.57,0,0,0-.47.83,5.45,5.45,0,0,0,.88,1.1.54.54,0,0,1-.22.91c-.24.07.82,2.5.38,2.57.47.66,3.27,2.62,2.92,2.85a15.94,15.94,0,0,0,3.05.89c.65.88,1.28,1.67,1.84,2.35a23.57,23.57,0,0,1,3.74,6.22A23.2,23.2,0,0,0,409.79,297a19.59,19.59,0,0,0,6.72,1.12,26.7,26.7,0,0,1,2.66,5.79c.34,1.33-.1,1.4-1.15,2.3l-1.9,1.61c1.21-.26,2.85-.15,3.9-.74.28,2.78-2,4.54-4,6.13a10,10,0,0,0,2,0,17.89,17.89,0,0,1,2.23-.44,5.4,5.4,0,0,1,1.75.66,18.86,18.86,0,0,0,3.68.71c3,.52,5.92,1.16,8.88,1.75-1-1.72-2.5-2.31-4.49-2.72-.4-.08-4.17-.48-4.22-.79-.08-.54,9.64-1.75,10.72-1.89a10.67,10.67,0,0,0-5.09-.71c-1.53.14-5,1.2-6.1,0-.46-.46,1.69-2.2,2.26-2a15.11,15.11,0,0,0,3.08.31c2.5.21,5,.52,7.47.78a5,5,0,0,0-3.93-1.9c-.34,0-3.48-.09-3.54-.34-.12-.44,7.78-2.16,8.66-2.36a9,9,0,0,0-4.25-.2c-1.25.23-4,1.36-5,.49s-1.57-2.82-2.15-3.9c-.83-1.54-1.56-3.25-2.48-4.78A25.12,25.12,0,0,0,430,293a26.07,26.07,0,0,1,4.94-3.12c10.94-5.22,14.18-13.14,15.14-17a20,20,0,0,1,.79-2.49,18.44,18.44,0,0,1,.8-1.83q.29-.57.54-1.14c.1-.22.19-.44.28-.66s.13-.3.18-.45.22-.59.33-.89l.06-.17c.11-.34.22-.68.32-1h0c3.53-12.08-2.53-24.3-2.53-24.3s6.57.47,4.23-6.26c0,0,1-1,5.31.27C460.53,234,460.66,233.87,460.61,233.75Zm-40.31,63.9a20.27,20.27,0,0,0,2.47-.68,14.91,14.91,0,0,1,1.71,3.15c.4,1.06,0,1.15-.74,2l-1.1,1.13A37.17,37.17,0,0,0,420.3,297.65Zm3.61,9.13c-.22-.71-.42-1.39-.64-1.92s-.37-.94-.54-1.41a8.28,8.28,0,0,0,2.73-.79A4.59,4.59,0,0,1,423.91,306.78Z" transform="translate(-345.92 -193.06)"/></svg>