<svg id="Calque_1" data-name="Calque 1" xmlns="http://www.w3.org/2000/svg" viewBox="0 0 149.81 208.89"><defs><style>.cls-1,.cls-3{fill:#74ad38;}.cls-2{fill:#fff;}.cls-3{font-size:19.91px;font-family:IBMPlexMono-Medium, IBM Plex Mono;font-weight:500;}.cls-4{fill:none;stroke:#fff;stroke-miterlimit:10;stroke-width:2.99px;}</style></defs><rect class="cls-1" width="149.81" height="149.81" rx="13.62"/><rect class="cls-2" y="160.31" width="149.81" height="48.59" rx="7.76"/><path class="cls-2" d="M358.1,227V214.17a9.08,9.08,0,0,1,9.08-9.08h12.68v-3.43H366.78a12.11,12.11,0,0,0-12.11,12.11V227Z" transform="translate(-346.04 -193.06)"/><path class="cls-2" d="M380,330.85H367.18a9.08,9.08,0,0,1-9.08-9.08V309.1h-3.43v13.07a12.11,12.11,0,0,0,12.11,12.11H380Z" transform="translate(-346.04 -193.06)"/><path class="cls-2" d="M461.89,205.09h12.82a9.08,9.08,0,0,1,9.08,9.08v12.67h3.43V213.77a12.11,12.11,0,0,0-12.11-12.11H461.89Z" transform="translate(-346.04 -193.06)"/><path class="cls-2" d="M483.79,309v12.82a9.08,9.08,0,0,1-9.08,9.08H462v3.43h13.08a12.11,12.11,0,0,0,12.11-12.11V309Z" transform="translate(-346.04 -193.06)"/><text class="cls-3" transform="translate(21.14 179.91)">glutamate<tspan x="-5.97" y="18.69">et dérivés</tspan></text><line class="cls-4" x1="10.42" y1="103.86" x2="14.49" y2="112.07"/><line class="cls-4" x1="16.14" y1="101.03" x2="20.21" y2="109.24"/><line class="cls-4" x1="18.99" y1="104.89" x2="12.29" y2="108.2"/><line class="cls-4" x1="105.01" y1="81.76" x2="109.08" y2="89.97"/><line class="cls-4" x1="110.74" y1="78.93" x2="114.81" y2="87.14"/><line class="cls-4" x1="96.3" y1="86.08" x2="100.38" y2="94.29"/><line class="cls-4" x1="97.12" y1="86.88" x2="105.42" y2="90.69"/><line class="cls-4" x1="102.03" y1="83.24" x2="106.1" y2="91.45"/><line class="cls-4" x1="113.58" y1="82.79" x2="106.88" y2="86.11"/><circle class="cls-4" cx="24.92" cy="102.1" r="3.33"/><line class="cls-4" x1="129.05" y1="45.2" x2="133.12" y2="53.42"/><line class="cls-4" x1="134.77" y1="42.37" x2="138.84" y2="50.58"/><line class="cls-4" x1="137.61" y1="46.23" x2="130.92" y2="49.55"/><circle class="cls-4" cx="125.36" cy="52.46" r="3.33"/><circle class="cls-4" cx="93.88" cy="31.49" r="3.33"/><circle class="cls-4" cx="26.2" cy="65.04" r="3.33"/><path class="cls-2" d="M472.07,280.56,465,284.09l-1.23-2.48.59-1.68c.75-2.05,1.11-3.25.85-3.77h0a1.34,1.34,0,0,0-.52.61l-.8,1.79-3-2.47.45-1a4.91,4.91,0,0,1,2.33-2.43,3.68,3.68,0,0,1,5.13,1.64,5.25,5.25,0,0,1,.31,3.5l1.31-.65Zm-6.78-4.45Z" transform="translate(-346.04 -193.06)"/><line class="cls-4" x1="94.79" y1="37.7" x2="102.02" y2="52.28"/><line class="cls-4" x1="98.34" y1="35.94" x2="105.57" y2="50.52"/><line class="cls-4" x1="26.99" y1="71.32" x2="34.22" y2="85.9"/><line class="cls-4" x1="30.53" y1="69.56" x2="37.76" y2="84.14"/><polyline class="cls-4" points="119.35 51.68 102.38 51.29 90.83 68.81 69.4 67.45 57.48 85.34 36.05 83.98 27.28 96.88"/><polygon class="cls-4" points="99.39 81.73 94.87 76 97.19 82.82 99.39 81.73"/></svg>