<svg id="Calque_1" data-name="Calque 1" xmlns="http://www.w3.org/2000/svg" viewBox="0 0 149.81 208.89"><defs><style>.cls-1,.cls-3{fill:#74ad38;}.cls-2,.cls-4{fill:#fff;}.cls-3{font-size:19.91px;font-family:IBMPlexMono-Medium, IBM Plex Mono;font-weight:500;}.cls-4{fill-rule:evenodd;}</style></defs><rect class="cls-1" width="149.81" height="149.81" rx="13.62"/><rect class="cls-2" y="160.31" width="149.81" height="48.59" rx="7.76"/><path class="cls-2" d="M358.1,227V214.17a9.08,9.08,0,0,1,9.08-9.08h12.68v-3.43H366.78a12.11,12.11,0,0,0-12.11,12.11V227Z" transform="translate(-346.04 -193.06)"/><path class="cls-2" d="M380,330.85H367.18a9.08,9.08,0,0,1-9.08-9.08V309.1h-3.43v13.07a12.11,12.11,0,0,0,12.11,12.11H380Z" transform="translate(-346.04 -193.06)"/><path class="cls-2" d="M461.89,205.09h12.82a9.08,9.08,0,0,1,9.08,9.08v12.67h3.43V213.77a12.11,12.11,0,0,0-12.11-12.11H461.89Z" transform="translate(-346.04 -193.06)"/><path class="cls-2" d="M483.79,309v12.82a9.08,9.08,0,0,1-9.08,9.08H462v3.43h13.08a12.11,12.11,0,0,0,12.11-12.11V309Z" transform="translate(-346.04 -193.06)"/><text class="cls-3" transform="translate(27.11 179.91)">palourde<tspan x="-11.95" y="18.69">et dérivés</tspan></text><path class="cls-4" d="M441.11,302.62a7.56,7.56,0,0,1-10.57,4.65c-13.12-5.53-27-5.93-40.76-2.61-2.5.61-4.12,1.54-6.59.15A6,6,0,0,1,380.3,298a162.47,162.47,0,0,1,28.61,1.85c3.28.54,3.62-1.76.22-2.73-8.78-2.52-18.16-3.09-27.27-3-2.47,0-3.94.3-5.9-1.65a6.3,6.3,0,0,1-1.39-6.87,203.11,203.11,0,0,1,34.11,8c3.18,1.09,3.54-1.13.19-2.69-10.33-4.79-21.52-7.22-32.88-9.07-2-.33-4-1.39-4.58-4.69a6.72,6.72,0,0,1,2.26-6.29,192.84,192.84,0,0,1,36.58,16.44c2.93,1.72,3.65-.3.67-2.49-9.86-7.21-20.83-12.3-32.46-16.42-2.59-.92-4.89-1-5.64-4.83a8.15,8.15,0,0,1,3.3-8.13c2.95-2.06,4.09-.59,6.91,1.59,10.06,7.81,20,15.81,29.54,24.29,2.8,2.49,4.17.9,1.53-2-9-9.76-19.48-18.27-30-26.38-1.85-1.43-3.33-2-3.06-5.4a9,9,0,0,1,7.72-8.07c3.9-.53,4.28.93,6.42,3.69,8,10.38,15.22,21.42,22.4,32.42,2.17,3.32,3.84,2,1.9-1.72a227.35,227.35,0,0,0-21.95-34c-1.77-2.26-2.23-2.66-1.47-5.24a10.79,10.79,0,0,1,14.78-6.49c2.42,1.17,2.4,1.78,2.87,4.62a226.72,226.72,0,0,0,10,38.46c1.47,4.17,3.49,3.2,2.37-1.2-3.12-12.18-6.21-24.38-8.32-36.76-.6-3.44-1.41-4.71,1.62-7.23a9,9,0,0,1,11.17-.23c2.68,2.11,2.1,3.58,1.9,5.91-1,12.36-1.8,25-1,37.39.31,4.72,2.62,4.12,2.73-.79.28-11.58,1-23.16,2-34.69.29-3.55,0-5.39,3.49-6.16a8.11,8.11,0,0,1,8.22,3c2.33,3.16.83,4.89-.25,7.42a129.74,129.74,0,0,0-9.33,31.19c-.75,4.91,1.66,5.25,2.83.44a195.27,195.27,0,0,1,11.56-33.48,6.72,6.72,0,0,1,6.17,2.59c2,2.66,1.47,4.83.35,6.54C453.67,253.8,448.5,262.54,445,272c-1.73,4.65.66,5.56,2.76,1.14A217.43,217.43,0,0,1,463,246.73a6.29,6.29,0,0,1,4.13,5.67c.11,2.76-1.09,3.66-2.77,5.46A106.12,106.12,0,0,0,450,276.45c-2.45,4.24-.17,5.72,2.52,1.88a172.59,172.59,0,0,1,15.71-19,6,6,0,0,1,3,6.72c-.65,2.76-2.43,3.32-4.57,4.76-11.78,7.91-20.84,18.39-25.62,31.79Zm29.27-46.53a10.19,10.19,0,0,0-6.17-13A10.66,10.66,0,0,0,453,232.22a11.9,11.9,0,0,0-17.68-7.05,12.76,12.76,0,0,0-20.78.65,14.63,14.63,0,0,0-22.58,9.92,12.77,12.77,0,0,0-14.52,14.88,11.9,11.9,0,0,0-6.76,17.79A10.65,10.65,0,0,0,371,284a10.2,10.2,0,0,0,5.43,13.37,9.92,9.92,0,0,0,10.38,12.05,3,3,0,0,0,.61-.14,70,70,0,0,1,21.23-2.84c3.14.09,2.89.75,3.75,2.38,1.95,3.69,4,6,6.6,6.82,2.79.89,5.91,0,9.88-2.72,2.15-1.49,1.72-1.37,3.63-1.13a11.06,11.06,0,0,0,10.57-4.65c1.11-1.57.74-1.33,3.29-1.91,4.7-1.07,7.46-2.78,8.69-5.44,1.16-2.49.83-5.55-.57-9.48-.63-1.73-1.28-2,.78-4.37a70,70,0,0,1,16.45-13.73,2.81,2.81,0,0,0,.5-.35,9.9,9.9,0,0,0-1.86-15.79Zm-44.71,54.35c-2.34,1.48-4.1,2-5.48,1.53s-2.59-1.8-3.86-4c-.4-.71-.16-.78.38-.69a55.83,55.83,0,0,1,8.81,2.26c.66.23.86.48.15.93Zm25.89-12.27c-.61,1.32-2.15,2.29-4.83,3-.81.22-.86-.1-.58-.74a54.16,54.16,0,0,1,4.29-8c.29-.46.51-.58.76.19.79,2.44,1,4.27.36,5.56Z" transform="translate(-346.04 -193.06)"/></svg>