<svg id="Calque_1" data-name="Calque 1" xmlns="http://www.w3.org/2000/svg" viewBox="0 0 150.05 209.14"><defs><style>.cls-1,.cls-3{fill:#74ad38;}.cls-2{fill:#fff;}.cls-3{font-size:19.95px;font-family:IBMPlexMono-Medium, IBM Plex Mono;font-weight:500;}</style></defs><rect class="cls-1" width="150.05" height="150.05" rx="13.64"/><rect class="cls-2" y="160.56" width="150.05" height="48.59" rx="7.76"/><path class="cls-2" d="M358,227.05V214.2a9.09,9.09,0,0,1,9.1-9.09h12.69v-3.44H366.7a12.13,12.13,0,0,0-12.13,12.13v13.25Z" transform="translate(-345.92 -193.06)"/><path class="cls-2" d="M379.94,331.07H367.1A9.09,9.09,0,0,1,358,322V309.28h-3.43v13.09A12.13,12.13,0,0,0,366.7,334.5h13.24Z" transform="translate(-345.92 -193.06)"/><path class="cls-2" d="M462,205.11h12.84a9.09,9.09,0,0,1,9.1,9.09v12.7h3.43V213.8a12.13,12.13,0,0,0-12.13-12.13H462Z" transform="translate(-345.92 -193.06)"/><path class="cls-2" d="M483.89,309.13V322a9.09,9.09,0,0,1-9.1,9.1H462.1v3.43h13.09a12.13,12.13,0,0,0,12.13-12.13V309.13Z" transform="translate(-345.92 -193.06)"/><text class="cls-3" transform="translate(51.09 180.19)">bœuf<tspan x="-35.9" y="18.72">et dérivés</tspan></text><path class="cls-2" d="M481.42,244.22a3.41,3.41,0,0,1-2-.75,1.78,1.78,0,0,1-.61-1.31c0-1.11,1.19-1.85,1.9-2.19a2,2,0,0,1,2.3.06,1.8,1.8,0,0,1,.6,1.89l-.06.2c-.51,1.37-1.08,2-1.92,2.09Zm-.77-2.75a1.26,1.26,0,0,0,1.05,1.17,1.35,1.35,0,0,0-.09-1.16l-.72-.15A1.38,1.38,0,0,0,480.65,241.47Zm.52-.23.37.14a.78.78,0,0,0-.15-.16h-.22Z" transform="translate(-345.92 -193.06)"/><path class="cls-2" d="M467,240.72a5.39,5.39,0,0,1-1.47-.29,9.79,9.79,0,0,0-2.09-.42c-.66,0-1.88-.08-2.26-1.2a1.68,1.68,0,0,1,.64-1.9c.88-1.51,4.14-2.73,4.89-2.89,2.57-.56,3.55.9,3.85,1.56.09.19.19.39.29.58.44.84.93,1.79.32,2.7-.35.54-.91.74-2.12,1.17-.31.11-.82.29-1,.37A1.71,1.71,0,0,1,467,240.72Zm1.12-.37,0,0ZM466.32,238h0Zm-.3-.52.35.1.45.12c.3-.13.69-.27,1.22-.46l-.16-.32A4.14,4.14,0,0,0,466,237.45Zm-4.19-.51a1.33,1.33,0,0,0-.21.72A1.46,1.46,0,0,1,461.83,236.94Zm7.38-.74-1.36.62h0Z" transform="translate(-345.92 -193.06)"/><path class="cls-2" d="M386.88,316.93a9.1,9.1,0,0,1-4-.73c-1.42-1-2.37-4.25-2.25-5.49,0-.57-.29-4-.54-7-1-12.46-1-13.31-.76-13.94a42.06,42.06,0,0,0,1-5.21c-1.72,2.19-3.94,5.37-4.37,6.16-.42,1.74-.91,16.31-.22,18.57a1.7,1.7,0,0,0,.45.36c.91.58,1.44,1.21,2,3.22,0,.09.09.23.15.37a2.42,2.42,0,0,1-.18,2.75c-1,1-5.37.79-5.56.78a3.22,3.22,0,0,1-2.56-.91c-.49-.63-2-3.51-1.92-5.09,0-.36-.18-3.16-.36-5.87-.77-11.71-.93-15.15-.74-16,.08-.36.34-1.33.68-2.58.68-2.49,2.28-8.31,2.26-9.34-.05-.34-.61-2.16-1.15-3.93-1.53-5.06-3.86-12.7-4-16.41a14.71,14.71,0,0,1,.6-3.34c.09-.37.2-.85.31-1.34a6.66,6.66,0,0,0-1.73,3.22c0,1.86.84,35.63,1.1,38,.84,2.87-1.37,7-2.88,8.52a2.41,2.41,0,0,1-2.46.89,1.91,1.91,0,0,1-1.3-1.58c-.43-2.41-1.53-32.54-1.53-44.54,0-4.08,1.43-11.14,11-12.7.18-.25.42-.64.54-.84s.32-.51.4-.6c2.24-2.77,7.73-2.36,12.58-2,1.17.09,2.28.18,3.12.18l6.9.13c4.61.09,10.36.21,13.66.24,9.55.08,13.4-1.37,16.79-2.66a20.64,20.64,0,0,1,8.21-1.74h0c1,0,2.44.12,3.92.24,2.43.21,5.77.5,7,.1a44.2,44.2,0,0,0,7.42-3.73c.29-.23.83-.59,1.46-1s1.95-1.33,2.66-1.87a12.23,12.23,0,0,1-.17-5,2.48,2.48,0,0,1,1.76-1.94c2.1-.53,4.51,1.75,5.73,3.18,2.79-1.84,9.26-4.28,10.66-3.62l.92.43-.06,1a1.62,1.62,0,0,1-1.3,1.43,10.18,10.18,0,0,0-3.85,2.28l8,6.25c1.88,1.19,7,4.28,9,4.93a2.32,2.32,0,0,1,1.47,1.31c.57,1.35-.19,2.87-1.15,4.8-.19.39-.39.78-.58,1.18-.68,1.44-2,1.76-3.53,2.12a24.64,24.64,0,0,0-6.55,2.47,22,22,0,0,1-5.43,1.37,23.36,23.36,0,0,0-2.93.62c-.8.37-3.7,3-4.38,5.26s-1.43,4.44-2.33,6.7c-1.48,3.75-2.7,7.84-3.59,10.82-1.08,3.6-1.41,4.66-1.93,5.22a4,4,0,0,1-2.88,1l-.49,0c0,.65,0,1.78.06,2.52a26.78,26.78,0,0,1,.08,2.78v.19l-.07.19s-.5,1.57-.87,2.87-1.59,17-1.55,18.43a15.81,15.81,0,0,0,.56,2.49c.55,2,.88,3.24.23,4.14-.29.4-.84,1.17-4.91,1.09-2.48,0-3.15-.35-3.57-1-.3-.45-.55-.81-.9-18.72,0,0,0-.3,0-.68-1.08,5.72-2.1,11.58-2,12.61a13.35,13.35,0,0,0,.67,2.67c.54,1.71.94,2.95.22,3.92a1.82,1.82,0,0,1-1.5.74h0c-.33,0-1,.06-1.61.12-2.62.26-4.06.39-4.6-.93-.36-.87-1.27-16.77-.66-18.9.17-.59.42-1.3.69-2.06a15.64,15.64,0,0,0,1.09-4.05,5.51,5.51,0,0,0-.34-1.45,6,6,0,0,1-.42-2.16,17.76,17.76,0,0,1,.18-1.82,20.34,20.34,0,0,0,.23-5.32c-2-.42-9.8.16-15.06.56-6.41.48-10.42.75-12,.46a2.08,2.08,0,0,1-1.37-1c-1.4,1.95-4.86,4.93-9.16,8.55-1.55,1.3-3.29,2.77-3.8,3.31-.4,2.13-.72,16.22-.23,17.93a11.32,11.32,0,0,0,1.23,1.9c1.13,1.56,2.31,3.18,1.05,4.48C390,316.67,388.44,316.93,386.88,316.93Zm-2.35-3.23a10.92,10.92,0,0,0,3.06.21c-.15-.22-.31-.44-.45-.62a12.83,12.83,0,0,1-1.61-2.61c-.78-2-.38-18.45.26-20.17.25-.69.93-1.3,4.65-4.43,3-2.52,8-6.75,8.84-8.29l.22-.31a2.9,2.9,0,0,1,2.35-1.13,2.72,2.72,0,0,1,2,1.54c1.8.12,6.59-.24,10.87-.55,14.22-1.07,16.89-1,17.78.65s.63,4.47.25,7.48c-.08.6-.16,1.23-.16,1.47a3.14,3.14,0,0,0,.26,1.16,8.58,8.58,0,0,1,.49,2.16c.12,1.42-.57,3.4-1.25,5.31-.25.69-.48,1.35-.63,1.89-.35,1.41.19,12.51.5,16.15.51,0,1.14-.09,1.58-.13l.6-.06c-.09-.28-.18-.59-.26-.83a15.14,15.14,0,0,1-.8-3.37c-.16-2.31,2.66-16.46,3.23-19.27l.65-2.72c-.26-2.66-.29-4.08,1.05-4.49a1.61,1.61,0,0,1,1.91.87c.76,1.43,1.05,6.15,1,6.8s.12,5,.16,6.59c.13,6.73.34,14.18.51,16.74a21.43,21.43,0,0,0,3.1,0c-.1-.44-.25-1-.36-1.37a15.3,15.3,0,0,1-.65-3.19c0-1.36,1.19-17.66,1.66-19.33.3-1.07.69-2.31.84-2.78,0-.64,0-1.47-.08-2.27-.15-2.65-.28-4.74,1.36-5.39a6.06,6.06,0,0,1,1.88-.33,5.7,5.7,0,0,0,.85-.08c.27-.65.79-2.4,1.26-4,.91-3,2.16-7.2,3.68-11.06,1.14-2.87,1.83-5.06,2.25-6.46a14.35,14.35,0,0,1,6-7.13,18.07,18.07,0,0,1,3.65-.85,23,23,0,0,0,4.54-1.06,27.59,27.59,0,0,1,7.27-2.73,6.14,6.14,0,0,0,1.51-.47c.2-.44.41-.85.61-1.26a18.61,18.61,0,0,0,.95-2.09,75.88,75.88,0,0,1-9.28-5.11l-.11-.08-7.92-6.15a2.94,2.94,0,0,1-1.33-.6,1.69,1.69,0,0,1-.65-1.68,7.74,7.74,0,0,0-1.16.73,1.7,1.7,0,0,1-1.16,1.21c-.6.18-1.48.11-2.25-1.22a9.87,9.87,0,0,0-2.84-2.62,12,12,0,0,0,.31,3.34l.3.29-.05.75c-.09.94-.71,1.44-4.18,3.8-.58.39-1.08.73-1.35.94a46.08,46.08,0,0,1-8.33,4.2c-1.81.56-5,.29-8.16,0-1.43-.12-2.78-.24-3.69-.23A17.7,17.7,0,0,0,423,241c-3.45,1.31-7.72,2.94-17.88,2.85-3.32,0-9.07-.15-13.69-.24l-6.87-.13c-.94,0-2.1-.09-3.32-.18-3.28-.25-8.77-.66-10,.89,0,0-.08.14-.17.27a5,5,0,0,1-1.69,2,2.91,2.91,0,0,1-.85.22c-5.67.9-8.55,4.18-8.55,9.75,0,11.36.84,33.88,1.29,41.5.71-1.3,1.31-3,1-4-.4-1.23-1.22-38.53-1.21-38.86.07-2.75,3.22-6.46,5.08-7.25a2,2,0,0,1,2.26.28c1.16,1.07.67,3.09,0,5.87a17.21,17.21,0,0,0-.51,2.54c.1,3.31,2.44,11,3.84,15.62a40.83,40.83,0,0,1,1.27,4.53c.12,1.12-.67,4.25-2.36,10.42-.32,1.18-.57,2.09-.65,2.43-.12,1,.49,10.22.81,15.15.29,4.27.38,5.8.37,6.19a10.81,10.81,0,0,0,1.1,2.84,19.74,19.74,0,0,0,3.1,0c-.38-1.32-.53-1.42-.76-1.56a5.09,5.09,0,0,1-1.26-1.11c-.39-.49-1.06-1.31-.88-10.91,0-.09.18-9,.72-10.52,0-.09,6-9.62,8.24-10a1.69,1.69,0,0,1,1.6.61c1.49,1.82-.82,10.52-.85,10.6a.83.83,0,0,0,.07-.25c-.1,1,.51,8.41.88,12.86.55,6.57.58,7.22.52,7.61A7.36,7.36,0,0,0,384.53,313.7Zm-12.61,0Zm69,0-65.2-4.25ZM404,278.14Zm78.44-36.08h0Zm-29.57-11a1.31,1.31,0,0,0,.36.6A1.76,1.76,0,0,1,452.88,231Z" transform="translate(-345.92 -193.06)"/></svg>