<svg id="Calque_1" data-name="Calque 1" xmlns="http://www.w3.org/2000/svg" viewBox="0 0 149.81 208.89"><defs><style>.cls-1,.cls-3{fill:#74ad38;}.cls-2{fill:#fff;}.cls-3{font-size:19.91px;font-family:IBMPlexMono-Medium, IBM Plex Mono;font-weight:500;}</style></defs><rect class="cls-1" width="149.81" height="149.81" rx="13.62"/><rect class="cls-2" y="160.31" width="149.81" height="48.59" rx="7.76"/><path class="cls-2" d="M358.1,227V214.17a9.08,9.08,0,0,1,9.08-9.08h12.68v-3.43H366.78a12.11,12.11,0,0,0-12.11,12.11V227Z" transform="translate(-346.04 -193.06)"/><path class="cls-2" d="M380,330.85H367.18a9.08,9.08,0,0,1-9.08-9.08V309.1h-3.43v13.07a12.11,12.11,0,0,0,12.11,12.11H380Z" transform="translate(-346.04 -193.06)"/><path class="cls-2" d="M461.89,205.09h12.82a9.08,9.08,0,0,1,9.08,9.08v12.67h3.43V213.77a12.11,12.11,0,0,0-12.11-12.11H461.89Z" transform="translate(-346.04 -193.06)"/><path class="cls-2" d="M483.79,309v12.82a9.08,9.08,0,0,1-9.08,9.08H462v3.43h13.08a12.11,12.11,0,0,0,12.11-12.11V309Z" transform="translate(-346.04 -193.06)"/><text class="cls-3" transform="translate(51.01 179.91)">pois<tspan x="-35.85" y="18.69">et dérivés</tspan></text><path class="cls-2" d="M482.61,252.45c-.35,1.35-.69,2.7-1,4.05a42.31,42.31,0,0,1-6.29,13.63c-9.14,13.13-18.11,26.38-27.58,39.26-7.9,10.74-18.92,16.34-32.23,17.38a46.15,46.15,0,0,1-15.65-1.66A7.78,7.78,0,0,1,395,313.42c2.06-3.39,4.48-6.57,6.75-9.84,1.93-2.79,3.88-5.57,5.82-8.35.17-.24.31-.5.61-1-1.2.4-2.13.75-3.08,1-15.2,4.37-29,1.6-41.4-8.18a11.25,11.25,0,0,1-3.9-4.42,7.7,7.7,0,0,1,2.69-9.36c2.47-1.62,5.1-3,7.69-4.47Q416,243,461.92,217.24c3.61-2,7.16-2.3,10.76-.16,2.28,1.36,3.47,3.66,4.71,5.87a43.91,43.91,0,0,1,5.72,23,3.32,3.32,0,0,0,.11.68Zm-74.1,70.21a41.67,41.67,0,0,0,13.5-1,40.31,40.31,0,0,0,24-16.77q12.59-18.12,25.25-36.18a40.7,40.7,0,0,0,6.91-15.73A40.11,40.11,0,0,0,472,222a4.76,4.76,0,0,0-3.93-2.22c-2.15-.09-3.55,1.07-4.71,2.74Q446.43,246.77,429.5,271,414.23,292.87,399,314.76c-2,2.79-1,5.73,2.2,6.44C403.61,321.75,406.07,322.18,408.51,322.66Zm47.7-97.18-.18-.16c-.3.17-.62.32-.92.49l-78.22,44c-3.84,2.17-7.71,4.3-11.53,6.5a3.76,3.76,0,0,0-.56,6.37c.53.46,1.09.89,1.64,1.33a40.13,40.13,0,0,0,46.12,3.49,3.17,3.17,0,0,0,1-.82c2.43-3.45,4.83-6.91,7.24-10.37a1.76,1.76,0,0,0,.16-.4c-6.86-2.93-10.14-7.1-10-13.12.13-5.71,2.84-10,8.14-12.21,6.48-2.68,11.95-.75,16.38,4.55A1.68,1.68,0,0,0,436,253a11.78,11.78,0,0,1-.43-7.14c1.61-6.36,6.36-10.2,13-10.54.35,0,.85-.1,1-.34C451.82,231.8,454,228.64,456.21,225.48Zm-41.12,36.4a9.25,9.25,0,0,0,7.5,10.05,1.4,1.4,0,0,0,1.72-.69c2.58-3.76,5.16-7.52,7.83-11.21a1.72,1.72,0,0,0,0-2.28,9.31,9.31,0,0,0-17.05,4.13Zm31-21.93a8.73,8.73,0,0,0-6.53,9.36Z" transform="translate(-346.04 -193.06)"/><path class="cls-2" d="M454.79,264.25l2.17-3.39c6.2,2.14,10.42,1.13,13-3.05s1.66-8.44-2.84-12.84l2.15-3.41c4.19,2.75,6.44,6.55,6.41,11.45a12.79,12.79,0,0,1-7.71,12.15C463.49,267.29,459.11,266.88,454.79,264.25Z" transform="translate(-346.04 -193.06)"/><path class="cls-2" d="M449.93,270.6l2.25-3.18c4.49,2.63,8.33,11,3.33,18.71-4.46,6.87-13,7-18.54,3.17l2.12-3.4a10.64,10.64,0,0,0,8.64,1.37,7.79,7.79,0,0,0,4.24-3.33C454.12,280.74,455.08,275.3,449.93,270.6Z" transform="translate(-346.04 -193.06)"/><path class="cls-2" d="M417.9,314.46l2.44-3.35A9.37,9.37,0,0,0,429,312.3a8.75,8.75,0,0,0,4.54-3.54c2.71-4.16,2-8.25-2.15-12.81l2.36-3.27a13,13,0,0,1,5.43,11.5,12.77,12.77,0,0,1-7.68,11.46C426.81,317.83,422.29,317.31,417.9,314.46Z" transform="translate(-346.04 -193.06)"/><path class="cls-2" d="M384.54,275.32a13.46,13.46,0,1,1,11.93,14.77A13.49,13.49,0,0,1,384.54,275.32Zm4.15.41a9.28,9.28,0,1,0,10.23-8.25A9.28,9.28,0,0,0,388.69,275.73Z" transform="translate(-346.04 -193.06)"/></svg>