<svg id="Calque_1" data-name="Calque 1" xmlns="http://www.w3.org/2000/svg" viewBox="0 0 149.81 208.89"><defs><style>.cls-1,.cls-3{fill:#74ad38;}.cls-2{fill:#fff;}.cls-3{font-size:19.91px;font-family:IBMPlexMono-Medium, IBM Plex Mono;font-weight:500;}.cls-4{fill:none;stroke:#fff;stroke-miterlimit:10;stroke-width:3px;}</style></defs><rect class="cls-1" width="149.81" height="149.81" rx="13.62"/><rect class="cls-2" y="160.31" width="149.81" height="48.59" rx="7.76"/><path class="cls-2" d="M358.1,227V214.17a9.08,9.08,0,0,1,9.08-9.08h12.68v-3.43H366.78a12.11,12.11,0,0,0-12.11,12.11V227Z" transform="translate(-346.04 -193.06)"/><path class="cls-2" d="M380,330.85H367.18a9.08,9.08,0,0,1-9.08-9.08V309.1h-3.43v13.07a12.11,12.11,0,0,0,12.11,12.11H380Z" transform="translate(-346.04 -193.06)"/><path class="cls-2" d="M461.89,205.09h12.82a9.08,9.08,0,0,1,9.08,9.08v12.67h3.43V213.77a12.11,12.11,0,0,0-12.11-12.11H461.89Z" transform="translate(-346.04 -193.06)"/><path class="cls-2" d="M483.79,309v12.82a9.08,9.08,0,0,1-9.08,9.08H462v3.43h13.08a12.11,12.11,0,0,0,12.11-12.11V309Z" transform="translate(-346.04 -193.06)"/><text class="cls-3" transform="translate(51.01 179.91)">lait<tspan x="-35.85" y="18.69">et dérivés</tspan></text><path class="cls-4" d="M381.79,313.69c-1-7.47,24.88-63.56,27.21-68.51S438.58,214,438.58,214a38.31,38.31,0,0,0,13.54,5.29c1.72,17.86-.14,37.42-.45,41.33s-24.85,66.6-27.83,70S382.75,321.15,381.79,313.69Z" transform="translate(-346.04 -193.06)"/><path class="cls-4" d="M438.75,214a43.32,43.32,0,0,0,13.54,5.29c4.81,1.17,6.46-7.38,6-8s-9.18-8.59-17.8-7.19C438.48,204.42,435.75,212.09,438.75,214Z" transform="translate(-346.04 -193.06)"/><path class="cls-4" d="M402.54,259.17c22.89,8.93,48.28,4.19,48.28,4.19" transform="translate(-346.04 -193.06)"/></svg>