<svg id="Calque_1" data-name="Calque 1" xmlns="http://www.w3.org/2000/svg" viewBox="0 0 149.81 190.35"><defs><style>.cls-1,.cls-3{fill:#74ad38;}.cls-2{fill:#fff;}.cls-3{font-size:19.91px;font-family:IBMPlexMono-Medium, IBM Plex Mono;font-weight:500;}.cls-4,.cls-5{fill:none;stroke:#fff;stroke-miterlimit:10;stroke-width:3px;}.cls-5{fill-rule:evenodd;}</style></defs><rect class="cls-1" width="149.81" height="149.81" rx="13.62"/><rect class="cls-2" y="160.31" width="149.81" height="30.05" rx="6.1"/><path class="cls-2" d="M358.1,227V214.17a9.08,9.08,0,0,1,9.08-9.08h12.68v-3.43H366.78a12.11,12.11,0,0,0-12.11,12.11V227Z" transform="translate(-346.04 -193.06)"/><path class="cls-2" d="M380,330.85H367.18a9.08,9.08,0,0,1-9.08-9.08V309.1h-3.43v13.07a12.11,12.11,0,0,0,12.11,12.11H380Z" transform="translate(-346.04 -193.06)"/><path class="cls-2" d="M461.89,205.09h12.82a9.08,9.08,0,0,1,9.08,9.08v12.67h3.43V213.77a12.11,12.11,0,0,0-12.11-12.11H461.89Z" transform="translate(-346.04 -193.06)"/><path class="cls-2" d="M483.79,309v12.82a9.08,9.08,0,0,1-9.08,9.08H462v3.43h13.08a12.11,12.11,0,0,0,12.11-12.11V309Z" transform="translate(-346.04 -193.06)"/><text class="cls-3" transform="translate(39.06 179.91)">citral</text><circle class="cls-4" cx="33.59" cy="113.68" r="12.84"/><circle class="cls-4" cx="86.33" cy="117.87" r="12.84"/><circle class="cls-4" cx="40.57" cy="64.01" r="12.84"/><line class="cls-4" x1="36.66" y1="101.12" x2="39.93" y2="76.4"/><line class="cls-4" x1="31.64" y1="101.12" x2="34.91" y2="76.4"/><line class="cls-4" x1="49.22" y1="73.49" x2="77.96" y2="108.66"/><line class="cls-4" x1="52.84" y1="69.87" x2="81.59" y2="105.03"/><line class="cls-4" x1="47.82" y1="115.07" x2="73.5" y2="117.87"/><line class="cls-4" x1="45.31" y1="120.1" x2="74.65" y2="123.38"/><path class="cls-5" d="M459.68,226.74a57.73,57.73,0,0,0-16.76,25.59,31.51,31.51,0,0,0-5.43-4.47c-.8-.51-1.64-1-2.49-1.47,4.07-12.74,15.62-25.25,34.82-33.52.62,13,6.22,23.44,3.22,36.63a44.78,44.78,0,0,1-23.83,30.24A26,26,0,0,0,450.34,266a25.16,25.16,0,0,0-3.57-8.84,58.94,58.94,0,0,1,12.91-30.4Z" transform="translate(-346.04 -193.06)"/><path class="cls-5" d="M418.45,251.29c13.13,4.25,24.11,16.42,25.19,28.42,6.28-16.81-7.76-34.3-35.38-34.53,3.11,8.49,2.32,16.64,7.81,24.34a31,31,0,0,0,23.55,12.86c-.79-12.18-9.23-24.91-21.17-31.09Z" transform="translate(-346.04 -193.06)"/></svg>