<svg id="Calque_1" data-name="Calque 1" xmlns="http://www.w3.org/2000/svg" viewBox="0 0 150.05 209.14"><defs><style>.cls-1,.cls-3{fill:#74ad38;}.cls-2,.cls-4{fill:#fff;}.cls-3{font-size:19.95px;font-family:IBMPlexMono-Medium, IBM Plex Mono;font-weight:500;}.cls-4{stroke:#fff;stroke-miterlimit:10;stroke-width:2px;}</style></defs><rect class="cls-1" width="150.05" height="150.05" rx="13.64"/><rect class="cls-2" y="160.56" width="150.05" height="48.59" rx="7.76"/><path class="cls-2" d="M358,227.05V214.2a9.09,9.09,0,0,1,9.1-9.09h12.69v-3.44H366.7a12.13,12.13,0,0,0-12.13,12.13v13.25Z" transform="translate(-345.92 -193.06)"/><path class="cls-2" d="M379.94,331.07H367.1A9.09,9.09,0,0,1,358,322V309.28h-3.43v13.09A12.13,12.13,0,0,0,366.7,334.5h13.24Z" transform="translate(-345.92 -193.06)"/><path class="cls-2" d="M462,205.11h12.84a9.09,9.09,0,0,1,9.1,9.09v12.7h3.43V213.8a12.13,12.13,0,0,0-12.13-12.13H462Z" transform="translate(-345.92 -193.06)"/><path class="cls-2" d="M483.89,309.13V322a9.09,9.09,0,0,1-9.1,9.1H462.1v3.43h13.09a12.13,12.13,0,0,0,12.13-12.13V309.13Z" transform="translate(-345.92 -193.06)"/><text class="cls-3" transform="translate(51.09 180.19)">porc<tspan x="-35.9" y="18.72">et dérivés</tspan></text><path class="cls-4" d="M428.85,286.65v0Z" transform="translate(-345.92 -193.06)"/><path class="cls-4" d="M429.59,295.46l.1.26h0c.8,2,1.68,3.92,2.38,5.37l-2.39,4.61c-1.58,2.74-.37,5.59.35,6.85l-3.6-.17.38-1.18.53-1.68h-1.8a16.1,16.1,0,0,1,1.17-4.07c.67-1.7,1.36-3.12,1.36-3.13l.13-.27v-6.5l1.38-.09m.86-1.36-3.53.25v7.41s-2.84,5.83-2.66,8.26a1.26,1.26,0,0,0,1.33.79l-.66,2.07.3.73,6.26.3s1.1-.18,0-1.46c0,0-2.37-3.22-.66-6.14l2.69-5.2c-.81-1.66-2-4.16-2.94-6.68h0l0,0c0-.1-.07-.2-.11-.3Z" transform="translate(-345.92 -193.06)"/><path class="cls-4" d="M416.14,294.44l-1.63,0h.28Z" transform="translate(-345.92 -193.06)"/><path class="cls-4" d="M414.79,294.46h0Z" transform="translate(-345.92 -193.06)"/><path class="cls-4" d="M383.27,295.52c0,.13-.27.8-.45,1.36l.16-.25c.08-.18.15-.3.17-.27l-.11-.16C383.12,296,383.19,295.74,383.27,295.52Z" transform="translate(-345.92 -193.06)"/><path class="cls-4" d="M388,291.67c.79,0,2,0,3.24.13a5.38,5.38,0,0,0-1.12,1.49,2.52,2.52,0,0,0-.16,2,73.24,73.24,0,0,0,5.57,14.08,20.68,20.68,0,0,0,1.91,2.92h-4.91v-3.49l-1.25,0a2.1,2.1,0,0,1-1.54-.53,1.88,1.88,0,0,1-.12-1.34l.07-.23,0-.25c-.22-2.63-3.43-7.76-5-10.1,1.08-1.67,2.06-3.24,2.94-4.68H388m0-1.29-1.11,0c-1.27,2.13-2.64,4.26-3.75,6,.74,1.08,5,7.48,5.24,10.2,0,0-1,3.4,2.86,3.52v3l.55.55H399s.79-.18,0-1.52c0,0-3.54-3.1-7.79-17.2,0,0-.82-1.48,3.39-3.92a33.25,33.25,0,0,0-6.56-.59Z" transform="translate(-345.92 -193.06)"/><path class="cls-4" d="M399.39,247.28h.3c26.62.12,37.4,5.78,61.36,21.91a42.86,42.86,0,0,1,5.32-.33,22.65,22.65,0,0,1,7.08.94,21.35,21.35,0,0,0,3,.23c1.37,0,2.73-.18,3.22-.77l.05-.05h.17a.77.77,0,0,1,.62.29c.28.36.21,1-.19,1.88-.58,1.3-1.69,1.89-3,2.57a15.71,15.71,0,0,0-2.89,1.82,15,15,0,0,1-7.54,3c-.56-.23-1.28-1.1-1.65-1.17h0s.13-.12-.08-.18c-1.73-.56-2.9-1.24-3.47-3.43l-1.07.08a5.83,5.83,0,0,0,.81,2,5.32,5.32,0,0,0,1,1.25,7.26,7.26,0,0,0,2.85,1.74l1.14.31s.29,0,.57-.05c1.35.91,6,3.86,9.34,3.86l.45,0a1.77,1.77,0,0,1,1.32-.93c.83,0,1.66,1,1.88,2.21,0,0,.66,3.84-2.25,5.48l-7.16,3.74a12.84,12.84,0,0,1-7.17,2.37,10.27,10.27,0,0,1-2.63-.34c.07-.1-.39-.09-.51.06a20.62,20.62,0,0,1-5.6.92,7.92,7.92,0,0,1-3.37-.63c-.86,0-8.16-.46-8.21-.27s-.11.38-.16.57-.1.36-.14.53-.08.34-.11.49c-.13.6-.19,1-.19,1h0a37.85,37.85,0,0,0-.8,11.5l4.08,3.9a1,1,0,0,1,.4.71.62.62,0,0,1-.37.5l0,0h-8.32l-.91-2.09a1.16,1.16,0,0,1-.69-.36,1,1,0,0,1-.22-.73c0-.06.64-5.87-1.13-8.76l-.47-.93c-.1-.46-.32-1.46-.31-1.46h0l-.09-.19-.12-.25,0-.07-.21-.44,0-.07c-.08-.16-.16-.33-.23-.5l-.06-.11c-.08-.17-.15-.34-.23-.52a.37.37,0,0,1-.05-.11c-.08-.16-.15-.33-.23-.5l0-.08-.24-.56-.06-.13-.24-.56-.06-.14-.24-.56,0-.06c-.08-.19-.16-.39-.25-.59l-.05-.14-.24-.59a1.21,1.21,0,0,0-.05-.14v0l-.49-.26h0l-3.53.25c-3.37.21-8.54.48-13.18.48-7.66,0-16.44-2.84-16.53-2.87l0,0a8.4,8.4,0,0,0-2.6-1,26.89,26.89,0,0,0-5.84-.59c-.55,0-.22,0-.39,0,.07-.12.14-.25.22-.37.29-.49.57-1,.84-1.45a38.13,38.13,0,0,0,2.67-5.36c2.28-6.37,4.74-18-4.38-24.53L386,259c8.93,6.36,6.49,17.83,4.25,24.1a40.66,40.66,0,0,1-3,5.86l-.64,1.09,0,0c-1.13,1.91-2.35,3.83-3.39,5.44,0,.13-.27.8-.45,1.36-1,1.55-1.79,2.66-2,2.92l.84,9.42,3.58,4.15a1.14,1.14,0,0,1-.09,1.15,1.75,1.75,0,0,1-1.36.49h-.19L376,314l.25-2c-.84-.52-.76-1-.71-1.17.16-1.93,0-5.38-1.86-10.86l0,0a5.08,5.08,0,0,0-.64-1.08c-.88-1.27-2.08-3-.61-5.28,1.64-2.55-.17-5.49-3.77-11.35l-1.16-1.89c-2.25-3.68-2.3-8.13-1.81-11.59a1.18,1.18,0,0,1-.25.25,1.44,1.44,0,0,1-.76.37c-.32,0-.29-.4-.29-.4a1.71,1.71,0,0,0,.24-2.26,2.74,2.74,0,0,1-.89-2c.12-1.13,1.62-1.52,1.62-1.52a2.49,2.49,0,0,1-.72-2.21c.2-.84,1.59-1,2.49-1h.39a2.59,2.59,0,0,1,.46-3.64,3,3,0,0,1,1.95-.85,2.55,2.55,0,0,1,1.93,1q.72-.71,1.59-1.41c4.37-3.57,12.4-7.8,25.93-7.8m-30.27,12.33a23.16,23.16,0,0,1,1.72-2.07,2.06,2.06,0,0,0-1.1-.4,1.16,1.16,0,0,0-.87.39c-.78.79,0,1.75.25,2.08m-2,3.33a12.78,12.78,0,0,1,.57-1.16,2.86,2.86,0,0,0-1-.26.5.5,0,0,0-.49.25c-.22.47.46.93.91,1.17M366,267.18c.23-1.14.49-2.11.71-2.83h-.23c-1.54,0-.74,2-.74,2a3.83,3.83,0,0,1,.26.84M463.84,282c.46,0,.83-.51.83-1.13s-.37-1.13-.83-1.13-.82.5-.82,1.13.37,1.13.82,1.13m-48.78,12.47h0m50.22-16.86,0,0h0M399.39,246c-13.92,0-22.23,4.4-26.74,8.09l-.8.68a3.46,3.46,0,0,0-1.91-.58,4.29,4.29,0,0,0-2.79,1.16,3.79,3.79,0,0,0-1.45,2.9,4.89,4.89,0,0,0,0,.54l-.46.11a2.42,2.42,0,0,0-1.87,1.74,3.41,3.41,0,0,0,.14,2,2.78,2.78,0,0,0-1.07,1.87,3.85,3.85,0,0,0,1.15,3,1.38,1.38,0,0,1,.06.16c0,.08,0,.18-.16.36l-.37.34,0,.49a1.81,1.81,0,0,0,.43,1.3,1.58,1.58,0,0,0,.68.43,21.37,21.37,0,0,0,.08,4,15.62,15.62,0,0,0,2.11,6.4l1.06,1.73.1.17c3.55,5.76,4.94,8.17,3.78,10a4.94,4.94,0,0,0-.73,4,8.52,8.52,0,0,0,1.37,2.68,5.52,5.52,0,0,1,.48.75v0h0c1.73,5.17,1.95,8.41,1.81,10.24a2.11,2.11,0,0,0,.63,1.93l-.17,1.3-.16,1.27,1.27.17,7.61,1h.36a2.94,2.94,0,0,0,2.38-1,2.4,2.4,0,0,0,.29-2.37l-.08-.24-.16-.19L383,308.69l-.76-8.55c.36-.54,1-1.44,1.7-2.56l.1-.14.05-.16.4-1.2q1.51-2.34,2.77-4.4h.8a31.36,31.36,0,0,1,6.28.56,7.29,7.29,0,0,1,2.19.8l.07,0,.07,0,0,0,.08,0,.08,0c.09,0,2.33.75,5.53,1.47a52.6,52.6,0,0,0,11.39,1.45c4.63,0,9.77-.26,13.26-.48l3-.2.06.15h0l0,.12v0l.25.6,0,.05h0l.24.57h0l0,.07,0,0,.25.57,0,.06,0,.08.25.56,0,.09h0c.07.18.15.35.22.5h0l0,0,0,.07.24.51h0l.06.12.23.5h0l0,.07.21.44v0l0,.06.06.13.06.11v0a1.3,1.3,0,0,1,0,.13c0,.16.08.38.13.59s.09.44.12.6l0,.16.07.15.49,1,0,0,0,0a10.24,10.24,0,0,1,1,4.78,25.63,25.63,0,0,1-.09,3.17v.05a2.24,2.24,0,0,0,.54,1.67,2.34,2.34,0,0,0,.7.54l.69,1.58.34.77h9.49l.29-.16,0,0a1.91,1.91,0,0,0,1-1.53,2.16,2.16,0,0,0-.84-1.77L443,309.29a36.67,36.67,0,0,1,.81-10.62l0-.1s.06-.38.17-.92l0-.11c0-.11,0-.22.08-.33v-.06h0c1.95.11,5.67.18,7,.2a9.35,9.35,0,0,0,3.65.64,22.38,22.38,0,0,0,6-1,11.58,11.58,0,0,0,2.76.33,13.65,13.65,0,0,0,5.66-1.3,16.17,16.17,0,0,0,1.65-.89c.15-.1.37-.24.55-.38l7.07-3.69h0a5.83,5.83,0,0,0,2.85-4.25,8.1,8.1,0,0,0,0-2.58,4.81,4.81,0,0,0-1-2.18,2.87,2.87,0,0,0-2.15-1.09,2.66,2.66,0,0,0-2,1,16.27,16.27,0,0,1-6.39-2.37,18.58,18.58,0,0,0,2.13-.78,16.14,16.14,0,0,0,3.39-2,14.4,14.4,0,0,1,2.67-1.68,6.85,6.85,0,0,0,3.54-3.18,5,5,0,0,0,.46-1.54,2.3,2.3,0,0,0-.41-1.65,2,2,0,0,0-1.65-.8l-.29,0h-.07l-.49.07-.31.38,0,0a4.47,4.47,0,0,1-2.25.33,19.18,19.18,0,0,1-2.7-.2,23.71,23.71,0,0,0-7.39-1,46.62,46.62,0,0,0-5,.28c-5.12-3.44-10.53-7-15.63-10A93.55,93.55,0,0,0,431.83,251a70.61,70.61,0,0,0-14.49-3.82A119.93,119.93,0,0,0,399.69,246Z" transform="translate(-345.92 -193.06)"/><path class="cls-4" d="M370.84,257.54a23.16,23.16,0,0,0-1.72,2.07c-.29-.33-1-1.29-.25-2.08A1.46,1.46,0,0,1,370.84,257.54Z" transform="translate(-345.92 -193.06)"/><path class="cls-4" d="M463.84,279.72c.46,0,.83.5.83,1.13s-.37,1.13-.83,1.13-.82-.51-.82-1.13S463.39,279.72,463.84,279.72Z" transform="translate(-345.92 -193.06)"/><path class="cls-4" d="M415.06,294.45h0Z" transform="translate(-345.92 -193.06)"/><path class="cls-4" d="M366.24,261.77c.21-.43.95-.22,1.48,0a12.78,12.78,0,0,0-.57,1.16C366.7,262.7,366,262.24,366.24,261.77Z" transform="translate(-345.92 -193.06)"/><path class="cls-4" d="M366.67,264.35c-.22.72-.48,1.69-.71,2.83a3.83,3.83,0,0,0-.26-.84S364.82,264.15,366.67,264.35Z" transform="translate(-345.92 -193.06)"/><path class="cls-4" d="M415.06,294.45h0Z" transform="translate(-345.92 -193.06)"/><polygon class="cls-4" points="119.36 84.53 119.36 84.53 119.36 84.53 119.36 84.53"/><path class="cls-4" d="M465.27,278.69a8.47,8.47,0,0,0,1.28.35l.07,0,.39.27c.37-.06.71-.17.29-.41l-.37-.17A7.64,7.64,0,0,1,465.27,278.69Z" transform="translate(-345.92 -193.06)"/><path class="cls-4" d="M465.28,277.59Z" transform="translate(-345.92 -193.06)"/></svg>