<svg id="Calque_1" data-name="Calque 1" xmlns="http://www.w3.org/2000/svg" viewBox="0 0 149.81 208.89"><defs><style>.cls-1,.cls-3{fill:#74ad38;}.cls-2{fill:#fff;}.cls-3{font-size:19.91px;font-family:IBMPlexMono-Medium, IBM Plex Mono;font-weight:500;}.cls-4{fill:none;stroke:#fff;stroke-miterlimit:10;stroke-width:3px;}</style></defs><rect class="cls-1" width="149.81" height="149.81" rx="13.62"/><rect class="cls-2" y="160.31" width="149.81" height="48.59" rx="7.76"/><path class="cls-2" d="M358.1,227V214.17a9.08,9.08,0,0,1,9.08-9.08h12.68v-3.43H366.78a12.11,12.11,0,0,0-12.11,12.11V227Z" transform="translate(-346.04 -193.06)"/><path class="cls-2" d="M380,330.85H367.18a9.08,9.08,0,0,1-9.08-9.08V309.1h-3.43v13.07a12.11,12.11,0,0,0,12.11,12.11H380Z" transform="translate(-346.04 -193.06)"/><path class="cls-2" d="M461.89,205.09h12.82a9.08,9.08,0,0,1,9.08,9.08v12.67h3.43V213.77a12.11,12.11,0,0,0-12.11-12.11H461.89Z" transform="translate(-346.04 -193.06)"/><path class="cls-2" d="M483.79,309v12.82a9.08,9.08,0,0,1-9.08,9.08H462v3.43h13.08a12.11,12.11,0,0,0,12.11-12.11V309Z" transform="translate(-346.04 -193.06)"/><text class="cls-3" transform="translate(45.04 179.91)">lupin<tspan x="-29.87" y="18.69">et dérivés</tspan></text><path class="cls-4" d="M437.66,228.39c-4.66-3.28-7.25-8.53-5.87-14.24A6.38,6.38,0,0,1,433,211.9a3.7,3.7,0,0,1,5.2-.45,8,8,0,0,1,2.7,4.1,31.51,31.51,0,0,1,.71,10.82,2.7,2.7,0,0,1-.22.77A2.38,2.38,0,0,1,437.66,228.39Z" transform="translate(-346.04 -193.06)"/><path class="cls-4" d="M410.39,269.73c1.19.79,2.44,1.51,3.57,2.39a13.53,13.53,0,0,1,2,2.11,1.26,1.26,0,0,1-.47,2,3.32,3.32,0,0,1-1.15.34c-4.43.44-8.68-.07-12.55-2.46a8.34,8.34,0,0,1-1.49-1.15,2.74,2.74,0,0,1,.69-4.59,5.91,5.91,0,0,1,2.31-.57A13.64,13.64,0,0,1,410.39,269.73Z" transform="translate(-346.04 -193.06)"/><path class="cls-4" d="M406.34,267.05a14.38,14.38,0,0,1-6.19-6.44,8.74,8.74,0,0,1-.66-2.31,3,3,0,0,1,1.4-3.24,3.32,3.32,0,0,1,3.68.29,10.34,10.34,0,0,1,3.47,3.7c1.22,2.24,2.36,4.53,3.53,6.8.08.16.12.34.19.51a1.6,1.6,0,0,1-.37,1.85,1.57,1.57,0,0,1-1.77.23C408.49,268,407.39,267.5,406.34,267.05Z" transform="translate(-346.04 -193.06)"/><path class="cls-4" d="M443.17,248.86c-.29-.16-.5-.26-.69-.38a1.34,1.34,0,0,1-.56-2,5.19,5.19,0,0,1,.65-1,15.71,15.71,0,0,1,12.92-6,6.39,6.39,0,0,1,3.31,1,2.82,2.82,0,0,1,1.1,4,7.17,7.17,0,0,1-4.52,3.36,42.35,42.35,0,0,1-5.5,1.18c-1.36.23-2.76.24-4.14.42A3.31,3.31,0,0,1,443.17,248.86Z" transform="translate(-346.04 -193.06)"/><path class="cls-4" d="M413.38,244.62a6.29,6.29,0,0,1,2.91,3.33,24.24,24.24,0,0,1,1.75,8c.07.85,0,1.7.09,2.55a3.68,3.68,0,0,1-1.23,2.74c-.56.6-1.32.62-2.22.06a14,14,0,0,1-5.41-5.65,14.36,14.36,0,0,1-1.38-6.64,6,6,0,0,1,.8-2.95A3.19,3.19,0,0,1,413.38,244.62Z" transform="translate(-346.04 -193.06)"/><path class="cls-4" d="M426.7,255.25a15.06,15.06,0,0,1-3.95,5,6.7,6.7,0,0,1-1.6,1A1.49,1.49,0,0,1,419,260a17.83,17.83,0,0,1,3.34-13.59,6.76,6.76,0,0,1,1.88-1.69,2.49,2.49,0,0,1,3.54.78,5.64,5.64,0,0,1,.82,2.09,10.37,10.37,0,0,1-1.05,6.14C427.29,254.24,427,254.74,426.7,255.25Z" transform="translate(-346.04 -193.06)"/><path class="cls-4" d="M449.72,224.18c1.45-1.18,2.85-2.43,4.36-3.52a38.61,38.61,0,0,1,4.35-2.66,6.15,6.15,0,0,1,3.77-.72,3.17,3.17,0,0,1,2.77,4,7.43,7.43,0,0,1-2.36,3.82,16,16,0,0,1-7.31,3.81,21.82,21.82,0,0,1-3.31.57c-2.32.22-3.31-.53-3.81-2.75-.08,0-.19-.05-.24,0-1.49,1-2.32.75-3.06-.82a20.35,20.35,0,0,1-2.24-9.05,12.54,12.54,0,0,1,1.59-6.31,4.05,4.05,0,0,1,.21-.35c1.12-1.62,2.59-2.69,4.64-2.32s3,1.8,3.46,3.68a9.68,9.68,0,0,1,0,4,23.44,23.44,0,0,1-2.48,7.49c-.19.34-.35.71-.52,1.07Z" transform="translate(-346.04 -193.06)"/><path class="cls-4" d="M424.09,234.64c.44-2.11.76-4.1,1.29-6a7.42,7.42,0,0,1,2.7-4.23,3.88,3.88,0,0,1,4.16-.59,3.46,3.46,0,0,1,2.14,3.16,8.27,8.27,0,0,1-.15,2.28,25.42,25.42,0,0,1-3.13,8.25,26.65,26.65,0,0,1-2.23,2.85,2.65,2.65,0,0,1-2.93.83,4.16,4.16,0,0,0-1.18-.09c-4.63,0-9.12-.66-13.21-3a6.17,6.17,0,0,1-1.81-1.56,3.26,3.26,0,0,1,1.46-5.2,8.49,8.49,0,0,1,2.75-.52c3.63-.12,6.67,1.48,9.57,3.45C423.7,234.33,423.86,234.47,424.09,234.64Z" transform="translate(-346.04 -193.06)"/><path class="cls-4" d="M396.22,286.58a8.59,8.59,0,0,1-3.84-3.93,3.91,3.91,0,0,1,1.74-5.42,11.52,11.52,0,0,1,9.13-.62,10.83,10.83,0,0,1,5.73,4.24c.77,1,1.51,2.11,2.25,3.19,1.15,1.7.64,3.2-1.39,3.65a21,21,0,0,1-11.55-.35C397.49,287.06,396.69,286.75,396.22,286.58Z" transform="translate(-346.04 -193.06)"/><path class="cls-4" d="M422.3,286.92a15.31,15.31,0,0,1-1-1.25,1.62,1.62,0,0,1,.36-2.37,7.47,7.47,0,0,1,4.69-1.75,19.88,19.88,0,0,1,7.41,1,8.61,8.61,0,0,1,4.5,3.43,5.2,5.2,0,0,1,0,6,4.87,4.87,0,0,1-5.75,2.06,22.11,22.11,0,0,1-7.89-4.74c-.84-.73-1.59-1.56-2.39-2.34Z" transform="translate(-346.04 -193.06)"/><path class="cls-4" d="M388.78,307.5c-2.56-1.45-3.08-4.1-1.63-6.19a11.54,11.54,0,0,1,5.24-3.85,18.86,18.86,0,0,1,7.44-1.59c.72,0,1.43-.21,2.14-.19a8.29,8.29,0,0,1,2.5.31,1.92,1.92,0,0,1,1,3,2.56,2.56,0,0,1-.39.54c-2.63,2.71-5.3,5.37-8.8,7a12,12,0,0,1-5,1.33A14.13,14.13,0,0,1,388.78,307.5Z" transform="translate(-346.04 -193.06)"/><path class="cls-4" d="M425.86,307.55a5.12,5.12,0,0,1-6.07,2.78,3.93,3.93,0,0,1-3-3.28,19.5,19.5,0,0,1,.55-10.22,5.83,5.83,0,0,1,.64-1.33,2.45,2.45,0,0,1,3.82-.63,13.74,13.74,0,0,1,4.77,8.64A6.55,6.55,0,0,1,425.86,307.55Z" transform="translate(-346.04 -193.06)"/><path class="cls-4" d="M442.69,269c-1.07,1.88-2.76,2.28-4.52,1a6.3,6.3,0,0,1-2.09-3.07,16.46,16.46,0,0,1-.75-6.5c.08-1.51.33-3,.55-4.53.14-.9.35-1.84,1.44-2a2.44,2.44,0,0,1,2.53,1.18,20.72,20.72,0,0,1,3.43,7.24,10.16,10.16,0,0,1,0,5.05C443.11,267.89,442.89,268.43,442.69,269Z" transform="translate(-346.04 -193.06)"/><path class="cls-4" d="M452.55,215.53a23.44,23.44,0,0,1-2.48,7.49c-.19.34-.35.71-.52,1.07l.17.09c1.45-1.18,2.85-2.43,4.36-3.52a38.61,38.61,0,0,1,4.35-2.66,6.15,6.15,0,0,1,3.77-.72h0a11.1,11.1,0,0,0,.9-1.79,4.35,4.35,0,0,0-.55-4.34,3.84,3.84,0,0,0-4-1.36,8.8,8.8,0,0,0-4.24,1.93,15.36,15.36,0,0,0-1.6,1.52A12.66,12.66,0,0,1,452.55,215.53Z" transform="translate(-346.04 -193.06)"/><path class="cls-4" d="M418.36,231.46a22.34,22.34,0,0,1,5.16,2.75c.18.12.34.26.57.43.44-2.11.76-4.1,1.29-6A11,11,0,0,1,426,227a29,29,0,0,0-.52-2.88,7.64,7.64,0,0,0-2.52-4,3.21,3.21,0,0,0-4.67.31,5.33,5.33,0,0,0-1.15,3.23A15.14,15.14,0,0,0,418.36,231.46Z" transform="translate(-346.04 -193.06)"/><path class="cls-4" d="M398.29,287.34c-.8-.28-1.6-.59-2.07-.76a10,10,0,0,1-2.44-1.86,6,6,0,0,0-1.09.87,3.48,3.48,0,0,0,.69,5.69,7.79,7.79,0,0,0,2.11.83,11.16,11.16,0,0,0,6.85-.58c1.64-.72,3.21-1.59,4.8-2.42A1.49,1.49,0,0,0,408,288,19.89,19.89,0,0,1,398.29,287.34Z" transform="translate(-346.04 -193.06)"/><path class="cls-4" d="M426.34,281.55a19.88,19.88,0,0,1,7.41,1,9.42,9.42,0,0,1,1.37.59,6.3,6.3,0,0,0,2.35-1.58,2.63,2.63,0,0,0-.73-4.36,5.48,5.48,0,0,0-3.52-.58,33.3,33.3,0,0,0-10.93,3.5,1.77,1.77,0,0,0-1.14,1.81,1.56,1.56,0,0,0,.71,1.23A7.64,7.64,0,0,1,426.34,281.55Z" transform="translate(-346.04 -193.06)"/><path class="cls-4" d="M388.78,307.5c-2.56-1.45-3.08-4.1-1.63-6.19a11.54,11.54,0,0,1,5.24-3.85,18.86,18.86,0,0,1,7.44-1.59c.72,0,1.43-.21,2.14-.19a8.29,8.29,0,0,1,2.5.31,1.92,1.92,0,0,1,1,3,2.56,2.56,0,0,1-.39.54c-2.63,2.71-5.3,5.37-8.8,7a12,12,0,0,1-5,1.33A14.13,14.13,0,0,1,388.78,307.5Z" transform="translate(-346.04 -193.06)"/><path class="cls-4" d="M416.47,301a3.17,3.17,0,0,0-1.06-.26,5,5,0,0,0-2.12.23,17.66,17.66,0,0,0-9,6.88,2,2,0,0,0-.38,2.34,2,2,0,0,0,2.34.87,24.77,24.77,0,0,0,8.42-3.41,14.93,14.93,0,0,0,2-1.74A19.73,19.73,0,0,1,416.47,301Z" transform="translate(-346.04 -193.06)"/><path class="cls-4" d="M435.88,255.89a.5.5,0,0,0,0-.12,1.93,1.93,0,0,0-.31.27,2,2,0,0,0-.26,2.28l.16.37C435.6,257.76,435.75,256.82,435.88,255.89Z" transform="translate(-346.04 -193.06)"/><path class="cls-4" d="M449.19,264.49a7.62,7.62,0,0,0-2.48-4.22l-.27-.21a18.61,18.61,0,0,1-4.06-.54,17.13,17.13,0,0,1,.9,2.76,10.16,10.16,0,0,1,0,5.05c0,.1-.06.2-.09.3a9.43,9.43,0,0,0,1.37.72,3.69,3.69,0,0,0,3.36-.17A3.36,3.36,0,0,0,449.19,264.49Z" transform="translate(-346.04 -193.06)"/><path class="cls-4" d="M434.88,301.66a10.21,10.21,0,0,0-3.88-2.32,23,23,0,0,0-6.3-1.07,13.42,13.42,0,0,1,1.88,5.24,6.82,6.82,0,0,1-.11,2.43,20.41,20.41,0,0,0,2.94.74,9.58,9.58,0,0,0,4.26-.15C436.15,305.79,436.73,303.47,434.88,301.66Z" transform="translate(-346.04 -193.06)"/><path class="cls-4" d="M425.12,281.69l.21,0Z" transform="translate(-346.04 -193.06)"/><path class="cls-4" d="M424,282h0Z" transform="translate(-346.04 -193.06)"/><path class="cls-4" d="M425.72,281.6l.62-.05Z" transform="translate(-346.04 -193.06)"/><path class="cls-4" d="M424.53,281.82l.09,0Z" transform="translate(-346.04 -193.06)"/><path class="cls-4" d="M409.35,297.1a31.08,31.08,0,0,1,5.44.56,15.21,15.21,0,0,0,2.24.26c.1-.37.2-.73.32-1.09a5.83,5.83,0,0,1,.64-1.33,2.86,2.86,0,0,1,.37-.46,1.5,1.5,0,0,0-.29-.06c-1.95-.23-3.91-.4-5.86-.67-.66-.09-1.45.13-2.08-.55l5.71-10.57,5.86.07.16-.13h0a1.56,1.56,0,0,1-.71-1.23,1.68,1.68,0,0,1,.86-1.65h-3.7l-1.12,0,.65-1.21c.92-1.69,1.84-3.39,2.77-5.08q3.64-6.71,7.29-13.42c.21-.39.34-.86.92-.94.79-.1,1.57-.3,2.36-.41,1.42-.2,2.85-.39,4.28-.57,0-.11-.09-.21-.13-.31a2,2,0,0,1,.26-2.28,1.93,1.93,0,0,1,.31-.27.5.5,0,0,1,0,.12c0-.14.05-.27.07-.41-1.58.27-3.17.51-4.76.75a9.73,9.73,0,0,1-1,0c.74-1.35,1.35-2.5,2-3.65a3.52,3.52,0,0,1,2.44-1.52c2.8-.76,5.6-1.54,8.39-2.32a4.68,4.68,0,0,1-.51-.28,1.34,1.34,0,0,1-.56-2,7.59,7.59,0,0,1,.39-.66l-6.16,1.84c-.29.08-.6.11-1,.19.32-.47.51-.75.68-1q2.31-4,4.61-8a1.19,1.19,0,0,1,.18-.29,2.26,2.26,0,0,1,.74-.65c2.25-.84,4.51-1.65,6.77-2.46,0,0,0,0,0,0a15.75,15.75,0,0,1-1.17-1.81,2.49,2.49,0,0,1,.31-1l-.34.12c-.61.19-1.22.34-2,.56a3.27,3.27,0,0,1,.21-.6c1.23-1.42,2.47-2.83,3.7-4.24a5.2,5.2,0,0,1-.61-1.63c-.08,0-.19-.05-.24,0-.93.6-1.59.74-2.15.39l-1.05,1.29-3.29,3.95a3.23,3.23,0,0,1-.46-.76,14.37,14.37,0,0,1-.17-1.47c-.08-.62-.15-1.24-.22-1.85a2.36,2.36,0,0,1-2.91.17c.16,1.75.32,3.51.57,5.26a5.54,5.54,0,0,1-.86,4.09c-.9,1.39-1.48,3-2.47,4.31a21.22,21.22,0,0,0-2.07,3.44,7.33,7.33,0,0,1-1.67,2.23,7.9,7.9,0,0,1-.35-.76c-.71-2.17-1.4-4.34-2.13-6.5a2.6,2.6,0,0,1-2.77.67l-.18,0,1.12,3.52a2.73,2.73,0,0,1,.88.85,5.64,5.64,0,0,1,.82,2.09,8.52,8.52,0,0,1,.07,2.36l.36,1a1.62,1.62,0,0,1-.08,1.42c-2.61,4.77-5.18,9.56-7.77,14.34-.15.26-.32.51-.59.93a4.63,4.63,0,0,1-.52-.81c-.79-2.21-1.55-4.44-2.34-6.66a5.58,5.58,0,0,1-.81,1.07,1.46,1.46,0,0,1-1.79.28c.83,2.47,1.66,4.93,2.51,7.39.27.75.65,1.45,1,2.18-2.38,4.56-4.73,9.05-7.06,13.55.68,1.42.12,2.63-1.58,3.06-1.54,3-3,6-4.6,8.94a2,2,0,0,1,.06,2.37,2.56,2.56,0,0,1-.39.54c-.83.86-1.68,1.71-2.55,2.53-6,11.5-11.52,22-14,26.44a12.34,12.34,0,0,0-.88,1.88.86.86,0,0,0,.69,1.17c1,.29,1.38.18,1.9-.68,1.85-3.06,3.79-6.08,5.5-9.22,4.3-7.93,3-6.1,4.67-9.16,1.8-3.41,3.64-6.8,5.43-10.22.72-1.36,1.34-2.77,2-4.16C408.29,297.08,408.28,297.07,409.35,297.1Z" transform="translate(-346.04 -193.06)"/><path class="cls-4" d="M466.3,228.83a10.59,10.59,0,0,0-5.64-1.48c-.46,0-.91,0-1.36.06a19,19,0,0,1-4,1.48,21.82,21.82,0,0,1-3.31.57l-.35,0a25.81,25.81,0,0,0-3.53,2.07,2.54,2.54,0,0,0-1.21,2,15.75,15.75,0,0,0,1.17,1.81,1.91,1.91,0,0,0,1.13.61c2.56.4,5.13.79,7.71,1.08a17.24,17.24,0,0,0,7.58-.7,7.28,7.28,0,0,0,2.43-1.36C469.12,233.05,468.8,230.35,466.3,228.83Z" transform="translate(-346.04 -193.06)"/><path class="cls-4" d="M452.45,252.32a8.8,8.8,0,0,0-4.54-1.47,18.66,18.66,0,0,0-10.26,2.64,4.9,4.9,0,0,0-.6.44,1.19,1.19,0,0,1,.27-.07,2.44,2.44,0,0,1,2.53,1.18,24.18,24.18,0,0,1,2.53,4.48,17,17,0,0,0,5.41.49,7.4,7.4,0,0,0,5.45-2.8A3.23,3.23,0,0,0,452.45,252.32Z" transform="translate(-346.04 -193.06)"/><path class="cls-4" d="M422,316.61a7.19,7.19,0,0,0-2.84-3A29,29,0,0,0,409.8,310c-1.17.39-2.37.72-3.57,1a2.26,2.26,0,0,1-1.62-.17,2.79,2.79,0,0,0,.09,1,4.65,4.65,0,0,0,.92,1.76,26.32,26.32,0,0,0,7.69,6.39c.48.26.94.55,1.43.77a6.81,6.81,0,0,0,5.46.46A3.34,3.34,0,0,0,422,316.61Z" transform="translate(-346.04 -193.06)"/></svg>