<svg id="Calque_1" data-name="Calque 1" xmlns="http://www.w3.org/2000/svg" viewBox="0 0 150.05 209.14"><defs><style>.cls-1,.cls-3{fill:#74ad38;}.cls-2{fill:#fff;}.cls-3{font-size:19.95px;font-family:IBMPlexMono-Medium, IBM Plex Mono;font-weight:500;}</style></defs><rect class="cls-1" width="150.05" height="150.05" rx="13.64"/><rect class="cls-2" y="160.56" width="150.05" height="48.59" rx="7.76"/><path class="cls-2" d="M358,227.05V214.2a9.09,9.09,0,0,1,9.1-9.09h12.69v-3.44H366.7a12.13,12.13,0,0,0-12.13,12.13v13.25Z" transform="translate(-345.92 -193.06)"/><path class="cls-2" d="M379.94,331.07H367.1A9.09,9.09,0,0,1,358,322V309.28h-3.43v13.09A12.13,12.13,0,0,0,366.7,334.5h13.24Z" transform="translate(-345.92 -193.06)"/><path class="cls-2" d="M462,205.11h12.84a9.09,9.09,0,0,1,9.1,9.09v12.7h3.43V213.8a12.13,12.13,0,0,0-12.13-12.13H462Z" transform="translate(-345.92 -193.06)"/><path class="cls-2" d="M483.89,309.13V322a9.09,9.09,0,0,1-9.1,9.1H462.1v3.43h13.09a12.13,12.13,0,0,0,12.13-12.13V309.13Z" transform="translate(-345.92 -193.06)"/><text class="cls-3" transform="translate(45.11 180.19)">cacao<tspan x="-29.92" y="18.72">et dérivés</tspan></text><path class="cls-2" d="M438,208a2.4,2.4,0,0,0-1.44-1.33c-1.29-.5-3.11-.42-4.46,2.76a15.76,15.76,0,0,0-.72,2.48,14.32,14.32,0,0,1-.43,1.66c-.68,2-1.77,2.63-3.73,2.14a6.9,6.9,0,0,0-5.51,1.06c-.35.2-.68.42-1,.64a10.7,10.7,0,0,1-3.39,1.67,56.4,56.4,0,0,0-11.17,4c-2.24,1-4.55,2-6.88,2.8a15.47,15.47,0,0,0-5.44,3.71,16.8,16.8,0,0,1-3.62,2.79,56.1,56.1,0,0,0-13.56,9.81c-6.66,6.47-12.06,14.5-16.52,24.55-2.54,5.73-4.89,12-4.88,18.9a14.8,14.8,0,0,0,.89,4.49,12.15,12.15,0,0,1,.78,4c-.1,3.24.12,7,2.54,10.47,1.63,2.33,3.41,3.12,5.07,3.12a7.21,7.21,0,0,0,3.57-1.1c7-4.14,14.21-8.09,21.21-11.9l5.85-3.2a109.18,109.18,0,0,0,13-8.45c2.94-2.14,5.92-4.53,7.87-7.5a142.91,142.91,0,0,0,8.12-14.85l.55-1.11A162.19,162.19,0,0,0,433,239.13c1.87-5.52,4.2-12.4,1.76-19.57a2.17,2.17,0,0,1,.09-1.8c.58-1.2,1.07-2.46,1.53-3.67.37-1,.75-1.94,1.17-2.87A4.17,4.17,0,0,0,438,208Zm-60.89,87.55c4.31-3.33,8.76-6.77,13.2-10.07a62.1,62.1,0,0,0,10.88-9.85,23.6,23.6,0,0,1,3.24-3l1.52-1.27a3.1,3.1,0,0,0,.89-4.25l-.9-1.79-1.19,1.61a37.74,37.74,0,0,1-6.14,6.11,57.73,57.73,0,0,0-4.42,4l-.54.59a8.51,8.51,0,0,1-1.28,1.27c-2.68,2-5.36,4.05-7.95,6.05-5.28,4.07-10.74,8.28-16.4,12a19.23,19.23,0,0,0-4.35,3.73,2.33,2.33,0,0,1-.73.66,2,2,0,0,1-.6-.83c-1.54-3.11-1.21-6.05-.23-9.51.34-1.21.67-2.43,1-3.65,1.56-5.82,3-11.31,6.05-16.39,1.27-2.12,2.43-4.33,3.55-6.47a88,88,0,0,1,5.54-9.56,63.33,63.33,0,0,1,9-9.74,58.07,58.07,0,0,1,15.32-10l2.11-1c3.71-1.71,7.54-3.49,11.23-5.47l.78-.41a51.18,51.18,0,0,0,6.22-3.73l.09-.07a5,5,0,0,1,.87-.57.42.42,0,0,1,.13.11l0,0a6,6,0,0,1-.43.45c-.17.17-.33.33-.47.49a150.25,150.25,0,0,1-11.63,11.71,31,31,0,0,0-7.7,11.62,25.71,25.71,0,0,1-6.44,9.54,3.94,3.94,0,0,1-.45.36,5.92,5.92,0,0,0-.94.84c-1.38,1.61-.88,2.75-.22,3.42a2,2,0,0,0,1.54.67,2.57,2.57,0,0,0,1.79-1.08l.1-.11c.53-.6,1.08-1.19,1.64-1.78,2.45-2.59,5-5.28,6-8.83,2-6.84,6.6-11.43,11.94-16.3,2.18-2,4.25-4.12,6.44-6.37-.15.45-.31.88-.46,1.32a34.35,34.35,0,0,0-1.35,4.33,40.83,40.83,0,0,1-5,13c-.63,1-1.22,2-1.79,3-1.6,2.82-3.11,5.48-5.47,7.52-1.44,1.23-1.76,2.43-1,3.55a1.94,1.94,0,0,0,1.55.88,2.64,2.64,0,0,0,2-1.23c4.16-5.41,8.88-11.54,11.38-18.82,1.15-3.37,2-6.87,2.93-10.45a12,12,0,0,1,1.16-2.7c.29-.55.6-1.12.86-1.73a2.56,2.56,0,0,1,.16-.31,3.85,3.85,0,0,1,.48.16,4.55,4.55,0,0,0,1.06.3l0,.14c0,.14-.05.28-.07.41a61.11,61.11,0,0,1-3.56,13c-.33.93-.65,1.86-1,2.79a117.74,117.74,0,0,1-6.4,14.3c-1.48,3-3,6-4.37,9.12-2.92,6.71-8.21,11.06-15.25,15.52-6.37,4-13.11,7.68-19.63,11.22-2.87,1.55-5.79,3.13-8.7,4.76Zm52.23-73.33a6.6,6.6,0,0,0,1.93-.3l.09,0,.09.36a4.47,4.47,0,0,1,.17,1.15l-.22-.11-.2-.09-1-.47-.89-.42ZM404.49,230c-3.1,1.54-6.3,3.13-9.4,4.82a64.67,64.67,0,0,0-20.93,18.68,59.06,59.06,0,0,0-5.19,9c-.54,1.07-1.08,2.14-1.63,3.19s-1.09,2-1.64,3c-2,3.61-4.08,7.34-5.08,11.59-.11.48-.21,1-.31,1.44a33.19,33.19,0,0,1-.9,3.53,18.69,18.69,0,0,1,.87-6.75c.11-.45.23-.91.34-1.36,1.86-7.81,5.9-14.81,9.21-20A65.33,65.33,0,0,1,383,242.19,136.41,136.41,0,0,1,400,230.36a66.06,66.06,0,0,1,17.2-7.12C413.09,225.7,408.73,227.87,404.49,230Z" transform="translate(-345.92 -193.06)"/><path class="cls-2" d="M489.76,280h0c-.71-2.17-2.63-2.52-4-2.77l-.17,0c-1.09-.2-2.19-.31-3.26-.41a15.92,15.92,0,0,1-6-1.33c-5.5-2.87-11.48-4.08-17.26-5.24l-.84-.17c-8.87-1.8-18.41-1.16-28.35,1.9l-.18,0c-1.85.57-3.75,1.16-5.6,1.93a23.79,23.79,0,0,0-4.72,2.87l-.19.13c-7.88,5.66-14.26,13.17-20,20.44-1.28,1.63-2.65,3.24-4,4.8a89.42,89.42,0,0,0-7,9c-1.08,1.66-2.57,3.93-.93,6.63a6.4,6.4,0,0,0,6.54,3.29l.43,0a47.35,47.35,0,0,1,6.82-.33c2.05.1,4.11.18,6.16.27,6.73.28,13.68.58,20.44,1.4a47.89,47.89,0,0,0,5.83.36,48.75,48.75,0,0,0,24.16-6.64c11.31-6.31,18.42-13,23-21.72l.49-.93c1.75-3.34,3.57-6.79,6.45-9.28.16-.14.34-.26.52-.39C488.93,283.25,490.46,282.17,489.76,280Zm-56.34,38.82-2-.11c-5.43-.24-10.86-.52-16.29-.8-5-.26-10.09-.52-15.13-.75-.49,0-1,0-1.48,0-.94,0-1.88,0-2.8.06s-1.69.07-2.54.07h0a2.62,2.62,0,0,1-2.31-1,2.56,2.56,0,0,1,.07-2.51,13.45,13.45,0,0,1,1.92-2.82q4.2-5,8.43-10c2.08-2.45,4.14-4.91,6.21-7.37-.88,1.53-1.71,3.09-2.51,4.61a52.81,52.81,0,0,1-6.6,10.49,2.08,2.08,0,0,0-.66,1.84c.22.92,1.24,1.35,2.07,1.69a4.28,4.28,0,0,1,.43.19c8.36,3.83,17.83,5.8,29.79,6.21l2,0a53.2,53.2,0,0,0,21.36-4.38,46,46,0,0,1-11.48,4.32A30.53,30.53,0,0,1,433.42,318.85Zm-18.68-33.4c.34-.29.67-.58,1-.88a22.37,22.37,0,0,0,1.66-1.73,19,19,0,0,1,1.76-1.81c2.11-1.79,5.46-3.09,8.16-4.13l.37-.15a54.59,54.59,0,0,1,32.59-2.57l-.54,0c-2-.09-4-.3-5.92-.5-4.61-.48-9.37-1-14.06,0-7.44,1.48-14.86,4.95-23.35,10.92l-.57.4c-.81.56-1.62,1.13-2.42,1.74C413.84,286.26,414.28,285.86,414.74,285.45Zm62.08,3.07a.82.82,0,0,1-.52.52.46.46,0,0,1-.41-.05,1.51,1.51,0,0,1-.57-1c-.54-4.9-3-7.79-7.51-8.82a.34.34,0,0,1-.25-.17.94.94,0,0,1-.08-.48c4.38.77,6.4,4.15,8.53,7.71l.68,1.13A1.44,1.44,0,0,1,476.82,288.52ZM406,312.73l0,.08,0-.09Zm-4.67-3.28a1.7,1.7,0,0,1,.17-1.41,4.82,4.82,0,0,1,.54-.75,5.82,5.82,0,0,0,.61-.82l.9-1.5a13.14,13.14,0,0,0,.56,4.06,10.79,10.79,0,0,0,.83,2.15c.13.25.28.5.43.74l-.7-.29a15.1,15.1,0,0,1-2.43-1.25A2.39,2.39,0,0,1,401.3,309.45Zm5.54-9.74.16-.26,0,0a2.09,2.09,0,0,0,0,.25Zm4.58-4.17H411a9.65,9.65,0,0,0-1.2.06,4.18,4.18,0,0,0-.53.09l.64-1.16c.44-.78.82-1.43,1.25-2.05a1.63,1.63,0,0,1,.11-.17A12.5,12.5,0,0,0,411.42,295.54Zm4.5-5.73a8.33,8.33,0,0,0-2.56,0c.29-.28.6-.55.91-.8a17.79,17.79,0,0,1,1.59-1.19A5.92,5.92,0,0,0,415.92,289.81ZM465,279a.89.89,0,0,1-.28.57.58.58,0,0,1-.43,0,1.44,1.44,0,0,1-1.13-1.59.39.39,0,0,1,.15-.35.24.24,0,0,1,.15,0,.6.6,0,0,1,.23.06h0C464.73,278.06,465.08,278.43,465,279Zm-12.79,2.27a1.84,1.84,0,0,1-1.52,0c-2-.35-2.85-1.58-2.69-3.89a1.47,1.47,0,0,1,.44-1.06,1,1,0,0,1,.57-.16,2,2,0,0,1,.5.07c2.39.59,3.43,1.76,3.29,3.7A1.77,1.77,0,0,1,452.23,281.22Zm14.7,6.94a1.72,1.72,0,0,1-.9,1.07,5.92,5.92,0,0,1-1.95.36,4,4,0,0,1-2.13-.24,4.48,4.48,0,0,1-1.42-1.05,5.79,5.79,0,0,1-1.42-3.52,6.4,6.4,0,0,1,0-.76c.07-1.31.63-1.82,2-1.82h.26c1,0,3.33,2,4.68,3.92C466.9,287.31,467,288,466.93,288.16Zm-15.11,9.72a2.33,2.33,0,0,1-.07.25l0,.11s0,.06,0,.1l-.1-.07a3.26,3.26,0,0,0-.48-.3l.29-.05A3,3,0,0,1,451.82,297.88Zm-.45-2.92a3,3,0,0,1-3.14.78c-2.68-1.16-4.22-2.56-5-4.56h0c-.08-.2-.16-.4-.25-.59-.44-1-.68-1.65-.19-2.36a1,1,0,0,1,1-.52,5.28,5.28,0,0,1,.8.09,5,5,0,0,0,1,.09c2.82.16,4.26,2,5.78,4l.67.87C452.33,293.21,452.07,294.38,451.37,295ZM445,302.22c-.2-.13-.39-.27-.58-.42s-.63-.47-1-.68a2.54,2.54,0,0,1,1.4,0C445,301.2,445,301.65,445,302.22Zm-1.27-3.66a2.66,2.66,0,0,1-2.16,0,12.35,12.35,0,0,1-6.2-4.36c-.92-1.21-1.32-2.09-.67-3a3.1,3.1,0,0,1,2.37-.93l.57-.07c1.82.33,6.7,5.82,6.63,7A1.53,1.53,0,0,1,443.73,298.56Zm-6,2.44a2.79,2.79,0,0,1-3.13.41c-2-1.3-3.39-3.38-4.26-6.54-.05-.16-.1-.45,0-.58s.23-.21.86-.21a5.29,5.29,0,0,1,.8.07l1.41,1.33c1.53,1.44,3.27,3.08,4.95,4.81C438.34,300.34,438.23,300.6,437.69,301Zm-5.92,1.89a1.47,1.47,0,0,1,0,1.45,2.25,2.25,0,0,1-2.09.55,4.48,4.48,0,0,1-2.46-1.22h0a12.14,12.14,0,0,1-1.11-1.18,4.89,4.89,0,0,1-.52-.7c-.63-1.07-1.33-3.2-1-4.44a1.18,1.18,0,0,1,.54-.78,2.56,2.56,0,0,1,1.27-.36,2,2,0,0,1,1.65.81A30,30,0,0,1,431.77,302.89ZM426,306.18c0,.06-.09.2-.32.36l-.24.17c-1.47,1.07-2.53,1.68-3.76.51a12.94,12.94,0,0,0-1.38-1.09c-1.19-.84-2.22-1.57-2.22-3.2,0-.25,0-.51,0-.77-.06-1.43,0-2.2,1.16-2.54a6,6,0,0,1,1.59-.21,2,2,0,0,1,1.33.32c.16.16.18.39.21.79a3.61,3.61,0,0,0,.17,1,10.44,10.44,0,0,0,2.4,3.41l.34.33C425.5,305.51,426,306,426,306.18ZM413,305.24c.16-.71.41-.89,1.1-.89.23,0,.51,0,.85,0h.13a6.88,6.88,0,0,1,2.64,3.08c.28.51.58,1,.92,1.53a1.81,1.81,0,0,1-2.14.79,5.39,5.39,0,0,1-2.77-2.39A3.44,3.44,0,0,1,413,305.24Zm21.41-.61c.25-.51.65-.58,1.57-.6a4.29,4.29,0,0,0,1.7-.29.49.49,0,0,1,.25-.08,1.08,1.08,0,0,1,.19.55c.1.64.28,1.45.47,2.31.12.51.24,1,.34,1.55a19,19,0,0,0-2.67-2c-.29-.19-.57-.36-.82-.54l-.38-.24C434.32,304.87,434.36,304.78,434.44,304.63Zm23.23-12.53a2.15,2.15,0,0,1-2-.07,9.09,9.09,0,0,1-5.3-5.89h0c-.17-.58-.29-1.35.1-1.76a1.41,1.41,0,0,1,1-.34,4.23,4.23,0,0,1,.89.11c2.71.45,5.89,3.87,5.88,6.3A2,2,0,0,1,457.67,292.1Zm-12.95-7.84a1.79,1.79,0,0,1-1.35-.28c-1.87-1.06-3.09-2.82-3.82-5.56a1,1,0,0,1,0-.82,1.25,1.25,0,0,1,.92-.25h.08c.61,0,2,1,3.4,2.77a6.36,6.36,0,0,1,1.64,3.36A1.62,1.62,0,0,1,444.72,284.26Zm-4.15,3.17a17,17,0,0,0-1.32-4.25c.21.24.41.45.58.61a3.43,3.43,0,0,1,1.33,2.3A2.21,2.21,0,0,1,440.57,287.43Zm-6-9.72c.92-.44,1.84-.86,2.26-.61.2.12.56.56.65,2.16a5.48,5.48,0,0,0,.3,1.48A13.65,13.65,0,0,0,434.57,277.71Zm2.75,6.56c.66,1.14.72,1.78.65,2a2.21,2.21,0,0,1-1.21,1.44,2,2,0,0,1-1.65-.24,7.71,7.71,0,0,1-3.85-5.44,1.74,1.74,0,0,1,.18-1.48,1.89,1.89,0,0,1,1.39-.5C434.07,280.29,436.15,282.25,437.32,284.27Zm-7.07,4.89a1.57,1.57,0,0,1-.52,1.18c-.5.31-1.53,0-2.21-.29-1.33-.46-3.31-4.66-2.9-6.14h0a1,1,0,0,1,.38-.64.65.65,0,0,1,.29-.06,3.33,3.33,0,0,1,1,.21C428.33,284,430.5,287.07,430.25,289.16Zm-7.66,4.76-.57,0h-.29a1.89,1.89,0,0,1-1.37-.71,6.82,6.82,0,0,1-1.83-4.93c.18-1.31,1-1.45,1.61-1.42h0c.28,0,.89.34,1.69,1.26,1.35,1.58,2.42,3.9,2.29,5C424,294,423.65,294,422.59,293.92Zm-5,3.54a1.82,1.82,0,0,1-1.43.1c-2.07-.33-2.54-1.72-2.67-4.16a1.5,1.5,0,0,1,.31-1.14,1.09,1.09,0,0,1,.79-.25h.26a3.55,3.55,0,0,1,2.07,1.41,4.41,4.41,0,0,1,1.15,2.92A1.5,1.5,0,0,1,417.54,297.46Zm-5,3.38a1.17,1.17,0,0,1-.29.74.67.67,0,0,1-.55.06c-1.44-.25-1.84-1.27-2-2.94,0-.35,0-.54.1-.6s.29-.08.53,0C411.49,298.41,412.19,299.26,412.53,300.84Zm-6,2.14c.5.09,1.09.35,1.24,1.5a1.08,1.08,0,0,1-.35.7.71.71,0,0,1-.55.11c-.69-.1-.81-.5-.84-1.75a.74.74,0,0,1,.14-.53.3.3,0,0,1,.19-.05Zm3,4.1h0a4.46,4.46,0,0,1,2.22,1.66,5.68,5.68,0,0,1,1.53,2.71c-.56,1.31-1.25,1.78-2.34,1.66-1.65-.19-3.84-2.82-3.71-4.46C407.37,307.51,408,307.08,409.58,307.08Zm5.27,6.67a1.76,1.76,0,0,1,.73-1.23,1.88,1.88,0,0,1,1.53-.23c2.77.71,2.57,1.94,2.5,2.35a.56.56,0,0,1-.19.4c-.26.18-1,0-1.47-.08l-.36-.08-2.21-.43C414.86,314.35,414.79,314.25,414.85,313.75Zm6.39-3.75a.81.81,0,0,1,.16,0,2,2,0,0,1,.09.6,9.7,9.7,0,0,0,1.77,5v0h0a13.68,13.68,0,0,1-2.66-5C420.85,310.14,421,310,421.24,310Zm3.46.15L425,310a1.29,1.29,0,0,1,1.7.44l1.43,2,.09.14a3.74,3.74,0,0,1,.37,1.81c-.37.59-.92,1-2.21.45a4.48,4.48,0,0,1-2.63-4.05C423.74,310.54,423.86,310.42,424.7,310.15Zm3.49-2.76c.23-.3.49-.44,1.18-.26,1,.26,1.24.48,1.2,1.14a11.42,11.42,0,0,0,1.92,7.64c-.67.33-.93.27-1,.23-.23-.1-.35-.69-.45-1.17a8.12,8.12,0,0,0-.25-1c-.11-.49-.23-1-.36-1.46a5.25,5.25,0,0,0-1.31-2.63,11.46,11.46,0,0,1-.72-1C428,308.1,427.86,307.82,428.19,307.39Zm4.52.79c.09-.91.32-1.08.37-1.1a.22.22,0,0,1,.12,0,1.73,1.73,0,0,1,.78.28c2.34,1.34,4,2.68,4.81,4.87l.15.42c.44,1.17.56,1.75-.16,2.3a2.86,2.86,0,0,1-3.44.13C433.49,314,432.26,310.81,432.71,308.18Zm7.76-4.47a1.06,1.06,0,0,1,.66-.68l.27,0a2.37,2.37,0,0,1,1.29.5,12.89,12.89,0,0,1,5.14,8.23,1.4,1.4,0,0,1-.22,1.26,2.15,2.15,0,0,1-1.83.25h0c-1.21-.19-2.85-1.82-4.09-4.07S440,304.82,440.47,303.71Zm6.94-2.54A1.84,1.84,0,0,1,448,300c1.4.13,3.55,2.14,5.12,4.77,1.15,1.95,1.45,3.37,1.24,3.87a2.57,2.57,0,0,1-1.36,1.49,2.32,2.32,0,0,1-1.89-.35C449.35,308.79,447,303.3,447.41,301.17Zm14.37-7.91a2.27,2.27,0,0,1,.77-.15,1.33,1.33,0,0,1,.89.31,3.7,3.7,0,0,1,.92,1.76c.06.19.13.39.2.57a12.22,12.22,0,0,0,.63,1.52,10.9,10.9,0,0,0,1.69,2.19l.23.25a1.17,1.17,0,0,1-.1,1.58,1.36,1.36,0,0,1-1.94.18,11.82,11.82,0,0,1-4.47-5.65A1.94,1.94,0,0,1,461.78,293.26Zm4.65,1.31c-.06-.23-.13-.46-.2-.7a8,8,0,0,1-.33-1.28c-.07-.51,0-.69.88-1a1.75,1.75,0,0,1,.59-.13.49.49,0,0,1,.23,0,.63.63,0,0,1,.21.41,7.84,7.84,0,0,0,2.42,3.87l.3.31a1.33,1.33,0,0,1,0,2.13c-.25.25-.57.44-1.5-.14a6,6,0,0,1-1.93-1.7A6.7,6.7,0,0,1,466.43,294.57Zm5.78-6.63a1.16,1.16,0,0,1-.83.12c-1.29-.2-4.45-4.23-4.28-5.47.08-.59.32-1,1.26-.92a5.25,5.25,0,0,1,2.75,2,5.5,5.5,0,0,1,1.55,3.16A1.63,1.63,0,0,1,472.21,287.94Zm-13.92-7.53a.71.71,0,0,1-.64.07,2.8,2.8,0,0,1-2-2.69.58.58,0,0,1,.13-.49,1.12,1.12,0,0,1,.7-.17,1.94,1.94,0,0,1,.33,0c.8.14,1.84.55,1.81,2.49A.93.93,0,0,1,458.29,280.41Zm-4.24,18.31a2.11,2.11,0,0,1,.76-1.58,2.58,2.58,0,0,1,2.13-.09c1.95.52,5.31,5,5.28,7.06a2.2,2.2,0,0,1-.56,1.69,2.64,2.64,0,0,1-2.06.34C457.11,305.7,453.75,301.2,454.05,298.72Zm-10.44-22.9c.62-.18,1.39-.36,1.58-.21s.26,1.09.24,2A10.45,10.45,0,0,0,443.61,275.82Zm-14.87,5.67c-.1.06-.51.19-1.66-.47a3.15,3.15,0,0,1,2-1.07C429.13,281.16,428.84,281.43,428.74,281.49Zm28,28a2.23,2.23,0,0,1-.29-1.39.21.21,0,0,1,.11-.15.69.69,0,0,1,.34-.06,3.61,3.61,0,0,1,1,.18l1.35.41.21,0,.14,0C458.62,309.16,457.65,309.76,456.7,309.48Zm16.15-14.92c-1.63-.32-2.62-1.76-3-4.29a3.93,3.93,0,0,0,2.38,0c.59-.14,1.14-.27,1.41-.08s.38.44.49,1.33a4,4,0,0,1-.84,2.9A.55.55,0,0,1,472.85,294.56Zm3.32-.38c.91-1.53,1.86-3.1,2.85-4.6a3.24,3.24,0,0,0,.18-2.9l-.23-.41c-1.59-2.89-3.21-5.83-5.78-7.89A43.27,43.27,0,0,0,485,281.06a3.14,3.14,0,0,1,.7.09l-.11.07a3.89,3.89,0,0,0-.72.57,48.19,48.19,0,0,0-6.39,9c-.83,1.42-1.7,2.88-2.62,4.25l-.08.12c-.88,1.34-1.76,2.64-2.66,3.91C474.17,297.49,475.18,295.83,476.17,294.18Z" transform="translate(-345.92 -193.06)"/></svg>