<svg id="Calque_1" data-name="Calque 1" xmlns="http://www.w3.org/2000/svg" viewBox="0 0 149.81 208.89"><defs><style>.cls-1,.cls-3{fill:#74ad38;}.cls-2{fill:#fff;}.cls-3{font-size:19.91px;font-family:IBMPlexMono-Medium, IBM Plex Mono;font-weight:500;}</style></defs><rect class="cls-1" width="149.81" height="149.81" rx="13.62"/><rect class="cls-2" y="160.31" width="149.81" height="48.59" rx="7.76"/><path class="cls-2" d="M358.1,227V214.17a9.08,9.08,0,0,1,9.08-9.08h12.68v-3.43H366.78a12.11,12.11,0,0,0-12.11,12.11V227Z" transform="translate(-346.04 -193.06)"/><path class="cls-2" d="M380,330.85H367.18a9.08,9.08,0,0,1-9.08-9.08V309.1h-3.43v13.07a12.11,12.11,0,0,0,12.11,12.11H380Z" transform="translate(-346.04 -193.06)"/><path class="cls-2" d="M461.89,205.09h12.82a9.08,9.08,0,0,1,9.08,9.08v12.67h3.43V213.77a12.11,12.11,0,0,0-12.11-12.11H461.89Z" transform="translate(-346.04 -193.06)"/><path class="cls-2" d="M483.79,309v12.82a9.08,9.08,0,0,1-9.08,9.08H462v3.43h13.08a12.11,12.11,0,0,0,12.11-12.11V309Z" transform="translate(-346.04 -193.06)"/><text class="cls-3" transform="translate(33.09 179.91)">carotte<tspan x="-17.92" y="18.69">et dérivés</tspan></text><rect class="cls-2" x="409.74" y="252.87" width="4.67" height="10.53" rx="2.34" transform="translate(-419.99 79.91) rotate(-33.81)"/><rect class="cls-2" x="437.64" y="234.72" width="4.67" height="10.53" rx="2.34" transform="translate(-405.17 92.37) rotate(-33.81)"/><rect class="cls-2" x="449.3" y="246.49" width="4.67" height="10.53" rx="2.34" transform="translate(-409.74 100.85) rotate(-33.81)"/><rect class="cls-2" x="441.55" y="252.94" width="4.67" height="10.53" rx="2.34" transform="translate(-414.65 97.62) rotate(-33.81)"/><rect class="cls-2" x="426.27" y="258.52" width="4.67" height="13.12" rx="2.34" transform="translate(-421.06 90.28) rotate(-33.81)"/><rect class="cls-2" x="408.47" y="269.92" width="4.67" height="10.53" rx="2.34" transform="matrix(0.83, -0.56, 0.56, 0.83, -429.69, 82.09)"/><rect class="cls-2" x="392.88" y="266.46" width="4.67" height="10.53" rx="2.34" transform="translate(-430.4 72.83) rotate(-33.81)"/><rect class="cls-2" x="373.33" y="292.25" width="4.67" height="6.82" rx="1.93" transform="translate(-447.02 66) rotate(-33.81)"/><path class="cls-2" d="M481.47,233.07a4.49,4.49,0,0,0-3.37-.92l-4.29.55,4-2.6a4.57,4.57,0,1,0-5-7.68l-4.28,2.75,2.43-4a4.59,4.59,0,0,0-1.58-6.27h0a4.51,4.51,0,0,0-3.46-.5,4.56,4.56,0,0,0-2.82,2.09l-8.79,15c-7.34-6.68-16.74-7.15-24.1-.89l-61.38,52.18a27.58,27.58,0,0,0-2.33,2.26c-1.73,1.83-9.69,10.68-8.21,16a4.59,4.59,0,0,0,.64,1.36,5.07,5.07,0,0,0,1.07,1.1c2.38,1.74,6.64,1.54,10.71.73a51.46,51.46,0,0,0,10-3.1l72.5-35c8.75-4.22,12.19-13.18,9-22.75l17-2.19.31-.05a4.56,4.56,0,0,0,1.89-8.09Zm-7-8.13a1.57,1.57,0,0,1,1.7,2.64l-9.34,6-3.53.45,1.86-3.11ZM452,263.45l-54.24,26.14a.25.25,0,0,1,0-.07l-3.27-4.87a2.34,2.34,0,0,0-3.88,2.6l2.94,4.39-14,6.76c-4.19,2-12.82,4.14-16.48,3.19a3,3,0,0,1-1.5-.7,2.48,2.48,0,0,1-.3-1.71,13.59,13.59,0,0,1,2.05-5l1.56,2.34a2.1,2.1,0,0,0,2.89.57l.43-.29a2.09,2.09,0,0,0,.57-2.88l-2.26-3.37a2,2,0,0,0-.37-.4c.83-1,1.74-2.1,2.71-3.14a26.75,26.75,0,0,1,2.09-2l2.07-1.76,1.77,2.65a2.1,2.1,0,0,0,2.89.57l.43-.29a2.08,2.08,0,0,0,.57-2.88l-2.07-3.1L424,239.86a.48.48,0,0,0,.08.16l4.44,6.64a2.34,2.34,0,0,0,3.89-2.61L428,237.42a2.12,2.12,0,0,0-.48-.51l4.78-4.07a15.17,15.17,0,0,1,6.91-3.46c5.15-1,10.55,1,15,6.06.44.5.86,1,1.26,1.55l.43.6,1.61,2.53c.15.25.3.51.43.76s.27.52.39.77l.55,1.24C462.47,251.62,459.82,259.67,452,263.45Zm4.65-29.85L465.78,218a1.51,1.51,0,0,1,1-.71,1.56,1.56,0,0,1,1.19.17,1.58,1.58,0,0,1,.55,2.14L458.59,236Zm23.29,4a1.57,1.57,0,0,1-1,.6l-17.82,2.29c0-.05-.05-.1-.07-.16l-.5-1.1,1-2,.77-.1,16.24-2.09a1.56,1.56,0,0,1,1.16.32,1.56,1.56,0,0,1,.28,2.2Z" transform="translate(-346.04 -193.06)"/></svg>