<svg id="Calque_1" data-name="Calque 1" xmlns="http://www.w3.org/2000/svg" viewBox="0 0 149.81 208.89"><defs><style>.cls-1,.cls-3{fill:#74ad38;}.cls-2{fill:#fff;}.cls-3{font-size:19.91px;font-family:IBMPlexMono-Medium, IBM Plex Mono;font-weight:500;}</style></defs><rect class="cls-1" width="149.81" height="149.81" rx="13.62"/><rect class="cls-2" y="160.31" width="149.81" height="48.59" rx="7.76"/><path class="cls-2" d="M358.1,227V214.17a9.08,9.08,0,0,1,9.08-9.08h12.68v-3.43H366.78a12.11,12.11,0,0,0-12.11,12.11V227Z" transform="translate(-346.04 -193.06)"/><path class="cls-2" d="M380,330.85H367.18a9.08,9.08,0,0,1-9.08-9.08V309.1h-3.43v13.07a12.11,12.11,0,0,0,12.11,12.11H380Z" transform="translate(-346.04 -193.06)"/><path class="cls-2" d="M461.89,205.09h12.82a9.08,9.08,0,0,1,9.08,9.08v12.67h3.43V213.77a12.11,12.11,0,0,0-12.11-12.11H461.89Z" transform="translate(-346.04 -193.06)"/><path class="cls-2" d="M483.79,309v12.82a9.08,9.08,0,0,1-9.08,9.08H462v3.43h13.08a12.11,12.11,0,0,0,12.11-12.11V309Z" transform="translate(-346.04 -193.06)"/><text class="cls-3" transform="translate(39.06 179.91)">céleri<tspan x="-23.9" y="18.69">et dérivés</tspan></text><path class="cls-2" d="M478.94,294.65a13.77,13.77,0,0,1-2-5.31,13.06,13.06,0,0,0-5.15-7.83,94,94,0,0,0-11-6.1c-6-3.09-12.08-6.07-18.12-9.11-2.74-1.37-5.45-2.8-8.2-4.17-5.63-2.81-11.28-5.59-16.92-8.39-3.36-1.67-6.68-3.4-10.05-5-2.23-1.08-2.93-3-1.76-5.15.8-1.44,1.51-2.93,2.27-4.38a6.57,6.57,0,0,0-1.1-6.83c-2.13-2-4.25-3.95-6.48-5.79-1.26-1-2.93-2.46-4.44-1.26-1.74,1.38-2.87.78-4.31-.13-.81-.51-1.76-.81-2.61-1.27-2.7-1.47-4.95-.72-6,2.1a11.76,11.76,0,0,0-.91,3.44c-.12,2.88-3.23,3.88-3.81,6.42,0,.06-.32,0-.49.08-1.54.3-3.08.67-4.63.9a4.09,4.09,0,0,0-3.45,4.5c.34,2.07.77,4.12,1.2,6.38-1.88.92-3.65,1.83-5.46,2.66-1.21.57-2.36,1.32-2.17,2.74a19.27,19.27,0,0,0,1.41,5.16c.59,1.33,1.8,2.4.17,3.79a1.2,1.2,0,0,0-.14,1c.4,1.93-.87,3.14-1.86,4.46-.48.64-1.11,1.17-1.57,1.82-1.8,2.54-2.59,5,1.07,6.86a47.24,47.24,0,0,1,4.23,2.22,2.5,2.5,0,0,1,.94,1.65,4.3,4.3,0,0,0,3.09,3.72c2.72.56,5.44,1.14,8.17,1.67s5.21.19,6.88-2.2a23.18,23.18,0,0,0,2.24-4.55c1.19-2.92,2.21-3.5,5.06-2.26,2.6,1.14,5.09,2.51,7.63,3.77,5.89,2.95,11.79,5.88,17.68,8.84,2.89,1.45,5.75,3,8.65,4.42q8.75,4.4,17.52,8.74c4,2,7.85,4.19,12,5.82a13.1,13.1,0,0,0,10.89-.06c1.16-.56,2.42-1.52,3.54-1.4,4,.44,5.92-1.92,7.45-5C479.5,299.34,480.54,296.88,478.94,294.65Zm-81.85-66.23c2.74,2.6,5.23,4.9,7.62,7.31a1.9,1.9,0,0,1,.06,1.69c-.82,1.81-1.78,3.54-2.86,5.66-2-1-4-1.86-5.8-3a2.44,2.44,0,0,1-.84-2C395.74,235,396.4,232,397.09,228.42Zm-10.46-1.63,6.43,3.27c-.38,2-.73,3.83-1.11,5.84l-7.23-2.4C385.36,231.24,386,229.09,386.63,226.79Zm-4.17,9.81c2.82,1,6,1.26,8.14,3s4.38,3.48,5.55,6.07a18,18,0,0,1,.74,3.32c.24,1,.53,2,.8,3l-.38.43c-.78-.58-1.89-1-2.29-1.76a4.9,4.9,0,0,0-5-2.75c-1.92.08-3.84.21-5.78.32C383.61,244.26,383.05,240.51,382.46,236.6Zm7.5,15a2.4,2.4,0,0,1,1.83,1.05c1.13,2.25,2,4.61,3.11,7.05-2.79.61-5.5,1.21-8.21,1.77a1,1,0,0,1-.87-.29c-1.93-2.89-3.82-5.82-5.93-9.07C383.53,252,386.74,251.7,390,251.64Zm-15.56-5.5a28.6,28.6,0,0,0-.74-4.52c-.25-1,.31-1.2,1-1.39a7.86,7.86,0,0,1,.85,0c3.77-.64,3.77-.65,4.32,3,.13.84.13,1.7.29,2.53s.4,1.56.61,2.34l-.38.69c-1.54-.27-3.08-.58-4.63-.8C374.61,247.77,374.47,247.1,374.4,246.14Zm-1.78,5c.75-.24,2,.48,2.8,1.12a12.44,12.44,0,0,1,1.85,2.75l-8,4.15-2.48-5.28A45.46,45.46,0,0,1,372.62,251.11ZM367,274.35c-.55-.28-1.13-.48-1.7-.72l-1.94-.84,4.31-5.6,6.24,4.23c-.6.7-1.18,1.4-1.79,2.07s-1.42,2.1-2.29,2.26S368,274.84,367,274.35Zm15.7,6.7a2.41,2.41,0,0,1-1.94,1c-3.18-.54-6.32-1.27-9.55-2,2.12-2.42,4.19-4.81,6.29-7.16a2,2,0,0,1,2.65-.36c1.77.88,3.56,1.73,5.55,2.7C384.71,277.25,383.83,279.21,382.73,281.05ZM385,269c-1.24.54-2.51,1-3.83,0a2.2,2.2,0,0,0-1.76-.46c-1.91.81-3.34,0-4.8-1-1.82-1.32-3.69-2.58-5.66-4L379.29,258c1.21,1.75,2.43,3.31,3.41,5s2.5,2.24,4.38,2.28a24.77,24.77,0,0,1,3.48.58l0,.48C388.67,267.24,386.84,268.18,385,269Zm90.66,29.59c-.11.26-.22.52-.32.78-1.29,3.64-2.7,4.2-6.07,2.42q-2.34-1.23-4.7-2.43a1.78,1.78,0,0,0-2.66.61,1.66,1.66,0,0,0,.77,2.46c1.17.68,2.4,1.25,3.83,2a10.66,10.66,0,0,1-8.75.19,66,66,0,0,1-6.91-3.28c-5.78-2.94-11.53-5.93-17.31-8.87q-7.51-3.82-15.05-7.59l-18.57-9.34c-1.47-.74-2.93-1.5-4.44-2.17a10.22,10.22,0,0,0-6.12-1,8,8,0,0,1-2.2-.39c2.64-1.23,4.76-2.28,6.92-3.21,1.69-.72,2.93.65,4.2,1.27,6.95,3.42,13.81,7,20.72,10.51,4.86,2.47,9.76,4.89,14.63,7.35,6.46,3.25,12.9,6.53,19.36,9.78.75.38,1.55.7,2.31,1.07,1.07.52,2,.46,2.66-.64a1.68,1.68,0,0,0-.79-2.46c-1.79-1-3.61-2-5.44-2.88-3.06-1.52-6.14-3-9.2-4.5q-8.92-4.44-17.85-8.93c-2.75-1.38-5.47-2.8-8.22-4.18-6.05-3-12.11-6.06-18.15-9.11-1.31-.66-2.58-1.4-4.15-2.26,1.39-.37,2.53-.73,3.69-1,1.38-.29,1.83-1.09,1.4-2.36s-.91-2.3-1.53-3.84c2.28,1.11,4.31,2,6.27,3.07,1.18.64,2.24,1.08,3.05-.39s-.1-2.12-1.17-2.75a3.8,3.8,0,0,0-1.05-.59c-2.13-.43-3.09-1.8-3.43-3.86-.3-1.86-.79-3.69-1.2-5.53l.4-.2a18.15,18.15,0,0,0,2.58,3.1,47.69,47.69,0,0,0,6.3,4.26c3,1.65,6.11,3,9.15,4.52q9,4.47,18,9c2.79,1.4,5.56,2.85,8.35,4.26,6,3,12,6,18,9,2.33,1.18,4.84,2.21,6.78,3.87,1.76,1.5,2.85,3.78,4.23,5.71l-.48.41c-2.13-1-4.28-2-6.38-3.07-4.51-2.29-9-4.66-13.5-6.95-6.18-3.13-12.37-6.22-18.55-9.34-5.08-2.55-10.14-5.12-15.21-7.67-2-1-4.07-2-6.11-3-1-.47-2.17-.53-2.51.53a2.85,2.85,0,0,0,.78,2.56,35.55,35.55,0,0,0,5.08,2.77c2.95,1.45,5.93,2.84,8.86,4.3q9.22,4.6,18.42,9.25c4.46,2.26,8.87,4.61,13.34,6.86q8.22,4.13,16.48,8.13C475.87,295.78,476.38,296.82,475.62,298.6Z" transform="translate(-346.04 -193.06)"/></svg>