<svg id="Calque_1" data-name="Calque 1" xmlns="http://www.w3.org/2000/svg" viewBox="0 0 149.81 208.89"><defs><style>.cls-1,.cls-3{fill:#74ad38;}.cls-2{fill:#fff;}.cls-3{font-size:19.91px;font-family:IBMPlexMono-Medium, IBM Plex Mono;font-weight:500;}.cls-4,.cls-5,.cls-6{fill:none;stroke:#fff;stroke-linecap:round;stroke-linejoin:round;}.cls-4{stroke-width:2.88px;}.cls-5{stroke-width:2.88px;}.cls-6{stroke-width:2.97px;}</style></defs><rect class="cls-1" width="149.81" height="149.81" rx="13.62"/><rect class="cls-2" y="160.31" width="149.81" height="48.59" rx="7.76"/><path class="cls-2" d="M358.1,227V214.17a9.08,9.08,0,0,1,9.08-9.08h12.68v-3.43H366.78a12.11,12.11,0,0,0-12.11,12.11V227Z" transform="translate(-346.04 -193.06)"/><path class="cls-2" d="M380,330.85H367.18a9.08,9.08,0,0,1-9.08-9.08V309.1h-3.43v13.07a12.11,12.11,0,0,0,12.11,12.11H380Z" transform="translate(-346.04 -193.06)"/><path class="cls-2" d="M461.89,205.09h12.82a9.08,9.08,0,0,1,9.08,9.08v12.67h3.43V213.77a12.11,12.11,0,0,0-12.11-12.11H461.89Z" transform="translate(-346.04 -193.06)"/><path class="cls-2" d="M483.79,309v12.82a9.08,9.08,0,0,1-9.08,9.08H462v3.43h13.08a12.11,12.11,0,0,0,12.11-12.11V309Z" transform="translate(-346.04 -193.06)"/><text class="cls-3" transform="translate(45.04 179.91)">krill<tspan x="-29.87" y="18.69">et dérivés</tspan></text><path class="cls-4" d="M453,246.23a41.43,41.43,0,0,0-16.21-5.16" transform="translate(-346.04 -193.06)"/><path class="cls-4" d="M465.58,258.23a37.82,37.82,0,0,0-5.21-6.39" transform="translate(-346.04 -193.06)"/><path class="cls-4" d="M471.51,273.33a43,43,0,0,0-1.94-7.07" transform="translate(-346.04 -193.06)"/><path class="cls-5" d="M434.18,261.05a21,21,0,0,1,18.28,21.39c-.54,19.75-20.8,16.1-21.25,32.64L431,323c26.77.3,40.7-19.65,41.27-40" transform="translate(-346.04 -193.06)"/><path class="cls-4" d="M424.16,265.59c8.48-1.39,17.41-7,11.46-25.79l-39.41-1" transform="translate(-346.04 -193.06)"/><path class="cls-4" d="M414.05,265.69a39.33,39.33,0,0,0,5.54.29" transform="translate(-346.04 -193.06)"/><path class="cls-4" d="M404.83,263.33c1.73.6,2.48,1,4.13,1.39" transform="translate(-346.04 -193.06)"/><path class="cls-4" d="M394.53,258.86a51,51,0,0,0,4.83,2.49" transform="translate(-346.04 -193.06)"/><path class="cls-4" d="M388.35,238.58l-19.85-.51A82.11,82.11,0,0,0,389.14,256" transform="translate(-346.04 -193.06)"/><polygon class="cls-6" points="84.95 129.93 85.19 120.8 57.78 110.46 57.27 129.18 84.95 129.93"/><path class="cls-4" d="M368.7,236.8c6.57-29.76,30.2-29.49,34.17-24.51-9.18,2.11-23.78,1-31.69,24.73" transform="translate(-346.04 -193.06)"/><path class="cls-4" d="M423.68,260.62S415.39,273.4,410,279.31c-.24.26-1.11,1-.57,3.93s3.49,15.89,9.4,19.76a127.81,127.81,0,0,1-4.35-20.4s10.93-17.85,11.66-21.91Z" transform="translate(-346.04 -193.06)"/><path class="cls-4" d="M416,260.23s-9.4,6.69-15.77,11.51c-.36.28-1.34.63-1.66,3.61S397.41,291.58,402,297c0,0-.65-12,1.09-21.55,0,0,13.74-11.25,15.59-14.94Z" transform="translate(-346.04 -193.06)"/><path class="cls-4" d="M408.64,257.79s-11.75,5.25-18.18,8.15c-.36.16-1.27.27-2.13,2.78S384.17,282.44,387,288a105.58,105.58,0,0,1,5.32-17.85s16.23-8.74,18.54-11.56Z" transform="translate(-346.04 -193.06)"/><path class="cls-4" d="M399.54,253.39s-11,3.22-16.5,4.64c-.31.08-1.05,0-2.08,1.92s-3.07,10.86-1.55,15.65c0,0,1.62-8.92,5.39-14.76,0,0,19.88-3.41,17.65-5.33C402,255.13,399.79,253.61,399.54,253.39Z" transform="translate(-346.04 -193.06)"/><circle class="cls-4" cx="46.18" cy="45.56" r="3.17"/><polygon class="cls-4" points="107.77 51.73 103.31 64.53 115.45 57.75 107.77 51.73"/><polygon class="cls-4" points="124.84 72.67 120.24 64.06 111 73.97 124.84 72.67"/><polygon class="cls-4" points="127.84 90.1 127.2 80.37 114.69 85.58 127.84 90.1"/><polygon class="cls-4" points="57.41 123.98 57.6 118.47 64.75 121.19 57.41 123.98"/><path class="cls-4" d="M396.37,240.21c2.89,3.78,12.94,13.36,40.27,12.63" transform="translate(-346.04 -193.06)"/><line class="cls-4" x1="89.58" y1="46.73" x2="50.17" y2="45.66"/></svg>