<svg id="Calque_1" data-name="Calque 1" xmlns="http://www.w3.org/2000/svg" viewBox="0 0 149.81 208.89"><defs><style>.cls-1,.cls-3{fill:#74ad38;}.cls-2{fill:#fff;}.cls-3{font-size:19.91px;font-family:IBMPlexMono-Medium, IBM Plex Mono;font-weight:500;}.cls-4{fill:none;stroke:#fff;stroke-miterlimit:10;stroke-width:3px;}</style></defs><rect class="cls-1" width="149.81" height="149.81" rx="13.62"/><rect class="cls-2" y="160.31" width="149.81" height="48.59" rx="7.76"/><path class="cls-2" d="M358.1,227V214.17a9.08,9.08,0,0,1,9.08-9.08h12.68v-3.43H366.78a12.11,12.11,0,0,0-12.11,12.11V227Z" transform="translate(-346.04 -193.06)"/><path class="cls-2" d="M380,330.85H367.18a9.08,9.08,0,0,1-9.08-9.08V309.1h-3.43v13.07a12.11,12.11,0,0,0,12.11,12.11H380Z" transform="translate(-346.04 -193.06)"/><path class="cls-2" d="M461.89,205.09h12.82a9.08,9.08,0,0,1,9.08,9.08v12.67h3.43V213.77a12.11,12.11,0,0,0-12.11-12.11H461.89Z" transform="translate(-346.04 -193.06)"/><path class="cls-2" d="M483.79,309v12.82a9.08,9.08,0,0,1-9.08,9.08H462v3.43h13.08a12.11,12.11,0,0,0,12.11-12.11V309Z" transform="translate(-346.04 -193.06)"/><text class="cls-3" transform="translate(3.22 179.91)">noix de coco<tspan x="11.95" y="18.69">et dérivés</tspan></text><path class="cls-4" d="M481.9,284.52c-7.19,11.26-28.31,10.62-47.18-1.43s-28.34-30.93-21.16-42.19a14.76,14.76,0,0,1,1.91-2.38h0a34.34,34.34,0,0,0-5,5.47c-.53.71-1.09,1.48-1.66,2.31l0,.06c-.25.36-.5.72-.75,1.1-1,1.48-2,3.09-2.94,4.83-.3.55-.6,1.11-.89,1.69s-.52,1-.77,1.56l-.08.16v0l-.42.89-.39.91c-.14.31-.28.62-.39.93s-.26.62-.38.94c-.29.74-.56,1.49-.82,2.26-.16.47-.31,1-.45,1.42-.32,1.1-.62,2.23-.87,3.37l-.18.85c-.17.91-.32,1.83-.44,2.77a33.34,33.34,0,0,0,7.83,26.1,50.31,50.31,0,0,0,7.39,7.21,68.26,68.26,0,0,0,5.93,4.23c19,12.15,33.28,9.48,43.41,2.35a44.09,44.09,0,0,0,4.09-3.31c.54-.49,1.06-1,1.58-1.52.28-.27.55-.56.82-.84.89-.94,1.73-1.89,2.52-2.87,1-1.26,2-2.55,2.87-3.82.6-.86,1.16-1.72,1.69-2.57.22-.35.44-.7.64-1l.49-.8.82-1.43a47.92,47.92,0,0,0,4.21-9.94h0A15.11,15.11,0,0,1,481.9,284.52Z" transform="translate(-346.04 -193.06)"/><ellipse class="cls-4" cx="447.73" cy="262.71" rx="24.19" ry="40.53" transform="translate(-360.65 305.69) rotate(-57.45)"/><path class="cls-4" d="M473.39,276.78a8.2,8.2,0,0,1-1.68,1.89,10.93,10.93,0,0,1-4.32,2.12c-6.71,1.74-17-.69-26.79-6.92l-.9-.59c-.27-.17-.53-.35-.79-.53s-.71-.49-1.05-.74-.88-.65-1.3-1c-.85-.65-1.67-1.32-2.45-2l-.58-.52L433,268c-.25-.24-.5-.46-.73-.7s-.57-.55-.84-.82l-.09-.1-.47-.49c-.17-.18-.34-.35-.5-.53-.33-.36-.65-.71-1-1.08l-.45-.53-.44-.54c-.44-.55-.85-1.09-1.23-1.63l-.36-.51s0,0,0-.06c-.37-.52-.7-1-1-1.55l0-.06-.3-.52c-.14-.23-.26-.46-.38-.68s-.32-.62-.47-.93a19,19,0,0,1-1.62-4.78,9.74,9.74,0,0,1,1.11-7.13c4.52-7.07,19.2-5.77,32.79,2.91S477.9,269.71,473.39,276.78Z" transform="translate(-346.04 -193.06)"/><path class="cls-4" d="M471.71,278.67a10.93,10.93,0,0,1-4.32,2.12c-6.71,1.74-17-.69-26.79-6.92l-.9-.59c-.27-.17-.53-.35-.79-.53s-.71-.49-1.05-.74-.88-.65-1.3-1c-.85-.65-1.67-1.32-2.45-2l-.58-.52L433,268c-.25-.24-.5-.46-.73-.7s-.57-.55-.84-.82l-.09-.1-.47-.49c-.17-.18-.34-.35-.5-.53-.33-.36-.65-.71-1-1.08l-.45-.53-.44-.54c-.43-.55-.84-1.09-1.23-1.63l-.36-.51s0,0,0-.06c-.36-.52-.7-1-1-1.55l0-.06-.3-.52c-.14-.23-.26-.46-.38-.68s-.32-.62-.47-.93c6.91-3.4,19.8-1.26,31.9,5.88C463.35,267.15,471.18,273.31,471.71,278.67Z" transform="translate(-346.04 -193.06)"/><path class="cls-4" d="M414.19,303.37a50.31,50.31,0,0,1-7.39-7.21,33.34,33.34,0,0,1-7.83-26.1c.12-.94.27-1.86.44-2.77l.18-.85c.25-1.14.55-2.27.87-3.37.14-.47.29-.95.45-1.42.26-.77.53-1.52.82-2.26.12-.32.24-.63.38-.94s.25-.62.39-.93l.39-.91.42-.89v0l.08-.16c.25-.53.51-1.05.77-1.56s.59-1.14.89-1.69c1-1.74,2-3.35,2.94-4.83.25-.38.5-.74.75-1.1l0-.06c.57-.83,1.13-1.6,1.66-2.31a34.34,34.34,0,0,1,5-5.47h0a16.41,16.41,0,0,1,4.35-3.14,34.59,34.59,0,0,0-3.28-1.64,39.22,39.22,0,0,0-4.9-1.79,39.68,39.68,0,0,0-12.9-1.58c-1.11,0-2.19.13-3.27.26a50.63,50.63,0,0,1-8.61.39l-1.26-.09c-.75-.06-1.5-.14-2.24-.24-3.25-.43-6.85-2.05-10-.38s-3.3,4.91-3.66,8a33.7,33.7,0,0,1-2.23,8.75,10.71,10.71,0,0,1-.94,1.77,39.59,39.59,0,0,0-6.23,23l.06,1.05A39.55,39.55,0,0,0,364,287q.81,1.72,1.77,3.36a39.18,39.18,0,0,0,4.63,6.34c.76.85,1.56,1.67,2.38,2.45a40.22,40.22,0,0,0,45,6.93C416.52,305.16,415.31,304.27,414.19,303.37Z" transform="translate(-346.04 -193.06)"/></svg>