<svg id="Calque_1" data-name="Calque 1" xmlns="http://www.w3.org/2000/svg" viewBox="0 0 150.05 209.14"><defs><style>.cls-1,.cls-3{fill:#74ad38;}.cls-2{fill:#fff;}.cls-3{font-size:19.95px;font-family:IBMPlexMono-Medium, IBM Plex Mono;font-weight:500;}</style></defs><rect class="cls-1" width="150.05" height="150.05" rx="13.64"/><rect class="cls-2" y="160.56" width="150.05" height="48.59" rx="7.76"/><path class="cls-2" d="M358,227.05V214.2a9.09,9.09,0,0,1,9.1-9.09h12.69v-3.44H366.7a12.13,12.13,0,0,0-12.13,12.13v13.25Z" transform="translate(-345.92 -193.06)"/><path class="cls-2" d="M379.94,331.07H367.1A9.09,9.09,0,0,1,358,322V309.28h-3.43v13.09A12.13,12.13,0,0,0,366.7,334.5h13.24Z" transform="translate(-345.92 -193.06)"/><path class="cls-2" d="M462,205.11h12.84a9.09,9.09,0,0,1,9.1,9.09v12.7h3.43V213.8a12.13,12.13,0,0,0-12.13-12.13H462Z" transform="translate(-345.92 -193.06)"/><path class="cls-2" d="M483.89,309.13V322a9.09,9.09,0,0,1-9.1,9.1H462.1v3.43h13.09a12.13,12.13,0,0,0,12.13-12.13V309.13Z" transform="translate(-345.92 -193.06)"/><text class="cls-3" transform="translate(27.15 180.19)">céréales<tspan x="-11.97" y="18.72">et dérivés</tspan></text><path class="cls-2" d="M404.93,310.05h-.12a6.54,6.54,0,0,1-1.25-.29,32.05,32.05,0,0,0-6.63-.6c-4.61-.09-9-.17-12.79-5-2.45-3.13-3.36-10.69-3.46-11.55a1.5,1.5,0,0,1,1.26-1.64c.37-.06,9.18-1.35,14.68,8,3.45,5.85,6.59,7.53,7.86,8,.29.06.57.14.85.22a1.5,1.5,0,0,1-.4,2.94Zm-21-16.21c.42,2.63,1.3,6.75,2.61,8.43,2.94,3.75,6.11,3.81,10.49,3.89l1.36,0a29.68,29.68,0,0,1-4.32-5.78C390.79,294.92,386.22,294,383.89,293.84Z" transform="translate(-345.92 -193.06)"/><path class="cls-2" d="M389.26,288.05a1.48,1.48,0,0,1-1.33-.81c-.4-.76-3.84-7.56-3.55-11.51.5-6.6,3.92-9.7,7.54-13a51.72,51.72,0,0,0,4.59-4.56,1.5,1.5,0,0,1,2.48,1.64s-1.86,4-1.33,13.31c.6,10.79-7.43,14.62-7.77,14.77A1.44,1.44,0,0,1,389.26,288.05Zm5.66-24-1,.9c-3.57,3.24-6.15,5.58-6.56,11-.16,2.13,1.4,6,2.51,8.46,1.88-1.39,5.14-4.74,4.78-11.1A49.7,49.7,0,0,1,394.92,264.07Z" transform="translate(-345.92 -193.06)"/><path class="cls-2" d="M406.52,284.53a1.5,1.5,0,0,1-1.33-.81c-.4-.76-3.84-7.56-3.55-11.52.5-6.6,3.92-9.7,7.54-13a50.22,50.22,0,0,0,4.59-4.55,1.5,1.5,0,0,1,2.48,1.64s-1.86,4-1.33,13.3c.61,10.79-7.43,14.62-7.77,14.78A1.44,1.44,0,0,1,406.52,284.53Zm5.66-24-1,.9c-3.57,3.24-6.15,5.58-6.55,11-.16,2.12,1.39,6,2.51,8.45,1.87-1.38,5.13-4.73,4.77-11.1A49.74,49.74,0,0,1,412.18,260.54Z" transform="translate(-345.92 -193.06)"/><path class="cls-2" d="M422.8,277.19a1.5,1.5,0,0,1-1.33-.81c-.4-.76-3.85-7.55-3.55-11.51.5-6.61,3.92-9.71,7.54-13a51.36,51.36,0,0,0,4.59-4.54,1.49,1.49,0,0,1,2-.28,1.51,1.51,0,0,1,.52,1.92s-1.86,4-1.34,13.29c.62,10.8-7.42,14.63-7.76,14.78A1.44,1.44,0,0,1,422.8,277.19Zm5.66-24-1,.89c-3.57,3.24-6.15,5.58-6.56,11-.16,2.12,1.4,6,2.52,8.46,1.87-1.39,5.13-4.74,4.77-11.11A48.73,48.73,0,0,1,428.46,253.21Z" transform="translate(-345.92 -193.06)"/><path class="cls-2" d="M440.16,268.33a1.5,1.5,0,0,1-1.34-.81c-.39-.76-3.84-7.56-3.54-11.51.49-6.61,3.91-9.71,7.53-13a49,49,0,0,0,4.59-4.55,1.5,1.5,0,0,1,2.49,1.64s-1.86,4-1.34,13.3c.61,10.8-7.42,14.63-7.77,14.78A1.37,1.37,0,0,1,440.16,268.33Zm5.66-24-1,.9c-3.57,3.23-6.16,5.57-6.56,11-.16,2.12,1.4,6,2.51,8.46,1.88-1.39,5.14-4.74,4.78-11.11A48.77,48.77,0,0,1,445.82,244.35Z" transform="translate(-345.92 -193.06)"/><path class="cls-2" d="M457,257.43a1.5,1.5,0,0,1-1.34-.81c-.39-.76-3.84-7.56-3.54-11.51.49-6.61,3.92-9.71,7.54-13a50.22,50.22,0,0,0,4.59-4.55,1.5,1.5,0,0,1,2.48,1.64s-1.86,4-1.34,13.3c.61,10.79-7.42,14.63-7.77,14.79A1.5,1.5,0,0,1,457,257.43Zm5.66-24-1,.9c-3.57,3.23-6.15,5.57-6.56,11-.16,2.12,1.4,6,2.51,8.46,1.88-1.39,5.14-4.74,4.78-11.11A48.73,48.73,0,0,1,462.65,233.45Z" transform="translate(-345.92 -193.06)"/><path class="cls-2" d="M410.71,303a11.77,11.77,0,0,1-8-3c-3-2.56-5.46-9.79-5.72-10.6a1.5,1.5,0,0,1,.89-1.87c.35-.13,8.72-3.18,16,4.83,4.54,5,8,6,9.3,6.23l.9,0a1.5,1.5,0,0,1,.09,3,6,6,0,0,1-1.29,0,33.64,33.64,0,0,0-6.61.77A30.51,30.51,0,0,1,410.71,303ZM400.37,289.9c.94,2.49,2.64,6.35,4.27,7.72,3.64,3.08,6.75,2.5,11.05,1.69l1.34-.25a29.7,29.7,0,0,1-5.4-4.78C407.35,289.56,402.68,289.53,400.37,289.9Z" transform="translate(-345.92 -193.06)"/><path class="cls-2" d="M429.06,295.39a12.09,12.09,0,0,1-6.16-1.77c-3.44-2-7.13-8.65-7.54-9.41a1.5,1.5,0,0,1,.55-2c.32-.19,8-4.68,16.59,1.89,5.4,4.12,8.94,4.49,10.3,4.46l.86-.12a1.5,1.5,0,0,1,.63,2.92,5.11,5.11,0,0,1-1.27.2,33.28,33.28,0,0,0-6.38,1.94A21.25,21.25,0,0,1,429.06,295.39Zm-10.25-11.2c1.38,2.28,3.74,5.77,5.58,6.83,4.13,2.37,7.09,1.24,11.18-.32l1.27-.48a30.09,30.09,0,0,1-6.16-3.74C425.62,282.6,421,283.42,418.81,284.19Z" transform="translate(-345.92 -193.06)"/><path class="cls-2" d="M444.27,285.66a12.64,12.64,0,0,1-5.11-1.15c-3.63-1.59-8-7.82-8.51-8.52a1.5,1.5,0,0,1,.32-2.05c.3-.23,7.45-5.53,16.7.06,5.81,3.51,9.38,3.5,10.72,3.31.28-.08.56-.15.85-.21a1.5,1.5,0,0,1,.94,2.83,5.31,5.31,0,0,1-1.24.34,32.78,32.78,0,0,0-6.13,2.62C450.07,284.3,447.42,285.66,444.27,285.66Zm-10.2-10.07c1.62,2.11,4.34,5.32,6.29,6.17,4.37,1.91,7.18.47,11.08-1.54l1.21-.62a29.68,29.68,0,0,1-6.53-3C440.66,273.27,436.17,274.58,434.07,275.59Z" transform="translate(-345.92 -193.06)"/><path class="cls-2" d="M463.31,273.06a16.45,16.45,0,0,1-1.67-.09c-3.94-.44-10-5.07-10.67-5.6a1.5,1.5,0,0,1-.3-2.05c.22-.31,5.46-7.5,16-4.93,6.51,1.6,9.86.61,11.13,0,.27-.17.55-.35.83-.51a1.5,1.5,0,0,1,2,.42,1.49,1.49,0,0,1-.24,2,4.61,4.61,0,0,1-1.07.69,32.51,32.51,0,0,0-5.07,4.34C471.21,270.28,468.39,273.06,463.31,273.06ZM454.13,266c2.17,1.54,5.73,3.78,7.84,4,4.74.53,7-1.7,10.11-4.77l1-1a29.79,29.79,0,0,1-7.15-.95C459.75,261.79,455.84,264.39,454.13,266Z" transform="translate(-345.92 -193.06)"/><path class="cls-2" d="M457,257.43a1.52,1.52,0,0,1-1.21-.6,1.51,1.51,0,0,1,.31-2.1c6.75-5,24.2-19.49,26.58-21.83a1.5,1.5,0,1,1,2.1,2.14c-2.68,2.63-20.55,17.39-26.89,22.1A1.48,1.48,0,0,1,457,257.43Z" transform="translate(-345.92 -193.06)"/><path class="cls-2" d="M357.08,299.69h0a1.5,1.5,0,1,1,0-3h0c.17,0,10.49-.05,24.56-5.68a1.5,1.5,0,1,1,1.11,2.79C368.27,299.58,357.83,299.69,357.08,299.69Z" transform="translate(-345.92 -193.06)"/></svg>