<svg id="Calque_1" data-name="Calque 1" xmlns="http://www.w3.org/2000/svg" viewBox="0 0 149.81 227.66"><defs><style>.cls-1,.cls-3{fill:#74ad38;}.cls-2{fill:#fff;}.cls-3{font-size:19.91px;font-family:IBMPlexMono-Medium, IBM Plex Mono;font-weight:500;}.cls-4{fill:none;stroke:#fff;stroke-miterlimit:10;stroke-width:3px;fill-rule:evenodd;}</style></defs><rect class="cls-1" width="149.81" height="149.81" rx="13.62"/><rect class="cls-2" y="160.31" width="149.81" height="67.35" rx="9.13"/><path class="cls-2" d="M358.1,227V214.17a9.08,9.08,0,0,1,9.08-9.08h12.68v-3.43H366.78a12.11,12.11,0,0,0-12.11,12.11V227Z" transform="translate(-346.04 -193.06)"/><path class="cls-2" d="M380,330.85H367.18a9.08,9.08,0,0,1-9.08-9.08V309.1h-3.43v13.07a12.11,12.11,0,0,0,12.11,12.11H380Z" transform="translate(-346.04 -193.06)"/><path class="cls-2" d="M461.89,205.09h12.82a9.08,9.08,0,0,1,9.08,9.08v12.67h3.43V213.77a12.11,12.11,0,0,0-12.11-12.11H461.89Z" transform="translate(-346.04 -193.06)"/><path class="cls-2" d="M483.79,309v12.82a9.08,9.08,0,0,1-9.08,9.08H462v3.43h13.08a12.11,12.11,0,0,0,12.11-12.11V309Z" transform="translate(-346.04 -193.06)"/><text class="cls-3" transform="translate(15.16 179.91)">graines de<tspan x="23.9" y="18.69">sésame</tspan><tspan x="0" y="37.38">et dérivés</tspan></text><path class="cls-4" d="M418.6,247.35a68,68,0,0,1-36.78-11c-12.31-9.1-12.73-18.56-8.13-22.57S398.32,202.5,418.6,247.35Z" transform="translate(-346.04 -193.06)"/><path class="cls-4" d="M420.45,284.92a67.81,67.81,0,0,0,21.24,32c12.28,9.14,21.46,6.79,24,1.23S469.24,291.31,420.45,284.92Z" transform="translate(-346.04 -193.06)"/><path class="cls-4" d="M414.4,268.43c-4.76,5.91-10.58,23.46-30.91,27.92-15.29,3.43-23.78-3-23.68-9.36C360.08,270.36,372.4,268.21,414.4,268.43Z" transform="translate(-346.04 -193.06)"/><path class="cls-4" d="M431,272.73c5.53-5.27,12.23-26.65,32.79-28.36,10.91-1.05,19.35,14.28,19.53,20.58C483.78,282.48,469.63,270.72,431,272.73Z" transform="translate(-346.04 -193.06)"/></svg>