<svg id="Calque_1" data-name="Calque 1" xmlns="http://www.w3.org/2000/svg" viewBox="0 0 149.81 227.66"><defs><style>.cls-1,.cls-3{fill:#74ad38;}.cls-2{fill:#fff;}.cls-3{font-size:19.91px;font-family:IBMPlexMono-Medium, IBM Plex Mono;font-weight:500;}</style></defs><rect class="cls-1" width="149.81" height="149.81" rx="13.62"/><rect class="cls-2" y="160.31" width="149.81" height="67.35" rx="9.13"/><path class="cls-2" d="M358.1,227V214.17a9.08,9.08,0,0,1,9.08-9.08h12.68v-3.43H366.78a12.11,12.11,0,0,0-12.11,12.11V227Z" transform="translate(-346.04 -193.06)"/><path class="cls-2" d="M380,330.85H367.18a9.08,9.08,0,0,1-9.08-9.08V309.1h-3.43v13.07a12.11,12.11,0,0,0,12.11,12.11H380Z" transform="translate(-346.04 -193.06)"/><path class="cls-2" d="M461.89,205.09h12.82a9.08,9.08,0,0,1,9.08,9.08v12.67h3.43V213.77a12.11,12.11,0,0,0-12.11-12.11H461.89Z" transform="translate(-346.04 -193.06)"/><path class="cls-2" d="M483.79,309v12.82a9.08,9.08,0,0,1-9.08,9.08H462v3.43h13.08a12.11,12.11,0,0,0,12.11-12.11V309Z" transform="translate(-346.04 -193.06)"/><text class="cls-3" transform="translate(15.16 179.91)">extrait de<tspan x="5.97" y="18.69">mousse de</tspan><tspan x="29.87" y="37.38">chêne</tspan></text><path class="cls-2" d="M432.49,256.14c-.74-.47-.89-.47-1.35,0l.87.39Zm3,71,.11.05.12-.13Z" transform="translate(-346.04 -193.06)"/><path class="cls-2" d="M414.05,334a2,2,0,0,1-1.32-.44A1.89,1.89,0,0,1,412,332a2.2,2.2,0,0,1-1.26-1.45,2,2,0,0,1,.11-1.21c-.22,0-.43,0-.59.05a6.45,6.45,0,0,0-2.84.68,7,7,0,0,1-4.52.69l-.11.06,0-.09a7.16,7.16,0,0,1-.73-.19,5.32,5.32,0,0,1-2.15-1.26,13.87,13.87,0,0,0-1.27-1c-.33-.26-.66-.51-1-.77a2.39,2.39,0,0,1-.08-3.74,4,4,0,0,1,.95-.67,3.12,3.12,0,0,1,1.7-2.42l.76-.45,1.22.62,1,.52a1.18,1.18,0,0,0,.84.07,16.3,16.3,0,0,1,1.93-.18,2.44,2.44,0,0,1-.29-.27l-.54-.05.17-.45a2.22,2.22,0,0,1-.31-1.14,4.24,4.24,0,0,0,0-.48.92.92,0,0,1-.11-.17l-.77-1.39,1.63-.69a2.93,2.93,0,0,1,1-.33,3.86,3.86,0,0,1,1.36.11,2.82,2.82,0,0,0,2.5-.61,7.59,7.59,0,0,1,3.14-1.44,19.65,19.65,0,0,1,8-.38c.44.09.9.14,1.35.2l.24,0a7.8,7.8,0,0,1,2.35.73,6.81,6.81,0,0,0-.82-1.28c-.24-.3-.51-.6-.77-.89s-.53-.57-.77-.87c-.82-1-1.63-2-2.43-3l-.37-.48a10.67,10.67,0,0,0-1.64-1.81,3.58,3.58,0,0,0-2.64-.92l-1.33.06a16.63,16.63,0,0,0-3.08.32,7,7,0,0,0-3.69,1.78c-.23.25-.48.49-.73.72s-.31.29-.45.45a3.27,3.27,0,0,0-.4.44c-.4.78-.79,1.58-1.14,2.38a4.27,4.27,0,0,1-1.8,2.08c-1.07.61-1.6,1.14-1.81,1.81a3,3,0,0,1-.38.73l-.06.1a2.83,2.83,0,0,1-3.05,1.56A2.6,2.6,0,0,1,396,316.2a3.46,3.46,0,0,1,0-2.81,2.45,2.45,0,0,1,.61-3l.57-.55c.6-.58,1.21-1.17,1.89-1.72a4,4,0,0,0,.85-.94,13.84,13.84,0,0,1-2.53.08,5.14,5.14,0,0,0-3.64,1.13c-.41.36-.4.63-.35.85a2.16,2.16,0,0,1,.05.27v0a4.78,4.78,0,0,1-.32,4.06c.27.6.5,1.21.74,1.82l.15.39a2.45,2.45,0,0,1-.73,3,7.14,7.14,0,0,0-.55.55c-.22.23-.45.47-.69.68a2.91,2.91,0,0,1-2.36.77,2.64,2.64,0,0,1-1.22-.54,6.69,6.69,0,0,1-.88,1.82,2.22,2.22,0,0,1-1,.84v1a2.05,2.05,0,0,1-1.55,2.06,7.91,7.91,0,0,1-3.5.37l-1.13-.19L380.2,325a2.19,2.19,0,0,0-.54-.69,3.82,3.82,0,0,1-.68-4.54l.18-.37a15.6,15.6,0,0,1,1.75-3,7.3,7.3,0,0,0,1.56-3,2.72,2.72,0,0,1,.13-.49,3.93,3.93,0,0,1-.88.52c-.11.05-.2.09-.32.5a3.29,3.29,0,0,1-3.68,2.42l-1.05-.05-.11-.31-1.75.33,1.27-1.71a2.7,2.7,0,0,1,.05-1.48s0-.06,0-.09a6.39,6.39,0,0,1,2.22-5.33,6.08,6.08,0,0,1,1.81-.87l2.42-.85c1.67-.59,2.59-.91,2.76-1a9.38,9.38,0,0,0,1.92-2.61l.29-.48a13.84,13.84,0,0,0,.89-1.72,3.58,3.58,0,0,1,1.22-1.62c1.6-1.19,4-1.53,7.23-1,.89.14,1.22.22,2.59.55l2.63.63c3.94.92,4.52.95,5,.9a10,10,0,0,0,3.83-1.54,10.89,10.89,0,0,0,3.79-3.06,7.76,7.76,0,0,0,.8-1.3,11.78,11.78,0,0,0,1.05-4.75,18,18,0,0,0-.8-6.37,15.32,15.32,0,0,0-.85-1.87c-.07-.14-.19-.36-.79-.45a4,4,0,0,1-2,.45c-.18,0-.37,0-.47,0-2.09.46-3.15,1.08-3.77,2.2a4,4,0,0,1-.55.78,2.6,2.6,0,0,1-1.87.88l0,0v0a2.48,2.48,0,0,1-1.92-.87l-.43-.5-.33-.39a2.52,2.52,0,0,1-.66-2.58,2.78,2.78,0,0,0-.37.51,6.32,6.32,0,0,1-4.42,2.9l-1.29.24c-.56.09-1.12.19-1.67.32a1.2,1.2,0,0,0-.46.21,4,4,0,0,0,.37,2.35c.3.45.47.58.66.66a2.16,2.16,0,0,1,1.6,1.71.22.22,0,0,1,0,.08l-.07.67a2.27,2.27,0,0,1-1,1.26,15.49,15.49,0,0,1-2,1.05l-.45.21a2.14,2.14,0,0,1-2.61-.58,2.07,2.07,0,0,1-1.66-1.44c-.14-.41-.26-.82-.38-1.23l-.28-.93c-.2-.69-.41-1.37-.6-2.06a2.67,2.67,0,0,0-.93.73,7.23,7.23,0,0,0-1.1,2,15,15,0,0,0-.89,4.41c0,.37-.07.75-.12,1.12a.71.71,0,0,0,.47.61,2.07,2.07,0,0,1,1.19,2.93,5.89,5.89,0,0,1-2.71,2.54,2.19,2.19,0,0,1-2.25-.27,2.57,2.57,0,0,1-2.53-.89c-.15-.17-.32-.33-.48-.49s-.43-.43-.63-.66a2.7,2.7,0,0,1-.7-1.87l0,0a2.21,2.21,0,0,1-2.7-.14,5.26,5.26,0,0,1-1,.13,2,2,0,0,1-1.81-.81c-.09-.15-.19-.29-.29-.43a3.9,3.9,0,0,1-1-2.87,3,3,0,0,1,2.21-2.53l.08,0,.39-.3a11.14,11.14,0,0,0,1.4-1.14,2.71,2.71,0,0,0,.46-.85l-1.35.3c-.82.18-1.65.37-2.47.53a3.8,3.8,0,0,1-4.32-1.95,3,3,0,0,1,.07-2.73,3.22,3.22,0,0,1,2.08-1.81,10.57,10.57,0,0,1,2.22-.33c.44,0,.48-.06.53-.12a4.66,4.66,0,0,1,4-1.46c.64,0,1.27.05,1.91.06a3.22,3.22,0,0,0-.6-.11,2.43,2.43,0,0,1-2.4-1.52,2.54,2.54,0,0,1,.83-3.19,2.65,2.65,0,0,0,.71-.76,3,3,0,0,1,3.75-.83,2.52,2.52,0,0,0,1.19.29,3.17,3.17,0,0,1,2,.78c.35.27.68.55,1,.84s.58.51.89.75a3.48,3.48,0,0,0,3.27.61,10.88,10.88,0,0,0,2.76-1.23,44.61,44.61,0,0,1,6.36-3.12,46.51,46.51,0,0,1,4.88-1.6,9.82,9.82,0,0,1,4.48,0l2.21.47c1,.21,1.92.43,2.88.61a5.81,5.81,0,0,0,3-.18,4.82,4.82,0,0,0-.68-.51,13.76,13.76,0,0,0-4.06-1.51,1.73,1.73,0,0,0-.33,0l-1,.08c-1.08.07-2.11.15-3.13.28a10.78,10.78,0,0,1-3.68-.12,11.59,11.59,0,0,0-4.5-.1.75.75,0,0,0-.56.35,8.54,8.54,0,0,1-1.68,1.66,3.2,3.2,0,0,1-3.89-.1c-.58-.45-1.16-.92-1.72-1.4a2.21,2.21,0,0,1-.88-1.63,2.17,2.17,0,0,1,.86-1.59,21.07,21.07,0,0,1,2.66-2,3.62,3.62,0,0,1,2.35-.33,14.28,14.28,0,0,0-3.31-2.84,26.22,26.22,0,0,0-4.19-2.15,7.65,7.65,0,0,0-3.91-.31,5.94,5.94,0,0,0-2.09.61,2.4,2.4,0,0,0-1.21,1.34c-.61,1.81-1.19,3.42-1.76,4.91a3.71,3.71,0,0,1-.39.77l-.47.57a4.51,4.51,0,0,1-4.18,1.23,2.47,2.47,0,0,1-.58-.2l-.41.09,0-.3a3.13,3.13,0,0,1-1.15-1.62,3,3,0,0,1-.18-1.13l-.07-.06a3.1,3.1,0,0,1-.81-1.27l-.25-.13.17-.2a2.53,2.53,0,0,1,.88-2.14,7.21,7.21,0,0,1,1-.83h0l-.58.07a1.38,1.38,0,0,0-.81.39c-.87.83-1.74,1.66-2.64,2.47a8.62,8.62,0,0,1-1.34,1,3,3,0,0,1-2.54.36,2.85,2.85,0,0,1-1.78-1.82.59.59,0,0,1-.17-.15,2.1,2.1,0,0,1-.59-2.21,5.14,5.14,0,0,1,1.48-2.52,19.67,19.67,0,0,0,1.43-1.45l.41-.46a2.16,2.16,0,0,0,.27-.33,6.76,6.76,0,0,1,1.35-2,6,6,0,0,1-4.07-3.08,2,2,0,0,1,.64-2.84,4.59,4.59,0,0,1,1.93-1,1.66,1.66,0,0,1,.44-.85,2.22,2.22,0,0,1,2.25-.45c.2,0,.46.1.8.15l.41.08a1.2,1.2,0,0,0,.42.06,3.33,3.33,0,0,1,3.64,1.62,7.64,7.64,0,0,0,1.93,2.06,3.35,3.35,0,0,0,2.46.66c-.16-.22-.33-.44-.49-.67l-.06-.09a10.73,10.73,0,0,1-.86-1.32c-.22-.41-.41-.83-.63-1.3l-.58-1.25.35-.63a4.77,4.77,0,0,1,3-2,2.11,2.11,0,0,1,2.56,1.22l.24.5c.39.81.77,1.62,1.12,2.43a2.93,2.93,0,0,0,1.26,1.46l.2.15a4.31,4.31,0,0,0,2,1,2.75,2.75,0,0,0,1.32,0l.22,0a2.19,2.19,0,0,0,.53-.18,2.63,2.63,0,0,0,.13-2.29,8.41,8.41,0,0,0-2.63-3.47l-.25-.2c-.37-.29-.73-.58-1.07-.88a7.11,7.11,0,0,0-2.76-1.24l-.24,0-.41,0a5.81,5.81,0,0,1-4.56-2.56l-.08-.12-.15,0-1.25-.34v-1.61c0-.42,0-.86,0-1.29A2.37,2.37,0,0,1,374.7,234c-.34-.13-.66-.28-.95-.42l-.45-.2a5.61,5.61,0,0,1-.54-.29l-.12-.08a3.22,3.22,0,0,1-1.63-2,3,3,0,0,1,.46-2.46,2.24,2.24,0,0,1,2.53-1,6.73,6.73,0,0,0,1.26.24,5.21,5.21,0,0,1,2.67.91l.58.41a10.43,10.43,0,0,1,2.28,2,10.17,10.17,0,0,0,2.65,2l.13.07a8.17,8.17,0,0,1-.53-1.69c-.05-.2-.09-.41-.15-.61a5.58,5.58,0,0,0-.52-1.21,4,4,0,0,1-.58-2.28,2.22,2.22,0,0,1,.79-1.66,2.6,2.6,0,0,1,1.89-.46,3.07,3.07,0,0,1,2.1,1.07,10.89,10.89,0,0,0,.92,1,3.8,3.8,0,0,1,1.39,2.49l.14.1a4.2,4.2,0,0,1,2,2.06,12.9,12.9,0,0,1,.63,2.33c.12.7.22,1.41.32,2.11.12.9.24,1.76.41,2.61a9.28,9.28,0,0,0,.85,2.51,7.81,7.81,0,0,0-.13-1.75,16.08,16.08,0,0,1-.47-3.95,6.72,6.72,0,0,1,1.14-3.11,2.51,2.51,0,0,1,1-1l1.08-.24a2.71,2.71,0,0,1,2.16,1.31,6.7,6.7,0,0,0,.77.92l.1.1a2.69,2.69,0,0,1,.76,1.3,2.62,2.62,0,0,1,.54.06,2.17,2.17,0,0,1,.44-.36l.28-1.18.76.86h.17a2,2,0,0,1,1.51.83,9.13,9.13,0,0,1,1,1.66,8.83,8.83,0,0,1,.57,1.89,2.57,2.57,0,0,1-.28,1.81l-.08.14a4.86,4.86,0,0,1-1.38,1.62,7.56,7.56,0,0,0-2.58,3.95,11,11,0,0,0-.49,3.85,8,8,0,0,0,.91,3.39,9.38,9.38,0,0,0,4.74,4.53,28.59,28.59,0,0,0,5.12,2,6.09,6.09,0,0,0,3.15-.15,1.49,1.49,0,0,0,.76-.48,4.12,4.12,0,0,0-2.33-1.83,1.65,1.65,0,0,0-.76,0,5.9,5.9,0,0,1-3.7-.45l-.4,0c-.24,0-.48-.05-.71-.09a3.34,3.34,0,0,1-1.45-.53,2.63,2.63,0,0,1-1-1.56,8.11,8.11,0,0,1-.18-2,7.29,7.29,0,0,1,.31-1.52l.09-.34a7,7,0,0,1,.24-.67l.62-1.61,1.7.52a5.21,5.21,0,0,1,.87.29,1.13,1.13,0,0,0,.29.1,2.33,2.33,0,0,1,2-.49,2.53,2.53,0,0,1,1.63,1.38,1.49,1.49,0,0,0,1.05.88c.28.07.57.16.85.25a3.32,3.32,0,0,0,.74.2,1,1,0,0,0,1.11-.67,7.37,7.37,0,0,0,.61-1.62,1.25,1.25,0,0,0-.66-1.41,1.81,1.81,0,0,0-.9-.35c-.64,0-1.28-.07-1.92-.12l-.68,0a4.26,4.26,0,0,1-.83-.12,2.84,2.84,0,0,1-2.09-2,2.65,2.65,0,0,1,.88-2.63,2.36,2.36,0,0,1,1.37-.55l.1,0,.32,0a3.91,3.91,0,0,1,3-.32,8.19,8.19,0,0,0,1.36.18c.71,0,1.14,0,1.28-1.29a6.35,6.35,0,0,0,0-1.06,10.77,10.77,0,0,0-1.11-3.85c-.09-.19-.19-.38-.29-.57l-.46-.81a34.13,34.13,0,0,0-5.17-6.54,21.31,21.31,0,0,0-2.17-1.83c-.33-.25-.66-.5-1-.76l-1-.8c-.6-.46-1.23-1-1.83-1.47a6.38,6.38,0,0,1-1.22-1.57,1.35,1.35,0,0,0-.81-.57l-.25-.1c-1.35-.52-2.75-1.06-4.11-1.7a3.93,3.93,0,0,1-2.24-4.92,5.13,5.13,0,0,0,.09-.67l0-.37a2.46,2.46,0,0,0,0-.26,5.15,5.15,0,0,1,.13-.93,2.42,2.42,0,0,1,1.56-1.72,2.63,2.63,0,0,1,2.35.45l.19.14a3,3,0,0,1,2.94.49,2.15,2.15,0,0,1-.11-1.26.71.71,0,0,0-.09-.49,2.93,2.93,0,0,1,.61-3.35,3.08,3.08,0,0,1,3.38-.7q.35.1.69.24a2.11,2.11,0,0,1,1.53,2.28l.24.17c.44.32.86.62,1.28.87a14.21,14.21,0,0,1,3.89,3.73,15.49,15.49,0,0,1,1.63,2.63l0-.51,0-1a11.78,11.78,0,0,0-.32-4.31,4.68,4.68,0,0,1-.21-1.34l0-.29c0-.6-.09-1.19-.13-1.78l-.05-.71a1.1,1.1,0,0,0,0-.18,2.45,2.45,0,0,1,.39-2l1.21-1.1c1.16-.81,3.06-1.79,4.55-1.49a2.16,2.16,0,0,1,1.48,1,1.94,1.94,0,0,1,.21,1.56,4.07,4.07,0,0,1,1.29,2.64l.09-.11a2.7,2.7,0,0,1,2.32-.84,2.64,2.64,0,0,1,2,1.48,4.08,4.08,0,0,1,.32.88c.39-.25.76-.52,1.13-.79a2.1,2.1,0,0,1,2.94.28,6.05,6.05,0,0,1,.87,1.29,3.76,3.76,0,0,1-.41,4.23,24,24,0,0,0-1.52,2.22c-.34.54-.68,1.07-1,1.59s-.67.88-1,1.3-.66.81-.93,1.21a13.24,13.24,0,0,0-1.08,2l-.2.44a12.42,12.42,0,0,0-.9,2.25,27,27,0,0,0-.8,4.33,32.41,32.41,0,0,0,0,4.51,6.88,6.88,0,0,0,1,3.31,5.06,5.06,0,0,0,1.48-1.08,3.85,3.85,0,0,0,.8-3.78,3,3,0,0,1,.54-2.79,4.48,4.48,0,0,0,.73-1.81,2.83,2.83,0,0,0,0-.87l-.27-1.81,1.93.14h0l.16-.35.44.38a5.56,5.56,0,0,1,1.15.16,2.27,2.27,0,0,1,1.54,1.77c0,.17.07.34.1.5h0c0-.25,0-.51,0-.76a2.64,2.64,0,0,1,.27-1.39,4.15,4.15,0,0,0,.42-2.19,2.36,2.36,0,0,1,1.33-2.42,3.74,3.74,0,0,1,2.83-.1,2.52,2.52,0,0,1,.57.28,7.25,7.25,0,0,0,.22-2.3,18,18,0,0,0-.32-2.09c-.06-.3-.11-.59-.17-.88a1,1,0,0,0-.06-.23c0-.14-.09-.29-.12-.44a6,6,0,0,1,.62-4.65l.43-.71a11,11,0,0,1,1.94-2.59,2,2,0,0,0,.53-.64l.06-.27.21-.31a2.88,2.88,0,0,1,.51-.72l.14-.72.44.31a2,2,0,0,1,.9-.18,2,2,0,0,1,1.26.39l.19-.18A2.12,2.12,0,0,1,450,203a2.07,2.07,0,0,1,1.45,1,5.09,5.09,0,0,1-.66,6.26,9.15,9.15,0,0,0-1.64,2.29,2.18,2.18,0,0,0-.05,1.55l.9-1c.61-.64,1.22-1.29,1.83-1.92l.83-.83c.38-.38.76-.76,1.12-1.15a.73.73,0,0,0,.14-.19,5.51,5.51,0,0,1,1.72-2.81l.38-.39,1-1.1,1.57,1.24c.35.27.69.53,1,.81l.6.93a2.61,2.61,0,0,1-.48,2.39c-.42.55-.87,1.1-1.31,1.64l-.82,1c-.21.27-.44.54-.66.81l-.79,1h.05l.89-.82.14,1.09a2.23,2.23,0,0,1,1,1.53,4.42,4.42,0,0,1-.78,3.44c-.1.14-.21.27-.33.41s-.11.12-.15.18a2.56,2.56,0,0,1-2,1.34A3.66,3.66,0,0,0,453,223c-.86.81-1.74,1.6-2.63,2.38l-1.57,1.4c-.49.45-1,.88-1.51,1.31a24.31,24.31,0,0,0-2.71,2.51.34.34,0,0,0-.07.47s.08.13.39.11a2.34,2.34,0,0,0,.38,0c.92-.32,1.84-.66,2.77-1l1.47-.55a4.58,4.58,0,0,1,1.05-.3,2.51,2.51,0,0,1,1.78.41l.27,0,0,.24,0,0a2.08,2.08,0,0,1,.61,1.88,7.08,7.08,0,0,1-2.73,4.36l-.52.41-.67-.09a1.89,1.89,0,0,1-.79-.19,3.34,3.34,0,0,1-2.46.87c-.58,0-1.16,0-1.73,0l-1.57,0a4.56,4.56,0,0,0-2.92,1.1c-.32.25-.63.52-.94.79s-.75.67-1.15,1l-.35.27c-1.16.88-2.36,1.79-3.64,2.61a12.31,12.31,0,0,0-2.68,2.22l-.51.56a13.87,13.87,0,0,0-1.68,2.11,12.31,12.31,0,0,0-1.64,5.15,19,19,0,0,0,0,4.46c.05.42.08.83.11,1.24a5.23,5.23,0,0,1,1.21-1.23,1.72,1.72,0,0,0,.17-.23l.12-.18a1.05,1.05,0,0,1-.15-.3l-.14-.06.09-.09a2.24,2.24,0,0,1-.05-.26l-.18-.72L429,255a4.2,4.2,0,0,1,2.14-1.24,3,3,0,0,1,2.8.63,2.51,2.51,0,0,1,.79,1.34l.29.19-.24.2a2.51,2.51,0,0,1-.08.81,27,27,0,0,1-1.14,3.39,3.65,3.65,0,0,1-1,1.32l-.15.14a.79.79,0,0,0-.27.48,9,9,0,0,1-1.76,4.14l.26.68-.78,0c-.2.23-.41.46-.64.68a12.92,12.92,0,0,0-1.35,1.55,7.33,7.33,0,0,0-1.32,4c0,.05,0,.1,0,.15a3.93,3.93,0,0,0,.41-.4,3.71,3.71,0,0,0,.42-.59,4.39,4.39,0,0,1,1.36-2.39l1.07-1c1-1,2-1.91,3.08-2.84a11.4,11.4,0,0,0,3.31-5.4l.33-1c.17-.48.33-1,.46-1.46a6.41,6.41,0,0,0,.16-1.48,5.78,5.78,0,0,0-.05-.71,8.28,8.28,0,0,1,0-1.25,4.86,4.86,0,0,1,.56-1.89,2.67,2.67,0,0,1,2-1.36,6.9,6.9,0,0,1,.25-1.39,2.41,2.41,0,0,1,2.9-1.76,2.79,2.79,0,0,1,1.06.49c.13-1,.22-1.9.27-2.84a2.12,2.12,0,0,1,.46-1.4,3.33,3.33,0,0,0,.53-1.92c0-.38.05-.67.05-1a4.18,4.18,0,0,1,2.23-3.7,3.13,3.13,0,0,1,1-.38,2.47,2.47,0,0,1,1.92.33l.19,0v.19a2.2,2.2,0,0,1,.74,1.81l0,.42a9.77,9.77,0,0,0,0,1.07,2.66,2.66,0,0,1,.77,1.79,6.67,6.67,0,0,1-.12,1.55l0-.13c.09-.37.19-.75.29-1.12a4,4,0,0,1,.09-.41,6.6,6.6,0,0,0,.29-3,5.66,5.66,0,0,1,1.08-3.71,7.52,7.52,0,0,0,.68-1.8v0l0-.05-.08-.18a2.49,2.49,0,0,1,.22-2.31,2.77,2.77,0,0,1,2.09-1.2,3.46,3.46,0,0,1,2.59.55,3,3,0,0,1,1,2.32l0,.28h0a4.69,4.69,0,0,0,.13-1.71,11.42,11.42,0,0,1,.05-2.13,5.12,5.12,0,0,1,1.2-2.7c.47-.56.9-1.15,1.36-1.77l.42-.59a3.93,3.93,0,0,0,.67-1.77,8.07,8.07,0,0,1,.52-1.93,2.23,2.23,0,0,1,1.55-1.38,2.43,2.43,0,0,1,2.09.61l.12.1.08.06a3,3,0,0,1,1.92,2.42c0,.19.06.37.08.54l.12-.27L472,224c.36.08.7.15,1,.24a2.2,2.2,0,0,1,1,.52,3.53,3.53,0,0,1,.49,4.61,7.32,7.32,0,0,0-1.39,3.24,8.47,8.47,0,0,1-1.25,2.75,3.25,3.25,0,0,1,1.36-.14,2.75,2.75,0,0,1,2.12,1.17,2.33,2.33,0,0,1,.12,2.21,7.56,7.56,0,0,1-1.26,2,.83.83,0,0,0-.27.57,6.38,6.38,0,0,1-1,3,5.12,5.12,0,0,1-2.36,2l.82-.25a3.17,3.17,0,0,0,.49-.24,7.69,7.69,0,0,1,.88-.4,9.52,9.52,0,0,1,2-.53,2.21,2.21,0,0,1,2.59,1.72,3.56,3.56,0,0,1-2.23,4l-.28.19-.2.16a4.44,4.44,0,0,1-.55.42,8.53,8.53,0,0,1-5.13,1.78l-.22,0a14.15,14.15,0,0,0-2.6.56c-1.7.52-3.42,1.11-5.08,1.69l-.56.19a11.49,11.49,0,0,0-1.82.73,11.26,11.26,0,0,0-1.52,1.15l-.28.23c-.45.38-.91.81-1.44,1.35l-1.68,1.75a2.68,2.68,0,0,1,1.73,1.13,2.14,2.14,0,0,1-.44,3,4.27,4.27,0,0,0-.57.69,7,7,0,0,1-.63.79,6.82,6.82,0,0,1-1.25,1.12,2,2,0,0,1,.66.71,2.31,2.31,0,0,1,.07,2,5.45,5.45,0,0,1-.9,1.46,8.67,8.67,0,0,1-3.57,2.57c-.62.23-1.23.51-1.88.8s-1.16.53-1.75.76c-1.77.69-3.67,1.39-6,2.19l-1.87.79a20.19,20.19,0,0,0-2.93,1.82c-.33.25-.68.48-1,.72s-.85.58-1.25.89a15.62,15.62,0,0,0-3.06,3.35,11.39,11.39,0,0,0-1.91,7.53,22.61,22.61,0,0,0,1,5.59c.19.57.39,1.18.61,1.79l.11.07-.07.06a23.7,23.7,0,0,0,1.9,4.15l.36.58a19.55,19.55,0,0,1,1.13,2,4.46,4.46,0,0,0,3.16,2.43,2,2,0,0,0,.82,0,3.65,3.65,0,0,0,1.75-.71,13.82,13.82,0,0,0,2.39-2.67,9.4,9.4,0,0,0,1-2.75,9.88,9.88,0,0,0,.22-2.07c0-.16,0-.43-.63-.85-.81-.53-1.6-1.08-2.39-1.64l-.95-.67-.24-.17-.1-.08a2.55,2.55,0,0,1-1.36-1.53l-.2-.08a3.75,3.75,0,0,1-2.44-2.6c0-.19-.1-.38-.16-.57a7.63,7.63,0,0,1-.28-1.12,2,2,0,0,1,1.75-2.44l.61-.17c.3-.09.6-.18.91-.25a3,3,0,0,1,3.05.79l.18.18a3.13,3.13,0,0,1,1.12,2.18l1.29,1.43a1.35,1.35,0,0,0,0-1.24c-.16-.32-.29-.66-.42-1s-.27-.7-.44-1a6.3,6.3,0,0,0-.82-1.15,3.27,3.27,0,0,1-.92-2.35c0-.7.09-1.39.19-2.09.07-.44,0-.49,0-.52a2.83,2.83,0,0,1-.45-1l0-.12-.34-.91,0,0-.65-.84,1.45.13a1.74,1.74,0,0,1,1.1-.53,2.26,2.26,0,0,0,1-.43,2.91,2.91,0,0,1,2.57-.3,2.75,2.75,0,0,1,1.72,1.92,5.24,5.24,0,0,1,.08,1.78,1.25,1.25,0,0,0,0,.49c.2-.3.38-.66.58-1,.09-.19.19-.38.29-.56l.16-.28.22-.42.26-.52.33-.68.08-.16a5.78,5.78,0,0,1,.58-.95,1.35,1.35,0,0,0,.23-.33,2.38,2.38,0,0,1,.76-1.5,2.59,2.59,0,0,1,2.47-.84,2.3,2.3,0,0,1,1.68,1.77,10.11,10.11,0,0,1,.28,2.75,9.67,9.67,0,0,1-.45,2.48c-.23.73-.47,1.45-.72,2.18-.37,1.08-.72,2.1-1,3.15a29.18,29.18,0,0,0-.69,4.2,11.4,11.4,0,0,0,0,2.43.75.75,0,0,0,0,.2l.15-.18,1.15-1.42A6.68,6.68,0,0,0,454,292c.15-.4.32-.9.55-1.51a23.56,23.56,0,0,1,2.93-5.68,3.64,3.64,0,0,1,3.35-1.46,2.09,2.09,0,0,1,2.17,2.1,4.09,4.09,0,0,1-.14,1.26c-.06.18-.1.36-.15.54a8.41,8.41,0,0,1-.89,2.3,10.9,10.9,0,0,0-.74,1.57,3.5,3.5,0,0,0,.8-.41c.68-.48,1.33-1,2-1.56s1.37-1.1,2.11-1.63,1.78-1.15,2.66-1.66l1-.56a2.28,2.28,0,0,1,1.54-.3l.18,0,1-.59-.11,1a1.58,1.58,0,0,1,.32.27,1.86,1.86,0,0,1,.09,2.57l-.13.16a15.72,15.72,0,0,0-1.08,1.42,7,7,0,0,0-.63,1.38,4.54,4.54,0,0,1-1.33,2.07,4.17,4.17,0,0,1-2,2.31c-.42.27-.85.51-1.29.76s-.69.39-1,.6-.85.54-1.27.81c-.62.4-1.24.8-1.88,1.18a27.57,27.57,0,0,1-2.61,1.33,39.51,39.51,0,0,0-6.36,3.41c-1.16.77-2.16,1.49-3.06,2.18a6.85,6.85,0,0,0-.74.71c-.18.18-.35.37-.54.54a3.24,3.24,0,0,0-.67,1.49c-.08.3-.16.59-.26.88l-.09.25a26.73,26.73,0,0,1-1.06,2.69,8.06,8.06,0,0,1-3.38,3.16l-.89.53c-.48.28-.95.55-1.4.84l.6.87c1.06-.64,2.08-1.39,3.14-2.17a10.68,10.68,0,0,1,3.27-1.76,17.31,17.31,0,0,0,6.72-4.18,1.77,1.77,0,0,0,.61-1.18,6.31,6.31,0,0,1,1.05-2.81,3.48,3.48,0,0,1,.69-.78,2.87,2.87,0,0,1,2.84-.49,2.33,2.33,0,0,1,1.74,2.43c0,.39-.1.79-.17,1.18,0,.11,0,.22,0,.33a17.2,17.2,0,0,0,1.67-.81c1.61-.9,3.2-1.83,4.8-2.76.63-.38,1.27-.75,1.91-1.12l0-.57.71.18a3.22,3.22,0,0,1,1.46-.46,3.08,3.08,0,0,1,1.88.49,2,2,0,0,1,.69,2.45l-.9,1.45a4.33,4.33,0,0,1-1,.81l-.33.19-.23.6-.34-.28c-.93.55-1.87,1.09-2.78,1.65-1.32.81-2.61,1.64-3.91,2.48l-.14.13c-.09.09-.17.18-.27.27l-1,.93c-.84.79-1.69,1.57-2.56,2.34a13.42,13.42,0,0,1-4.9,2.47l-.35.12c-1.34.46-2.7.9-4.05,1.35l-1.81.6-.66.23-.09,0-.39.35-.09-.19c-.29.1-.59.2-.9.28l-.11,0,0,.34-.45-.17a10.59,10.59,0,0,0-2.92,2.12c-.88.8-1.77,1.61-2.72,2.36-.35.28-.72.53-1.09.77a7.29,7.29,0,0,0-1.35,1.06,2.41,2.41,0,0,1-1.05.65l-.86.32-.5.18-.15.11,0-.08-.42.16a3,3,0,0,1-2.63-.19,5.94,5.94,0,0,1-2.42-2.58A6.66,6.66,0,0,0,430,325a2.39,2.39,0,0,0-.8-.29,11.17,11.17,0,0,0-5.36,0c-1.77.42-2.75,1.08-3.3,2.21a3.83,3.83,0,0,0-.23.7c-.07.25-.15.5-.23.74-.27.71-.59,1.55-.95,2.39a2.9,2.9,0,0,1-1,1.16c-.74.53-1.49,1-2.25,1.53a3.54,3.54,0,0,1-1.15.49A2.69,2.69,0,0,1,414.05,334Zm-9.39-6.73h0Zm34.73-3.73a.82.82,0,0,0-.06.28Zm-56.92-1.91a2.86,2.86,0,0,0,.28.55l.06.09c0-.2,0-.41.07-.62a2.25,2.25,0,0,1,1.82-2,3.18,3.18,0,0,0,.28-.74,4.86,4.86,0,0,0,0-.87v-.26a4.52,4.52,0,0,1,.08-1h0a16.8,16.8,0,0,0-2.4,3.9,2.62,2.62,0,0,1-.16.84Zm.07-.67ZM439,318.6a4.15,4.15,0,0,0,2.38-.65l.19-.11-1.5-.23c-.23.18-.44.37-.65.57S439.14,318.45,439,318.6Zm9.83-1.19-.19,0a2.83,2.83,0,0,0-1,.38,6.9,6.9,0,0,1,1.08-.33Zm-13.52-.25h0Zm22.93-5.73a5.2,5.2,0,0,1-1,1.08l-.66.54c-.58.48-1.18,1-1.84,1.44a27.1,27.1,0,0,1-2.92,1.75,1.55,1.55,0,0,1,.35-.07,6.32,6.32,0,0,1,.9-.3,6.07,6.07,0,0,0,1.62-.61,2.37,2.37,0,0,1,1-.39l.55-.09a4,4,0,0,1,1.28-.59,3.75,3.75,0,0,1,1.25-.78l0-.05a2.3,2.3,0,0,1,.78-1A2.28,2.28,0,0,1,458.24,311.43Zm-20,1.33.77,1.14h0a2.69,2.69,0,0,0,.39-.37l.34-.34.5-.49.55,0,.32-.21.26-.17a3.18,3.18,0,0,1,.86-.63l.35-.33c.11-.11.29-.27.42-.41l-.08-.4.64-.56.23-.18a8,8,0,0,0,.43-1.31,9.82,9.82,0,0,1,3.94-5.89c.76-.58,1.53-1.13,2.3-1.66a2.63,2.63,0,0,1-2.28-1.5,5.46,5.46,0,0,1-.87-2.29c-.12-1.55-.11-3.12-.1-4.5a14.17,14.17,0,0,1,.35-2.26l.06-.35a20.34,20.34,0,0,1,.53-2.17.76.76,0,0,0,0-.11l0,0a3.38,3.38,0,0,1-2.55.85,3.26,3.26,0,0,1-2.28-1.32l-.41-.57c0,.1,0,.2-.06.3a.19.19,0,0,0,.09.12,6.06,6.06,0,0,1,1.72,2.51c.12.28.25.56.38.84s.34.71.49,1.08a4.2,4.2,0,0,1,.36,1.54,5.23,5.23,0,0,1-2,4.06,4.25,4.25,0,0,1-.71.54l.06,0a5.05,5.05,0,0,1,2.25,4.78l-.08.41c-.09.43-.18.86-.23,1.29a11.45,11.45,0,0,1-3.15,5.82,2.53,2.53,0,0,0-.26.4l-.27.42-.34.53-.63.13c-.25.06-.25.06-.7.48a2.37,2.37,0,0,1-1.26.62Zm2.5,0Zm-40.5-1.11,0,.12q.38-.33.75-.6l-.15,0A2.43,2.43,0,0,0,400.2,311.65Zm43.46-1.55h0Zm13.62-15.84a2.45,2.45,0,0,1-.89,1.88l-.08.09c-.62.76-1.24,1.53-1.85,2.31.72-.38,1.44-.75,2.18-1.09.38-.18.76-.33,1.15-.49s.85-.35,1.27-.56l.19-.21.36-.36.23-.21.3-.1.33-.11a2,2,0,0,0,.26-.09l1-.59a5.41,5.41,0,0,1-1.76.11,3,3,0,0,1-2.21-1.3l-.11-.16h0C457.5,293.68,457.39,294,457.28,294.26ZM381,295.38a6,6,0,0,1-.2.64c-.05.13-.08.21.18.48a1.9,1.9,0,0,1,.4-.05A6.58,6.58,0,0,1,381,295.38Zm88.5-2.08h0Zm-46.15-.22Zm17.11-.21h0Zm-65.54-.42a2.32,2.32,0,0,1,.8.19,1.25,1.25,0,0,0,.17-.39,3.34,3.34,0,0,1,.38-.9,6.29,6.29,0,0,1-.67.41,2.79,2.79,0,0,0-.4.39Zm4.23-2.89a3.07,3.07,0,0,1,1.07.2,2,2,0,0,1,1,.79,17.61,17.61,0,0,1,1.27-3.86l-1.27.29.07,1-1.34.25-.48.1a10.87,10.87,0,0,1-1.21.21,6.76,6.76,0,0,1-.72,1.45A3,3,0,0,1,379.14,289.56Zm14.76-5.38Zm-19.08-.74a.55.55,0,0,0-.53.29l0,.06,1.63-.3-1-.05Zm39-3.86,0,.67h.12l0-.66Zm20.76-3.46Zm.32-.06-.19,0Zm-12.47-2.64Zm20.41-.64ZM393.24,269ZM382.14,256l3.52-.37.51.15a3.21,3.21,0,0,0,.56.14,3.7,3.7,0,0,1,2.18.73,23.92,23.92,0,0,1,8.53,6.16,2.59,2.59,0,0,1,1,1.71,2.39,2.39,0,0,1-.17,1.62,16.25,16.25,0,0,1,3.65.24,11.63,11.63,0,0,0,3.43.11l.51-.07a16.05,16.05,0,0,1,5.7,0,12.41,12.41,0,0,1,6.41,3.44,2.75,2.75,0,0,1-.14,4.15,4.82,4.82,0,0,1-2.48,1.23,14.59,14.59,0,0,1-5.85-.07l-.46-.11c-.35-.08-.69-.15-1-.19a1.48,1.48,0,0,1-.41.15,1.7,1.7,0,0,1-1.63-.48,7,7,0,0,0-2.1-.22,4,4,0,0,1-1.45.19,2.13,2.13,0,0,0-.85.13c-1,.31-1.79.58-2.57.9l-.8.32a10.43,10.43,0,0,0-2.37,1.14l-.6-.63-.22.11.13.79a1.42,1.42,0,0,0-.51.18c0,.08-.06.16-.09.22a2,2,0,0,1-1.84.91c-.14.07-.31.16-.47.26a10.32,10.32,0,0,1-4.8,1.66,6.69,6.69,0,0,1-4-.66,2.35,2.35,0,0,1-.06,1.07,3.61,3.61,0,0,1-3.05,2.46c-.44.06-.88.09-1.31.11a3.32,3.32,0,0,1,2.08,2.75l1.75-1.43-.16-.36,2.21-1.29.59.76.06,0-.23-.88.25-.05.64-.15.41-.08c.5-.09,1-.19,1.49-.25a2.58,2.58,0,0,1,2.23.77,4,4,0,0,1,3.61-2.74,16.59,16.59,0,0,0,2.12-.31,3.84,3.84,0,0,0,2.31-1.17,8.83,8.83,0,0,1,4.44-3.23c.57-.17,1.14-.34,1.72-.49a2.5,2.5,0,0,1,2.45.41,2.27,2.27,0,0,1,.56,2.37c0,.11-.05.22-.08.32.19-.09.39-.19.6-.27.43-.17.88-.31,1.33-.44a9,9,0,0,0,1.34-.48,7.4,7.4,0,0,1,3.77-.55,4.47,4.47,0,0,1,3.65,2.11,13.57,13.57,0,0,1,1.9,5.66,22.77,22.77,0,0,1,0,7.28,10,10,0,0,1-3.19,6.27,2.11,2.11,0,0,0-.17.22,3.15,3.15,0,0,1-.22.29l-.51-.37,0,0,.49.41a5,5,0,0,1-.79.64l-.25.18a2.15,2.15,0,0,1-1.44,1.22l-.08,0c-.26.15-.51.31-.76.48a16.68,16.68,0,0,1-1.73,1,12.42,12.42,0,0,1-3.39,1.14,13.62,13.62,0,0,1-5.32-.38c-1.8-.46-3.59-.94-5.39-1.41a14.47,14.47,0,0,0-1.67-.21l-.32,0c-.64-.07-1.31-.08-2-.09h-.26c-.21,0-.65,0-1.18.81a25.12,25.12,0,0,0-1.42,2.63l-.16.32a6.73,6.73,0,0,1-2,2.41l-.17.49c.06.12.11.23.16.31l-.33.14-.26.73.62.29-.51,1.13c-.44,1-.88,1.92-1.29,2.89a4.48,4.48,0,0,0-.35,1.1h0a11.45,11.45,0,0,1,1.15-1.26,2.25,2.25,0,0,1,1.62-.66l.76-.8,0,.12a1.8,1.8,0,0,0,0-1.37,4.17,4.17,0,0,1,1.57-5,9.13,9.13,0,0,1,6.83-1.83,3.48,3.48,0,0,0,1.35-.05l.47-.15c.27-.08.55-.17.83-.23a4.31,4.31,0,0,1,1.46-.17,2.64,2.64,0,0,1,1.35.46l.44-.07-.07.42.05.07a2.08,2.08,0,0,1,.28,1.9c-.07.27-.15.53-.23.77a2.48,2.48,0,0,1,.3-.25c.29-.24.58-.53.89-.84s.42-.42.64-.62a5,5,0,0,1,1.14-.87,13.62,13.62,0,0,1,4.62-1.62c.69-.08,1.38-.14,2.06-.2.51,0,1-.08,1.52-.14a8.39,8.39,0,0,1,8,3.63c.27.35.54.71.8,1.07a19.14,19.14,0,0,0,2.79,3.23,6,6,0,0,1,.67.74l.12.16a17.47,17.47,0,0,1,2.78,5.21,2.26,2.26,0,0,1-.13,2.09,2.38,2.38,0,0,1-1.8,1,5.28,5.28,0,0,1-2.34-.23,11.37,11.37,0,0,1-1.29-.55A7.7,7.7,0,0,0,424,318a14.29,14.29,0,0,0-6.39-.83c-.67.09-1.36.17-2,.3h.14a5.3,5.3,0,0,0,1.13,0,2.66,2.66,0,0,1,2.2.48,2.3,2.3,0,0,1,.83,1.89,5.21,5.21,0,0,1-.37,1.65l-.05.14a3.54,3.54,0,0,1-3.37,2.34l-2.58.19c-.52,0-1.05.09-1.58.12l-1.38.11c-1.23.11-2.5.21-3.78.22h-.23a11.11,11.11,0,0,0-2.36.17,3.56,3.56,0,0,1-2.2-.15,1.67,1.67,0,0,1-.61,1l.33.19a2.45,2.45,0,0,1,1.18,1.1l.05,0a2.65,2.65,0,0,1,1.07.09l.15.05.34,0,.32,0c.49-.19,1-.41,1.62-.58l.11,0a22.86,22.86,0,0,1,2.47-.65l.53-.1a6.05,6.05,0,0,0,1.58-.42,13,13,0,0,1,2.16-.76,6.32,6.32,0,0,0,.62-.18,4.58,4.58,0,0,1,1.21-.18,2.29,2.29,0,0,1,1.73.63,1.55,1.55,0,0,1,.19.23l0-.06a2.14,2.14,0,0,1,.69-1,19.71,19.71,0,0,1,3.53-2.44c.41-.11.82-.25,1.23-.4l.21-.07a2.31,2.31,0,0,1,1.19-.44,2,2,0,0,1,.81.07l1-.05a2.24,2.24,0,0,1,1.75-.14l.19.07.47.1.24.05a2,2,0,0,1,2.21.09,1.5,1.5,0,0,1,.31.24h0a1.94,1.94,0,0,1,2.28,1.4,2.46,2.46,0,0,0,.68,1l.18.11a2.48,2.48,0,0,1,.93,1.51l.59-.07.36,0a5.7,5.7,0,0,1,.64-.07l-.11-.35,1.47-.53a6.39,6.39,0,0,0,.9-.38,2.67,2.67,0,0,1,.55-.69,2.22,2.22,0,0,1,1.24-.62l.35-.31a5.53,5.53,0,0,1,.56-.65,9.3,9.3,0,0,0-1.88.47l-.63.43-.7-.25-1.13-.34a2.77,2.77,0,0,1-.57,0,1.86,1.86,0,0,1-1.78-1.42l-.16-1a2,2,0,0,1-.07-1.62,2.08,2.08,0,0,1,.89-.92,4.19,4.19,0,0,1,1-1.09h0a1.65,1.65,0,0,1,.3-.53l0,0-.16-2.08c-1.36.27-1.89.34-2.46.07l-.88-.37a11.79,11.79,0,0,1-1.67-.77,5.47,5.47,0,0,1-2.61-2.53,10.93,10.93,0,0,0-.78-1.41,3.84,3.84,0,0,1-.86-1.36l-.07-.16c-.05-.11-.17-.33-.29-.56a7.77,7.77,0,0,1-.45-.9,10.45,10.45,0,0,0-.45-1l0-.06a2.5,2.5,0,0,1-.76-1.66,9,9,0,0,1-.36-.91,2.49,2.49,0,0,1-.55-1.33c0-.1,0-.2,0-.3l0-.1c-.12-.38-.23-.75-.32-1.13,0-.09-.07-.32-.13-.62-.12-.53-.44-2.06-.6-2.58a1.91,1.91,0,0,1-.09-2.22v-2.73a2,2,0,0,1-.07-2.08,1.67,1.67,0,0,1,.47-.52v-.08a3.75,3.75,0,0,1,.39-1.47,2,2,0,0,1,1-1.62,9.3,9.3,0,0,1,1.24-1.77h0l1-1.23a3.43,3.43,0,0,1,.8-1.05,4.84,4.84,0,0,1,1.76-1.24,1.09,1.09,0,0,1,.15-.18,2.3,2.3,0,0,1,.57-.52,2.2,2.2,0,0,1,.3-.4,2.12,2.12,0,0,1,1.31-.6l1.72-1.21.34-.32.38-.05a11.4,11.4,0,0,0,1.44-1.13l.7-.65.77.27.24-.1a3.74,3.74,0,0,1,.53-.19,3,3,0,0,1,1.82-.55h.16l.83-.23a3.77,3.77,0,0,1,1.77-.78,1.33,1.33,0,0,0,.19-.14,2.09,2.09,0,0,1-1.37-1.1l-.1,0,0-.09a2.52,2.52,0,0,1,.67-2.71,15.25,15.25,0,0,1,3.84-3.08,5.44,5.44,0,0,1,3.23-.76,1.69,1.69,0,0,0,1.06-.38,2.3,2.3,0,0,1-1.83-1.15,2.2,2.2,0,0,1,.13-2.26c.09-.15.19-.3.29-.44a25.94,25.94,0,0,1,3.65-4c.9-.82,1.82-1.64,2.73-2.45l.91-.81a3.78,3.78,0,0,1,2.07-1l.73-.2.48-.15c.62-.2,1.25-.4,1.86-.62l2.17-.81,2.2-.83c-.2-.15-.37-.3-.49-.41a2,2,0,0,1-.63-2.1,5.29,5.29,0,0,1-1.16.46,2.52,2.52,0,0,1-2.72-1,3.23,3.23,0,0,1-.46-3.15l.12-.29a5.88,5.88,0,0,1,.7-1.36l.14-.17c1-1.36,2.07-2.76,3.22-4.08s2.18-2.33,3.28-3.41l.22-.21a4.89,4.89,0,0,0,1.3-2.19c-.35.29-.72.55-1.08.8a2.49,2.49,0,0,1-1.86.46,2.43,2.43,0,0,1-1.59-1.09,3,3,0,0,1-.57-1.7l-.35.55a3.52,3.52,0,0,0,0,1,7,7,0,0,1-.84,4.56l0,.1a3.62,3.62,0,0,1-.13.35c-.11.26-.21.52-.32.77a12.19,12.19,0,0,1-2.33,4.07,2.8,2.8,0,0,1-2.66,1,2.09,2.09,0,0,1-1.28-.8,4.9,4.9,0,0,1-.07.67c-.16.85-.37,1.77-.66,2.91s-.58,2.21-.94,3.35c-.18.58-2.4,3.62-3.65,3.76l-1,.12-.07-.11h0a3.1,3.1,0,0,1-2.68-1.38l-.24,1.52a12,12,0,0,1-.71,2.75c-.74,1.69-1.56,3.34-2.43,4.91a7.62,7.62,0,0,1-1.72,1.95,2.57,2.57,0,0,1-1.83.62l-1.21.87a12.89,12.89,0,0,1-2.65,4.1,2.06,2.06,0,0,1-.56.77,2.27,2.27,0,0,1-.68.42l-.62.63c-.15.15-.32.29-.49.43a2.29,2.29,0,0,0-.3.25,1.53,1.53,0,0,1-.75,1l-.21.17c-.17.14-.33.27-.48.42a3.71,3.71,0,0,0-.27.29,5.86,5.86,0,0,1-.6.62c-.17.16-.64.84-.93,1.24-.4.57-.71,1-1,1.33a1.91,1.91,0,0,1-.89,1.11,1.72,1.72,0,0,1-.42.18,6.89,6.89,0,0,1-3,.89,2.51,2.51,0,0,1-2.12-.85,1.72,1.72,0,0,1-.35-1c0-.12-.1-.25-.15-.39-.32-.8-.65-1.62-.14-2.29a16.5,16.5,0,0,0,.31-1.68,2.37,2.37,0,0,1,.51-1.89,7.31,7.31,0,0,1,1.15-2.13,4.9,4.9,0,0,0,.46-.55l.31-.39.1-.13a3.46,3.46,0,0,1,.33-.4l0,0-.22-.57-.38-.16a2.26,2.26,0,0,1-.47-.32,2,2,0,0,1-.82-1.07,2,2,0,0,1,0-1.24c0-.17-.06-.34-.1-.5l-.05-.23a5.62,5.62,0,0,1-.2-2.23,1.86,1.86,0,0,1-.05-1.53s0-.12,0-.2a3,3,0,0,1,.06-.64c0-.19-.06-.37-.1-.55a3.8,3.8,0,0,1-.1-1.85l0-.25a4.43,4.43,0,0,1,.3-2.55,3.29,3.29,0,0,0,.13-.77c0-.19.05-.38.08-.57s0-.2,0-.33a9.94,9.94,0,0,1,.17-1.14,2.33,2.33,0,0,1,.13-.92,2.2,2.2,0,0,1,.31-.59,8.24,8.24,0,0,1,1.09-1.73,1.56,1.56,0,0,1,.14-.45,1.9,1.9,0,0,1,.7-.83,10.68,10.68,0,0,1,1.51-1.87l.06-.06a134.43,134.43,0,0,0,2-2.15,2,2,0,0,1,.32-.23,3.25,3.25,0,0,1,.43-.18h0a2.19,2.19,0,0,1,1.46-1.06c.24-.08.49-.18.7-.27a2.32,2.32,0,0,1,1.47-1l1-.82.32-.28a4.9,4.9,0,0,0,.39-.43,2.36,2.36,0,0,1,1.44-1l1.73-1a2,2,0,0,1,.72-.55,2.43,2.43,0,0,1,1.26-.2l.26,0,.62-.07a4.63,4.63,0,0,1-1.25-1.9,2.93,2.93,0,0,1,.68-3.2,1.49,1.49,0,0,1,0-.21,1.85,1.85,0,0,1,1.23-1.32l0,0a4,4,0,0,1,.86-.79,3.2,3.2,0,0,1,1.56-1.17l.33-.34.3.26h0l-.29-.29.33.29h0l-.33-.33,3.68-3.17,1.52-1.43a1.65,1.65,0,0,1,.16-.36l-.54.16.27-.68-6.93,6.25,5-7a2.8,2.8,0,0,1-1.93-1,6.31,6.31,0,0,1-1.19-2,4.49,4.49,0,0,1-.24-3.13,10.55,10.55,0,0,1,2.42-4.25,4.64,4.64,0,0,0,.37-.42,2.44,2.44,0,0,1-.84.12,2,2,0,0,1-.61.52,26,26,0,0,0-1.77,2.66,5.84,5.84,0,0,1-.16.86,6.86,6.86,0,0,0-.13.69c.15.69.32,1.49.54,2.24a12.76,12.76,0,0,1,.33,2.78l0,.47a10.69,10.69,0,0,1-.15,1.52c-.28,1.34-.57,2.53-.89,3.65a7.11,7.11,0,0,1-.66,1.44l-.18.32a3,3,0,0,1-2.32,1.51,3,3,0,0,1-1.49-.1,7.36,7.36,0,0,1-1.9,5.26,7.15,7.15,0,0,1-1.42,1.29,3,3,0,0,1-2.93.36,6.92,6.92,0,0,1-1,2.83c-1.06,1.67-4.93,3.62-6.15,3.34a3.18,3.18,0,0,1-2-1.57,17.34,17.34,0,0,1-1.67-4.16,3.18,3.18,0,0,1-.16-1.67l0-.18,0-1.8,0-2.22,0-.1a3.47,3.47,0,0,1-.06-.45,3.63,3.63,0,0,1,.06-.95c.05-.2.11-.41.17-.61A3.54,3.54,0,0,0,423,225a15.8,15.8,0,0,1,1.55-5.12c.11-.21.21-.42.31-.63a2.56,2.56,0,0,1-1.74.41,2.47,2.47,0,0,1-1.85-1.37,13,13,0,0,1-.87-2,3.23,3.23,0,0,1-.17.53l.14.23.15.22a2.35,2.35,0,0,1,.31,1.44s0,.07,0,.11a28,28,0,0,1,.87,3.63,3.83,3.83,0,0,1-2.08,4.31l-.73.37-.74-.38a6.63,6.63,0,0,1-3.18-3.39c-.14-.45-.27-.9-.4-1.36s-.27-1-.43-1.48-.34-.89-.53-1.34l-.27-.65-.85-2.1a17.59,17.59,0,0,0-2.71-3.29,21.2,21.2,0,0,1,2.86,3.88,3,3,0,0,1,.44,2.48,3.56,3.56,0,0,1-2,1.91,3,3,0,0,1-2.58.05,1.83,1.83,0,0,1,.67.75,2.13,2.13,0,0,0,.6.46l.18.11a7.52,7.52,0,0,1,.64.47l2.39,2.05.5.43.14.05a2.1,2.1,0,0,1,1.14,1.39l.84,1a22.28,22.28,0,0,1,2.74,3.68h0a.8.8,0,0,1,.11.14,7.57,7.57,0,0,1,.52.74,1.88,1.88,0,0,1,.53.65,1.76,1.76,0,0,1,.18.62l.5.93a2.23,2.23,0,0,1,.69,1.3l.1.43.41,4.09a1.59,1.59,0,0,1,.36,1.05,1.65,1.65,0,0,1-1.07,1.47l-.08,0-.22.37a3.88,3.88,0,0,1-1,1.28l-.12.1a4.93,4.93,0,0,1-.77.49,5.46,5.46,0,0,1,.72.84l.13.18a4.68,4.68,0,0,1,.9,3.31,2.77,2.77,0,0,1-.31,1.25c-.43.78-.88,1.56-1.35,2.36L417,256.16a4.68,4.68,0,0,1,1.52,2.65,3.48,3.48,0,0,1-.55,2.65.23.23,0,0,1-.07.07,3.15,3.15,0,0,1-.75.76,6.1,6.1,0,0,1-1.4.85,2.47,2.47,0,0,1-1.66.42,1.53,1.53,0,0,1-.36-.07l-.32.06a7.11,7.11,0,0,1-3.11,0,26.47,26.47,0,0,1-6.66-2.4c-.46-.24-1.89-1-2.24-1.29a11.17,11.17,0,0,1-3.22-3.39.53.53,0,0,0-.1-.12l-.12-.16h0a2.87,2.87,0,0,1-.35-.59,4.18,4.18,0,0,0-.18-.39c-.4-.24-.85-.8-1-2.77a3,3,0,0,1-.24-1.22,1.66,1.66,0,0,0,0-.24,8.41,8.41,0,0,1,.09-2.19c0-.3.06-.57.07-.73a12.25,12.25,0,0,1,1.9-5.83l0,0a2.82,2.82,0,0,1-1.42-.09c0,.52-.09,1-.14,1.55l0,.16a2.73,2.73,0,0,1-1.65,2.46,3.13,3.13,0,0,1-3.2-.62,3.56,3.56,0,0,1-.45-.42,9.41,9.41,0,0,1-2.1-3.4,19,19,0,0,1-1-4.54c-.06-.5-.13-1-.22-1.5a14.6,14.6,0,0,0-.35-1.53,2.65,2.65,0,0,1-1.17,1.81,5,5,0,0,1-4.66.21,2.3,2.3,0,0,1-.81,2,2.12,2.12,0,0,1-.42.29,10.53,10.53,0,0,1,4.32,1.66c.29.2.57.43.84.65s.49.4.75.58a9.81,9.81,0,0,1,2.54,2.63c.38.52.72,1.07,1.07,1.63l.67,1v.41c0,.09,0,.19,0,.29a.87.87,0,0,0,0,.23,6.12,6.12,0,0,1-.27,3.13,4.44,4.44,0,0,1-2.36,2.76,1.91,1.91,0,0,0-.29.2,2.68,2.68,0,0,1-.23.17l-.5.34-.61-.07c-.54-.07-1.08-.17-1.62-.29a12.33,12.33,0,0,1-3.88-1.48,2.81,2.81,0,0,1-1.3,1.15,5.51,5.51,0,0,1-.78.31l-.27.08a7.6,7.6,0,0,1-1.19.24,6.91,6.91,0,0,1-5.33-1.25l-.47-.36a10.84,10.84,0,0,1-2.67-2.62,5.83,5.83,0,0,1-1.6-.13,2.39,2.39,0,0,1-1.05,1,1.67,1.67,0,0,0,.44.11,10.19,10.19,0,0,1,2,.49,2.22,2.22,0,0,1,1.56,2.48,4.49,4.49,0,0,1-1.29,2.47l-.13.14c-.35.42-.69.85-1,1.28l-.69.86c-.45.56-.91,1.11-1.39,1.65-.16.18-.33.34-.5.51.33-.27.65-.55,1-.83a11.62,11.62,0,0,1,3.53-2.32,2.34,2.34,0,0,1,.89-.12l.76-.09,1.23-.14.81,0,1.66-.07.24,1.27a5.18,5.18,0,0,1-1.74,5.38,3,3,0,0,1,.34.79,2.07,2.07,0,0,1,.48-.31,2.17,2.17,0,0,1,.21-1.09c.07-.16.16-.32.24-.48a3.17,3.17,0,0,0,.21-.41,11.93,11.93,0,0,0,.38-1.15,7.58,7.58,0,0,1,1.3-2.86c.24-.81,1.07-1.12,1.63-1.33l.31-.12a5.77,5.77,0,0,1,1-.32l.29-.07,1.46-.41m69.13,8.49v0Zm-26.81-1.52a.13.13,0,0,0,0,.06A.13.13,0,0,1,423.85,263.14Zm-26.09-7.76h0Zm10.45-1.77a12,12,0,0,1,1.7.41l.12,0a4.34,4.34,0,0,1-.83-.72,2.88,2.88,0,0,1-1,.15S408.2,253.57,408.21,253.61ZM369.59,250Zm81.91-4.11c-.16.48-.3,1-.43,1.48C451.22,246.88,451.37,246.39,451.5,245.89Zm18.4-4.16h0a1.56,1.56,0,0,0-1.05,1.21l.12,0c.61-.25.77-.54.85-.8Zm-58.29,1h0Zm42.7-8.32v0Zm-11.12-7.57h0Zm-36.37-6.62a2,2,0,0,1,.12.21,2.12,2.12,0,0,0,1,.74l.09,0a5.24,5.24,0,0,1-1.09-.86Zm14-1.34Zm-17.14-1.11a4.77,4.77,0,0,1,1.65.75l-.16-.17c-.61-.63-1.28-1.2-1.78-1.64-.21-.17-.43-.33-.65-.49s-.57-.41-.83-.64-.46-.42-.68-.64l-.13.15-1.08,1.2a7.67,7.67,0,0,0,1.8.75,2,2,0,0,1,1.07.12A2,2,0,0,1,403.65,217.79Zm16.45-.71Zm7.3-3a5,5,0,0,1-.28,1.52c.41-.47.77-.93,1.1-1.39l.09-.12-.32,0A3.36,3.36,0,0,1,427.4,214.05Zm17.27-1.57Zm-25.11-3.59h0c.2.75.42,1.59.58,2.46.05-.43.11-.85.17-1.27l0-.19c.09-.62.21-1.23.33-1.84.08-.38.15-.76.22-1.14a1.14,1.14,0,0,0-.31-1.08,4.59,4.59,0,0,1-.49-.62l-.45.19-.06,0a2.79,2.79,0,0,1-.2.46l.34,2.75Z" transform="translate(-346.04 -193.06)"/></svg>