<svg id="Calque_1" data-name="Calque 1" xmlns="http://www.w3.org/2000/svg" viewBox="0 0 149.81 227.66"><defs><style>.cls-1,.cls-3{fill:#74ad38;}.cls-2,.cls-5{fill:#fff;}.cls-3{font-size:19.91px;font-family:IBMPlexMono-Medium, IBM Plex Mono;font-weight:500;}.cls-4{fill:none;stroke-width:3px;}.cls-4,.cls-5{stroke:#fff;stroke-miterlimit:10;}.cls-5{stroke-width:2px;}</style></defs><rect class="cls-1" width="149.81" height="149.81" rx="13.62"/><rect class="cls-2" y="160.31" width="149.81" height="67.35" rx="9.13"/><path class="cls-2" d="M358.1,227V214.17a9.08,9.08,0,0,1,9.08-9.08h12.68v-3.43H366.78a12.11,12.11,0,0,0-12.11,12.11V227Z" transform="translate(-346.04 -193.06)"/><path class="cls-2" d="M380,330.85H367.18a9.08,9.08,0,0,1-9.08-9.08V309.1h-3.43v13.07a12.11,12.11,0,0,0,12.11,12.11H380Z" transform="translate(-346.04 -193.06)"/><path class="cls-2" d="M461.89,205.09h12.82a9.08,9.08,0,0,1,9.08,9.08v12.67h3.43V213.77a12.11,12.11,0,0,0-12.11-12.11H461.89Z" transform="translate(-346.04 -193.06)"/><path class="cls-2" d="M483.79,309v12.82a9.08,9.08,0,0,1-9.08,9.08H462v3.43h13.08a12.11,12.11,0,0,0,12.11-12.11V309Z" transform="translate(-346.04 -193.06)"/><text class="cls-3" transform="translate(15.16 179.91)">dioxyde de<tspan x="23.9" y="18.69">soufre</tspan><tspan x="-5.97" y="37.38">et sulfites</tspan></text><path class="cls-4" d="M394.23,325c-4.84-2.15-9.72-4.21-14.49-6.51a7.82,7.82,0,0,1-3.29-3A32.81,32.81,0,0,1,397,268.14c7.24-1.9,11.8-5.92,14.57-12.69,3.09-7.53,6.64-14.87,9.81-22.36.54-1.27.1-2.91.3-4.36s.17-3.61,1.13-4.47a5.42,5.42,0,0,1,4.69-1c7,2.82,13.9,5.91,20.69,9.21a5.1,5.1,0,0,1,2.28,4c0,1.34-1.47,2.71-2.47,3.93s-2.57,2-3.19,3.37c-3.61,7.73-6.93,15.6-10.5,23.35a18.33,18.33,0,0,0,.56,17.41,33,33,0,0,1-19.6,47.25,8.91,8.91,0,0,1-7-.41C403.61,329.06,398.89,327.11,394.23,325Z" transform="translate(-346.04 -193.06)"/><circle class="cls-4" cx="92.83" cy="16.91" r="5.29"/><circle class="cls-4" cx="102.41" cy="27.44" r="3.59"/><circle class="cls-4" cx="452.56" cy="206.83" r="3.3" transform="translate(-259.25 351.1) rotate(-67.25)"/><path class="cls-5" d="M386.56,294.82a8.12,8.12,0,0,0,3.26,2.71c2.13.94,3.87.37,4.6-1.25s.19-2.75-1.62-4.56c-2.21-2.1-3.23-4.19-2.22-6.46,1.12-2.51,4-3.45,7.16-2.06a7.88,7.88,0,0,1,3.21,2.38L399.62,287a7,7,0,0,0-2.72-2.13c-2.2-1-3.62,0-4.11,1.07-.67,1.5,0,2.68,1.82,4.53,2.26,2.27,3.06,4.2,2,6.57s-3.91,3.82-7.71,2.13a9.34,9.34,0,0,1-3.66-2.86Z" transform="translate(-346.04 -193.06)"/><path class="cls-5" d="M417,301.63c-2.47,5.55-7.15,7-11.27,5.16s-5.78-6.53-3.61-11.41c2.28-5.12,6.95-7.05,11.26-5.13S419.08,296.84,417,301.63Zm-12.63-5.31c-1.53,3.45-1,7.36,2.24,8.82s6.52-.74,8.14-4.4c1.43-3.2,1.25-7.3-2.22-8.84S405.9,292.78,404.32,296.32Z" transform="translate(-346.04 -193.06)"/><path class="cls-5" d="M416.48,311l.29-.64,1.18-.44c2.82-1,4.17-1.61,4.7-2.78a1.52,1.52,0,0,0-.87-2.2,2.85,2.85,0,0,0-1.94-.08v-.89a3.78,3.78,0,0,1,2.56.19,2.39,2.39,0,0,1,1.37,3.32c-.64,1.44-2.19,2.13-4.53,3l-.88.3v0l3.49,1.56-.39.87Z" transform="translate(-346.04 -193.06)"/></svg>