<svg id="Calque_1" data-name="Calque 1" xmlns="http://www.w3.org/2000/svg" viewBox="0 0 149.81 246.2"><defs><style>.cls-1,.cls-3{fill:#74ad38;}.cls-2{fill:#fff;}.cls-3{font-size:19.91px;font-family:IBMPlexMono-Medium, IBM Plex Mono;font-weight:500;}</style></defs><rect class="cls-1" width="149.81" height="149.81" rx="13.62"/><rect class="cls-2" y="160.31" width="149.81" height="85.89" rx="10.31"/><path class="cls-2" d="M358.1,227V214.17a9.08,9.08,0,0,1,9.08-9.08h12.68v-3.43H366.78a12.11,12.11,0,0,0-12.11,12.11V227Z" transform="translate(-346.04 -193.06)"/><path class="cls-2" d="M380,330.85H367.18a9.08,9.08,0,0,1-9.08-9.08V309.1h-3.43v13.07a12.11,12.11,0,0,0,12.11,12.11H380Z" transform="translate(-346.04 -193.06)"/><path class="cls-2" d="M461.89,205.09h12.82a9.08,9.08,0,0,1,9.08,9.08v12.67h3.43V213.77a12.11,12.11,0,0,0-12.11-12.11H461.89Z" transform="translate(-346.04 -193.06)"/><path class="cls-2" d="M483.79,309v12.82a9.08,9.08,0,0,1-9.08,9.08H462v3.43h13.08a12.11,12.11,0,0,0,12.11-12.11V309Z" transform="translate(-346.04 -193.06)"/><text class="cls-3" transform="translate(27.11 179.91)">1,3-Bis-<tspan x="-23.9" y="18.69">(2,4-diamino</tspan><tspan x="0" y="37.38">phénoxy)</tspan><tspan x="5.97" y="56.07">propane</tspan></text><rect class="cls-2" x="418.28" y="277.98" width="18.55" height="3.7" rx="1.85" transform="translate(585.81 4.36) rotate(137.52)"/><path class="cls-2" d="M456.69,286.53l-2.84,2.63,8.14,9,5.5,6c1.06,1.17,1.08,2.22.07,3.12a2.23,2.23,0,0,1-3-.58l-13.47-15c-.86.75-1.71,1.43-2.47,2.21-.13.13,0,.77.24,1,3.3,3.66,6.63,7.29,9.95,10.94,1.14,1.24,2.28,2.48,3.36,3.77a1.72,1.72,0,0,1,.29,2.34,1.85,1.85,0,0,1-2.69.4c-1.22-1.1-2.33-2.33-3.44-3.55-3.6-4-7.19-8-10.86-12.08l-2.8,2.52c1.12,1.26,2.22,2.51,3.34,3.75,3.51,3.88,7,7.74,10.52,11.65a1.83,1.83,0,1,1-2.47,2.69,39.83,39.83,0,0,1-2.89-3.05c-3.74-4.11-7.47-8.23-11.31-12.47L437,304.35c1.41,1.58,2.8,3.14,4.2,4.69,3.23,3.57,6.49,7.12,9.68,10.72a1.75,1.75,0,0,1,.1,2.49c-.7.74-1.57,1.16-2.48.23s-2.09-2.08-3.08-3.17c-3.73-4.1-7.44-8.21-11.24-12.42l-2.77,2.53c1.42,1.6,2.73,3.1,4.08,4.58,3.28,3.62,6.58,7.23,9.85,10.85a1.89,1.89,0,0,1-.15,2.68,1.61,1.61,0,0,1-2.51-.07c-2.22-2.43-4.47-4.83-6.69-7.27q-6.78-7.5-13.54-15c-2.81-3.12-5.69-6.18-8.31-9.45a13.52,13.52,0,0,1-2.92-7.89,32,32,0,0,1,.11-6.34,23.6,23.6,0,0,1,1.7-4.74,1.73,1.73,0,0,0-.29-2.16c-7.22-8.3-14.33-16.71-21.52-25q-11.94-13.82-24-27.56c-1.31-1.49-2.66-2.92-2.92-5a5.89,5.89,0,0,1,4.38-6.14c2.69-.68,4.59.62,6.3,2.41q7.92,8.31,15.8,16.63c5.25,5.57,10.44,11.19,15.7,16.75,4,4.25,8.08,8.45,12.12,12.67,1.6,1.66,3.2,3.31,4.79,5,1.27,1.34,1.24,1.29,3.54.46a17.44,17.44,0,0,1,9.61-.49c5,1,8.65,3.9,11.92,7.64,4.74,5.43,9.69,10.67,14.54,16q5.15,5.66,10.24,11.38a2,2,0,0,1-.11,2.94,1.91,1.91,0,0,1-2.64-.35C466,296.79,461.36,291.7,456.69,286.53Zm-27.77,20.08,25.23-22.87c-2.44-2.69-4.76-5.33-7.16-7.88-2-2.12-3.69-4.54-6.34-6-4.86-2.73-9.77-3.12-14.81-.57a2.33,2.33,0,0,1-3.27-.51c-1.35-1.38-2.72-2.76-4.06-4.16-4.36-4.54-8.72-9.07-13.05-13.65s-8.67-9.3-13-13.93q-7.41-7.86-14.86-15.67-3-3.18-6.13-6.28a1.66,1.66,0,0,0-2.1-.48c-1.28.69-1.74,2-.5,3.47q5.31,6.09,10.62,12.18c5.17,5.92,10.35,11.84,15.48,17.79,7.33,8.48,14.61,17,22,25.48,1.39,1.61.84,2.59.17,3.87a23.68,23.68,0,0,0-1.81,4.1,13.89,13.89,0,0,0-.22,6.32,14.08,14.08,0,0,0,3.32,7.14c2.46,2.76,4.91,5.52,7.38,8.27C426.78,304.36,427.85,305.47,428.92,306.61Z" transform="translate(-346.04 -193.06)"/></svg>