<svg id="Calque_1" data-name="Calque 1" xmlns="http://www.w3.org/2000/svg" viewBox="0 0 149.81 208.89"><defs><style>.cls-1,.cls-3{fill:#74ad38;}.cls-2{fill:#fff;}.cls-3{font-size:19.91px;font-family:IBMPlexMono-Medium, IBM Plex Mono;font-weight:500;}.cls-4{fill:none;stroke:#fff;stroke-miterlimit:10;stroke-width:3px;}</style></defs><rect class="cls-1" width="149.81" height="149.81" rx="13.62"/><rect class="cls-2" y="160.31" width="149.81" height="48.59" rx="7.76"/><path class="cls-2" d="M358.1,227V214.17a9.08,9.08,0,0,1,9.08-9.08h12.68v-3.43H366.78a12.11,12.11,0,0,0-12.11,12.11V227Z" transform="translate(-346.04 -193.06)"/><path class="cls-2" d="M380,330.85H367.18a9.08,9.08,0,0,1-9.08-9.08V309.1h-3.43v13.07a12.11,12.11,0,0,0,12.11,12.11H380Z" transform="translate(-346.04 -193.06)"/><path class="cls-2" d="M461.89,205.09h12.82a9.08,9.08,0,0,1,9.08,9.08v12.67h3.43V213.77a12.11,12.11,0,0,0-12.11-12.11H461.89Z" transform="translate(-346.04 -193.06)"/><path class="cls-2" d="M483.79,309v12.82a9.08,9.08,0,0,1-9.08,9.08H462v3.43h13.08a12.11,12.11,0,0,0,12.11-12.11V309Z" transform="translate(-346.04 -193.06)"/><text class="cls-3" transform="translate(21.14 179.91)">coriandre<tspan x="-5.97" y="18.69">et dérivés</tspan></text><path class="cls-4" d="M471.64,258.64c.8-1.31,6-4.15,5.67-5.88-.09-.58-1.12-.95-2.54-1.11.28-.65,2.17-3.77,1-4.67s-2,1.58-2.94,1.34c.13-1.47.66-3.3-.81-3.27s-3.31,5.75-5.58,6.33c0-2-.05-6-1.31-5.91s-2.4,3.14-2.47,5c-.31-1.52-1.59-3.73-2.54-2.85s.37,6.87-.25,10a23.07,23.07,0,0,1-3.13,8.46c.95-4,2.1-10.32,1.12-14.21-1.4-1-1.65.37-2.4,1.17-.22-5.6-3.45-5.6-3.13,0-.44-.84-2.22-3.93-3.26-3.08s.25,5.08.4,7.63c-.63-1-1.67-3.22-2.5-2.33-.54.58,1.42,4.13,2,7.61a7.36,7.36,0,0,1-.72,5,47.16,47.16,0,0,0-1.58-7.39c-.76-2.33-1.67-4.88-2.71-5.48s-1.41,1.31-1.73,2c-.2-.42-.81-2.38-1.88-2s.32,3.39-.32,4.21c-.57-1.19-1.59-3.13-2.39-2.27s.58,4.5,1.4,6.48c-.52-1.27-3.18-4-3.95-3s.54,2.68.77,4c-1.16-.69-1.85-1.85-2.33-1.06s2.89,8.48,2.33,9.11-2.77-4.84-4.45-4.61c-1.1.16-.3,2.93.05,3.92-.8-.35-1.59-2-2.17-1.16s.67,2.57.8,4.08c-.41.08-1.26-.08-1.46,1s5.92,11.15,7.49,13.77a30.89,30.89,0,0,0-3.7,7.77c-4.24-10.3-8-20.86-8.07-33,.68-5.24,2.55-7.3,5.42-9.52,3.28-2.54,11.2-2.22,15.62-5,.82-.52,1.75-1.64,1.17-2.81,1.43-.48,2.6-.26,3-1.69s-2.65-1.43-3.71-1.75c2.06-1,4.59-1.32,4.82-2.86s-3.88-1.12-6-1.22c.27-2.59,5.63-2.66,5.86-3.62s-1.91-1.72-3.09-2.46c.77-.41,2.58-1.27,2.36-2.28s-2.52-.59-3.68-.56c.41-1.44.21-2.6-.56-3s-3.06,2.21-4.24,3.45c-.12-.52.32-3-1.07-2.9-2.46.12-4,5.54-5.48,7.37-.5-.87.3-3.72-1-4.23s-1.51,3-1.66,3.77c-.82-1.53-1.81-2.64-2.82-1.95s.36,3.27-.3,4.43c-.24-.35-1.21-2.81-2.11-1.7s.55,12.56-4.61,14.94c-2.07-3,1-16,9.32-22,1.94-1.38,7.67-5,7.46-7.75-1.53-1.22-3-.65-4-.38,1.49-1.19,2.64-4.39,1.11-5.56s-3.87,2.17-5.94,3.55c.13-1,1-2.64,0-3-1.66-.59-3.17,2-4.2,3.17-3,3.58-3.27,8.4-5.26,13.58-1.71-5.89,1.87-13.2,3.4-15.7s2.44-5.39,1.1-7.08c-3-1-4.8,3.11-5.07,2.68s2.38-4.5.74-5.93-3.23.42-4.2,2.3c0-1.24-.06-6.53-1.45-7.11-2.83-1.19-3.72,3.95-3.7,5.72-1-2-3.06-3-3.89-2.07a3.42,3.42,0,0,0-.58,3.07c.5,2.13,1.47,5,1.4,7.07-.77-1.7-2.22-5.81-4-6.7-.79-.4-1.74-.05-2.06,1.27-.88,3.65,6.67,9.08,7.41,15.84-3.36-1.55-6.65-6.89-7.44-9.11s-2.86-3.26-3.65-2.23.36,3.15.41,4.41c-2.32-1.94-4.94-3.85-6.45-2.66s.37,4.49,2.3,5.64c-1.1-.53-4.25-.37-4.45.8-.48,2.78,4.84,2.51,4.69,3.09s-3.48.55-3.18,1.59c.48,1.67,5.12,2.4,6.91,3.82-1.26.06-4.37,0-4.34,1.67,3.63,4.13,10.54,2.54,14.67,5.8,5.51,4.34,6.36,12.6,9.54,17.48-2.6.42-5.89-2.88-7.79-6.12-1.73-2.95-1.62-5.67-3.26-7.71a8.22,8.22,0,0,0-5-3.34c-1.07,1-.54,1.63-.76,2.59-2.33-1.36-1.75-4.69-4.21-5.49-1.32-.42-1.27,1.2-2,2.31-.83-1.69-2.51-3.79-3.54-2.94s.79,5.76,1,8c-1.67-1.65-3.47-7.36-5.43-7.71-1.43-.26-1.26,1.4-1.22,2.63-1-1.47-2.29-2.85-4.07-2.44-.68,1.5,0,3.61.43,5.1-2-.81-4-2.34-6.23-1.91,0,.5.22,1.45.23,2-2.19.22-3.13.06-3.17,1.51-.11,3.47,6.18,4.1,6.75,4.45-1.85,1-5.22,1.88-4.79,4.69.42.84,2,.9,2.72.76a2.24,2.24,0,0,0,.2,2.61c1.83.24,5.2-1.32,7.43-1.07-1.1,1.54-5.44,1.71-6.29,3.84.65,2.52,4.12,1.74,5.18,1.56-.8,1-2,2.14-1.35,2.51,1.72,1,7.71-2.75,11.33-.1-3,1-6.09,0-9.19,2.36,1.35,1.35,4.64,2,6.81,1.51-.21,1-1.81,1.6-2.12,2.55,4.91.69,12.56-6.12,17.72-6.36,8.19-.39,11.36,1.8,14.21,5.24.81,11,4.2,21.46,8,31.81a12.24,12.24,0,0,0-6.51-1.86c-.48-1.15.7-2.08,1.53-5.64.93-4-1-11.2-3.65-11.68-.68-.12-1.12.83-1.35,1-.5-2-1.59-4.93-3.29-4.67-.82.13-.71,1.23-.9,1.7-1.4-1.25-2.57-4.14-3.84-4.34s-1.48,1.85-1.68,2.63c-1.56-1.4-1.34-3.86-3.05-3.55-.63.12-1.14,1-1.28,1.35-.68-1.36-2.37-2.21-2.91-2s-.84,1.94-.44,2.75c-.7-.13-2.4-.31-2.48.45a6.58,6.58,0,0,0,2,3.93c-1.92.56-2.92-.15-2.7,1,1.19,4.77,6.86,7.65,7.63,10.09a6.66,6.66,0,0,1-4.81-2.42c-2.2-2.39-3.74-7.71-5.05-7.91-1.11-.24-.88,1.07-1.32,1.06-.45-1.56-2.05-4.5-3.18-4.39-.51,0,.05,2.75.22,4.05-.43-2.35-2.76-5.06-4.14-4.58-.89.31-.67,1.53-.59,2.13-1.35-.54-3.22-.86-4-.54s-.19,1.39-.32,1.9c-1.58.28-2.81.05-2.39,1.67s6.88,3.88,8.27,8.81c-3.12-.24-4.18-2.17-7-3.27-1.37-.53-4.87-5.41-6.57-5s-.84,2.65,0,5.51c-3.51-.88-5.31-.29-5.61,1.58s1.48,3.71,4.77,3.92c-1.79,1-4.07,2.2-2.36,3.82,1.91,1.8,7,1.07,8.18.85-1.43,1.45-4.76,6.7-3.1,7.81s3.43-.5,4.3-2.34c-.49,1.72-1.28,4.09.31,4.32s4.16-4.62,6.33-6.19c2.61-1.89,5.29-1.15,8.07-2,.25,3.59-2.48,6.08-6.05,7.59-1.7.71-2.87,1.91-2.55,3s1.49,1.19,2.2,1.31c-2.73,1.76-3.26,5-2.52,5.76s1.9.37,4.56-1.25c.44,1.84,1,3.2,1.8,3.39,1.29.33,3.11-1.32,3.17-3.72.22,1.07,1,3.65,2.39,3.25s2.62-8.19,4-11.6,6.25-5.09,6.25-5.09a8,8,0,0,0-5.27,5.68c-.83,3.15-1,7.3-.18,8.08s2.31.34,3.26.13c-.11,1.52-.84,4,.56,4.52s2.42-1,3.33-2.09c.64,1.52,2.3,3.15,3.74,2.95s.1-3.56,1.35-4.65c1.25,1,3.66,4.69,5.1,4.23s.87-3.06,1.66-4.07c.42-.54,1.85.71,2.89.28s2.7-12.29-2.69-18.77c2.67.16,4,1.06,6.49,2.49,1.63,4.38,3.31,8.75,4.89,13.12,2.2,6.09,5.59,15.54,5.69,19.57,0,.8,2.34,1.32,2.44-.75.21-4.34-3-12.77-4.56-17.26-1.85-5.22-4.06-10.33-6.21-15.48a25.52,25.52,0,0,1,3.84-9.33c2.79.06,4.16,5.15,6.23,5.67,2.22.56,2.47.32,3.45.68C448,296.8,449,298,450,297.8c.77-.16,1.43-.76,1.86-2.19,1,1.16,2.91,3.07,4.5,2.49,1.39-.51.77-3.13.79-3.55,1.23.77,4.14,2.44,5.3,1.8,1.35-.74-.24-2.75-.32-3.34,1.82.11,3.81.24,4.56-1.24.53-1,0-2-1.22-2.89,4.07-1.48,4.1-2.75,3.87-3.86s-2.76-.06-3.55-.32c.32-.67,1.9-1.91,1.64-2.81s-2.76-.79-3.92-.11c-.11-.9.31-2.26-.72-2.41a10.15,10.15,0,0,0-4.88.92c-2.27.88-3.38,2.27-5.36,1.39,2.83-4.27,8.28-3.54,12.87-5.14,3-1,4.23-1.91,5-3.12a2.31,2.31,0,0,0,.21-2.65c.83-.49,2.66-3.15,1.39-4.11s-6.4,4-9.29,3.1c1.62-3.44,12.27-4.69,12.59-6.59s-1.61-1.66-2.07-1.91c1.5-.56,4.16-1.35,3.15-2.78C475.6,257.25,472.86,258.65,471.64,258.64Z" transform="translate(-346.04 -193.06)"/></svg>