<svg id="Calque_1" data-name="Calque 1" xmlns="http://www.w3.org/2000/svg" viewBox="0 0 149.81 190.35"><defs><style>.cls-1,.cls-3{fill:#74ad38;}.cls-2{fill:#fff;}.cls-3{font-size:19.91px;font-family:IBMPlexMono-Medium, IBM Plex Mono;font-weight:500;}.cls-4{fill:none;stroke:#fff;stroke-miterlimit:10;stroke-width:3px;}</style></defs><rect class="cls-1" width="149.81" height="149.81" rx="13.62"/><rect class="cls-2" y="160.31" width="149.81" height="30.05" rx="6.1"/><path class="cls-2" d="M358.1,227V214.17a9.08,9.08,0,0,1,9.08-9.08h12.68v-3.43H366.78a12.11,12.11,0,0,0-12.11,12.11V227Z" transform="translate(-346.04 -193.06)"/><path class="cls-2" d="M380,330.85H367.18a9.08,9.08,0,0,1-9.08-9.08V309.1h-3.43v13.07a12.11,12.11,0,0,0,12.11,12.11H380Z" transform="translate(-346.04 -193.06)"/><path class="cls-2" d="M461.89,205.09h12.82a9.08,9.08,0,0,1,9.08,9.08v12.67h3.43V213.77a12.11,12.11,0,0,0-12.11-12.11H461.89Z" transform="translate(-346.04 -193.06)"/><path class="cls-2" d="M483.79,309v12.82a9.08,9.08,0,0,1-9.08,9.08H462v3.43h13.08a12.11,12.11,0,0,0,12.11-12.11V309Z" transform="translate(-346.04 -193.06)"/><text class="cls-3" transform="translate(45.04 179.91)">latex</text><path class="cls-4" d="M389.84,315.46a83.79,83.79,0,0,1,5.17-9.27,43,43,0,0,0,4.64-9.44c.64-1.93,1.32-1.85,1.6-3s0-2.25,1.22-3.93c.58-.8,2.42-4.31.19-7.24S399,272,398.24,268.74A33.5,33.5,0,0,1,397,258.16c.26-4.26-2.07-9.48-2.25-12.22s1.72-5.37,1.49-9.66.24-6.91,2.61-7,5.9,1.47,6.81,9.77.68,15.62,4.85,14.81,7.58-9.21,8.74-14.25,5.6-24.65,8.67-30.07,5.21-4.17,6.44-3.56,3.44,1.08.32,11.77a120.2,120.2,0,0,0-3.93,17.33c-.4,2-.19,2.86.84,3.06s2.05.4,3.85-4.32,9.35-20.68,11.3-23.18,3.41-4.44,6.36-3,1.75,4.32.71,7.68-7.61,19-9.05,22.56-3.23,7.18-1.55,6.88,2.72-2,8.71-11.51,8.57-15.15,12.47-13.74-.15,8.18-.91,10.55-7.68,14.37-9.82,17.7-3.81,6.28-2.82,6.76,4.33.1,9.92-9.18,8-9.75,9.52-7.35-3.17,9.55-6.52,15.55-7.31,8.84-9.17,11.8-7.92,14.65-13.27,21.8-8.56,10-10.38,13c-1.19,2-5,8.74-5.23,9.2a4.89,4.89,0,0,0-.52,2.13c0,.12,0,.24,0,.35a5.78,5.78,0,0,1-1.62,2.94,3.4,3.4,0,0,0-.12.34,5.6,5.6,0,0,0-.29,1.85c0,.12,0,.25-.07.37a8.55,8.55,0,0,1-1.25,2.7l-.18.41c-1.14,2.72-2.25,5.11-3.21,7.07-1.74,3.53-2.57,7.1-11.18,4.49S386.61,321.82,389.84,315.46Z" transform="translate(-346.04 -193.06)"/></svg>