<svg id="Calque_1" data-name="Calque 1" xmlns="http://www.w3.org/2000/svg" viewBox="0 0 149.81 190.35"><defs><style>.cls-1,.cls-3{fill:#74ad38;}.cls-2{fill:#fff;}.cls-3{font-size:19.91px;font-family:IBMPlexMono-Medium, IBM Plex Mono;font-weight:500;}.cls-4,.cls-5{fill:none;stroke:#fff;stroke-miterlimit:10;}.cls-4{stroke-width:3.37px;}.cls-5{stroke-width:3px;}</style></defs><rect class="cls-1" width="149.81" height="149.81" rx="13.62"/><rect class="cls-2" y="160.31" width="149.81" height="30.05" rx="6.1"/><path class="cls-2" d="M358.1,227V214.17a9.08,9.08,0,0,1,9.08-9.08h12.68v-3.43H366.78a12.11,12.11,0,0,0-12.11,12.11V227Z" transform="translate(-346.04 -193.06)"/><path class="cls-2" d="M380,330.85H367.18a9.08,9.08,0,0,1-9.08-9.08V309.1h-3.43v13.07a12.11,12.11,0,0,0,12.11,12.11H380Z" transform="translate(-346.04 -193.06)"/><path class="cls-2" d="M461.89,205.09h12.82a9.08,9.08,0,0,1,9.08,9.08v12.67h3.43V213.77a12.11,12.11,0,0,0-12.11-12.11H461.89Z" transform="translate(-346.04 -193.06)"/><path class="cls-2" d="M483.79,309v12.82a9.08,9.08,0,0,1-9.08,9.08H462v3.43h13.08a12.11,12.11,0,0,0,12.11-12.11V309Z" transform="translate(-346.04 -193.06)"/><text class="cls-3" transform="translate(15.16 179.91)">mélatonine</text><path class="cls-4" d="M449.49,208.46a30.28,30.28,0,0,1-23,54.08,30.28,30.28,0,1,0,23-54.08Z" transform="translate(-346.04 -193.06)"/><circle class="cls-5" cx="33.59" cy="113.68" r="12.84"/><circle class="cls-5" cx="86.33" cy="117.87" r="12.84"/><circle class="cls-5" cx="40.57" cy="64.01" r="12.84"/><line class="cls-5" x1="36.66" y1="101.12" x2="39.93" y2="76.4"/><line class="cls-5" x1="31.64" y1="101.12" x2="34.91" y2="76.4"/><line class="cls-5" x1="49.22" y1="73.49" x2="77.96" y2="108.66"/><line class="cls-5" x1="52.84" y1="69.87" x2="81.59" y2="105.03"/><line class="cls-5" x1="47.82" y1="115.07" x2="73.5" y2="117.87"/><line class="cls-5" x1="45.31" y1="120.1" x2="74.65" y2="123.38"/></svg>