<svg id="Calque_1" data-name="Calque 1" xmlns="http://www.w3.org/2000/svg" viewBox="0 0 150.05 209.14"><defs><style>.cls-1,.cls-3{fill:#74ad38;}.cls-2{fill:#fff;}.cls-3{font-size:19.95px;font-family:IBMPlexMono-Medium, IBM Plex Mono;font-weight:500;}</style></defs><rect class="cls-1" width="150.05" height="150.05" rx="13.64"/><path class="cls-2" d="M446.44,289.92H422.26v-1a6.39,6.39,0,0,0-12.77,0v1h-25l.66-1.41a12.93,12.93,0,0,0-9.39-18.18l-.93-.17.13-.94c2-14.83,6.24-28.41,12.27-39.29l.8-1.45.9,1.4a15.79,15.79,0,1,0,22.39-21.44l-1.58-1.11,1.83-.64a27.57,27.57,0,0,1,9-1.53,28.1,28.1,0,0,1,11,2.31,37.19,37.19,0,0,1,10,6.54l.72.65-.62.73a7.64,7.64,0,0,0,9.42,11.68l.83-.44.49.8a93.4,93.4,0,0,1,8.68,19.37,128.64,128.64,0,0,1,5.17,23.45,27.1,27.1,0,0,1-.93,11.34l-.74,2.32-1.09-2.17A9.44,9.44,0,0,0,445.68,286a9.7,9.7,0,0,0,.38,2.68Zm-22.26-2h19.68a11.82,11.82,0,0,1-.17-2,11.43,11.43,0,0,1,17.51-9.67,11.57,11.57,0,0,1,2.85,2.55,25.59,25.59,0,0,0,.3-8.35c-2-15.84-6.54-30.09-13.12-41.27a9.79,9.79,0,0,1-3.67.72,9.63,9.63,0,0,1-7.94-15.06c-6-5.14-12.4-7.75-19.06-7.75a25.22,25.22,0,0,0-6.6.89,17.78,17.78,0,1,1-25.78,24.26c-5.4,10.19-9.24,22.68-11.16,36.29a14.9,14.9,0,0,1,11.29,14.47,14.72,14.72,0,0,1-.82,4.89h20.07a8.37,8.37,0,0,1,16.62,0ZM436,271.36A14.9,14.9,0,1,1,446.55,267,14.8,14.8,0,0,1,436,271.36Zm0-27.84a12.93,12.93,0,1,0,12.93,12.93A12.94,12.94,0,0,0,436,243.52ZM394.94,271a11.49,11.49,0,1,1,11.49-11.49A11.5,11.5,0,0,1,394.94,271Zm0-21a9.51,9.51,0,1,0,9.51,9.51A9.53,9.53,0,0,0,394.94,250Z" transform="translate(-345.92 -193.06)"/><path class="cls-2" d="M447.11,290.42H421.76v-1.49a5.89,5.89,0,0,0-11.77,0v1.49H383.67l1-2.12a12.44,12.44,0,0,0-9-17.48l-1.4-.25.19-1.41c2-14.9,6.27-28.54,12.33-39.47L388,227.5l1.35,2.11A15.29,15.29,0,1,0,411,208.85l-2.38-1.68,2.76-.95a28,28,0,0,1,20.41.79A37.63,37.63,0,0,1,442,213.64l1.08,1-.94,1.11a7.14,7.14,0,0,0,8.81,10.91l1.24-.67.74,1.21a93.94,93.94,0,0,1,8.73,19.48,129.63,129.63,0,0,1,5.19,23.54,27.6,27.6,0,0,1-.95,11.55l-1.56,3.43-1.2-3.21a8.94,8.94,0,0,0-16.93,4,9,9,0,0,0,.36,2.54Zm-24.35-1h23l-.19-.63A9.94,9.94,0,0,1,464,281.51l.55,1.08.36-1.15a26.39,26.39,0,0,0,.91-11.12A127.66,127.66,0,0,0,460.68,247,93,93,0,0,0,452,227.69l-.24-.4-.41.22a8.14,8.14,0,0,1-10-12.44l.31-.36-.36-.32a36.65,36.65,0,0,0-9.9-6.46,27,27,0,0,0-19.7-.76l-.9.31.78.55a16.29,16.29,0,1,1-23.1,22.12l-.45-.7-.4.72c-6,10.82-10.22,24.35-12.21,39.12l-.06.47.46.08a13.42,13.42,0,0,1,11,13.21,13.19,13.19,0,0,1-1.26,5.67l-.33.7H409v-.49a6.89,6.89,0,0,1,13.77,0Zm21.7-1H423.74l-.06-.44a7.87,7.87,0,0,0-15.62,0l-.05.44H386.79l.23-.67a14.22,14.22,0,0,0,.79-4.72,14.36,14.36,0,0,0-10.91-14l-.44-.11.06-.45c1.93-13.63,5.81-26.23,11.22-36.46l.36-.68.47.61a17.28,17.28,0,1,0,25.06-23.58l-.7-.62.9-.24a26.21,26.21,0,0,1,6.73-.9c6.78,0,13.3,2.65,19.39,7.87l.34.29-.26.37a9.13,9.13,0,0,0,7.53,14.28,9.27,9.27,0,0,0,3.48-.69l.4-.16.22.37c6.61,11.24,11.17,25.58,13.19,41.47a26.31,26.31,0,0,1-.31,8.51l-.21,1.05-.67-.84a11.15,11.15,0,0,0-2.73-2.44A10.93,10.93,0,0,0,444.19,286a11.73,11.73,0,0,0,.16,1.88Zm-19.85-1h18.67a12.08,12.08,0,0,1-.09-1.47,11.94,11.94,0,0,1,18.27-10.1,12.15,12.15,0,0,1,2.29,1.87,25.3,25.3,0,0,0,.1-7.17c-2-15.59-6.41-29.66-12.84-40.72A10.13,10.13,0,0,1,439,215c-5.8-4.87-12-7.34-18.4-7.34a24.73,24.73,0,0,0-5.59.65,18.09,18.09,0,0,1,3.39,4.52,18.31,18.31,0,0,1-3.24,21.47,18.28,18.28,0,0,1-26.85-1.09c-5.12,9.89-8.81,22-10.69,35a15.45,15.45,0,0,1,10.6,19.23h18.95a8.87,8.87,0,0,1,17.48,0ZM436,271.86a15.42,15.42,0,1,1,10.9-4.52A15.27,15.27,0,0,1,436,271.86ZM436,242a14.41,14.41,0,1,0,10.19,4.22A14.34,14.34,0,0,0,436,242Zm-41.06,29.48a12,12,0,1,1,12-12A12,12,0,0,1,394.94,271.52Zm0-23a11,11,0,1,0,11,11A11,11,0,0,0,394.94,248.54ZM436,269.87a13.43,13.43,0,1,1,13.43-13.42A13.43,13.43,0,0,1,436,269.87ZM436,244a12.43,12.43,0,1,0,12.43,12.43A12.44,12.44,0,0,0,436,244Zm-41.06,25.52a10,10,0,1,1,10-10A10,10,0,0,1,394.94,269.54Zm0-19a9,9,0,1,0,9,9A9,9,0,0,0,394.94,250.52Z" transform="translate(-345.92 -193.06)"/><path class="cls-2" d="M394.94,271a11.49,11.49,0,1,1,11.49-11.49A11.5,11.5,0,0,1,394.94,271Zm0-21a9.51,9.51,0,1,0,9.51,9.51A9.53,9.53,0,0,0,394.94,250Z" transform="translate(-345.92 -193.06)"/><path class="cls-2" d="M394.94,271.52a12,12,0,1,1,12-12A12,12,0,0,1,394.94,271.52Zm0-23a11,11,0,1,0,11,11A11,11,0,0,0,394.94,248.54Zm0,21a10,10,0,1,1,10-10A10,10,0,0,1,394.94,269.54Zm0-19a9,9,0,1,0,9,9A9,9,0,0,0,394.94,250.52Z" transform="translate(-345.92 -193.06)"/><path class="cls-2" d="M386.65,289.92H384a7,7,0,0,1-5.21-2.64,17,17,0,0,1-3.49-7.32,27.62,27.62,0,0,1-.48-9.71c0-.34.09-.68.14-1l.14-1,1,.19a14.93,14.93,0,0,1,10.83,21Zm-9.9-19.36c-.74,6,.66,12.18,3.49,15.41a5.2,5.2,0,0,0,3.73,2h1.4a12.72,12.72,0,0,0,1-4.89A12.92,12.92,0,0,0,376.75,270.56Z" transform="translate(-345.92 -193.06)"/><path class="cls-2" d="M387,290.42h-3a7.44,7.44,0,0,1-5.59-2.81,17.53,17.53,0,0,1-3.59-7.53,27.71,27.71,0,0,1-.49-9.89l.34-2.58,1.54.28a15.39,15.39,0,0,1,12.63,15.16,15.23,15.23,0,0,1-1.44,6.51Zm-11.48-21.64-.2,1.54a26.85,26.85,0,0,0,.47,9.53,16.56,16.56,0,0,0,3.37,7.1,6.49,6.49,0,0,0,4.84,2.47h2.36l.13-.28a14.21,14.21,0,0,0,1.35-6.09A14.4,14.4,0,0,0,376,268.87Zm10.22,19.66H384a5.67,5.67,0,0,1-4.1-2.14c-2.93-3.32-4.38-9.67-3.61-15.8l.07-.57.55.15a13.42,13.42,0,0,1,8.95,18.05Zm-8.53-17.23c-.57,5.67.78,11.41,3.44,14.43a4.68,4.68,0,0,0,3.35,1.8H385a12.43,12.43,0,0,0-7.85-16.23Z" transform="translate(-345.92 -193.06)"/><path class="cls-2" d="M402.2,239.13a17.73,17.73,0,0,1-15-8.18l-.32-.5.29-.52a62.84,62.84,0,0,1,11-14.74,36.53,36.53,0,0,1,13.33-8.5l.48-.16.42.29A17.78,17.78,0,0,1,420,221.35a17.77,17.77,0,0,1-17.77,17.78Zm-13-8.76a15.79,15.79,0,1,0,22.47-21.63C403.23,211.84,395.48,219.3,389.23,230.37Z" transform="translate(-345.92 -193.06)"/><path class="cls-2" d="M402.2,239.63a18.2,18.2,0,0,1-15.39-8.41l-.48-.75.43-.78a63.17,63.17,0,0,1,11.1-14.86,37.1,37.1,0,0,1,13.52-8.61l.72-.25.63.44a18.24,18.24,0,0,1,7.74,14.94,18.27,18.27,0,0,1-18.27,18.28Zm-14.71-9.2.16.25a17.28,17.28,0,1,0,24.5-23.45l-.21-.15-.24.09a36,36,0,0,0-13.14,8.38,62.12,62.12,0,0,0-10.93,14.62Zm14.71,7.21a16.28,16.28,0,0,1-13.38-7l-.18-.26.15-.27c6.3-11.15,14.16-18.71,22.74-21.85l.26-.09.21.16a16.29,16.29,0,0,1-9.8,29.3Zm-12.38-7.3a15.29,15.29,0,1,0,21.8-21C403.44,212.39,395.91,219.65,389.82,230.34Z" transform="translate(-345.92 -193.06)"/><path class="cls-2" d="M447.56,230a9.63,9.63,0,0,1-7.35-15.84l.66-.78.76.68a58.76,58.76,0,0,1,10.84,13.42l.54.9-.92.49A9.65,9.65,0,0,1,447.56,230Zm-6.45-13.72A7.64,7.64,0,0,0,447.56,228a7.5,7.5,0,0,0,2.62-.47A56.59,56.59,0,0,0,441.11,216.23Z" transform="translate(-345.92 -193.06)"/><path class="cls-2" d="M447.56,230.45a10.13,10.13,0,0,1-7.73-16.66l1-1.17,1.15,1a59.24,59.24,0,0,1,10.93,13.53l.81,1.35-1.39.74A10.09,10.09,0,0,1,447.56,230.45Zm-6.64-16.4-.33.38a9.13,9.13,0,0,0,11.26,13.95l.46-.24-.27-.45a58,58,0,0,0-10.74-13.3Zm6.64,14.42A8.14,8.14,0,0,1,440.69,216l.32-.51.45.42a57.66,57.66,0,0,1,9.15,11.37l.32.52-.58.21A8,8,0,0,1,447.56,228.47ZM441.23,217a7.13,7.13,0,0,0,8.18,10.19A56.22,56.22,0,0,0,441.23,217Z" transform="translate(-345.92 -193.06)"/><path class="cls-2" d="M457.15,289.92H444.37l-.21-.71a11.43,11.43,0,0,1,21.17-8.37l.18.37-.12.38a15.88,15.88,0,0,1-3.21,5.89A6.89,6.89,0,0,1,457.15,289.92Zm-11.27-2h11.27c2.47,0,4.84-2.5,6.22-6.56A9.44,9.44,0,0,0,445.68,286,9.9,9.9,0,0,0,445.88,287.94Z" transform="translate(-345.92 -193.06)"/><path class="cls-2" d="M457.15,290.42H444l-.32-1.07a11.93,11.93,0,0,1,22.1-8.73l.27.54-.18.58a16.19,16.19,0,0,1-3.33,6.08A7.36,7.36,0,0,1,457.15,290.42Zm-12.41-1h12.41a6.41,6.41,0,0,0,4.66-2.28,15.09,15.09,0,0,0,3.1-5.7l.06-.19-.09-.18a10.93,10.93,0,0,0-20.69,4.9,10.76,10.76,0,0,0,.45,3.1Zm12.41-1H445.48l-.09-.4a10.17,10.17,0,0,1-.21-2.07,9.94,9.94,0,0,1,18.63-4.83l.1.19-.07.21C462.37,285.86,459.87,288.44,457.15,288.44Zm-10.85-1h10.85c2.19,0,4.36-2.3,5.67-6a8.94,8.94,0,0,0-16.52,6Z" transform="translate(-345.92 -193.06)"/><path class="cls-2" d="M424.24,289.92H407.5v-1a8.37,8.37,0,0,1,16.74,0Zm-14.67-2h12.61a6.39,6.39,0,0,0-12.61,0Z" transform="translate(-345.92 -193.06)"/><path class="cls-2" d="M424.75,290.42H407v-1.49a8.87,8.87,0,0,1,17.74,0Zm-16.75-1h15.74v-.49a7.87,7.87,0,0,0-15.74,0Zm14.76-1H409l.09-.58a6.89,6.89,0,0,1,13.6,0Zm-12.58-1h11.38a5.89,5.89,0,0,0-11.38,0Z" transform="translate(-345.92 -193.06)"/><path class="cls-2" d="M435.86,289.92A16.06,16.06,0,0,1,436,292v24a15.45,15.45,0,1,1-30.89,0V292a16.06,16.06,0,0,1,.14-2.09h-2.06a16.18,16.18,0,0,0-.13,2.09v24a17.5,17.5,0,1,0,35,0V292a18.18,18.18,0,0,0-.12-2.09Z" transform="translate(-345.92 -193.06)"/><path class="cls-2" d="M420.56,334a18,18,0,0,1-18-18V292a17.82,17.82,0,0,1,.13-2.15l.05-.44h3.09l-.08.57a15.72,15.72,0,0,0-.14,2v24a14.95,14.95,0,1,0,29.89,0V292a14.1,14.1,0,0,0-.14-2l-.07-.57h3.08l.05.44a17.94,17.94,0,0,1,.13,2.15v24A18,18,0,0,1,420.56,334Zm-16.92-43.55a14.47,14.47,0,0,0-.08,1.59v24a17,17,0,1,0,34,0V292c0-.52,0-1-.07-1.59h-1.06a14.47,14.47,0,0,1,.08,1.59v24a15.95,15.95,0,1,1-31.89,0V292c0-.52,0-1.05.08-1.59Z" transform="translate(-345.92 -193.06)"/><rect class="cls-2" y="160.56" width="150.05" height="48.59" rx="7.76"/><path class="cls-2" d="M358,227.05V214.2a9.09,9.09,0,0,1,9.1-9.09h12.69v-3.44H366.7a12.13,12.13,0,0,0-12.13,12.13v13.25Z" transform="translate(-345.92 -193.06)"/><path class="cls-2" d="M379.94,331.07H367.1A9.09,9.09,0,0,1,358,322V309.28h-3.43v13.09A12.13,12.13,0,0,0,366.7,334.5h13.24Z" transform="translate(-345.92 -193.06)"/><path class="cls-2" d="M462,205.11h12.84a9.09,9.09,0,0,1,9.1,9.09v12.7h3.43V213.8a12.13,12.13,0,0,0-12.13-12.13H462Z" transform="translate(-345.92 -193.06)"/><path class="cls-2" d="M483.89,309.13V322a9.09,9.09,0,0,1-9.1,9.1H462.1v3.43h13.09a12.13,12.13,0,0,0,12.13-12.13V309.13Z" transform="translate(-345.92 -193.06)"/><text class="cls-3" transform="translate(21.17 180.19)">matsutake<tspan x="-5.98" y="18.72">et dérivés</tspan></text></svg>