<svg id="Calque_1" data-name="Calque 1" xmlns="http://www.w3.org/2000/svg" viewBox="0 0 149.81 208.89"><defs><style>.cls-1,.cls-3{fill:#74ad38;}.cls-2{fill:#fff;}.cls-3{font-size:19.91px;font-family:IBMPlexMono-Medium, IBM Plex Mono;font-weight:500;}.cls-4{fill:none;stroke:#fff;stroke-miterlimit:10;stroke-width:3px;}</style></defs><rect class="cls-1" width="149.81" height="149.81" rx="13.62"/><rect class="cls-2" y="160.31" width="149.81" height="48.59" rx="7.76"/><path class="cls-2" d="M358.1,227V214.17a9.08,9.08,0,0,1,9.08-9.08h12.68v-3.43H366.78a12.11,12.11,0,0,0-12.11,12.11V227Z" transform="translate(-346.04 -193.06)"/><path class="cls-2" d="M380,330.85H367.18a9.08,9.08,0,0,1-9.08-9.08V309.1h-3.43v13.07a12.11,12.11,0,0,0,12.11,12.11H380Z" transform="translate(-346.04 -193.06)"/><path class="cls-2" d="M461.89,205.09h12.82a9.08,9.08,0,0,1,9.08,9.08v12.67h3.43V213.77a12.11,12.11,0,0,0-12.11-12.11H461.89Z" transform="translate(-346.04 -193.06)"/><path class="cls-2" d="M483.79,309v12.82a9.08,9.08,0,0,1-9.08,9.08H462v3.43h13.08a12.11,12.11,0,0,0,12.11-12.11V309Z" transform="translate(-346.04 -193.06)"/><text class="cls-3" transform="translate(51.01 179.91)">maïs<tspan x="-35.85" y="18.69">et dérivés</tspan></text><rect class="cls-4" x="409.23" y="260.35" width="11.98" height="7.95" rx="2.21" transform="translate(-23.15 -412.22) rotate(46.71)"/><rect class="cls-4" x="419.45" y="271.2" width="11.98" height="7.95" rx="2.21" transform="translate(-12.04 -416.25) rotate(46.71)"/><rect class="cls-4" x="430.75" y="278.92" width="3.93" height="7.95" rx="1.27" transform="translate(-4.13 -419.12) rotate(46.71)"/><rect class="cls-4" x="405.88" y="252.52" width="3.93" height="7.95" rx="1.27" transform="translate(-31.16 -409.31) rotate(46.71)"/><rect class="cls-4" x="401.15" y="267.96" width="11.98" height="7.95" rx="2.21" transform="translate(-20.15 -403.95) rotate(46.71)"/><rect class="cls-4" x="411.37" y="278.81" width="11.98" height="7.95" rx="2.21" transform="translate(-9.04 -407.98) rotate(46.71)"/><rect class="cls-4" x="417.01" y="253.45" width="11.65" height="7.95" rx="2.18" transform="translate(-25.77 -419.93) rotate(46.71)"/><rect class="cls-4" x="426.95" y="264" width="11.65" height="7.95" rx="2.18" transform="translate(-14.97 -423.85) rotate(46.71)"/><rect class="cls-4" x="437.94" y="271.51" width="3.82" height="7.95" rx="1.25" transform="translate(-7.28 -426.63) rotate(46.71)"/><rect class="cls-4" x="413.76" y="245.85" width="3.82" height="7.95" rx="1.25" transform="translate(-33.56 -417.1) rotate(46.71)"/><rect class="cls-4" x="424.95" y="247.15" width="10.76" height="7.95" rx="2.09" transform="translate(-28 -427.36) rotate(46.71)"/><rect class="cls-4" x="434.12" y="256.89" width="10.76" height="7.95" rx="2.09" transform="translate(-18.03 -430.98) rotate(46.71)"/><rect class="cls-4" x="444.27" y="263.83" width="3.53" height="7.95" rx="1.2" transform="translate(-10.93 -433.55) rotate(46.71)"/><rect class="cls-4" x="421.94" y="240.12" width="3.53" height="7.95" rx="1.2" transform="translate(-35.2 -424.75) rotate(46.71)"/><rect class="cls-4" x="434.11" y="239.9" width="9.71" height="7.95" rx="1.99" transform="translate(-30.57 -435.93) rotate(46.71)"/><rect class="cls-4" x="442.4" y="248.69" width="9.71" height="7.95" rx="1.99" transform="translate(-21.57 -439.19) rotate(46.71)"/><rect class="cls-4" x="451.55" y="254.95" width="3.19" height="7.95" rx="1.14" transform="translate(-15.16 -441.52) rotate(46.71)"/><rect class="cls-4" x="431.4" y="233.56" width="3.19" height="7.95" rx="1.14" transform="translate(-37.06 -433.57) rotate(46.71)"/><rect class="cls-4" x="443.47" y="233.08" width="8.19" height="7.95" rx="1.83" transform="translate(-32.83 -444.33) rotate(46.71)"/><rect class="cls-4" x="450.46" y="240.5" width="8.19" height="7.95" rx="1.83" transform="translate(-25.23 -447.09) rotate(46.71)"/><rect class="cls-4" x="458.19" y="245.78" width="2.69" height="7.95" rx="1.05" transform="translate(-19.82 -449.05) rotate(46.71)"/><rect class="cls-4" x="441.18" y="227.73" width="2.69" height="7.95" rx="1.05" transform="translate(-38.31 -442.34) rotate(46.71)"/><rect class="cls-4" x="452.43" y="226.59" width="6.71" height="7.95" rx="1.65" transform="translate(-34.97 -452.35) rotate(46.71)"/><rect class="cls-4" x="458.16" y="232.67" width="6.71" height="7.95" rx="1.65" transform="translate(-28.75 -454.61) rotate(46.71)"/><rect class="cls-4" x="464.49" y="236.99" width="2.2" height="7.95" rx="0.95" transform="translate(-24.31 -456.22) rotate(46.71)"/><rect class="cls-4" x="450.56" y="222.21" width="2.2" height="7.95" rx="0.95" transform="translate(-39.46 -450.73) rotate(46.71)"/><rect class="cls-4" x="461.65" y="220.4" width="4.83" height="7.95" rx="1.4" transform="translate(-36.87 -460.32) rotate(46.71)"/><rect class="cls-4" x="465.77" y="224.78" width="4.83" height="7.95" rx="1.4" transform="translate(-32.39 -461.95) rotate(46.71)"/><path class="cls-4" d="M455.56,277.59s-22.43,22.47-56.76,12c-8.46-34.9,14.2-57.13,14.2-57.13s-47.46,25.34-44.61,63.39c.75,10,3,15,6,16.69,1.53,3.11,6.34,5.68,16.31,7C428.55,324.63,455.56,277.59,455.56,277.59Z" transform="translate(-346.04 -193.06)"/><path class="cls-4" d="M398.69,267.67a1.26,1.26,0,0,0,.45-.28l3.95-3.71a1.26,1.26,0,0,0,.05-1.79l-1-1a1.26,1.26,0,0,0-1.61-.19A63.09,63.09,0,0,0,398.69,267.67Z" transform="translate(-346.04 -193.06)"/><path class="cls-4" d="M428.34,289.32a1.27,1.27,0,0,0-.32-1l-1-1a1.26,1.26,0,0,0-1.79,0l-3.83,3.61A66.16,66.16,0,0,0,428.34,289.32Z" transform="translate(-346.04 -193.06)"/><path class="cls-4" d="M404.28,289.91l1,1.11a49.7,49.7,0,0,0,10.53.43,2.17,2.17,0,0,0-.6-1.48l-5.18-5.51a2.2,2.2,0,0,0-3.12-.09l-2.58,2.42A2.21,2.21,0,0,0,404.28,289.91Z" transform="translate(-346.04 -193.06)"/><path class="cls-4" d="M397.71,282.94l1.53,1.63a2.21,2.21,0,0,0,3.13.09l2.57-2.42a2.21,2.21,0,0,0,.09-3.13l-5.18-5.5a2.18,2.18,0,0,0-2-.65A48.87,48.87,0,0,0,397.71,282.94Z" transform="translate(-346.04 -193.06)"/></svg>