<svg id="Calque_1" data-name="Calque 1" xmlns="http://www.w3.org/2000/svg" viewBox="0 0 149.81 208.89"><defs><style>.cls-1,.cls-3{fill:#74ad38;}.cls-2{fill:#fff;}.cls-3{font-size:19.91px;font-family:IBMPlexMono-Medium, IBM Plex Mono;font-weight:500;}.cls-4{fill:none;stroke:#fff;stroke-miterlimit:10;stroke-width:3px;}</style></defs><rect class="cls-1" width="149.81" height="149.81" rx="13.62"/><rect class="cls-2" y="160.31" width="149.81" height="48.59" rx="7.76"/><path class="cls-2" d="M358.1,227V214.17a9.08,9.08,0,0,1,9.08-9.08h12.68v-3.43H366.78a12.11,12.11,0,0,0-12.11,12.11V227Z" transform="translate(-346.04 -193.06)"/><path class="cls-2" d="M380,330.85H367.18a9.08,9.08,0,0,1-9.08-9.08V309.1h-3.43v13.07a12.11,12.11,0,0,0,12.11,12.11H380Z" transform="translate(-346.04 -193.06)"/><path class="cls-2" d="M461.89,205.09h12.82a9.08,9.08,0,0,1,9.08,9.08v12.67h3.43V213.77a12.11,12.11,0,0,0-12.11-12.11H461.89Z" transform="translate(-346.04 -193.06)"/><path class="cls-2" d="M483.79,309v12.82a9.08,9.08,0,0,1-9.08,9.08H462v3.43h13.08a12.11,12.11,0,0,0,12.11-12.11V309Z" transform="translate(-346.04 -193.06)"/><text class="cls-3" transform="translate(39.06 179.91)">orange<tspan x="-23.9" y="18.69">et dérivés</tspan></text><path class="cls-4" d="M397.85,264c-6.85-1.19-13.58,1.49-18.45,6.61-6.94-1.34-14,.38-18.87,5.33-8.33,8.42-7.26,23,2.4,32.55,8.71,8.61,21.42,10.19,29.94,4.25,10.4-.11,19.83-8.77,21.92-20.84C417.11,278.53,409.53,266,397.85,264Z" transform="translate(-346.04 -193.06)"/><path class="cls-4" d="M362.85,292.22a2.12,2.12,0,0,1-2.65-1.37c-1.36-4.24.22-9,4.11-12.32a2.11,2.11,0,0,1,2.75,3.19c-2.59,2.24-3.68,5.24-2.85,7.85A2.1,2.1,0,0,1,362.85,292.22Z" transform="translate(-346.04 -193.06)"/><ellipse class="cls-4" cx="418.1" cy="232.58" rx="29.63" ry="12.84" transform="translate(-326.2 304.63) rotate(-62.74)"/><path class="cls-4" d="M410.94,227.32a39.38,39.38,0,0,1,5.51-7.61c.34-.35.59-.27.53.18l-1.18,9.26c-.08.68-.73,1.58-1,1.43l-4-2.07C410.55,228.41,410.64,227.86,410.94,227.32Z" transform="translate(-346.04 -193.06)"/><path class="cls-4" d="M418.93,225.82l1.33-10.46a2.65,2.65,0,0,1,.82-1.52c2-1.62,3.92-2.4,5.39-2.11.25.05.21.63-.11,1.24l-6.42,12.45C419.47,226.33,418.83,226.58,418.93,225.82Z" transform="translate(-346.04 -193.06)"/><path class="cls-4" d="M408.4,232.8l3.59,1.85c.27.14-.05,1.08-.5,1.49l-6.13,5.66c-.3.27-.49.14-.4-.3a34.55,34.55,0,0,1,2.68-7.94C407.87,233.06,408.23,232.71,408.4,232.8Z" transform="translate(-346.04 -193.06)"/><path class="cls-4" d="M424.79,224.51l5.55-10.77c.28-.54.66-.86.82-.7.95.89,1.34,2.61,1.22,4.86a2.35,2.35,0,0,1-.65,1.34L425,225.43C424.53,225.88,424.38,225.31,424.79,224.51Z" transform="translate(-346.04 -193.06)"/><path class="cls-4" d="M411.58,241.15l-5.52,10.72c-.27.53-.65.85-.81.69-.94-.88-1.33-2.6-1.21-4.83a2.3,2.3,0,0,1,.65-1.33l6.67-6.16C411.85,239.79,412,240.36,411.58,241.15Z" transform="translate(-346.04 -193.06)"/><path class="cls-4" d="M415.75,241.52l-1.19,9.38a2.45,2.45,0,0,1-.73,1.36c-1.83,1.45-3.52,2.16-4.84,1.89-.23,0-.19-.56.1-1.11l5.75-11.16C415.26,241.06,415.84,240.83,415.75,241.52Z" transform="translate(-346.04 -193.06)"/><path class="cls-4" d="M419.87,237.47l3.9,2c.2.1.11.64-.18,1.16a37.83,37.83,0,0,1-5.35,7.4c-.33.34-.58.26-.52-.18l1.14-9C419,238.2,419.58,237.32,419.87,237.47Z" transform="translate(-346.04 -193.06)"/><path class="cls-4" d="M422.52,232.28l6.67-6.16c.33-.3.53-.15.44.32a37.43,37.43,0,0,1-2.92,8.66c-.25.54-.64.92-.83.82l-3.91-2C421.68,233.76,422,232.73,422.52,232.28Z" transform="translate(-346.04 -193.06)"/><path class="cls-4" d="M469.67,291.75,463,288.29c-4.42-2.37-9.52-1.8-12.12,3.23h0c-.11.19-.22.36-.32.56h0c.1-.2.18-.39.27-.58h0c2.6-5,.1-9.52-4.4-11.74l-6.67-3.41c-5.17-3-13.51-2.77-19.56,3.72a3.78,3.78,0,0,0-.77,1.2,4,4,0,0,0,1.63,5.66,4.45,4.45,0,0,0,5.38-.92c4.58-5.87,14.7-4.83,14.7-4.83,2.13,2.4,3.7,3.48,1.88,7a63.27,63.27,0,0,1-14.7,20.28,30.24,30.24,0,0,0-6.68,9.15h0a12.94,12.94,0,0,1-6,5.94q-2.51,1.23-5.14,2.26.93,2.36,1.84,4.71c1.13-.44,2.25-.91,3.35-1.4A24.92,24.92,0,0,1,428.81,327a16.48,16.48,0,0,0,12.91-4.51,82.81,82.81,0,0,0,18.57-25.43c1.82-3.54,4.75-3.61,4.75-3.6,3.7,3.72,6.61,7.59,4.5,14.72a4.44,4.44,0,0,0,2.36,4.92,4,4,0,0,0,5.56-2,3.91,3.91,0,0,0,.53-1.33C479.76,301.14,475.09,294.23,469.67,291.75Z" transform="translate(-346.04 -193.06)"/><polygon class="cls-4" points="104.57 99.03 104.57 99.02 104.57 99.02 104.57 99.03"/><polygon class="cls-4" points="104.57 99.03 104.57 99.03 104.57 99.03 104.57 99.03"/><path class="cls-4" d="M450.9,291.52c2.43-4.71,7.07-5.51,11.27-3.64a70,70,0,0,0,3.24-19.56,18.53,18.53,0,0,0-.11-2.7,19.57,19.57,0,0,0-.86-3.85c-.13-.41-.28-.81-.45-1.21a16,16,0,0,0-8-8.66l-1.65.4-2.57.62c-.05.1-.09.2-.14.29a26.4,26.4,0,0,0-2.82,12.22,53.91,53.91,0,0,1-1.69,14.71C451.23,282.45,453.37,286.74,450.9,291.52Z" transform="translate(-346.04 -193.06)"/><path class="cls-4" d="M404.53,258.91a29.63,29.63,0,1,0,27.14-52.67" transform="translate(-346.04 -193.06)"/><path class="cls-4" d="M377.84,268.72a14.24,14.24,0,0,0,.35,1.7l1.14.19.12,0c.38-.4.78-.78,1.19-1.15a10.08,10.08,0,0,1,0-4.76.43.43,0,0,1,0-.05,9.93,9.93,0,0,1,.73-2,9.49,9.49,0,0,1,.54-1l-2.22-1.38a12.86,12.86,0,0,0-1.84,5.17,14.94,14.94,0,0,0-18.18-9.46,14.93,14.93,0,0,0,18.2,12.81Z" transform="translate(-346.04 -193.06)"/></svg>