<svg id="Calque_1" data-name="Calque 1" xmlns="http://www.w3.org/2000/svg" viewBox="0 0 149.81 227.66"><defs><style>.cls-1,.cls-3{fill:#74ad38;}.cls-2{fill:#fff;}.cls-3{font-size:19.91px;font-family:IBMPlexMono-Medium, IBM Plex Mono;font-weight:500;}.cls-4{fill:none;stroke:#fff;stroke-miterlimit:10;stroke-width:3px;fill-rule:evenodd;}</style></defs><rect class="cls-1" width="149.81" height="149.81" rx="13.62"/><rect class="cls-2" y="160.31" width="149.81" height="67.35" rx="9.13"/><path class="cls-2" d="M358.1,227V214.17a9.08,9.08,0,0,1,9.08-9.08h12.68v-3.43H366.78a12.11,12.11,0,0,0-12.11,12.11V227Z" transform="translate(-346.04 -193.06)"/><path class="cls-2" d="M380,330.85H367.18a9.08,9.08,0,0,1-9.08-9.08V309.1h-3.43v13.07a12.11,12.11,0,0,0,12.11,12.11H380Z" transform="translate(-346.04 -193.06)"/><path class="cls-2" d="M461.89,205.09h12.82a9.08,9.08,0,0,1,9.08,9.08v12.67h3.43V213.77a12.11,12.11,0,0,0-12.11-12.11H461.89Z" transform="translate(-346.04 -193.06)"/><path class="cls-2" d="M483.79,309v12.82a9.08,9.08,0,0,1-9.08,9.08H462v3.43h13.08a12.11,12.11,0,0,0,12.11-12.11V309Z" transform="translate(-346.04 -193.06)"/><text class="cls-3" transform="translate(15.16 179.91)">graines de<tspan x="29.87" y="18.69">pavot</tspan><tspan x="0" y="37.38">et dérivés</tspan></text><path class="cls-4" d="M420.44,238.24c-.77,5.11,2.79,18.56-6.15,28.92-9.26,5.63-20.67,4.57-23.16.78S385.34,248.66,420.44,238.24Z" transform="translate(-346.04 -193.06)"/><path class="cls-4" d="M413.06,226.1c-5.51,4.18-14.55,18.44-33.54,17.9-14.3-.35-20.39-7.95-18.9-13.53C364.53,215.8,375.92,216.62,413.06,226.1Z" transform="translate(-346.04 -193.06)"/><path class="cls-4" d="M432.53,262.82c-8.06,1-7.52,12.65-16.06,19.73s-10.6,17.4-.32,18.8,21.53.64,27-10.52S440.6,261.77,432.53,262.82Z" transform="translate(-346.04 -193.06)"/><path class="cls-4" d="M450.28,253.41c7.64-2.8,9.8,5.44,20.59,7.8s19.89,12.91,11.38,18.91-16.94,7.88-26.81.47S442.63,256.21,450.28,253.41Z" transform="translate(-346.04 -193.06)"/><path class="cls-4" d="M426.8,233.57c6.07-3.44,16.73-20.89,35.31-17.86,9.9,1.48,14,16.92,12.75,22.54C471.41,253.89,461.48,240.34,426.8,233.57Z" transform="translate(-346.04 -193.06)"/><path class="cls-4" d="M390.15,296.2c16.58-7.2,9,9.27,19.8,11.63s15.92,5.89,12.17,15.09c-5,12.34-16.93,7.88-26.81.46S382.69,299.44,390.15,296.2Z" transform="translate(-346.04 -193.06)"/><path class="cls-4" d="M385.47,278.82c-1.73-7.94,1-6.08-6.8-14s-22.5-3.44-22.09,6.93c.24,6.14,3,12.07,9.79,16.25C377,294.52,387.2,286.77,385.47,278.82Z" transform="translate(-346.04 -193.06)"/><path class="cls-4" d="M468.53,304.46c-7.79-2.32-5.22-3.56-15.9-.55s-11.36,12.75-2.08,17.39c5.5,2.75,11.34,6.47,17.43,1.3C473.56,317.86,476.33,306.79,468.53,304.46Z" transform="translate(-346.04 -193.06)"/></svg>