<svg id="Calque_1" data-name="Calque 1" xmlns="http://www.w3.org/2000/svg" viewBox="0 0 149.81 227.66"><defs><style>.cls-1,.cls-3{fill:#74ad38;}.cls-2{fill:#fff;}.cls-3{font-size:19.91px;font-family:IBMPlexMono-Medium, IBM Plex Mono;font-weight:500;}</style></defs><rect class="cls-1" width="149.81" height="149.81" rx="13.62"/><rect class="cls-2" y="160.31" width="149.81" height="67.35" rx="9.13"/><path class="cls-2" d="M358.1,227V214.17a9.08,9.08,0,0,1,9.08-9.08h12.68v-3.43H366.78a12.11,12.11,0,0,0-12.11,12.11V227Z" transform="translate(-346.04 -193.06)"/><path class="cls-2" d="M380,330.85H367.18a9.08,9.08,0,0,1-9.08-9.08V309.1h-3.43v13.07a12.11,12.11,0,0,0,12.11,12.11H380Z" transform="translate(-346.04 -193.06)"/><path class="cls-2" d="M461.89,205.09h12.82a9.08,9.08,0,0,1,9.08,9.08v12.67h3.43V213.77a12.11,12.11,0,0,0-12.11-12.11H461.89Z" transform="translate(-346.04 -193.06)"/><path class="cls-2" d="M483.79,309v12.82a9.08,9.08,0,0,1-9.08,9.08H462v3.43h13.08a12.11,12.11,0,0,0,12.11-12.11V309Z" transform="translate(-346.04 -193.06)"/><text class="cls-3" transform="translate(33.09 179.91)">noix de<tspan x="11.95" y="18.69">cajou</tspan><tspan x="-17.92" y="37.38">et dérivés</tspan></text><path class="cls-2" d="M375.43,265.77a31,31,0,0,1-5-.39l-2.16-.36,1.12-1.88a20.07,20.07,0,0,1,3.21-3.51v0h0l.1-.1h0c1.54-1.51,3.58-3.37,5.94-5.51,6.58-6,15.34-14,18.33-19.08h-.11c-3.62,0-11.57,1.91-17.65,3.37-6.39,1.54-12.43,3-16.07,3.17h0a8.08,8.08,0,0,1-.86.1l-3.45.36,1.39-2.51c4.19-7.61,11.62-14.89,20.92-20.5,8.91-5.39,18.46-8.58,26.88-9,8.76-.41,15.3,2.23,18.44,7.44C432.83,228,423,245.31,404,256.78,394.38,262.58,384.08,265.77,375.43,265.77Zm-1.72-3c8.4.48,18.9-2.59,28.71-8.51,17.27-10.43,26.88-26.27,21.43-35.29-2.55-4.23-8.14-6.36-15.74-6-7.93.38-17,3.41-25.47,8.54-7.69,4.65-14.22,10.69-18.32,16.88,3.51-.41,8.93-1.71,14.18-3,11.43-2.75,18.56-4.31,21.34-2.87l1.17.6-.45,1.24c-2,5.6-11.95,14.62-19.91,21.87-2.38,2.17-4.44,4-5.95,5.52h0Z" transform="translate(-346.04 -193.06)"/><path class="cls-2" d="M451.56,277.09h0c9.41,0,18.49-5.45,23.7-14.22,3.49-5.88,5.37-15.58,5-25.94-.13-3.91-1-16.9-6.48-20.16a8.84,8.84,0,0,0-4.54-1c-10.11,0-30.07,10.79-36.63,21.83-7.76,13.07-4.5,29.38,7.25,36.35A22.81,22.81,0,0,0,451.56,277.09Zm-16-37.8c6-10,24.64-20.19,33.73-20.19a5.75,5.75,0,0,1,2.82.57c2.09,1.24,4.49,7.21,4.83,17.37.32,9.6-1.42,18.83-4.55,24.11-4.6,7.75-12.57,12.56-20.8,12.56a19.48,19.48,0,0,1-10-2.7C431.45,265,428.73,250.75,435.53,239.29Z" transform="translate(-346.04 -193.06)"/><path class="cls-2" d="M454.27,260.88a1.53,1.53,0,1,0-.66-2.16A1.6,1.6,0,0,0,454.27,260.88Z" transform="translate(-346.04 -193.06)"/><path class="cls-2" d="M463,259.92a.91.91,0,1,0-1.55-.92,1,1,0,0,0,.24,1.35A1,1,0,0,0,463,259.92Z" transform="translate(-346.04 -193.06)"/><path class="cls-2" d="M458.19,233.82a1,1,0,0,0,1.06-1.79,1.05,1.05,0,0,0-1.06,1.79Z" transform="translate(-346.04 -193.06)"/><path class="cls-2" d="M449,229.54a1.05,1.05,0,1,0-.25-1.35A1,1,0,0,0,449,229.54Z" transform="translate(-346.04 -193.06)"/><path class="cls-2" d="M454.73,253.38a1.09,1.09,0,1,0,1.11-1.86,1.15,1.15,0,0,0-1.57.33A1.13,1.13,0,0,0,454.73,253.38Z" transform="translate(-346.04 -193.06)"/><path class="cls-2" d="M462.67,248.27a1.25,1.25,0,1,0,1.67-.37A1.21,1.21,0,0,0,462.67,248.27Z" transform="translate(-346.04 -193.06)"/><path class="cls-2" d="M471.24,254.73a1.46,1.46,0,1,0,.34,1.88A1.36,1.36,0,0,0,471.24,254.73Z" transform="translate(-346.04 -193.06)"/><path class="cls-2" d="M464.14,263.3a1.34,1.34,0,0,0-1.81.6,1.26,1.26,0,1,0,2.15,1.27A1.34,1.34,0,0,0,464.14,263.3Z" transform="translate(-346.04 -193.06)"/><path class="cls-2" d="M457.78,268.79a1,1,0,0,0-1.34.42.94.94,0,1,0,1.34-.42Z" transform="translate(-346.04 -193.06)"/><path class="cls-2" d="M440.43,253.8a1.66,1.66,0,1,0,.51,2.2A1.58,1.58,0,0,0,440.43,253.8Z" transform="translate(-346.04 -193.06)"/><path class="cls-2" d="M440.78,262.94a1,1,0,0,0-.46-1.3.91.91,0,1,0,.46,1.3Z" transform="translate(-346.04 -193.06)"/><path class="cls-2" d="M445.76,262.9a1.21,1.21,0,0,0,.42,1.66,1.2,1.2,0,0,0,1.63-.5,1.18,1.18,0,1,0-2.05-1.16Z" transform="translate(-346.04 -193.06)"/><path class="cls-2" d="M449.36,269.1a1.26,1.26,0,1,0,.64,1.8A1.36,1.36,0,0,0,449.36,269.1Z" transform="translate(-346.04 -193.06)"/><path class="cls-2" d="M435.73,247.7a.94.94,0,1,0,.44,1.33A1,1,0,0,0,435.73,247.7Z" transform="translate(-346.04 -193.06)"/><path class="cls-2" d="M455,265.6a.89.89,0,0,0-.87,1.52.89.89,0,0,0,.87-1.52Z" transform="translate(-346.04 -193.06)"/><path class="cls-2" d="M439.74,243a.9.9,0,1,0-.19-1.12A.83.83,0,0,0,439.74,243Z" transform="translate(-346.04 -193.06)"/><path class="cls-2" d="M440.39,246.78a1.61,1.61,0,0,0,.66,2.16,1.53,1.53,0,1,0-.66-2.16Z" transform="translate(-346.04 -193.06)"/><path class="cls-2" d="M449.78,248a.91.91,0,1,0-1.54-.92.91.91,0,1,0,1.54.92Z" transform="translate(-346.04 -193.06)"/><path class="cls-2" d="M441,237.32a1.13,1.13,0,0,0,1.57-.32,1.15,1.15,0,0,0-.47-1.54,1.08,1.08,0,1,0-1.1,1.86Z" transform="translate(-346.04 -193.06)"/><path class="cls-2" d="M449.45,236.33a1.25,1.25,0,0,0,2.14,1.28,1.25,1.25,0,0,0-2.14-1.28Z" transform="translate(-346.04 -193.06)"/><path class="cls-2" d="M456.55,245.27a1.34,1.34,0,0,0,1.81-.6,1.26,1.26,0,1,0-2.15-1.27A1.36,1.36,0,0,0,456.55,245.27Z" transform="translate(-346.04 -193.06)"/><path class="cls-2" d="M445.39,255.45a1,1,0,0,0,1.34-.42.94.94,0,1,0-1.61-1A1,1,0,0,0,445.39,255.45Z" transform="translate(-346.04 -193.06)"/><path class="cls-2" d="M470.24,226.45a1.53,1.53,0,1,0-2.08-.9A1.61,1.61,0,0,0,470.24,226.45Z" transform="translate(-346.04 -193.06)"/><path class="cls-2" d="M465.52,231.55a1,1,0,0,0,.51-1.28.91.91,0,1,0-1.7.59A1,1,0,0,0,465.52,231.55Z" transform="translate(-346.04 -193.06)"/><path class="cls-2" d="M455.8,229.54a1.05,1.05,0,1,0-1.19-.69A1,1,0,0,0,455.8,229.54Z" transform="translate(-346.04 -193.06)"/><path class="cls-2" d="M471.24,231.46a1.18,1.18,0,0,0,2.23-.77,1.14,1.14,0,0,0-1.47-.64A1.12,1.12,0,0,0,471.24,231.46Z" transform="translate(-346.04 -193.06)"/><path class="cls-2" d="M448.54,243.39a1.12,1.12,0,0,0,.76-1.4,1.18,1.18,0,1,0-.76,1.4Z" transform="translate(-346.04 -193.06)"/><path class="cls-2" d="M471.88,237.42a1.18,1.18,0,1,0,1.56.7A1.2,1.2,0,0,0,471.88,237.42Z" transform="translate(-346.04 -193.06)"/><path class="cls-2" d="M440,267.35a.82.82,0,0,0,.53,1.55.84.84,0,0,0,.52-1A.83.83,0,0,0,440,267.35Z" transform="translate(-346.04 -193.06)"/><path class="cls-2" d="M470.3,248.23a1.18,1.18,0,1,0-1.56-.71A1.21,1.21,0,0,0,470.3,248.23Z" transform="translate(-346.04 -193.06)"/><path class="cls-2" d="M462,237.77a1.46,1.46,0,1,0,1.65,1A1.36,1.36,0,0,0,462,237.77Z" transform="translate(-346.04 -193.06)"/><path class="cls-2" d="M462.15,224.65a1,1,0,1,0-1.23-.67A1,1,0,0,0,462.15,224.65Z" transform="translate(-346.04 -193.06)"/><path class="cls-2" d="M391.06,325.52l-4.53-2.75c-8.37-5.07-13.36-13.55-13.36-22.7,0-13.75,11.26-25.36,26.2-27l6.61-.73-5.66,3.5c-5.45,3.37-12.37,9.46-14.37,19.32-1.95,9.57-1,18.45,2.69,25.66Zm1.86-47.9c-9.9,3.62-16.75,12.4-16.75,22.45A23,23,0,0,0,383.83,317a44.26,44.26,0,0,1-.82-22.48A30.84,30.84,0,0,1,392.92,277.62Z" transform="translate(-346.04 -193.06)"/><path class="cls-2" d="M407.68,328.3a31.8,31.8,0,0,1-13.28-2.87l-.4-.18-.24-.38c-5-7.9-6.52-17.92-4.27-29h0c2.37-11.7,11.14-18.36,18.08-21.89l.34-.17h.37c16.11.29,29.22,12.5,29.22,27.21C437.5,316.09,424.12,328.3,407.68,328.3Zm-11.63-5.42a28.82,28.82,0,0,0,11.63,2.42c14.79,0,26.82-10.87,26.82-24.23,0-13-11.59-23.76-25.9-24.2-6.3,3.27-14.08,9.3-16.18,19.63h0C390.38,306.59,391.63,315.7,396.05,322.88Z" transform="translate(-346.04 -193.06)"/><path class="cls-2" d="M371.49,263.67c-6.94-2.47-11-5.57-12.5-9.46-1.76-4.68.51-9.81,3.21-14.67l2.62,1.46c-2.72,4.88-4.27,8.82-3,12.15,1.14,3,4.64,5.54,10.69,7.69Z" transform="translate(-346.04 -193.06)"/></svg>