<svg id="Calque_1" data-name="Calque 1" xmlns="http://www.w3.org/2000/svg" viewBox="0 0 149.81 190.35"><defs><style>.cls-1,.cls-3{fill:#74ad38;}.cls-2{fill:#fff;}.cls-3{font-size:19.91px;font-family:IBMPlexMono-Medium, IBM Plex Mono;font-weight:500;}.cls-4{fill:none;stroke:#fff;stroke-miterlimit:10;stroke-width:3px;}</style></defs><rect class="cls-1" width="149.81" height="149.81" rx="13.62"/><rect class="cls-2" y="160.31" width="149.81" height="30.05" rx="6.1"/><path class="cls-2" d="M358.1,227V214.17a9.08,9.08,0,0,1,9.08-9.08h12.68v-3.43H366.78a12.11,12.11,0,0,0-12.11,12.11V227Z" transform="translate(-346.04 -193.06)"/><path class="cls-2" d="M380,330.85H367.18a9.08,9.08,0,0,1-9.08-9.08V309.1h-3.43v13.07a12.11,12.11,0,0,0,12.11,12.11H380Z" transform="translate(-346.04 -193.06)"/><path class="cls-2" d="M461.89,205.09h12.82a9.08,9.08,0,0,1,9.08,9.08v12.67h3.43V213.77a12.11,12.11,0,0,0-12.11-12.11H461.89Z" transform="translate(-346.04 -193.06)"/><path class="cls-2" d="M483.79,309v12.82a9.08,9.08,0,0,1-9.08,9.08H462v3.43h13.08a12.11,12.11,0,0,0,12.11-12.11V309Z" transform="translate(-346.04 -193.06)"/><text class="cls-3" transform="translate(15.16 179.91)">salicylate</text><line class="cls-4" x1="82.59" y1="16.02" x2="86.32" y2="30.44"/><line class="cls-4" x1="92.64" y1="13.42" x2="96.37" y2="27.84"/><line class="cls-4" x1="95.87" y1="20.51" x2="84.12" y2="23.55"/><circle class="cls-4" cx="74.39" cy="26.25" r="5.42"/><line class="cls-4" x1="118.8" y1="43" x2="122.53" y2="57.41"/><line class="cls-4" x1="128.84" y1="40.39" x2="132.58" y2="54.81"/><line class="cls-4" x1="132.08" y1="47.48" x2="120.32" y2="50.53"/><line class="cls-4" x1="103.87" y1="59.99" x2="86.83" y2="77.41"/><line class="cls-4" x1="45.83" y1="43.62" x2="52.23" y2="68.52"/><line class="cls-4" x1="87.9" y1="110.2" x2="68.68" y2="128.93"/><line class="cls-4" x1="35.11" y1="94.58" x2="41.79" y2="120.57"/><line class="cls-4" x1="54.64" y1="75.18" x2="80.49" y2="82.38"/><circle class="cls-4" cx="110.6" cy="53.22" r="5.42"/><circle class="cls-4" cx="58.14" cy="30.43" r="5.42"/><path class="cls-4" d="M392.93,228.74a5.41,5.41,0,1,1-2.58-5.65" transform="translate(-346.04 -193.06)"/><polygon class="cls-4" points="86.83 77.41 52.74 67.91 27.46 92.68 36.28 126.96 70.37 136.46 95.65 111.69 86.83 77.41"/></svg>