<svg id="Calque_1" data-name="Calque 1" xmlns="http://www.w3.org/2000/svg" viewBox="0 0 149.81 208.89"><defs><style>.cls-1,.cls-3{fill:#74ad38;}.cls-2{fill:#fff;}.cls-3{font-size:19.91px;font-family:IBMPlexMono-Medium, IBM Plex Mono;font-weight:500;}.cls-4{fill:none;stroke:#fff;stroke-miterlimit:10;stroke-width:3px;}</style></defs><rect class="cls-1" width="149.81" height="149.81" rx="13.62"/><rect class="cls-2" y="160.31" width="149.81" height="48.59" rx="7.76"/><path class="cls-2" d="M358.1,227V214.17a9.08,9.08,0,0,1,9.08-9.08h12.68v-3.43H366.78a12.11,12.11,0,0,0-12.11,12.11V227Z" transform="translate(-346.04 -193.06)"/><path class="cls-2" d="M380,330.85H367.18a9.08,9.08,0,0,1-9.08-9.08V309.1h-3.43v13.07a12.11,12.11,0,0,0,12.11,12.11H380Z" transform="translate(-346.04 -193.06)"/><path class="cls-2" d="M461.89,205.09h12.82a9.08,9.08,0,0,1,9.08,9.08v12.67h3.43V213.77a12.11,12.11,0,0,0-12.11-12.11H461.89Z" transform="translate(-346.04 -193.06)"/><path class="cls-2" d="M483.79,309v12.82a9.08,9.08,0,0,1-9.08,9.08H462v3.43h13.08a12.11,12.11,0,0,0,12.11-12.11V309Z" transform="translate(-346.04 -193.06)"/><text class="cls-3" transform="translate(39.06 179.91)">igname<tspan x="-23.9" y="18.69">et dérivés</tspan></text><path class="cls-4" d="M431.54,208.68a23.76,23.76,0,0,0-7.52-1.77h0a30.42,30.42,0,0,0-14.71,2.62c-.52.24-1,.45-1.39.62l-2.39,1,.36-.14-.36.14c-5.93,2-12.79,1.88-17.9,5.39a18.9,18.9,0,0,0-2.14,1.74,37,37,0,0,0-5.29,6.58c-3.06,4.55-6,9.45-6.52,14.9a18.88,18.88,0,0,0,6.21,15.8,23.13,23.13,0,0,0,10.75,5,40.61,40.61,0,0,0,8.44.77c8.61-.07,17.36-2.16,24.43-7.07,6.49-4.52,11.22-11.14,15.19-18,1.83-3.14,3.56-6.46,4-10.07C443.54,218.85,438.38,211.58,431.54,208.68Z" transform="translate(-346.04 -193.06)"/><path class="cls-4" d="M484.74,274.91a23.84,23.84,0,0,0-2.7-6.26l-.06-.11,0,0h0c-2.47-4-7.34-6.44-11.9-8.17a126.48,126.48,0,0,0-17.58-5.27,32.69,32.69,0,0,0-6.81-1c-3.78,0-7.46,1.09-11.07,2.2a27.29,27.29,0,0,0-6.91,2.82c-5.8,3.7-8.05,11.61-6.23,18.25.07.28.16.55.25.82,2,6.26,7.05,11.28,12.88,14.37,6.08,3.23,13,4.6,19.8,5.46,9.07,1.15,19.32,1.11,26-5.1a18.55,18.55,0,0,0,3.08-3.76C486,285.19,486.06,279.79,484.74,274.91Z" transform="translate(-346.04 -193.06)"/><path class="cls-4" d="M410.53,282.38l-1.77-1.75.61.62Z" transform="translate(-346.04 -193.06)"/><path class="cls-4" d="M424.79,301.13c-2.27-7.63-8.43-13.16-14.26-18.75l.07.06c-.35-.31-.77-.73-1.23-1.19-.7-.68-1.39-1.36-2.07-2.05l1.46,1.43c-1.5-1.55-3.26-3.42-4.37-4.37-5.76-4.89-10.65-8.49-17.91-10.6S371,264,364.62,268.08s-10.14,12.4-7.86,19.61c.9,2.87,2.64,5.38,4.18,8,4.4,7.36,7.52,15.78,13.92,21.49A43.16,43.16,0,0,0,386.3,324c7.24,3.2,15.27,5.78,23,4C420.53,325.28,428.09,312.21,424.79,301.13Z" transform="translate(-346.04 -193.06)"/></svg>