<svg id="historique" xmlns="http://www.w3.org/2000/svg" width="32.19" height="32.191" viewBox="0 0 32.19 32.191">
  <path id="Tracé_44" data-name="Tracé 44" d="M9.036,2.05Q8.519,2.012,8,2.012V0q.593,0,1.185.044L9.036,2.05Zm4.031.905a14.088,14.088,0,0,0-1.981-.6L11.526.39a15.889,15.889,0,0,1,2.265.688l-.724,1.877Zm2.756,1.428q-.431-.288-.883-.543l.992-1.75A16.143,16.143,0,0,1,17.9,3.406L16.664,4.993q-.409-.319-.841-.608Zm3.689,3.6a14.061,14.061,0,0,0-1.314-1.6l1.456-1.388a16.785,16.785,0,0,1,1.5,1.831Zm1.5,2.72q-.2-.478-.43-.941l1.8-.905a16.045,16.045,0,0,1,.905,2.189l-1.911.63q-.162-.492-.36-.972Zm1.066,5.043a14.064,14.064,0,0,0-.2-2.062l1.981-.342a16.2,16.2,0,0,1,.233,2.354l-2.012.05Zm-.264,3.094c.066-.342.121-.682.163-1.026l2,.247a16.007,16.007,0,0,1-.463,2.323l-1.939-.537q.139-.5.241-1.008ZM19.9,23.627a14.209,14.209,0,0,0,.978-1.827l1.839.815A16.236,16.236,0,0,1,21.6,24.7l-1.7-1.076Zm-1.939,2.424q.368-.368.7-.76L20.187,26.6q-.387.449-.807.869Z" transform="translate(8.101)" fill="#8c4d20"/>
  <path id="Tracé_45" data-name="Tracé 45" d="M16.1,2.012a14.082,14.082,0,1,0,9.958,24.039l1.422,1.422A16.1,16.1,0,1,1,16.1,0Z" transform="translate(0.004 0)" fill="#8c4d20"/>
  <path id="Tracé_46" data-name="Tracé 46" d="M8.006,3A1.006,1.006,0,0,1,9.012,4.006V14.486l6.534,3.734a1.006,1.006,0,0,1-1,1.746L7.507,15.943A1.006,1.006,0,0,1,7,15.07V4.006A1.006,1.006,0,0,1,8.006,3Z" transform="translate(7.089 3.035)" fill="#8c4d20"/>
</svg>
