<svg xmlns="http://www.w3.org/2000/svg" width="24.21" height="26.212"
                                viewBox="0 0 24.21 26.212">
                                <g id="breastfeeding" transform="translate(0.085 -0.003)">
                                    <path id="Tracé_9366" data-name="Tracé 9366"
                                        d="M250.527,142.719a2.8,2.8,0,0,1,.8,1.251,2.21,2.21,0,0,1-2.142,2.9,1.815,1.815,0,0,1-1.685-2.244,1.521,1.521,0,0,1,1.139-1.081.426.426,0,0,1,.57.27c.065.232-.078.431-.361.513a.77.77,0,0,0-.52,1.112,1.053,1.053,0,0,0,1.193.591,1.406,1.406,0,0,0,1.052-1.764,1.791,1.791,0,0,0-2.322-1.279,5.812,5.812,0,0,0-4.12,4.946,6.34,6.34,0,0,0,1.108,4.421c.051.078.109.151.157.23a.407.407,0,0,1-.194.642c-.424.189-.465.448-.115.769a1.317,1.317,0,0,0,1.108.313.581.581,0,0,1,.558.213,5.321,5.321,0,0,0,5.532,1.744,7.4,7.4,0,0,0,2.513-.962.4.4,0,0,1,.6.1.411.411,0,0,1-.172.584,7.269,7.269,0,0,1-2.2.931,6.853,6.853,0,0,1-4.255-.024,6.228,6.228,0,0,1-2.4-1.6.478.478,0,0,0-.392-.168,1.955,1.955,0,0,1-1.574-.675,1.222,1.222,0,0,1,.063-1.791,8.019,8.019,0,0,1-.984-2.282,6.792,6.792,0,0,1,12.438-5.126,7.648,7.648,0,0,1,1.252,4.809,5.934,5.934,0,0,1-.167.893.408.408,0,1,1-.779-.215c.735-2.415-.883-6.252-3.729-7.526A6.126,6.126,0,0,0,250.527,142.719Z"
                                        transform="translate(-243.35 -138.391)" fill="#3f7830" />
                                    <path id="Tracé_9367" data-name="Tracé 9367"
                                        d="M422.316,132.114a.821.821,0,0,1-.773-.507.794.794,0,0,1,.7-1.112.878.878,0,0,0,.582-.238,28.4,28.4,0,0,0,5.666-6.165,11.3,11.3,0,0,0,1.772-4.078,10.471,10.471,0,0,0,.128-1.18c.024-.321.158-.5.41-.5s.405.189.405.505a9.389,9.389,0,0,1-1.037,3.955,21.292,21.292,0,0,1-3.818,5.295c-.486.514-.991,1.013-1.486,1.516a2.471,2.471,0,0,1-1.232,4.092c.081.185.149.374.241.548a7.622,7.622,0,0,0,7.085,4.344,4.775,4.775,0,0,0,1.915-.416c.062-.026.122-.057.185-.082a.4.4,0,1,1,.329.738,5.9,5.9,0,0,1-1.838.528c-.108.012-.215.026-.338.042v2.519c0,.1,0,.2,0,.3a.407.407,0,0,1-.409.423.4.4,0,0,1-.4-.434c0-.835,0-1.671,0-2.506v-.261C425.981,138.895,423.322,136.454,422.316,132.114Zm1.924-1.972c-.36.3-.7.579-1.027.865a.265.265,0,0,0-.1.185c.063.562.14,1.122.216,1.711a1.628,1.628,0,0,0,1.289-1.067A1.591,1.591,0,0,0,424.24,130.142Z"
                                        transform="translate(-409.524 -116.427)" fill="#3f7830" />
                                    <path id="Tracé_9368" data-name="Tracé 9368"
                                        d="M305.772,376.539a5.117,5.117,0,0,1-4.615-3.3,10.453,10.453,0,0,1-.505-1.664c-.086-.327.05-.549.3-.594s.432.123.491.453a5.633,5.633,0,0,0,1.279,2.821,4.415,4.415,0,0,0,5.089,1.108,4.961,4.961,0,0,0,2-1.383,2.585,2.585,0,0,0,.433-.707.8.8,0,0,0-.9-1.1,5.057,5.057,0,0,0-1.126.357,17.828,17.828,0,0,0-1.653.819,1.66,1.66,0,0,1-1.243.156,4.384,4.384,0,0,1-1.966-1.1.38.38,0,0,1-.04-.546.4.4,0,0,1,.567-.057c.144.1.27.232.42.326a7.42,7.42,0,0,0,.768.434,1.332,1.332,0,0,0,1.317-.031,19.93,19.93,0,0,1,2.034-.954,3.512,3.512,0,0,1,.955-.226,1.6,1.6,0,0,1,1.658,2.114,3.63,3.63,0,0,1-1.262,1.674A6.38,6.38,0,0,1,305.772,376.539Z"
                                        transform="translate(-296.836 -352.008)" fill="#3f7830" />
                                    <path id="Tracé_9369" data-name="Tracé 9369"
                                        d="M323.331,290.817a3.55,3.55,0,0,1-.354-.048.405.405,0,0,1-.326-.445.388.388,0,0,1,.447-.347,1.42,1.42,0,0,0,1.069-.264.388.388,0,0,1,.555.106.4.4,0,0,1-.107.558A2.172,2.172,0,0,1,323.331,290.817Z"
                                        transform="translate(-317.372 -276.165)" fill="#3f7830" />
                                    <path id="Tracé_9370" data-name="Tracé 9370"
                                        d="M387.46,275.27c.232-.084.473-.152.693-.258.267-.128.494-.1.619.1a.417.417,0,0,1-.2.593,1.9,1.9,0,0,1-1.195.317c-.322-.024-.484-.181-.467-.44S387.111,275.2,387.46,275.27Z"
                                        transform="translate(-377.296 -262.452)" fill="#3f7830" />
                                    <path id="Tracé_9371" data-name="Tracé 9371"
                                        d="M375.387,323.372a.507.507,0,0,1-.464-.417c-.024-.247.108-.4.371-.445a1.256,1.256,0,0,0,.325-.123.407.407,0,0,1,.557.118.368.368,0,0,1-.1.537A5.81,5.81,0,0,1,375.387,323.372Z"
                                        transform="translate(-366.112 -306.645)" fill="#3f7830" />
                                    <path id="Tracé_9372" data-name="Tracé 9372"
                                        d="M431.173,102.493c.277-.329.549-.663.834-.984a.743.743,0,0,1,.313-.22.332.332,0,0,1,.312.049.462.462,0,0,1-.018.35,1.658,1.658,0,0,1-.227.361q-.357.5-.722.993a.735.735,0,0,1-.195.222c-.1.053-.251.108-.328.068a.356.356,0,0,1-.113-.311,2.548,2.548,0,0,1,.162-.5Z"
                                        transform="translate(-418.43 -100.521)" fill="#3f7830" />
                                    <path id="Tracé_9373" data-name="Tracé 9373"
                                        d="M407.573,90.3c.038-.02.138-.117.23-.109a.3.3,0,0,1,.212.2c.045.534.08,1.069.082,1.6a.317.317,0,0,1-.338.311c-.2,0-.264-.154-.306-.314A4.2,4.2,0,0,1,407.573,90.3Z"
                                        transform="translate(-396.411 -90.19)" fill="#3f7830" />
                                    <path id="Tracé_9374" data-name="Tracé 9374"
                                        d="M445.743,131.615a.316.316,0,0,1-.113-.544,2.431,2.431,0,0,1,1.315-.523c.193-.018.286.118.2.29a.641.641,0,0,1-.224.263c-.311.179-.632.342-.956.5A.543.543,0,0,1,445.743,131.615Z"
                                        transform="translate(-431.939 -127.817)" fill="#3f7830" />
                                </g>
                            </svg>
