<svg xmlns="http://www.w3.org/2000/svg" width="21.997" height="21.579"
viewBox="0 0 21.997 21.579">
<g id="weight-scale" transform="translate(-251.284 -131.353)">
    <path id="Tracé_9208" data-name="Tracé 9208"
        d="M539.548,157.889c-.084.388-.174.814-.265,1.234-.032.142-.052.284-.1.42a.246.246,0,0,1-.317.187.234.234,0,0,1-.181-.3c.116-.549.239-1.1.362-1.648a.238.238,0,0,1,.278-.207C539.477,157.6,539.548,157.7,539.548,157.889Z"
        transform="translate(-268.826 -24.529)" fill="#3f7830" />
    <path id="Tracé_9209" data-name="Tracé 9209"
        d="M558.512,176.357a.24.24,0,0,1-.252-.155.227.227,0,0,1,.065-.284,3.352,3.352,0,0,0,.976-1.15.217.217,0,0,1,.317-.084.224.224,0,0,1,.136.278,3.148,3.148,0,0,1-1.144,1.37C558.583,176.344,558.544,176.344,558.512,176.357Z"
        transform="translate(-287.118 -40.497)" fill="#3f7830" />
    <path id="Tracé_9210" data-name="Tracé 9210"
        d="M566.256,218.9h.556c.168,0,.284.078.284.258s-.123.252-.291.258c-.381,0-.756.006-1.137,0a.241.241,0,0,1-.271-.246c-.006-.181.11-.258.278-.265C565.868,218.9,566.062,218.9,566.256,218.9Z"
        transform="translate(-293.814 -81.89)" fill="#3f7830" />
    <path id="Tracé_9211" data-name="Tracé 9211"
        d="M269.753,136.054a2.088,2.088,0,0,0-.53-.065c-.614,0-1.228-.006-1.842.006-.149,0-.207-.045-.239-.187a5.606,5.606,0,0,0-.53-1.4,5.434,5.434,0,0,0-4.6-3.044,6.82,6.82,0,0,0-2.572.336,5.974,5.974,0,0,0-4.161,3.9.234.234,0,0,1-.239.181c-.7.065-1.4.142-2.094.207a1.428,1.428,0,0,0-1,.517,3.027,3.027,0,0,0-.64,2.313c.116,1.163.31,2.32.491,3.477.3,1.951.594,3.9.9,5.854.155,1,.278,2,.478,2.985a1.435,1.435,0,0,0,.672,1.047,3.839,3.839,0,0,0,1.544.517c1.57.155,3.14.207,4.717.226h.168c1.764,0,3.515-.149,5.273-.246a14.465,14.465,0,0,0,1.667-.123c1.428-.252,1.8-.788,1.919-1.893s.174-2.191.271-3.283c.162-1.816.414-3.625.653-5.428.2-1.519.407-3.037.6-4.556A1.19,1.19,0,0,0,269.753,136.054Zm-12.633-2.236a5.817,5.817,0,0,1,6.578-1.512,5.318,5.318,0,0,1,3.024,3.9,5.514,5.514,0,0,1-2.546,5.932,5.75,5.75,0,0,1-3.173.8,5.27,5.27,0,0,1-4.717-3.25A5.21,5.21,0,0,1,257.12,133.818Zm13.014,3.625c-.252,1.926-.51,3.851-.762,5.783-.3,2.307-.569,4.614-.7,6.934a5.135,5.135,0,0,1-.129.885,1.143,1.143,0,0,1-.795.859,5.029,5.029,0,0,1-1.447.239c-1.951.058-3.9.3-5.712.271a48.1,48.1,0,0,1-5-.194,3.322,3.322,0,0,1-.9-.187.861.861,0,0,1-.607-.756c-.375-2.863-.762-5.725-1.144-8.588q-.349-2.646-.7-5.305a.708.708,0,0,1,.678-.866c.653-.071,1.3-.123,1.951-.207.226-.032.22.058.187.213a6.64,6.64,0,0,0,.1,2.74,5.808,5.808,0,0,0,5.066,4.491,6.438,6.438,0,0,0,4.788-1.557,6.1,6.1,0,0,0,2.184-3.367,5.587,5.587,0,0,0,.142-1.99c-.039-.323-.032-.323.278-.323.562,0,1.131-.006,1.693,0C269.928,136.513,270.218,136.836,270.134,137.443Z"
        fill="#3f7830" />
    <path id="Tracé_9212" data-name="Tracé 9212"
        d="M332,384.225a22.108,22.108,0,0,1-4.058-.394c-.181-.032-.317-.116-.271-.323.045-.187.187-.22.362-.181a19.7,19.7,0,0,0,5.441.317,13.931,13.931,0,0,0,2.359-.394c.194-.052.355-.032.4.174s-.1.278-.278.323A16.693,16.693,0,0,1,332,384.225Z"
        transform="translate(-71.445 -235.596)" fill="#3f7830" />
    <path id="Tracé_9213" data-name="Tracé 9213"
        d="M338.233,342.046c-1.053-.006-2.094-.1-3.141-.187-.181-.013-.336-.084-.317-.284.019-.22.187-.252.375-.233a28.731,28.731,0,0,0,3.651.187,18.727,18.727,0,0,0,3.056-.323c.181-.032.336-.019.381.187s-.1.291-.271.317A21.993,21.993,0,0,1,338.233,342.046Z"
        transform="translate(-78.095 -196.279)" fill="#3f7830" />
    <path id="Tracé_9214" data-name="Tracé 9214"
        d="M336.457,150.3a4.827,4.827,0,1,0,4.808,4.846A4.851,4.851,0,0,0,336.457,150.3Zm4.116,5.292c.213-.019.136.129.123.22a4.285,4.285,0,0,1-.982,2.107c-.149-.116-.3-.3-.491-.084-.162.187-.013.323.129.459a4.208,4.208,0,0,1-2.468,1.1c0-.11.006-.213,0-.317a.234.234,0,0,0-.239-.252c-.155-.006-.226.084-.265.226-.032.116.1.3-.084.355a.961.961,0,0,1-.381-.026,4.017,4.017,0,0,1-2.035-.821,3.139,3.139,0,0,0,.246-.265.241.241,0,0,0-.026-.349.234.234,0,0,0-.33-.006c-.013.013-.026.019-.039.032-.291.252-.291.252-.543-.032a4.178,4.178,0,0,1-1-2.113c.155,0,.3-.006.459,0,.187.006.336-.058.336-.258s-.162-.258-.342-.252h-.194c-.33,0-.33,0-.323-.336a4.208,4.208,0,0,1,.7-2.236c.116.129.22.239.323.355.123.129.265.168.4.032s.078-.278-.045-.4c-.013-.013-.026-.019-.032-.032-.362-.375-.368-.375.026-.743a4.186,4.186,0,0,1,2.268-1.111c.155-.026.284-.032.252.194-.026.187.032.362.252.362s.284-.168.258-.355c-.032-.226.058-.265.265-.246a4.4,4.4,0,0,1,2.746,1.292c.1.1.1.149,0,.246-.149.136-.368.271-.162.517.116.142.265.09.523-.162.019-.019.039-.032.071-.065a4.35,4.35,0,0,1,.788,2.288c.007.129-.032.174-.162.162-.174-.013-.31.065-.31.252A.224.224,0,0,0,340.574,155.59Z"
        transform="translate(-75.124 -17.721)" fill="#3f7830" />
    <path id="Tracé_9215" data-name="Tracé 9215"
        d="M394.6,173.093v1.137c0,.123.013.271.129.323a.643.643,0,0,1,.136.123c.136.213.355.162.614.162.33,0,.659.006.989,0,.181,0,.317.058.323.246.006.207-.142.265-.33.265h-1.376a.38.38,0,0,0-.3.116.628.628,0,1,1-.834-.937.342.342,0,0,0,.142-.323c-.006-.75,0-1.5-.006-2.249,0-.194.039-.355.258-.355s.246.162.246.342C394.59,172.337,394.6,172.711,394.6,173.093Z"
        transform="translate(-133.218 -37.646)" fill="#3f7830" />
</g>
</svg>