<svg xmlns="http://www.w3.org/2000/svg" width="25.419" height="25.866"
viewBox="0 0 25.419 25.866">
<g id="genders" transform="translate(-252.121 -126.381)">
	<path id="Tracé_9216" data-name="Tracé 9216"
		d="M266.395,161.521a6.648,6.648,0,0,1-9.64,5.688c-.2.316-.406.639-.609.962s-.406.646-.624,1c.323.2.631.4.939.594a.738.738,0,0,1,.338,1.067.755.755,0,0,1-1.135.173c-.3-.188-.6-.383-.924-.586-.361.571-.7,1.135-1.067,1.675a.979.979,0,0,1-.436.316.512.512,0,0,1-.654-.18.692.692,0,0,1-.068-.789c.346-.564.706-1.127,1.082-1.728-.368-.233-.736-.458-1.1-.691a.718.718,0,0,1-.376-.729.738.738,0,0,1,1.135-.526c.188.105.368.225.548.346s.368.225.571.353c.413-.654.811-1.292,1.27-2.021a1.193,1.193,0,0,1-.233-.128,6.385,6.385,0,0,1-1.766-2.735,7.965,7.965,0,0,1-.5-2.8,6.411,6.411,0,0,1,6.1-6.116c.075,0,.143-.015.218-.015a8.42,8.42,0,0,1,.24-1.255,6.87,6.87,0,0,1,5.425-5.057,6.377,6.377,0,0,1,7.318,5.237,7.3,7.3,0,0,1-.24,3.854c-.068.165-.135.331-.21.518,1.135.744,2.262,1.48,3.434,2.254-.105-.458-.21-.864-.3-1.27a.891.891,0,0,1,.691-1.127.9.9,0,0,1,1.059.774c.218,1.217.421,2.442.646,3.659.045.27-.053.4-.316.458-1.225.27-2.449.548-3.682.819a.844.844,0,0,1-1.037-.631.831.831,0,0,1,.676-1c.586-.12,1.18-.225,1.848-.346-1.285-.842-2.517-1.653-3.764-2.472A6.557,6.557,0,0,1,266.395,161.521Zm-.188-10.759a3.858,3.858,0,0,0-3.854,4.245.481.481,0,0,0,.3.451,5.644,5.644,0,0,1,2.72,2.4.99.99,0,0,0,1.187.579.57.57,0,0,1,.113-.008,3.847,3.847,0,0,0-.466-7.664ZM255.688,161.07c.03.24.045.488.09.721a3.852,3.852,0,0,0,7.626-.6.283.283,0,0,0-.2-.316,6.432,6.432,0,0,1-3.193-3.449.349.349,0,0,0-.368-.255A3.861,3.861,0,0,0,255.688,161.07Zm9.55-.849c-.09-.383-.18-.744-.255-1.1a.46.46,0,0,0-.338-.361,4.429,4.429,0,0,1,2.479-8.483,4.432,4.432,0,0,1-.053,8.678c-.346.068-.7.09-1.052.128.105.428.21.842.308,1.255,2.525.308,5.259-2.224,5.6-5.169a5.788,5.788,0,0,0-5.154-6.3,5.715,5.715,0,0,0-6.311,5.117A5.842,5.842,0,0,0,265.238,160.221Zm-5.74-4.966a5.786,5.786,0,1,0,5.725,6.236c-.4-.09-.8-.173-1.195-.263a4.463,4.463,0,0,1-8.911.105,4.236,4.236,0,0,1,.842-2.915,4.469,4.469,0,0,1,3.742-1.856C259.625,156.119,259.565,155.691,259.5,155.255Zm3.253.992a3.372,3.372,0,0,0,1.691,1.736A4.858,4.858,0,0,0,262.751,156.247Z"
		transform="translate(0 -20.21)" fill="#3f7830" />
	<path id="Tracé_9217" data-name="Tracé 9217"
		d="M510.167,134.887a1.627,1.627,0,0,1-.18.278c-.564.511-1.135,1.014-1.706,1.518-.15.135-.316.2-.466.03-.165-.18-.075-.338.083-.481.564-.5,1.12-1,1.691-1.488a.475.475,0,0,1,.346-.09C510.025,134.661,510.085,134.789,510.167,134.887Z"
		transform="translate(-236.402 -7.648)" fill="#3f7830" />
	<path id="Tracé_9218" data-name="Tracé 9218"
		d="M520.663,169.347c-.06-.06-.21-.143-.24-.255-.06-.2.075-.316.271-.338.563-.075,1.135-.15,1.7-.218.2-.023.368.023.391.248s-.128.308-.323.338C521.888,169.19,521.324,169.265,520.663,169.347Z"
		transform="translate(-248.13 -38.983)" fill="#3f7830" />
	<path id="Tracé_9219" data-name="Tracé 9219"
		d="M491.9,128.306c.128-.631.225-1.195.361-1.743a.366.366,0,0,1,.316-.18.352.352,0,0,1,.225.286c-.083.564-.188,1.119-.323,1.675a.4.4,0,0,1-.316.18C492.058,128.509,491.968,128.366,491.9,128.306Z"
		transform="translate(-221.763)" fill="#3f7830" />
</g>
</svg>
