<?xml version="1.0" encoding="utf-8"?>
<!-- Generator: Adobe Illustrator 27.0.1, SVG Export Plug-In . SVG Version: 6.00 Build 0)  -->
<svg version="1.1" id="_x32_" xmlns="http://www.w3.org/2000/svg" xmlns:xlink="http://www.w3.org/1999/xlink" x="0px" y="0px"
	 viewBox="0 0 800 800" style="enable-background:new 0 0 800 800;" xml:space="preserve">
<style type="text/css">
	.st0{fill:#F8F8DD;}
</style>
<g>
	<path class="st0" d="M644,550.6c-19.6,5.9-38.8,16-58.2,35.3l0,0c-25.2,25.4-35.1,50.6-39.5,76.6c-4.3,26-2.2,52.6-1.7,78.1
		c0,4.3,0.1,8.5,0,12.7l208.7-208.7c-6.6,0.2-13.3,0.1-20-0.1C704,543.6,673.3,541.8,644,550.6z"/>
	<path class="st0" d="M400,0C179.1,0,0,179.1,0,400c0,220.9,179.1,400,400,400c33.1,0,65.1-4.3,95.9-11.9c3.9-4.4,6.5-9.8,8.1-18.5
		c1.6-9.1,1.8-21.3,1.4-35.3c-0.7-28.1-3.4-63.7,7.7-101.5c7.4-25.1,21.3-51,45.2-74.7c0,0,0,0,0,0c31.2-31.4,66-45.3,98-50.4
		c32.1-5.2,61.6-2.5,85.1-2.2c15.6,0.3,28.3-0.6,36.6-3.6c4.4-1.5,7.5-3.5,10.3-6.1C795.7,465.1,800,433,800,400
		C800,179.1,620.9,0,400,0z M315.7,503.8l-26.2,5.2c-1.8,0.3-3-0.1-4.2-1.5l-71.5-83.6l-1.1,0.2l18.5,94c0.3,1.3-0.5,2.4-1.8,2.6
		l-24.9,4.9c-1.3,0.3-2.4-0.5-2.6-1.8l-28.6-145.3c-0.3-1.3,0.4-2.4,1.7-2.6l26.4-5.2c1.6-0.3,3,0.1,4.2,1.5l71.4,83.8l1.1-0.2
		l-18.5-94.2c-0.3-1.3,0.5-2.4,1.8-2.6l24.9-4.9c1.3-0.3,2.4,0.4,2.6,1.8l28.6,145.3C317.8,502.5,317,503.6,315.7,503.8z
		 M444.8,478.4l-96,18.9c-1.3,0.3-2.4-0.5-2.6-1.8l-28.6-145.3c-0.2-1.3,0.5-2.4,1.8-2.7l96-18.9c1.3-0.3,2.4,0.5,2.6,1.8l4.6,23.6
		c0.3,1.3-0.4,2.4-1.7,2.6l-64.5,12.7c-0.9,0.2-1.2,0.7-1.1,1.6l5.9,29.7c0.2,0.9,0.7,1.2,1.6,1.1l53.7-10.6
		c1.3-0.3,2.4,0.5,2.6,1.8l4.6,23.3c0.3,1.3-0.5,2.4-1.8,2.6l-53.7,10.6c-0.9,0.2-1.2,0.7-1.1,1.6l6.1,31c0.2,0.9,0.7,1.2,1.6,1.1
		l64.5-12.7c1.3-0.3,2.4,0.5,2.6,1.8l4.6,23.6C446.8,477.1,446.1,478.2,444.8,478.4z M605.6,444.5c0,1.4-0.9,2.5-2.4,2.8l-22,4.3
		c-1.5,0.3-2.6-0.4-3.3-1.6l-44.3-88l-0.4,0.1l-7.9,98.3c-0.2,1.4-0.9,2.5-2.4,2.8l-22,4.3c-1.3,0.3-2.4-0.5-3.1-1.7L430.4,328
		c-0.5-1.3-0.2-2.2,1.3-2.5l28.4-5.6c1.6-0.3,2.6,0.4,3.1,1.7l40.1,89.8l0.5-0.1l7.1-99c0.2-1.4,0.9-2.5,2.4-2.8l19.2-3.8
		c1.3-0.3,2.4,0.4,3.1,1.7l44.9,88.8l0.5-0.1l2.2-98.1c-0.1-1.6,0.7-2.4,2.2-2.7l28.2-5.5c1.5-0.3,2.2,0.5,2.2,1.9L605.6,444.5z"/>
</g>
</svg>
