<svg xmlns="http://www.w3.org/2000/svg" width="17.856" height="32.153"
                                viewBox="0 0 17.856 32.153">
                                <g id="Groupe_17376" data-name="Groupe 17376" transform="translate(-116.467 -312.564)">
                                    <g id="Groupe_17342" data-name="Groupe 17342" transform="translate(3 -14)">
                                        <g id="take-care-of-your-children-svgrepo-com"
                                            transform="translate(113.817 333.845)">
                                            <path id="Tracé_9200" data-name="Tracé 9200"
                                                d="M105.724,6.261a3.13,3.13,0,1,1,3.131-3.131A3.131,3.131,0,0,1,105.724,6.261Z"
                                                transform="translate(-93.866 0)" fill="none" stroke="#3f7830"
                                                stroke-width="0.7" />
                                            <path id="Tracé_9201" data-name="Tracé 9201"
                                                d="M68.954,117.248a2.651,2.651,0,0,1,1.874,0c.82.249,3.911,1.575,4.357,7.512a.993.993,0,0,1-.916,1.065q-.038,0-.076,0a.993.993,0,0,1-.989-.919,10.947,10.947,0,0,0-.665-3.19v3.058a2.655,2.655,0,0,1-.07.606v8.38a1.159,1.159,0,0,1-2.318,0v-6.35q-.129.013-.261.013t-.261-.013v6.35a1.159,1.159,0,1,1-2.318,0v-8.381a2.656,2.656,0,0,1-.07-.605v-3.058a10.947,10.947,0,0,0-.665,3.19.994.994,0,0,1-.99.919l-.076,0a.993.993,0,0,1-.916-1.065C65.042,118.821,68.135,117.5,68.954,117.248Z"
                                                transform="translate(-58.033 -110.4)" fill="none" stroke="#3f7830"
                                                stroke-width="0.7" />
                                            <path id="Tracé_9202" data-name="Tracé 9202"
                                                d="M276.387,192.818a1.926,1.926,0,1,1,1.927-1.926A1.927,1.927,0,0,1,276.387,192.818Z"
                                                transform="translate(-273.127 -178.188)" fill="none" stroke="#3f7830"
                                                stroke-width="0.7" />
                                            <path id="Tracé_9203" data-name="Tracé 9203"
                                                d="M251.077,265.736c.275-3.651,2.175-4.469,2.68-4.622a1.629,1.629,0,0,1,1.155,0c.5.153,2.406.97,2.681,4.622a.611.611,0,0,1-.564.655l-.047,0a.611.611,0,0,1-.609-.565,6.73,6.73,0,0,0-.409-1.963v1.362a1.628,1.628,0,0,1-.043.372v4.115a.713.713,0,0,1-1.426,0v-2.865a1.6,1.6,0,0,1-.161.008q-.081,0-.16-.008v2.865a.713.713,0,0,1-1.426,0V265.6a1.63,1.63,0,0,1-.043-.373v-1.356a6.7,6.7,0,0,0-.409,1.957.611.611,0,0,1-.609.565l-.046,0A.611.611,0,0,1,251.077,265.736Z"
                                                transform="translate(-251.075 -246.123)" fill="none" stroke="#3f7830"
                                                stroke-width="0.7" />
                                        </g>
                                    </g>
                                    <g id="up-arrow_1_" data-name="up-arrow (1)"
                                        transform="matrix(0.998, -0.07, 0.07, 0.998, 116.596, 313.482)">
                                        <path id="Tracé_9364" data-name="Tracé 9364"
                                            d="M298.893,238.444a.29.29,0,0,1-.29-.439c.235-.4.469-.8.73-1.188a19.826,19.826,0,0,1,3.932-4.131c1.02-.839,2.094-1.6,3.189-2.33.6-.4,1.182-.848,1.774-1.27.139-.1.291-.176.435-.267.126-.079.247-.1.345.034s.014.233-.089.315c-.515.416-1.023.839-1.549,1.243a38.649,38.649,0,0,0-3.353,3c-1.652,1.6-3.273,3.235-4.91,4.854A2.251,2.251,0,0,1,298.893,238.444Z"
                                            transform="translate(-298.56 -226.37)" fill="#3f7830" />
                                        <path id="Tracé_9365" data-name="Tracé 9365"
                                            d="M474.606,183.688l-2.635.319c-.058.007-.116.022-.174.028a.224.224,0,0,1-.28-.182.227.227,0,0,1,.175-.286,6.241,6.241,0,0,1,.72-.191c.839-.141,1.679-.27,2.518-.4a.323.323,0,0,1,.383.308,9.159,9.159,0,0,1-.147,2.734c-.023.082-.056.161-.085.24-.047.126-.1.262-.271.225a.3.3,0,0,1-.262-.322c.014-.438.043-.876.052-1.312C474.614,184.478,474.606,184.106,474.606,183.688Z"
                                            transform="translate(-462.434 -182.99)" fill="#3f7830" />
                                    </g>
                                </g>
                            </svg>