<svg id="Groupe_17316" data-name="Groupe 17316" xmlns="http://www.w3.org/2000/svg" width="74.742" height="102.613" viewBox="0 0 74.742 102.613">
<path id="Tracé_9170" data-name="Tracé 9170"
  d="M367.832,111.251a26.994,26.994,0,0,0,.625-18.831c-.368-1.083-1.039-2.319-2.182-2.366a2.048,2.048,0,0,0-1.834,1.346,5.692,5.692,0,0,0-.284,2.386A45.174,45.174,0,0,0,367.832,111.251Z"
  transform="translate(-337.913 -84.439)" fill="#c6cb2e" />
<path id="Tracé_9171" data-name="Tracé 9171"
  d="M388.233,113.714a30.481,30.481,0,0,0-17.371-9.024,6.663,6.663,0,0,0-3.008.059,2.656,2.656,0,0,0-1.927,2.119c-.145,1.577,1.5,2.672,2.946,3.314A39.45,39.45,0,0,0,388.233,113.714Z"
  transform="translate(-357.766 -86.84)" fill="#c6cb2e" />
<path id="Tracé_9172" data-name="Tracé 9172"
  d="M398.455,99.848a29.845,29.845,0,0,0-10.986-13.912,13.057,13.057,0,0,0-6.733-2.608c-.959-.033-2.157.313-2.3,1.262a2.168,2.168,0,0,0,.492,1.443C383.554,93.057,391.455,97.077,398.455,99.848Z"
  transform="translate(-378.426 -83.325)" fill="#c6cb2e" />
<path id="Tracé_9173" data-name="Tracé 9173"
  d="M375.743,132.657a49.15,49.15,0,0,0-8.722-7.689,21.976,21.976,0,0,0-10.869-3.811,4.058,4.058,0,0,0-1.837.234,1.636,1.636,0,0,0-1.036,1.427c.013.744.667,1.3,1.273,1.73A42.538,42.538,0,0,0,375.743,132.657Z"
  transform="translate(-334.732 -89.589)" fill="#c6cb2e" />
<path id="Tracé_9174" data-name="Tracé 9174"
  d="M371.342,153.583A71.874,71.874,0,0,0,353.9,138.8c-2.788-1.69-5.919-3.257-9.223-3.089a2.225,2.225,0,0,0-1.987.921c-.4.859.451,1.769,1.232,2.389A85.631,85.631,0,0,0,371.342,153.583Z"
  transform="translate(-321.414 -91.999)" fill="#c6cb2e" />
<path id="Tracé_9175" data-name="Tracé 9175"
  d="M370.923,174.831a53.046,53.046,0,0,0-27.466-17.368c-1.148-.283-2.641-.39-3.234.633-.532.918.088,2.069.789,2.864a22.3,22.3,0,0,0,5.063,3.978C353.886,169.817,362.4,173.576,370.923,174.831Z"
  transform="translate(-318.851 -95.571)" fill="#c6cb2e" />
<path id="Tracé_9176" data-name="Tracé 9176"
  d="M344.569,129.172a28.647,28.647,0,0,0,6.588-21.487c-.1-.921-.421-2.032-1.325-2.234-1.1-.248-1.871,1.051-2.224,2.125A57.224,57.224,0,0,0,344.569,129.172Z"
  transform="translate(-302.961 -86.984)" fill="#c6cb2e" />
<path id="Tracé_9177" data-name="Tracé 9177"
  d="M328.557,152.459a26.524,26.524,0,0,0,12.983-23.1,2.241,2.241,0,0,0-.743-1.942c-1.007-.626-2.171.514-2.791,1.524A72.431,72.431,0,0,0,328.557,152.459Z"
  transform="translate(-279.908 -90.597)" fill="#c6cb2e" />
<path id="Tracé_9178" data-name="Tracé 9178"
  d="M312.854,173.426c3.28-.149,6.065-2.344,8.557-4.482a61.81,61.81,0,0,0,8.318-8.227,24.537,24.537,0,0,0,5.113-10.417,5.362,5.362,0,0,0,.03-2.509,2.253,2.253,0,0,0-1.718-1.669c-1.111-.154-2.048.77-2.776,1.62A134.629,134.629,0,0,0,312.854,173.426Z"
  transform="translate(-260.268 -93.722)" fill="#c6cb2e" />
<path id="Tracé_9179" data-name="Tracé 9179" d="M338.37,93.452a98.2,98.2,0,0,1,42.252,93.05"
  transform="translate(-327.879 -85.002)" fill="none" stroke="#4c1d12" stroke-linecap="round"
  stroke-linejoin="round" stroke-width="2" />
<path id="Tracé_9180" data-name="Tracé 9180" d="M333.321,138.681a137.8,137.8,0,0,1,22.636,15.48l8.424-20.39"
  transform="translate(-306.717 -91.68)" fill="none" stroke="#4c1d12" stroke-linecap="round"
  stroke-linejoin="round" stroke-width="2" />
<path id="Tracé_9181" data-name="Tracé 9181"
  d="M317.411,162.2a131.159,131.159,0,0,1,24.929,13.445l17.438-21.179" transform="translate(-288.839 -95.107)"
  fill="none" stroke="#4c1d12" stroke-linecap="round" stroke-linejoin="round" stroke-width="2" />
<path id="Tracé_9182" data-name="Tracé 9182" d="M381.23,113.485a70.3,70.3,0,0,0-14.1-3.056"
  transform="translate(-351.775 -87.814)" fill="none" stroke="#4c1d12" stroke-linecap="round"
  stroke-linejoin="round" stroke-width="2" />
<path id="Tracé_9183" data-name="Tracé 9183" d="M367.608,97.812a84.6,84.6,0,0,1,.569,13.1"
  transform="translate(-339.171 -85.725)" fill="none" stroke="#4c1d12" stroke-linecap="round"
  stroke-linejoin="round" stroke-width="2" />
<path id="Tracé_9184" data-name="Tracé 9184" d="M369.39,134.038a90.212,90.212,0,0,0-17.1-7.232"
  transform="translate(-327.55 -90.526)" fill="none" stroke="#4c1d12" stroke-linecap="round"
  stroke-linejoin="round" stroke-width="2" />
<path id="Tracé_9185" data-name="Tracé 9185" d="M351.631,112.658a134.357,134.357,0,0,1-4.284,18.538"
  transform="translate(-305.67 -88.183)" fill="none" stroke="#4c1d12" stroke-linecap="round"
  stroke-linejoin="round" stroke-width="2" />
</svg>