<svg xmlns="http://www.w3.org/2000/svg" width="15.366" height="24.823"
                                viewBox="0 0 15.366 24.823">
                                <g id="pregnant" transform="translate(-300.268 -94.19)">
                                    <path id="Tracé_9241" data-name="Tracé 9241"
                                        d="M308.246,119.013c-.478-.048-.963-.1-1.441-.145-1.1-.085-2.2-.145-3.306-.254a6.78,6.78,0,0,1-1.338-.3,1.392,1.392,0,0,1-.987-1.3,9.77,9.77,0,0,1,.091-2.144c.1-1.078.176-2.156.212-3.234.036-1.126-.012-2.259.012-3.391.012-.624.115-1.247.164-1.877a2.586,2.586,0,0,0-.036-.478c-.194-.018-.363-.018-.527-.048a.889.889,0,0,1-.787-.793,2.336,2.336,0,0,1,.309-1.587,2.044,2.044,0,0,0,.23-1.623,2.459,2.459,0,0,1,.333-1.968c.1-.17.188-.339.279-.509a2.185,2.185,0,0,0,.272-1.139c-.018-.412-.024-.824-.006-1.235a2.872,2.872,0,0,1,.878-1.938,1.8,1.8,0,0,1,1.9-.472,1.4,1.4,0,0,0,1.217-.157,1.887,1.887,0,0,1,1.726-.042,2.86,2.86,0,0,1,2.041,2.356,8.436,8.436,0,0,1,.036,1.108.5.5,0,0,1-.115.279c-.327.369-.145.751-.188,1.181.067.024.133.048.2.067a.851.851,0,0,1,.642.884.79.79,0,0,1-.678.793.342.342,0,0,0-.2.218,3.79,3.79,0,0,1-.654,1.417,2.759,2.759,0,0,1-.787.612c-.206.109-.206.279-.236.436-.012.061.115.17.2.218a7.065,7.065,0,0,1,1.986,1.447,1.95,1.95,0,0,1,.515,1.151c.012.121.03.212.17.254a6.053,6.053,0,0,1,2.319,1.272.907.907,0,0,1,1.042-.339.612.612,0,0,1,.333.248.72.72,0,0,0,.369.363c.224.1.279.309.23.6a.354.354,0,0,0,.067.26.8.8,0,0,1,.079,1.1c-.133.176-.315.321-.466.484-.048.055-.115.151-.1.212a10.746,10.746,0,0,1-.315,5.166,5.081,5.081,0,0,1-.7,1.611,2.481,2.481,0,0,1-1.883,1.09c-.448.042-.9.1-1.344.145C309.408,119.013,308.827,119.013,308.246,119.013ZM301.96,106.6c-.024.382-.067.721-.061,1.066.012.89.036,1.774.061,2.665.018.709.067,1.417.067,2.132.006.878-.006,1.756-.03,2.634-.018.684-.073,1.369-.1,2.053a.623.623,0,0,0,.412.672,4.3,4.3,0,0,0,1.036.3c1.278.109,2.562.164,3.839.254a23.924,23.924,0,0,0,3.839-.139,2.18,2.18,0,0,0,2.029-1.532,12.254,12.254,0,0,0,.7-3.058,7.277,7.277,0,0,0-.7-4.021,4.691,4.691,0,0,0-2.986-2.235,1.592,1.592,0,0,1-.121.23,3.514,3.514,0,0,1-.436.509.324.324,0,0,1-.315-.006c-.048-.03-.042-.2-.018-.3a1.543,1.543,0,0,1,.164-.291,1.505,1.505,0,0,0-.164-1.8,7.286,7.286,0,0,0-1.865-1.52.282.282,0,0,0-.23.024,1.659,1.659,0,0,1-1.205.242c-.182-.024-.363-.042-.581-.073a2.043,2.043,0,0,1,0,.273,17.667,17.667,0,0,1-.279,1.786,1.018,1.018,0,0,1-.945.781.847.847,0,0,1-.9-.569C302.493,106.841,302.493,106.841,301.96,106.6Zm.309-8.551a2.954,2.954,0,0,1-.539,1.98c-.079.121-.145.254-.212.375a1.587,1.587,0,0,0-.164,1.217,2.616,2.616,0,0,1-.279,2.18,2.548,2.548,0,0,0-.272,1.036c-.036.333.1.466.43.527a2.712,2.712,0,0,0,.388.036.366.366,0,0,1,.382.327c.121.551.424.7.939.46a1.928,1.928,0,0,0,.194-.1c.333-.164.484-.079.515.285.024.315.254.448.521.273a.941.941,0,0,0,.327-.394,1.892,1.892,0,0,0,.164-.654c.042-.933.079-1.865.085-2.8a2.738,2.738,0,0,1,.388-1.593,2.324,2.324,0,0,0,.406-1.435,4.5,4.5,0,0,1,.1-1.029,1.237,1.237,0,0,1,1.3-1.042,3.14,3.14,0,0,1,.412.03c.418.042.83.1,1.247.133.1.006.279-.067.3-.133a2,2,0,0,0-1.714-2.749,1.31,1.31,0,0,0-1.145.061,1.936,1.936,0,0,1-1.659.236,1.37,1.37,0,0,0-1.659.66A3.011,3.011,0,0,0,302.269,98.048Zm5.329,4.8a2.233,2.233,0,0,1-.969-1.108c-.067-.145-.085-.291.091-.369s.242.042.327.182a4.489,4.489,0,0,0,.545.763.382.382,0,0,0,.69-.091,4.775,4.775,0,0,0,.412-.9,1.025,1.025,0,0,1,.69-.836.337.337,0,0,0,.163-.521.6.6,0,0,0-.357-.194c-.484-.091-.484-.079-.406-.575.036-.218.048-.442.067-.606-.424-.067-.8-.127-1.181-.194a6.236,6.236,0,0,0-.739-.115.547.547,0,0,0-.66.466,4.169,4.169,0,0,0-.139,1.023,2.6,2.6,0,0,1-.509,1.677,1.865,1.865,0,0,0-.351,1.211.211.211,0,0,0,.1.164A2.769,2.769,0,0,0,307.6,102.85Zm5.42,5.426c.388.739.745,1.423,1.108,2.12a4.061,4.061,0,0,0,.309-.285c.236-.26.224-.5-.067-.69a.34.34,0,0,1-.127-.527c.091-.164.048-.279-.151-.309a.325.325,0,0,1-.309-.291.272.272,0,0,0-.309-.236A.541.541,0,0,0,313.018,108.276Zm-7.721-4.711c.018.139-.1.388.212.424a3.727,3.727,0,0,0,.86.024.676.676,0,0,0,.63-.448Z"
                                        transform="translate(0)" fill="#3f7830" />
                                    <path id="Tracé_9242" data-name="Tracé 9242"
                                        d="M378.594,307.341a6.207,6.207,0,0,1,.521-.539.465.465,0,0,1,.563-.073.521.521,0,0,1,.248.515c-.006.157-.042.315-.061.491.176-.018.333-.042.49-.061a.533.533,0,0,1,.624.7.423.423,0,0,0,.048.285.682.682,0,0,1,0,.733,1.5,1.5,0,0,1-1.308.824c-.375.006-.757,0-1.132.006a.276.276,0,0,0-.157.036,2.387,2.387,0,0,1-2.422.3,7.756,7.756,0,0,1-2.543-1.6c-.127-.115-.2-.248-.067-.394s.279-.079.4.036a8.841,8.841,0,0,0,2.023,1.441,2.223,2.223,0,0,0,1.938.061,1.086,1.086,0,0,0,.448-.442,2.111,2.111,0,0,0,.23-1.544c-.067-.315-.157-.357-.478-.388-.491-.042-.981-.079-1.459-.164a3.589,3.589,0,0,1-2.247-1.635.956.956,0,0,1-.157-.4c-.012-.067.073-.151.115-.23.073.036.176.055.212.115a3.368,3.368,0,0,0,2.822,1.756c.3.03.612.024.92.055C378.3,307.244,378.449,307.3,378.594,307.341Zm1.95.775c-.248.024-.442.054-.642.061-.412.012-.539-.164-.43-.557a1.994,1.994,0,0,0,.091-.375.283.283,0,0,0-.079-.206c-.03-.03-.145,0-.194.036a2.121,2.121,0,0,0-.357.382.545.545,0,0,0-.073.327,9.36,9.36,0,0,1,.1.993,6.676,6.676,0,0,1-.188,1.03c.333,0,.684.024,1.023-.006a1.129,1.129,0,0,0,.811-.551.312.312,0,0,0-.024-.43.9.9,0,0,1-.109-.412A1.56,1.56,0,0,1,380.544,308.116Z"
                                        transform="translate(-68.635 -198.326)" fill="#3f7830" />
                                    <path id="Tracé_9243" data-name="Tracé 9243"
                                        d="M408.268,175.571a2.27,2.27,0,0,1-.23.309c-.079.079-.182.2-.291.188a.316.316,0,0,1-.157-.309.813.813,0,0,1,.63-.654.593.593,0,0,1,.672.388,1.835,1.835,0,0,1,.151.575.253.253,0,0,1-.248.321c-.176.006-.242-.121-.273-.279-.036-.176-.091-.345-.139-.515A.779.779,0,0,0,408.268,175.571Z"
                                        transform="translate(-100.822 -76.003)" fill="#3f7830" />
                                    <path id="Tracé_9244" data-name="Tracé 9244"
                                        d="M514.91,261.478c.248-.3.491-.593.751-.884a.723.723,0,0,1,.279-.2c.091-.024.236-.018.279.042a.415.415,0,0,1-.018.315,1.312,1.312,0,0,1-.206.321c-.212.3-.43.593-.648.89-.055.073-.1.164-.176.2-.091.048-.224.1-.3.061a.326.326,0,0,1-.1-.279,2.1,2.1,0,0,1,.145-.442C514.922,261.5,514.916,261.49,514.91,261.478Z"
                                        transform="translate(-201.511 -156.127)" fill="#3f7830" />
                                    <path id="Tracé_9245" data-name="Tracé 9245"
                                        d="M491.5,249.492c.036-.018.127-.1.206-.1a.27.27,0,0,1,.188.182c.042.478.073.957.073,1.441a.284.284,0,0,1-.3.279c-.182,0-.236-.139-.272-.279A3.9,3.9,0,0,1,491.5,249.492Z"
                                        transform="translate(-179.522 -145.806)" fill="#3f7830" />
                                    <path id="Tracé_9246" data-name="Tracé 9246"
                                        d="M529.64,290.629a.287.287,0,0,1-.1-.491,2.171,2.171,0,0,1,1.181-.466c.176-.018.254.1.176.26a.589.589,0,0,1-.2.236,9.6,9.6,0,0,1-.86.442A.37.37,0,0,1,529.64,290.629Z"
                                        transform="translate(-215.29 -183.642)" fill="#3f7830" />
                                </g>
                            </svg>