<svg xmlns="http://www.w3.org/2000/svg" width="24.49" height="23.347"
                                viewBox="0 0 24.49 23.347">
                                <g id="sport" transform="translate(-0.066 -0.02)">
                                    <path id="Tracé_9226" data-name="Tracé 9226"
                                        d="M259.75,183.687c1.028.114,2.108.212,3.183.362a9.348,9.348,0,0,1,2.9.822,4.419,4.419,0,0,1,.9.578,1.627,1.627,0,0,1,.411,2.192,14.759,14.759,0,0,1-1.252,1.718c-.343.425-.744.8-1.13,1.213a.245.245,0,0,0,.043.069,5,5,0,0,1,1.66,3.915,5.98,5.98,0,0,1-1.915,4.546,5.038,5.038,0,0,1-2.8,1.213,9.127,9.127,0,0,1-4.218-.2,12.907,12.907,0,0,1-1.673-.762.307.307,0,0,0-.321-.016,9.862,9.862,0,0,1-5.243.922,8.248,8.248,0,0,1-3.848-1.148,6.665,6.665,0,0,1-3.214-5.223,6.283,6.283,0,0,1,1.272-4.634c.223-.29.49-.548.754-.836-.074-.049-.167-.1-.249-.168a5.481,5.481,0,0,1-2.068-3.631,2.513,2.513,0,0,1,1.165-2.466,6.889,6.889,0,0,1,2.695-1.08,20.18,20.18,0,0,1,5.7-.28,20.44,20.44,0,0,1,5.1,1.115,4.553,4.553,0,0,1,1.346.769A5.471,5.471,0,0,1,259.75,183.687Zm-6.5,11.283a2.554,2.554,0,0,1-.2.262,12.756,12.756,0,0,1-1.135,1.063,1.637,1.637,0,0,1-1.422.251,3.615,3.615,0,0,1-2.64-3.778,2.213,2.213,0,0,1,2.8-2.045c.141.055.251,0,.256-.147.006-.232.156-.308.336-.358a1.9,1.9,0,0,1,1.759.383,2.457,2.457,0,0,1,.822,1.2l1.152-1.463c-.151-.109-.32-.213-.469-.343a4.08,4.08,0,0,1-1.192-1.8.833.833,0,0,0-.8-.622,8.2,8.2,0,0,1-1.32-.3.451.451,0,0,1-.227-.322c-.01-.069.155-.171.256-.234a.479.479,0,0,1,.247-.055c.5.008,1,.023,1.5.036.222-1.451,1.4-1.96,2.608-2.456a1.317,1.317,0,0,0-.9-.5,31.935,31.935,0,0,0-5.272-.333,4.918,4.918,0,0,0-1.944.416,2.2,2.2,0,0,0-.692,3.641c.008,0,.019.006.025,0l.262-.1a7.266,7.266,0,0,1,3.37-.5c.188.016.322.089.318.29s-.143.274-.331.274a2,2,0,0,0-.231,0,18.567,18.567,0,0,0-1.907.218,5.41,5.41,0,0,0-4.29,6.474,6.237,6.237,0,0,0,5,4.974,12.635,12.635,0,0,0,3.734.075,6.932,6.932,0,0,0,2.228-.561A6.168,6.168,0,0,1,253.255,194.97Zm3.106-5.489c.206-.077.4-.153.59-.221a5.952,5.952,0,0,1,2.48-.281c.186.016.32.1.311.3s-.149.274-.337.265c-.086,0-.171,0-.257,0a5.833,5.833,0,0,0-2.138.364,4.566,4.566,0,0,0-3.058,4.849,5.121,5.121,0,0,0,3.816,4.438,8.6,8.6,0,0,0,4.418.034,3.342,3.342,0,0,0,2.1-1.13,5.341,5.341,0,0,0,1.111-4.439,5.035,5.035,0,0,0-4.212-3.966,7.2,7.2,0,0,1-1.135-.291.37.37,0,0,1-.2-.283c0-.079.128-.212.221-.234a3.245,3.245,0,0,1,.828-.121,5.258,5.258,0,0,1,1.837.53c.147.06.253.069.351-.075a10.63,10.63,0,0,0,.649-.919c.526-.959.185-1.673-.883-1.9a1.774,1.774,0,0,0-.227-.039c-1.05-.081-2.1-.175-3.152-.234a5.291,5.291,0,0,0-2.655.445,1.653,1.653,0,0,0-.985,1.655A2.49,2.49,0,0,0,256.361,189.481ZM246,187.9a6.618,6.618,0,0,1-.591-1.047,2.874,2.874,0,0,1,1.241-3.413,5.27,5.27,0,0,1,2.282-.717,22.311,22.311,0,0,1,5.556.152,2.562,2.562,0,0,1,1.918,1.056c.034.051.162.069.241.059.416-.051.829-.123,1.244-.175.266-.034.534-.047.8-.069l.033-.069a2.763,2.763,0,0,0-.462-.459,5.441,5.441,0,0,0-1-.5,21.178,21.178,0,0,0-6.564-1.176,14.33,14.33,0,0,0-4.023.4,5.575,5.575,0,0,0-2.752,1.455,1.493,1.493,0,0,0-.334.695,1.643,1.643,0,0,0,.231,1.137c.562,1,1.154,1.987,1.737,2.982Zm18.087,2.124c.669-.789,1.337-1.567,1.992-2.355a2.023,2.023,0,0,0,.284-.514.839.839,0,0,0-.316-1.146,4.911,4.911,0,0,0-1.051-.519,16.08,16.08,0,0,0-3.348-.747,15.246,15.246,0,0,0-4.807.029,5.642,5.642,0,0,0-2.8,1.256,1.024,1.024,0,0,0-.349.916,3.066,3.066,0,0,0,.518,1.352c.372.6.758,1.195,1.145,1.8l.319-.227c-.058-.069-.1-.111-.137-.156a2.335,2.335,0,0,1,.123-3.191,3.538,3.538,0,0,1,1.863-.97,16.14,16.14,0,0,1,5.717.1,1.8,1.8,0,0,1,1.563,2.027,3.243,3.243,0,0,1-.841,1.863c-.069.082-.14.162-.223.256ZM249.777,195.7c.092-.113.147-.178.2-.245a17.177,17.177,0,0,1,3.138-3.338.271.271,0,0,0,.038-.25,1.781,1.781,0,0,0-1.409-1.028.537.537,0,0,0-.371.1c-.681.544-1.35,1.1-2.024,1.658-.125.1-.243.308-.426.133s.014-.306.127-.416c.356-.343.721-.682,1.083-1.021.064-.06.132-.117.224-.2a2.079,2.079,0,0,0-1.948,1.363,2.248,2.248,0,0,0,.338,2.186c.374-.442.721-.91,1.127-1.32.66-.668,1.356-1.3,2.04-1.944a.268.268,0,1,1,.39.366c-.195.249-.382.506-.6.737a19.4,19.4,0,0,1-2.784,2.5Zm.532.169.006.089a4,4,0,0,0,.675.029,2.031,2.031,0,0,0,1.239-.719,3.817,3.817,0,0,0,1.068-2.279Z"
                                        transform="translate(-242.85 -177.102)" fill="#3f7830" />
                                    <path id="Tracé_9227" data-name="Tracé 9227"
                                        d="M413.68,129.958c.113-.425.219-.853.343-1.275a.728.728,0,0,1,.206-.343.435.435,0,0,1,.353-.1c.091.037.153.206.17.323a1.454,1.454,0,0,1-.044.43q-.105.617-.222,1.233a.661.661,0,0,1-.084.29c-.079.1-.206.214-.308.212a.406.406,0,0,1-.286-.228,2.2,2.2,0,0,1-.1-.521Z"
                                        transform="translate(-401.914 -128.21)" fill="#3f7830" />
                                    <path id="Tracé_9228" data-name="Tracé 9228"
                                        d="M559.339,193.31c.235.017.347.206.238.375a4.811,4.811,0,0,1-1.571,1.512.295.295,0,0,1-.382-.423c.469-.467.959-.915,1.449-1.358A.754.754,0,0,1,559.339,193.31Z"
                                        transform="translate(-535.964 -188.831)" fill="#3f7830" />
                                    <path id="Tracé_9229" data-name="Tracé 9229"
                                        d="M536.91,189a1.815,1.815,0,0,1,.53-1.37,1.259,1.259,0,0,1,.367-.174c.045.13.14.266.127.389a10.4,10.4,0,0,1-.193,1.028c-.036.166-.1.325-.145.491a.322.322,0,0,1-.636-.038C536.941,189.2,536.916,189.067,536.91,189Z"
                                        transform="translate(-516.701 -183.382)" fill="#3f7830" />
                                    <path id="Tracé_9230" data-name="Tracé 9230"
                                        d="M382.4,138.369c.025-.036.069-.169.157-.206a.308.308,0,0,1,.286.086c.288.46.568.928.817,1.409a.322.322,0,0,1-.161.438c-.186.095-.31-.016-.422-.141A4.252,4.252,0,0,1,382.4,138.369Z"
                                        transform="translate(-372.777 -137.457)" fill="#3f7830" />
                                    <path id="Tracé_9231" data-name="Tracé 9231"
                                        d="M508.409,196.28c0-.239.111-.328.343-.268a.692.692,0,0,1,.3.137,9.2,9.2,0,0,1,.784.806.464.464,0,0,1,.029.4.392.392,0,0,1-.309.158A1.593,1.593,0,0,1,508.409,196.28Z"
                                        transform="translate(-490.153 -191.331)" fill="#3f7830" />
                                    <path id="Tracé_9232" data-name="Tracé 9232"
                                        d="M434.543,151.223c-.287.008-.454-.217-.355-.438a2.467,2.467,0,0,1,.944-1.082c.166-.106.312-.026.314.17a.65.65,0,0,1-.079.343c-.2.306-.411.6-.633.891A.539.539,0,0,1,434.543,151.223Z"
                                        transform="translate(-420.991 -148.168)" fill="#3f7830" />
                                    <path id="Tracé_9233" data-name="Tracé 9233"
                                        d="M275.75,306.62a3.994,3.994,0,0,1,3.145-3.678,1.946,1.946,0,0,1,.586.008.214.214,0,0,1,.006.425c-1.644.1-2.816,1.781-2.965,3.446a1.225,1.225,0,0,1-.227.577c-.137.187-.364.125-.424-.1S275.788,306.846,275.75,306.62Z"
                                        transform="translate(-273.434 -290.935)" fill="#3f7830" />
                                    <path id="Tracé_9234" data-name="Tracé 9234"
                                        d="M281.459,377.755a.442.442,0,0,1-.43.423.424.424,0,0,1-.419-.425.443.443,0,0,1,.43-.422.42.42,0,0,1,.419.425Z"
                                        transform="translate(-277.961 -360.244)" fill="#3f7830" />
                                    <path id="Tracé_9235" data-name="Tracé 9235"
                                        d="M458.805,349.71a1.905,1.905,0,0,1-1.73-1.23,3.425,3.425,0,0,1,.041-3.023,1.8,1.8,0,0,1,1.648-1.077c.154,0,.332-.042.415.169.014.034.132.045.2.036a2.588,2.588,0,0,1,2.6,1.32,1.945,1.945,0,0,1,.069,1.754A3.563,3.563,0,0,1,458.805,349.71Zm-1.207-1.271a1.262,1.262,0,0,0,1.021.634,2.98,2.98,0,0,0,2.718-1.827,1.121,1.121,0,0,0-.3-1.283c-.591.411-1.17.8-1.734,1.2S458.18,348,457.6,348.439Zm2.775-2.937-.927-.217a2.848,2.848,0,0,1-.283.353,3.259,3.259,0,0,1-.493.367c-.462.274-.936.533-1.4.806-.068.04-.165.137-.156.193.062.363.149.721.234,1.1.508-.51.94-1,1.428-1.418s1.039-.778,1.6-1.188Zm-3.211.847,1.772-1.192-.111-.374a1.807,1.807,0,0,0-1.661,1.565Z"
                                        transform="translate(-442.028 -329.546)" fill="#3f7830" />
                                    <path id="Tracé_9236" data-name="Tracé 9236"
                                        d="M417.79,332.379a3.49,3.49,0,0,1,2.56-3.345,2.3,2.3,0,0,1,.637-.019.343.343,0,0,1,.235.206c.043.15-.074.23-.222.245a2.956,2.956,0,0,0-2.4,2.737,1.542,1.542,0,0,1-.163.558c-.148.274-.411.258-.543-.026A2.009,2.009,0,0,1,417.79,332.379Z"
                                        transform="translate(-405.743 -315.226)" fill="#3f7830" />
                                    <path id="Tracé_9237" data-name="Tracé 9237"
                                        d="M534.478,375.153a3.582,3.582,0,0,1-1.759,2.967c-.09.054-.274.082-.333.029-.146-.123-.007-.24.082-.343a5.024,5.024,0,0,0,1.218-2.721,1.13,1.13,0,0,1,.1-.391c.129-.24.364-.262.507-.033A2.306,2.306,0,0,1,534.478,375.153Z"
                                        transform="translate(-512.428 -357.61)" fill="#3f7830" />
                                    <path id="Tracé_9238" data-name="Tracé 9238"
                                        d="M543.173,359.272a.432.432,0,0,1-.423.447.452.452,0,0,1-.46-.446.443.443,0,1,1,.885,0Z"
                                        transform="translate(-521.713 -343.011)" fill="#3f7830" />
                                    <path id="Tracé_9239" data-name="Tracé 9239"
                                        d="M422.99,392.028a.425.425,0,0,1-.418.426.411.411,0,0,1-.415-.424.422.422,0,0,1,.43-.411A.411.411,0,0,1,422.99,392.028Z"
                                        transform="translate(-409.81 -373.554)" fill="#3f7830" />
                                    <path id="Tracé_9240" data-name="Tracé 9240"
                                        d="M485.117,388.707c-.074-.058-.154-.092-.18-.151a.235.235,0,0,1,.014-.206,5.677,5.677,0,0,1,1.554-1.4c.092-.046.229,0,.343,0-.025.124-.012.28-.084.365a3.811,3.811,0,0,1-.442.343c-.33.284-.653.577-.98.865C485.277,388.581,485.2,388.637,485.117,388.707Z"
                                        transform="translate(-468.274 -369.188)" fill="#3f7830" />
                                </g>
                            </svg>