<svg xmlns="http://www.w3.org/2000/svg" xmlns:xlink="http://www.w3.org/1999/xlink" width="110.605" height="106.851" viewBox="0 0 110.605 106.851">
    <defs>
      <filter id="Rectangle_76" x="0" y="0" width="110.605" height="106.851" filterUnits="userSpaceOnUse">
        <feOffset dx="4" dy="4" input="SourceAlpha"/>
        <feGaussianBlur stdDeviation="3" result="blur"/>
        <feFlood flood-color="#3f7830" flood-opacity="0.149"/>
        <feComposite operator="in" in2="blur"/>
        <feComposite in="SourceGraphic"/>
      </filter>
    </defs>
    <g transform="matrix(1, 0, 0, 1, 0, 0)" filter="url(#Rectangle_76)">
      <g id="Rectangle_76-2" data-name="Rectangle 76" transform="translate(5 5)" fill="rgba(248,248,221,0.8)" stroke="#e3ffd2" stroke-width="1">
        <rect width="92.605" height="88.851" rx="44.426" stroke="none"/>
        <rect x="0.5" y="0.5" width="91.605" height="87.851" rx="43.926" fill="none"/>
      </g>
    </g>
    <path id="scan" d="M5.793,3.862A1.931,1.931,0,0,0,3.862,5.793V17.379a1.931,1.931,0,0,1-3.862,0V5.793A5.793,5.793,0,0,1,5.793,0H17.379a1.931,1.931,0,1,1,0,3.862ZM42.482,1.931A1.931,1.931,0,0,1,44.413,0H56a5.793,5.793,0,0,1,5.793,5.793V17.379a1.931,1.931,0,0,1-3.862,0V5.793A1.931,1.931,0,0,0,56,3.862H44.413a1.931,1.931,0,0,1-1.931-1.931ZM1.931,42.482a1.931,1.931,0,0,1,1.931,1.931V56A1.931,1.931,0,0,0,5.793,57.93H17.379a1.931,1.931,0,1,1,0,3.862H5.793A5.793,5.793,0,0,1,0,56V44.413a1.931,1.931,0,0,1,1.931-1.931Zm57.93,0a1.931,1.931,0,0,1,1.931,1.931V56A5.793,5.793,0,0,1,56,61.792H44.413a1.931,1.931,0,0,1,0-3.862H56A1.931,1.931,0,0,0,57.93,56V44.413A1.931,1.931,0,0,1,59.861,42.482Zm-48.275-25.1a1.931,1.931,0,0,1,3.862,0V44.413a1.931,1.931,0,1,1-3.862,0Zm7.724,0a1.931,1.931,0,1,1,3.862,0V44.413a1.931,1.931,0,1,1-3.862,0Zm7.724,0a1.931,1.931,0,0,1,3.862,0V44.413a1.931,1.931,0,1,1-3.862,0Zm7.724,0a1.931,1.931,0,0,1,1.931-1.931h3.862a1.931,1.931,0,0,1,1.931,1.931V44.413a1.931,1.931,0,0,1-1.931,1.931H36.689a1.931,1.931,0,0,1-1.931-1.931Zm11.586,0a1.931,1.931,0,1,1,3.862,0V44.413a1.931,1.931,0,1,1-3.862,0Z" transform="translate(20.14 20.498)" fill="#8c4d20"/>
  </svg>
  