<svg xmlns="http://www.w3.org/2000/svg" width="5.682" height="25.685"
viewBox="0 0 5.682 25.685">
<g id="up-arrow" transform="translate(-394.722 -160.073)">
	<path id="Tracé_9247" data-name="Tracé 9247"
		d="M399.482,185.437a.667.667,0,0,1-.4-.542,32.842,32.842,0,0,1-.478-8c.1-1.848.287-3.712.414-5.559.191-2.612.366-5.225.542-7.837,0-.1.016-.191.016-.3-.048-.605.4-.892,1.131-.669-.239-.335-.43-.637-.685-.988-.335.685-.653,1.274-.908,1.9-.223.51-.382,1.035-.573,1.545-.032.1-.08.239-.159.271a1.062,1.062,0,0,1-.542.064c-.223-.048-.239-.239-.207-.43a10.1,10.1,0,0,1,1.274-3.568c.175-.3.35-.605.526-.892a.665.665,0,0,1,1.115-.1,9.047,9.047,0,0,1,2.278,3.982.588.588,0,0,1-.589.717.5.5,0,0,1-.605-.382c-.143-.414-.287-.844-.43-1.258a.933.933,0,0,0-.223-.35c0,.08-.016.175-.016.255-.143,2.756-.271,5.512-.43,8.267-.207,3.361-.462,6.722-.4,10.1.016,1.035.1,2.087.159,3.122a.582.582,0,0,1-.462.669A2.7,2.7,0,0,0,399.482,185.437Z"
		transform="translate(-2.437)" fill="#3f7830" />
	<path id="Tracé_9248" data-name="Tracé 9248"
		d="M412.308,203.143a1.2,1.2,0,0,1,.159.446c0,.143-.159.366-.271.366-.717,0-1.434-.016-2.166-.08-.223-.016-.43-.3-.43-.685a.457.457,0,0,1,.414-.526A4.329,4.329,0,0,1,412.308,203.143Z"
		transform="translate(-12.508 -35.786)" fill="#3f7830" />
	<path id="Tracé_9249" data-name="Tracé 9249"
		d="M410.208,224.548a1.2,1.2,0,0,1,.159.446c0,.143-.159.366-.271.366-.717,0-1.434-.016-2.166-.08-.223-.016-.43-.3-.43-.685a.457.457,0,0,1,.414-.526A4.485,4.485,0,0,1,410.208,224.548Z"
		transform="translate(-10.742 -53.782)" fill="#3f7830" />
	<path id="Tracé_9250" data-name="Tracé 9250"
		d="M410.208,244.348a1.2,1.2,0,0,1,.159.446c0,.143-.159.366-.271.366-.717,0-1.434-.016-2.166-.08-.223-.016-.43-.3-.43-.685a.457.457,0,0,1,.414-.526A4.485,4.485,0,0,1,410.208,244.348Z"
		transform="translate(-10.742 -70.428)" fill="#3f7830" />
	<path id="Tracé_9251" data-name="Tracé 9251"
		d="M408.308,262.148a1.2,1.2,0,0,1,.159.446c0,.143-.159.366-.271.366-.717,0-1.434-.016-2.166-.08-.223-.016-.43-.3-.43-.685a.457.457,0,0,1,.414-.526A4.486,4.486,0,0,1,408.308,262.148Z"
		transform="translate(-9.145 -85.393)" fill="#3f7830" />
	<path id="Tracé_9252" data-name="Tracé 9252"
		d="M408.388,280.071a1.207,1.207,0,0,1,.175.43c0,.143-.159.382-.255.382a19.591,19.591,0,0,1-2.166.048c-.223-.016-.43-.271-.446-.653a.5.5,0,0,1,.4-.558A4.6,4.6,0,0,1,408.388,280.071Z"
		transform="translate(-9.224 -100.56)" fill="#3f7830" />
	<path id="Tracé_9253" data-name="Tracé 9253"
		d="M408.308,295.743a1.2,1.2,0,0,1,.159.446c0,.143-.159.366-.271.366-.717,0-1.434-.016-2.166-.08-.223-.016-.43-.3-.43-.685a.457.457,0,0,1,.414-.526A4.329,4.329,0,0,1,408.308,295.743Z"
		transform="translate(-9.145 -113.636)" fill="#3f7830" />
	<path id="Tracé_9254" data-name="Tracé 9254"
		d="M399.1,313.689c.064.08.3.255.319.43.016.143-.207.382-.366.4-1.163.064-2.326.127-3.5.112a.833.833,0,0,1-.812-.637c-.08-.382.239-.494.573-.557A10.922,10.922,0,0,1,399.1,313.689Z"
		transform="translate(0 -128.873)" fill="#3f7830" />
</g>
</svg>