<svg fill="#3f7834" id="Calque_1" data-name="Calque 1" xmlns="http://www.w3.org/2000/svg" viewBox="0 0 324 340.66">
    <title>delete</title>
    <path
        d="M277.28,231.07l-2.38-.75c-15.54-4.92-19.69-19.57-10.85-33.42,13-20.34,32.79-28.41,54.86-32.73,9.27-1.81,18.83-2.28,28.28-3.07,2.89-.24,4.69-.94,6.09-3.73a57.57,57.57,0,0,1,15.28-18.74c18.17-14.84,40.71-14.29,58.07,2.13,5.34,5.05,9.31,11.63,13.58,17.73,1.36,1.94,2.37,3.15,5,3.62,16.18,3,32.47,5.58,48.4,9.6,14.35,3.62,25.76,12.32,34.16,24.72,4,5.85,4.95,12,1.88,18.4s-8.53,9.88-15.79,10.21c-1.87.08-3.73.21-6.08.35.6,5.95,1.14,11.74,1.76,17.52a1147.37,1147.37,0,0,1,6.43,154.16c-.37,13.1-5.89,24.36-14.6,34.07-1,1.11-2,2.18-3.45,3.73a20.76,20.76,0,0,1,3.95.68c3.08,1.23,6.57,2.05,9,4.08,6.18,5.07,5.46,13.23-1.79,16.51a85.62,85.62,0,0,1-18.95,5.49A384.12,384.12,0,0,1,353,463.22c-13.21-2.21-26-5.82-38.06-12-19.93-10.18-31.73-26.5-35-48.39a410,410,0,0,1-4.38-47c-.9-27.33-1.09-54.7-.9-82.05.09-13.21,1.72-26.41,2.63-39.62C277.34,233.28,277.28,232.29,277.28,231.07Zm16.89,1.81a24.49,24.49,0,0,0-.71,3.25c-1.09,13.44-2.55,26.87-3.12,40.34-1.63,38.65,1.22,77.19,3.28,115.75.32,5.91,1.06,12.11,3.18,17.56,8.14,20.89,24.76,31.15,46.1,34.75a343.64,343.64,0,0,0,83.68,3.55c13.54-1,27.23-2.24,40.42-5.26,24.22-5.56,40.62-25.48,41.21-48.58,1.29-50.92-1.43-101.68-6.67-152.31-.5-4.79-1.1-9.56-1.62-14.06C431.22,234.91,362.76,233,294.16,232.88Zm101.93-14.23v.8q58.28-1.09,116.57-2.17c4.36-.08,7.8-1.7,9.8-5.68s1-7.44-1.38-10.89a53.5,53.5,0,0,0-23.78-19.36,120.79,120.79,0,0,0-35.17-8.55c-23.11-2.23-46.24-4.78-69.42-5.56-17.42-.59-34.94,1.23-52.39,2.25-12.87.76-25.55,2.7-37.74,7.24-13.22,4.92-24.83,11.78-31.5,24.92-5,9.8-.66,17,10.3,17Q338.73,218.68,396.09,218.64Zm35.48-58.94c-4.45-12.43-21.9-24.21-35.59-23.73s-31.45,12.85-34.34,23.73Z"
        transform="translate(-259.47 -127.96)" />
    <path
        d="M548,211.19l30.51,2.72c2.67.24,5.19.91,5,4.25-.23,3.57-2.91,3.87-5.74,3.62l-33.12-3c-2.63-.24-4.27-1.57-4-4.33s2.19-3.68,4.78-3.47l2.6.24Z"
        transform="translate(-259.47 -127.96)" />
    <path
        d="M574.75,173.33a10.88,10.88,0,0,1-2.21,2.76c-9.12,6.5-18.31,12.91-27.52,19.31-2.14,1.49-4.31,1.47-5.86-.83-1.44-2.13-.76-4.1,1.24-5.51,9.36-6.6,18.72-13.21,28.18-19.66C571.42,167.46,574.71,169.25,574.75,173.33Z"
        transform="translate(-259.47 -127.96)" />
    <path
        d="M542.09,144.06c-.57,1.66-.85,2.62-1.22,3.54-3.73,9.25-7.51,18.48-11.18,27.75-1.11,2.79-2.72,4.81-5.86,3.48-3-1.26-2.56-3.8-1.51-6.37q5.89-14.36,11.65-28.77c.92-2.28,2.59-3.66,4.92-2.77C540.24,141.42,541.15,143.08,542.09,144.06Z"
        transform="translate(-259.47 -127.96)" />
    <path
        d="M444.36,339.25c.39-21,.58-42,1.27-63,.21-6.43,1.6-12.86,2.84-19.21.87-4.46,3.71-7.88,7.5-10.36,6.81-4.45,15-2,17.13,5.87,1.4,5.19,1.58,10.84,1.5,16.27-.34,23.1-1.17,46.2-1.44,69.31-.22,18.37.25,36.74.13,55.11a105.5,105.5,0,0,1-1.7,16.31,19.72,19.72,0,0,1-2.94,6.82c-5.46,8.84-15.43,9-20.24-.22a33,33,0,0,1-3.28-14.33c-.34-20.86-.15-41.73-.15-62.6Zm8.65,2.53h0c0,20.48-.06,41,.07,61.44a21.62,21.62,0,0,0,1.63,8.34c2,4.57,5,4.61,7.53.34a13.5,13.5,0,0,0,2-5.18,179.87,179.87,0,0,0,1.22-18.61c-.29-41-1.26-81.91,1.43-122.83a32.19,32.19,0,0,0-.95-9.62c-.86-3.52-3.68-4.42-6.14-1.8a16.67,16.67,0,0,0-4.35,7.94,138.86,138.86,0,0,0-2.31,21.54C452.81,302.82,453,322.3,453,341.78Z"
        transform="translate(-259.47 -127.96)" />
    <path
        d="M359.11,263c-3.15,43.27-2,86.51-1.88,129.74a73.29,73.29,0,0,1-1.9,15.16,20.93,20.93,0,0,1-3.73,7.67c-5.15,7-13.5,7.1-18.41-.13-2-3-3-6.78-3.87-10.35-.61-2.37-.37-5-.38-7.47-.14-34.12-.52-68.24-.24-102.35.1-12.44,1.62-24.89,2.86-37.3a17.93,17.93,0,0,1,7.51-12.93c7.14-5.23,15.7-2.65,18.2,5.82C358.42,254.77,358.53,259,359.11,263Zm-8-.71a79.2,79.2,0,0,0-1-8.15c-.95-4.25-4.13-5.33-7-2.05a16.73,16.73,0,0,0-3.93,8.19,187.08,187.08,0,0,0-2.31,24.95c-.23,38.46-.12,76.93,0,115.39a22.59,22.59,0,0,0,1.46,8c.65,1.65,2.48,3.79,3.93,3.9s3.68-2,4.12-3.51c1.4-4.86,3-9.91,3-14.88C349.25,350.21,348.2,306.26,351.13,262.32Z"
        transform="translate(-259.47 -127.96)" />
    <path
        d="M389.29,342.36c0-19.74-.29-39.49.14-59.22.18-8.18,1.65-16.36,3-24.48.78-4.88,3.79-8.66,8-11.33,6.56-4.19,14.41-1.86,16.75,5.55a45.43,45.43,0,0,1,1.8,14c-.38,36.6-1,73.19-1.52,109.79-.13,9.24,0,18.48-.4,27.7a24.48,24.48,0,0,1-5.63,14.82c-5.08,6.07-12.21,6.06-17.39.09-3.67-4.23-4.65-9.36-4.68-14.67-.09-20.74,0-41.49,0-62.23Zm8.2-1.8h-.55c0,19.48,0,39,0,58.44,0,3.49-.07,7.12.88,10.4.68,2.36,3,4.25,4.57,6.34,1.71-1.79,4.41-3.34,4.92-5.42a70.29,70.29,0,0,0,2.2-16.17c.16-25.6-.2-51.2,0-76.79.12-15.72,1-31.43,1.34-47.15a74.22,74.22,0,0,0-.77-13.75c-.59-3.52-3.5-4.39-6.11-1.92a13.42,13.42,0,0,0-4,6.46,98.71,98.71,0,0,0-2.37,18.14C397.32,299.62,397.49,320.09,397.49,340.56Z"
        transform="translate(-259.47 -127.96)" />
</svg>